<svg xmlns="http://www.w3.org/2000/svg" xmlns:xlink="http://www.w3.org/1999/xlink" width="70" zoomAndPan="magnify" viewBox="0 0 52.5 52.499999" height="70" preserveAspectRatio="xMidYMid meet" version="1.0"><defs><clipPath id="ce585f14fd"><path d="M 5.25 8.394531 L 48.75 8.394531 L 48.75 44.394531 L 5.25 44.394531 Z M 5.25 8.394531 " clip-rule="nonzero"/></clipPath></defs><g clip-path="url(#ce585f14fd)"><path fill="#b13511" d="M 8.757812 14.304688 L 9.601562 14.304688 L 9.601562 11.351562 C 9.601562 11.042969 9.851562 10.789062 10.160156 10.789062 L 16.335938 10.789062 C 16.644531 10.789062 16.898438 11.042969 16.898438 11.351562 L 16.898438 14.304688 L 19.03125 14.304688 C 19.757812 11.972656 20.589844 9.492188 23.097656 8.546875 C 25.496094 8.546875 27.898438 8.546875 30.300781 8.546875 C 33.074219 8.394531 34.285156 12.179688 34.972656 14.304688 L 45.242188 14.304688 C 47.171875 14.304688 48.75 15.886719 48.75 17.820312 L 48.75 40.878906 C 48.75 42.8125 47.171875 44.394531 45.242188 44.394531 L 8.757812 44.394531 C 6.828125 44.394531 5.25 42.8125 5.25 40.878906 L 5.25 17.820312 C 5.25 15.886719 6.828125 14.304688 8.757812 14.304688 Z M 15.210938 11.773438 L 15.210938 14.304688 L 15.773438 14.304688 L 15.773438 11.773438 Z M 14.652344 14.304688 L 14.652344 11.773438 L 14.089844 11.773438 L 14.089844 14.304688 Z M 13.527344 14.304688 L 13.527344 11.773438 L 12.96875 11.773438 L 12.96875 14.304688 Z M 12.40625 14.304688 L 12.40625 11.773438 L 11.84375 11.773438 L 11.84375 14.304688 Z M 11.285156 14.304688 L 11.285156 11.773438 L 10.722656 11.773438 L 10.722656 14.304688 Z M 23.351562 9.949219 C 28.027344 9.949219 30.367188 9.949219 30.367188 9.949219 C 31.492188 9.949219 32.503906 11.234375 33.453125 14.167969 C 33.453125 14.167969 29.152344 14.167969 20.546875 14.167969 C 21.289062 11.78125 22.222656 10.375 23.351562 9.949219 Z M 8.757812 15.710938 L 45.242188 15.710938 C 46.398438 15.710938 47.347656 16.660156 47.347656 17.820312 L 47.347656 40.878906 C 47.347656 42.039062 46.398438 42.988281 45.242188 42.988281 L 8.757812 42.988281 C 7.601562 42.988281 6.652344 42.039062 6.652344 40.878906 L 6.652344 17.820312 C 6.652344 16.660156 7.601562 15.710938 8.757812 15.710938 Z M 8.757812 15.710938 " fill-opacity="1" fill-rule="evenodd"/></g><path fill="#b13511" d="M 37.101562 17.257812 L 42.714844 17.257812 L 42.714844 20.070312 L 37.101562 20.070312 Z M 37.664062 17.820312 L 42.15625 17.820312 L 42.15625 19.507812 L 37.664062 19.507812 Z M 37.664062 17.820312 " fill-opacity="1" fill-rule="evenodd"/><path fill="#b13511" d="M 32.570312 21.757812 L 38.226562 21.757812 L 38.226562 22.320312 L 33.320312 22.320312 C 33.082031 22.121094 32.832031 21.933594 32.570312 21.757812 Z M 32.570312 21.757812 " fill-opacity="1" fill-rule="evenodd"/><path fill="#b13511" d="M 6.511719 21.757812 L 21.570312 21.757812 C 21.308594 21.933594 21.058594 22.121094 20.820312 22.320312 L 6.511719 22.320312 Z M 6.511719 21.757812 " fill-opacity="1" fill-rule="evenodd"/><path fill="#b13511" d="M 41.03125 21.757812 L 45.523438 21.757812 L 45.523438 22.320312 L 41.03125 22.320312 Z M 41.03125 21.757812 " fill-opacity="1" fill-rule="evenodd"/><path fill="#b13511" d="M 32.738281 37.949219 L 45.382812 37.949219 L 45.382812 38.769531 L 31.355469 38.769531 C 31.839844 38.535156 32.300781 38.257812 32.738281 37.949219 Z M 32.738281 37.949219 " fill-opacity="1" fill-rule="evenodd"/><path fill="#b13511" d="M 6.652344 37.949219 L 21.402344 37.949219 C 21.835938 38.257812 22.300781 38.535156 22.785156 38.769531 L 6.652344 38.769531 Z M 6.652344 37.949219 " fill-opacity="1" fill-rule="evenodd"/><path fill="#b13511" d="M 27.070312 23.515625 C 30.597656 23.515625 33.453125 26.378906 33.453125 29.910156 C 33.453125 33.445312 30.597656 36.308594 27.070312 36.308594 C 23.542969 36.308594 20.683594 33.445312 20.683594 29.910156 C 20.683594 26.378906 23.542969 23.515625 27.070312 23.515625 Z M 27.070312 24.359375 C 30.132812 24.359375 32.613281 26.84375 32.613281 29.910156 C 32.613281 32.980469 30.132812 35.464844 27.070312 35.464844 C 24.007812 35.464844 21.527344 32.980469 21.527344 29.910156 C 21.527344 26.84375 24.007812 24.359375 27.070312 24.359375 Z M 27.070312 24.359375 " fill-opacity="1" fill-rule="evenodd"/><path fill="#b13511" d="M 27.070312 20.070312 C 32.496094 20.070312 36.894531 24.476562 36.894531 29.910156 C 36.894531 35.347656 32.496094 39.753906 27.070312 39.753906 C 21.644531 39.753906 17.246094 35.347656 17.246094 29.910156 C 17.246094 24.476562 21.644531 20.070312 27.070312 20.070312 Z M 27.070312 21.367188 C 31.78125 21.367188 35.597656 25.191406 35.597656 29.910156 C 35.597656 34.628906 31.78125 38.457031 27.070312 38.457031 C 22.359375 38.457031 18.542969 34.628906 18.542969 29.910156 C 18.542969 25.191406 22.359375 21.367188 27.070312 21.367188 Z M 27.070312 21.367188 " fill-opacity="1" fill-rule="evenodd"/><path fill="#b13511" d="M 29.386719 26.699219 C 30.265625 26.699219 30.980469 27.414062 30.980469 28.292969 C 30.980469 29.175781 30.265625 29.890625 29.386719 29.890625 C 28.503906 29.890625 27.792969 29.175781 27.792969 28.292969 C 27.792969 27.414062 28.503906 26.699219 29.386719 26.699219 Z M 29.386719 26.90625 C 30.148438 26.90625 30.769531 27.527344 30.769531 28.292969 C 30.769531 29.0625 30.148438 29.679688 29.386719 29.679688 C 28.621094 29.679688 28 29.0625 28 28.292969 C 28 27.527344 28.621094 26.90625 29.386719 26.90625 Z M 29.386719 26.90625 " fill-opacity="1" fill-rule="evenodd"/></svg>