<svg xmlns="http://www.w3.org/2000/svg" xmlns:xlink="http://www.w3.org/1999/xlink" width="70" zoomAndPan="magnify" viewBox="0 0 52.5 52.499999" height="70" preserveAspectRatio="xMidYMid meet" version="1.0"><defs><clipPath id="207ff75059"><path d="M 5.066406 42 L 14 42 L 14 45 L 5.066406 45 Z M 5.066406 42 " clip-rule="nonzero"/></clipPath><clipPath id="38aa0563b7"><path d="M 37 42 L 45.566406 42 L 45.566406 45 L 37 45 Z M 37 42 " clip-rule="nonzero"/></clipPath><clipPath id="5309973666"><path d="M 33 5.25 L 36 5.25 L 36 8 L 33 8 Z M 33 5.25 " clip-rule="nonzero"/></clipPath></defs><path fill="#b13511" d="M 21.265625 18.011719 C 21.125 17.214844 21.035156 16.355469 21.019531 15.445312 L 18.089844 15.445312 C 18.128906 16.351562 18.328125 17.214844 18.660156 18.011719 Z M 21.265625 18.011719 " fill-opacity="1" fill-rule="nonzero"/><path fill="#b13511" d="M 21.265625 12.207031 L 18.660156 12.207031 C 18.328125 13.003906 18.128906 13.871094 18.089844 14.777344 L 21.019531 14.777344 C 21.035156 13.867188 21.125 13.007812 21.265625 12.207031 Z M 21.265625 12.207031 " fill-opacity="1" fill-rule="nonzero"/><path fill="#b13511" d="M 30.332031 14.777344 L 33.261719 14.777344 C 33.21875 13.871094 33.019531 13.007812 32.6875 12.210938 L 30.085938 12.210938 C 30.222656 13.007812 30.3125 13.867188 30.332031 14.777344 Z M 30.332031 14.777344 " fill-opacity="1" fill-rule="nonzero"/><path fill="#b13511" d="M 22.480469 21.980469 C 22.078125 21.082031 21.679688 19.96875 21.398438 18.679688 L 18.980469 18.679688 C 19.753906 20.125 20.984375 21.289062 22.480469 21.980469 Z M 22.480469 21.980469 " fill-opacity="1" fill-rule="nonzero"/><path fill="#b13511" d="M 29.65625 15.445312 L 26.011719 15.445312 L 26.011719 18.011719 L 29.398438 18.011719 C 29.542969 17.21875 29.636719 16.359375 29.65625 15.445312 Z M 29.65625 15.445312 " fill-opacity="1" fill-rule="nonzero"/><path fill="#b13511" d="M 29.261719 18.679688 L 26.011719 18.679688 L 26.011719 22.679688 C 26.6875 22.648438 27.339844 22.53125 27.960938 22.335938 C 28.421875 21.410156 28.921875 20.171875 29.261719 18.679688 Z M 29.261719 18.679688 " fill-opacity="1" fill-rule="nonzero"/><path fill="#b13511" d="M 27.960938 7.886719 C 27.339844 7.691406 26.6875 7.574219 26.011719 7.542969 L 26.011719 11.542969 L 29.261719 11.542969 C 28.921875 10.050781 28.421875 8.8125 27.960938 7.886719 Z M 27.960938 7.886719 " fill-opacity="1" fill-rule="nonzero"/><path fill="#b13511" d="M 32.371094 11.539062 C 31.59375 10.097656 30.363281 8.933594 28.871094 8.242188 C 29.273438 9.140625 29.671875 10.253906 29.953125 11.539062 Z M 32.371094 11.539062 " fill-opacity="1" fill-rule="nonzero"/><path fill="#b13511" d="M 29.398438 12.207031 L 26.011719 12.207031 L 26.011719 14.777344 L 29.65625 14.777344 C 29.636719 13.863281 29.542969 13.003906 29.398438 12.207031 Z M 29.398438 12.207031 " fill-opacity="1" fill-rule="nonzero"/><path fill="#b13511" d="M 25.335938 22.679688 L 25.335938 18.679688 L 22.089844 18.679688 C 22.429688 20.171875 22.929688 21.410156 23.390625 22.335938 C 24.007812 22.53125 24.660156 22.648438 25.335938 22.679688 Z M 25.335938 22.679688 " fill-opacity="1" fill-rule="nonzero"/><path fill="#b13511" d="M 33.261719 15.445312 L 30.332031 15.445312 C 30.3125 16.355469 30.222656 17.214844 30.085938 18.011719 L 32.6875 18.011719 C 33.019531 17.214844 33.21875 16.351562 33.261719 15.445312 Z M 33.261719 15.445312 " fill-opacity="1" fill-rule="nonzero"/><path fill="#b13511" d="M 25.335938 11.539062 L 25.335938 7.542969 C 24.660156 7.574219 24.007812 7.691406 23.390625 7.886719 C 22.929688 8.8125 22.429688 10.050781 22.089844 11.539062 Z M 25.335938 11.539062 " fill-opacity="1" fill-rule="nonzero"/><path fill="#b13511" d="M 28.871094 21.980469 C 30.363281 21.289062 31.59375 20.125 32.371094 18.683594 L 29.953125 18.683594 C 29.671875 19.96875 29.273438 21.082031 28.871094 21.980469 Z M 28.871094 21.980469 " fill-opacity="1" fill-rule="nonzero"/><path fill="#b13511" d="M 25.335938 15.445312 L 21.691406 15.445312 C 21.710938 16.359375 21.804688 17.21875 21.953125 18.011719 L 25.335938 18.011719 Z M 25.335938 15.445312 " fill-opacity="1" fill-rule="nonzero"/><path fill="#b13511" d="M 22.480469 8.242188 C 20.984375 8.933594 19.753906 10.097656 18.980469 11.542969 L 21.398438 11.542969 C 21.679688 10.253906 22.078125 9.140625 22.480469 8.242188 Z M 22.480469 8.242188 " fill-opacity="1" fill-rule="nonzero"/><path fill="#b13511" d="M 25.335938 12.207031 L 21.953125 12.207031 C 21.804688 13.003906 21.710938 13.863281 21.691406 14.777344 L 25.335938 14.777344 Z M 25.335938 12.207031 " fill-opacity="1" fill-rule="nonzero"/><path fill="#b13511" d="M 36.191406 41.746094 L 35.121094 39.539062 L 30.359375 39.539062 L 31.046875 41.746094 Z M 36.191406 41.746094 " fill-opacity="1" fill-rule="nonzero"/><path fill="#b13511" d="M 33.902344 37.019531 L 29.574219 37.019531 L 30.148438 38.871094 L 34.796875 38.871094 Z M 33.902344 37.019531 " fill-opacity="1" fill-rule="nonzero"/><path fill="#b13511" d="M 33.578125 36.351562 L 33.03125 35.222656 L 29.015625 35.222656 L 29.367188 36.351562 Z M 33.578125 36.351562 " fill-opacity="1" fill-rule="nonzero"/><path fill="#b13511" d="M 39.300781 36.351562 L 38.480469 35.222656 L 33.78125 35.222656 L 34.328125 36.351562 Z M 39.300781 36.351562 " fill-opacity="1" fill-rule="nonzero"/><path fill="#b13511" d="M 43.214844 41.746094 L 41.613281 39.539062 L 35.867188 39.539062 L 36.9375 41.746094 Z M 43.214844 41.746094 " fill-opacity="1" fill-rule="nonzero"/><path fill="#b13511" d="M 35.546875 38.871094 L 41.125 38.871094 L 39.785156 37.019531 L 34.652344 37.019531 Z M 35.546875 38.871094 " fill-opacity="1" fill-rule="nonzero"/><path fill="#b13511" d="M 25.652344 38.871094 L 29.445312 38.871094 L 28.867188 37.019531 L 25.652344 37.019531 Z M 25.652344 38.871094 " fill-opacity="1" fill-rule="nonzero"/><path fill="#b13511" d="M 25.652344 35.222656 L 25.652344 36.351562 L 28.660156 36.351562 L 28.308594 35.222656 Z M 25.652344 35.222656 " fill-opacity="1" fill-rule="nonzero"/><path fill="#b13511" d="M 25.652344 41.746094 L 30.339844 41.746094 L 29.652344 39.539062 L 25.652344 39.539062 Z M 25.652344 41.746094 " fill-opacity="1" fill-rule="nonzero"/><path fill="#b13511" d="M 20.289062 41.746094 L 24.976562 41.746094 L 24.976562 39.539062 L 20.976562 39.539062 Z M 20.289062 41.746094 " fill-opacity="1" fill-rule="nonzero"/><path fill="#b13511" d="M 19.28125 44.980469 L 24.976562 44.980469 L 24.976562 42.414062 L 20.082031 42.414062 Z M 19.28125 44.980469 " fill-opacity="1" fill-rule="nonzero"/><path fill="#b13511" d="M 14.117188 42.414062 L 12.871094 44.980469 L 18.578125 44.980469 L 19.375 42.414062 Z M 14.117188 42.414062 " fill-opacity="1" fill-rule="nonzero"/><g clip-path="url(#207ff75059)"><path fill="#b13511" d="M 6.929688 42.414062 L 5.066406 44.980469 L 12.125 44.980469 L 13.367188 42.414062 Z M 6.929688 42.414062 " fill-opacity="1" fill-rule="nonzero"/></g><g clip-path="url(#38aa0563b7)"><path fill="#b13511" d="M 43.699219 42.414062 L 37.261719 42.414062 L 38.503906 44.980469 L 45.5625 44.980469 Z M 43.699219 42.414062 " fill-opacity="1" fill-rule="nonzero"/></g><path fill="#b13511" d="M 21.183594 38.871094 L 24.976562 38.871094 L 24.976562 37.019531 L 21.757812 37.019531 Z M 21.183594 38.871094 " fill-opacity="1" fill-rule="nonzero"/><path fill="#b13511" d="M 31.253906 42.414062 L 32.050781 44.980469 L 37.757812 44.980469 L 36.511719 42.414062 Z M 31.253906 42.414062 " fill-opacity="1" fill-rule="nonzero"/><path fill="#b13511" d="M 13.691406 41.746094 L 14.761719 39.539062 L 9.015625 39.539062 L 7.414062 41.746094 Z M 13.691406 41.746094 " fill-opacity="1" fill-rule="nonzero"/><path fill="#b13511" d="M 25.652344 42.414062 L 25.652344 44.980469 L 31.347656 44.980469 L 30.546875 42.414062 Z M 25.652344 42.414062 " fill-opacity="1" fill-rule="nonzero"/><path fill="#b13511" d="M 21.96875 36.351562 L 24.976562 36.351562 L 24.976562 35.222656 L 22.320312 35.222656 Z M 21.96875 36.351562 " fill-opacity="1" fill-rule="nonzero"/><path fill="#b13511" d="M 14.4375 41.746094 L 19.582031 41.746094 L 20.269531 39.539062 L 15.507812 39.539062 Z M 14.4375 41.746094 " fill-opacity="1" fill-rule="nonzero"/><path fill="#b13511" d="M 11.328125 36.351562 L 16.300781 36.351562 L 16.847656 35.222656 L 12.148438 35.222656 Z M 11.328125 36.351562 " fill-opacity="1" fill-rule="nonzero"/><path fill="#b13511" d="M 21.054688 37.019531 L 16.726562 37.019531 L 15.832031 38.871094 L 20.480469 38.871094 Z M 21.054688 37.019531 " fill-opacity="1" fill-rule="nonzero"/><path fill="#b13511" d="M 21.613281 35.222656 L 17.597656 35.222656 L 17.050781 36.351562 L 21.261719 36.351562 Z M 21.613281 35.222656 " fill-opacity="1" fill-rule="nonzero"/><path fill="#b13511" d="M 15.976562 37.019531 L 10.84375 37.019531 L 9.503906 38.871094 L 15.082031 38.871094 Z M 15.976562 37.019531 " fill-opacity="1" fill-rule="nonzero"/><path fill="#b13511" d="M 14.816406 10.507812 C 14.949219 10.257812 15.128906 10.007812 15.382812 9.785156 C 15.5 9.679688 15.628906 9.589844 15.761719 9.507812 C 15.628906 9.425781 15.5 9.332031 15.382812 9.230469 C 15.128906 9.007812 14.949219 8.757812 14.816406 8.507812 C 14.683594 8.757812 14.503906 9.007812 14.25 9.230469 C 14.132812 9.332031 14.003906 9.425781 13.871094 9.507812 C 14.003906 9.589844 14.132812 9.679688 14.25 9.785156 C 14.503906 10.007812 14.683594 10.257812 14.816406 10.507812 Z M 14.816406 10.507812 " fill-opacity="1" fill-rule="nonzero"/><g clip-path="url(#5309973666)"><path fill="#b13511" d="M 34.730469 7.269531 C 34.863281 7.023438 35.046875 6.769531 35.296875 6.546875 C 35.414062 6.445312 35.542969 6.351562 35.675781 6.269531 C 35.542969 6.191406 35.414062 6.097656 35.296875 5.992188 C 35.046875 5.769531 34.863281 5.519531 34.730469 5.269531 C 34.597656 5.519531 34.417969 5.769531 34.164062 5.992188 C 34.046875 6.097656 33.921875 6.191406 33.785156 6.269531 C 33.921875 6.351562 34.046875 6.445312 34.164062 6.546875 C 34.417969 6.769531 34.597656 7.023438 34.730469 7.269531 Z M 34.730469 7.269531 " fill-opacity="1" fill-rule="nonzero"/></g><path fill="#b13511" d="M 38.367188 17.113281 C 38.5 16.855469 38.6875 16.597656 38.949219 16.367188 C 39.066406 16.261719 39.199219 16.164062 39.339844 16.082031 C 39.199219 15.996094 39.070312 15.902344 38.949219 15.796875 C 38.6875 15.566406 38.5 15.308594 38.367188 15.050781 C 38.234375 15.308594 38.046875 15.566406 37.785156 15.796875 C 37.664062 15.902344 37.535156 15.996094 37.394531 16.082031 C 37.535156 16.164062 37.664062 16.261719 37.785156 16.367188 C 38.046875 16.597656 38.234375 16.855469 38.367188 17.113281 Z M 38.367188 17.113281 " fill-opacity="1" fill-rule="nonzero"/><path fill="#b13511" d="M 19.167969 23.703125 C 19.042969 23.925781 18.878906 24.148438 18.652344 24.351562 C 18.550781 24.441406 18.441406 24.519531 18.324219 24.59375 C 18.441406 24.664062 18.550781 24.746094 18.652344 24.835938 C 18.878906 25.035156 19.042969 25.261719 19.167969 25.484375 C 19.289062 25.261719 19.457031 25.035156 19.683594 24.835938 C 19.785156 24.746094 19.894531 24.664062 20.011719 24.59375 C 19.894531 24.519531 19.785156 24.441406 19.683594 24.351562 C 19.457031 24.148438 19.289062 23.925781 19.167969 23.703125 Z M 19.167969 23.703125 " fill-opacity="1" fill-rule="nonzero"/><path fill="#b13511" d="M 33 23.105469 L 33.375 25.292969 C 33.332031 25.285156 33.289062 25.273438 33.242188 25.265625 C 32.882812 25.203125 32.539062 25.257812 32.324219 25.410156 C 32.191406 25.503906 32.109375 25.628906 32.082031 25.777344 C 32.019531 26.171875 32.410156 26.53125 33.011719 26.632812 C 33.109375 26.648438 33.203125 26.65625 33.292969 26.65625 C 33.546875 26.65625 33.773438 26.597656 33.933594 26.484375 C 34.066406 26.390625 34.148438 26.265625 34.171875 26.121094 C 34.179688 26.0625 34.179688 26.007812 34.167969 25.953125 C 34.167969 25.949219 34.171875 25.945312 34.171875 25.941406 L 33.71875 23.324219 L 34.808594 23.136719 C 34.992188 23.105469 35.117188 22.933594 35.085938 22.75 C 35.054688 22.570312 34.878906 22.445312 34.695312 22.476562 L 33.273438 22.722656 C 33.089844 22.753906 32.96875 22.925781 33 23.105469 Z M 33.125 25.972656 C 33.035156 25.957031 32.960938 25.9375 32.898438 25.910156 C 32.964844 25.90625 33.042969 25.90625 33.132812 25.921875 C 33.222656 25.9375 33.296875 25.960938 33.355469 25.988281 C 33.292969 25.992188 33.214844 25.988281 33.125 25.972656 Z M 33.125 25.972656 " fill-opacity="1" fill-rule="nonzero"/><path fill="#b13511" d="M 11.046875 25.710938 C 11.140625 25.726562 11.234375 25.734375 11.328125 25.734375 C 11.578125 25.734375 11.808594 25.671875 11.964844 25.5625 C 12.097656 25.46875 12.179688 25.34375 12.203125 25.199219 C 12.214844 25.140625 12.210938 25.085938 12.203125 25.03125 C 12.203125 25.027344 12.203125 25.023438 12.203125 25.019531 L 11.753906 22.398438 L 12.84375 22.210938 C 13.027344 22.179688 13.148438 22.007812 13.117188 21.828125 C 13.085938 21.644531 12.914062 21.523438 12.726562 21.554688 L 11.308594 21.796875 C 11.125 21.828125 11 22 11.03125 22.183594 L 11.40625 24.371094 C 11.363281 24.359375 11.320312 24.347656 11.273438 24.339844 C 10.914062 24.28125 10.570312 24.335938 10.355469 24.488281 C 10.222656 24.582031 10.140625 24.707031 10.117188 24.851562 C 10.050781 25.246094 10.441406 25.609375 11.046875 25.710938 Z M 11.164062 25 C 11.253906 25.015625 11.328125 25.039062 11.386719 25.0625 C 11.324219 25.066406 11.246094 25.066406 11.15625 25.050781 C 11.066406 25.035156 10.992188 25.011719 10.933594 24.988281 C 10.996094 24.984375 11.074219 24.984375 11.164062 25 Z M 11.164062 25 " fill-opacity="1" fill-rule="nonzero"/><path fill="#b13511" d="M 6.960938 17.777344 C 7.058594 17.792969 7.152344 17.800781 7.242188 17.800781 C 7.496094 17.800781 7.722656 17.742188 7.882812 17.628906 C 8.015625 17.535156 8.097656 17.410156 8.121094 17.265625 C 8.128906 17.207031 8.128906 17.152344 8.117188 17.097656 C 8.117188 17.09375 8.121094 17.089844 8.121094 17.085938 L 7.613281 14.140625 C 7.582031 13.957031 7.410156 13.835938 7.226562 13.867188 C 7.042969 13.898438 6.917969 14.070312 6.949219 14.25 L 7.324219 16.4375 C 7.28125 16.429688 7.238281 16.417969 7.191406 16.410156 C 6.832031 16.347656 6.488281 16.402344 6.273438 16.554688 C 6.140625 16.648438 6.058594 16.773438 6.035156 16.921875 C 5.96875 17.316406 6.359375 17.675781 6.960938 17.777344 Z M 7.082031 17.066406 C 7.171875 17.082031 7.246094 17.105469 7.304688 17.128906 C 7.242188 17.136719 7.164062 17.132812 7.074219 17.117188 C 6.984375 17.101562 6.910156 17.078125 6.851562 17.054688 C 6.914062 17.050781 6.992188 17.054688 7.082031 17.066406 Z M 7.082031 17.066406 " fill-opacity="1" fill-rule="nonzero"/><path fill="#b13511" d="M 40.765625 26.542969 C 40.996094 26.667969 41.238281 26.734375 41.449219 26.734375 C 41.535156 26.734375 41.613281 26.722656 41.6875 26.703125 C 41.839844 26.65625 41.960938 26.566406 42.03125 26.433594 C 42.058594 26.386719 42.074219 26.332031 42.082031 26.277344 C 42.082031 26.273438 42.085938 26.269531 42.085938 26.265625 L 42.570312 23.3125 C 42.597656 23.132812 42.472656 22.960938 42.289062 22.929688 C 42.101562 22.898438 41.933594 23.023438 41.902344 23.207031 L 41.546875 25.394531 C 41.507812 25.371094 41.472656 25.347656 41.429688 25.324219 C 41.109375 25.152344 40.765625 25.09375 40.511719 25.167969 C 40.355469 25.214844 40.238281 25.304688 40.167969 25.433594 C 39.976562 25.789062 40.226562 26.253906 40.765625 26.542969 Z M 41.109375 25.914062 C 41.1875 25.957031 41.253906 26.003906 41.300781 26.042969 C 41.238281 26.027344 41.167969 26 41.089844 25.957031 C 41.007812 25.914062 40.945312 25.867188 40.898438 25.828125 C 40.957031 25.84375 41.03125 25.871094 41.109375 25.914062 Z M 41.109375 25.914062 " fill-opacity="1" fill-rule="nonzero"/><path fill="#b13511" d="M 26.488281 31.363281 C 26.570312 31.363281 26.648438 31.351562 26.722656 31.328125 C 26.878906 31.285156 26.996094 31.191406 27.066406 31.0625 C 27.09375 31.011719 27.109375 30.957031 27.121094 30.902344 C 27.121094 30.898438 27.125 30.894531 27.125 30.890625 L 27.605469 27.941406 C 27.605469 27.929688 27.605469 27.921875 27.605469 27.914062 C 27.605469 27.890625 27.605469 27.871094 27.601562 27.847656 C 27.597656 27.824219 27.597656 27.804688 27.589844 27.785156 C 27.582031 27.765625 27.574219 27.746094 27.5625 27.730469 C 27.554688 27.710938 27.542969 27.691406 27.527344 27.675781 C 27.515625 27.660156 27.5 27.648438 27.484375 27.632812 C 27.464844 27.617188 27.449219 27.605469 27.425781 27.59375 C 27.417969 27.589844 27.414062 27.582031 27.40625 27.582031 L 24.882812 26.5 C 24.785156 26.460938 24.679688 26.464844 24.585938 26.515625 C 24.496094 26.566406 24.433594 26.652344 24.417969 26.753906 L 24.058594 28.945312 C 24.023438 28.921875 23.984375 28.894531 23.945312 28.875 C 23.625 28.699219 23.28125 28.640625 23.027344 28.714844 C 22.871094 28.761719 22.75 28.855469 22.679688 28.984375 C 22.488281 29.335938 22.742188 29.804688 23.28125 30.09375 C 23.511719 30.21875 23.75 30.28125 23.964844 30.28125 C 24.046875 30.28125 24.125 30.273438 24.199219 30.25 C 24.355469 30.207031 24.472656 30.113281 24.542969 29.984375 C 24.570312 29.933594 24.585938 29.878906 24.597656 29.824219 C 24.597656 29.820312 24.601562 29.816406 24.601562 29.8125 L 25.011719 27.285156 L 26.898438 28.089844 L 26.582031 30.023438 C 26.546875 30 26.507812 29.972656 26.46875 29.953125 C 26.144531 29.777344 25.804688 29.71875 25.550781 29.792969 C 25.394531 29.839844 25.273438 29.933594 25.203125 30.0625 C 25.011719 30.414062 25.265625 30.878906 25.800781 31.171875 C 26.035156 31.296875 26.273438 31.363281 26.488281 31.363281 Z M 23.601562 29.503906 C 23.523438 29.460938 23.460938 29.417969 23.410156 29.375 C 23.472656 29.390625 23.542969 29.417969 23.621094 29.460938 C 23.703125 29.503906 23.765625 29.550781 23.8125 29.589844 C 23.753906 29.574219 23.679688 29.546875 23.601562 29.503906 Z M 26.144531 30.539062 C 26.226562 30.582031 26.289062 30.628906 26.335938 30.671875 C 26.277344 30.652344 26.203125 30.628906 26.125 30.585938 C 26.046875 30.542969 25.984375 30.496094 25.933594 30.453125 C 25.996094 30.46875 26.066406 30.496094 26.144531 30.539062 Z M 26.144531 30.539062 " fill-opacity="1" fill-rule="nonzero"/></svg>