<svg xmlns="http://www.w3.org/2000/svg" xmlns:xlink="http://www.w3.org/1999/xlink" width="70" zoomAndPan="magnify" viewBox="0 0 52.5 52.499999" height="70" preserveAspectRatio="xMidYMid meet" version="1.0"><defs><clipPath id="0cfe8b4ff6"><path d="M 6.636719 2.9375 L 45.636719 2.9375 L 45.636719 49.4375 L 6.636719 49.4375 Z M 6.636719 2.9375 " clip-rule="nonzero"/></clipPath></defs><path fill="#b13511" d="M 25.355469 6.449219 C 25.34375 6.460938 25.335938 6.46875 25.324219 6.480469 C 25.304688 6.507812 25.304688 6.507812 25.355469 6.449219 Z M 25.355469 6.449219 " fill-opacity="1" fill-rule="nonzero"/><g clip-path="url(#0cfe8b4ff6)"><path fill="#b13511" d="M 45.457031 47.488281 C 45.429688 46.929688 45.519531 46.148438 45.269531 45.632812 C 45.226562 45.546875 45.105469 45.519531 45.050781 45.605469 C 44.722656 45.472656 43.386719 45.535156 43.273438 45.539062 C 43.136719 45.539062 42.996094 45.535156 42.855469 45.53125 C 43.070312 44.734375 43.023438 43.816406 43.058594 42.996094 C 43.132812 41.3125 43.082031 39.621094 43.042969 37.9375 C 43 35.945312 42.921875 33.957031 42.863281 31.964844 C 42.808594 30.019531 42.898438 28.035156 42.707031 26.101562 C 42.722656 26.097656 42.734375 26.097656 42.746094 26.09375 C 42.78125 26.085938 42.800781 26.046875 42.792969 26.011719 C 42.628906 25.398438 41.503906 25.019531 40.992188 24.734375 C 40.085938 24.230469 39.167969 23.75 38.257812 23.253906 C 37.414062 22.789062 36.515625 22.351562 35.738281 21.777344 C 35.527344 21.621094 34.996094 21.070312 34.609375 21.039062 C 34.605469 20.507812 34.640625 19.992188 34.578125 19.449219 C 34.476562 18.554688 34.554688 17.664062 34.464844 16.773438 C 34.453125 16.679688 34.382812 16.613281 34.304688 16.585938 C 33.886719 16.207031 33.277344 16.050781 32.792969 15.75 C 32.167969 15.371094 31.523438 15.023438 30.894531 14.65625 C 29.742188 13.980469 28.613281 13.265625 27.476562 12.566406 C 27.476562 12.558594 27.476562 12.546875 27.476562 12.539062 C 27.464844 12.382812 27.457031 12.214844 27.398438 12.074219 C 27.453125 11.644531 27.390625 11.121094 27.398438 10.832031 C 27.414062 10.136719 27.523438 9.300781 27.378906 8.589844 C 27.378906 8.59375 27.382812 8.59375 27.386719 8.59375 C 27.777344 8.59375 28.171875 8.570312 28.558594 8.546875 C 28.882812 8.523438 29.25 8.539062 29.554688 8.417969 C 30.039062 8.476562 30.609375 7.910156 30.507812 7.410156 C 30.472656 7.234375 30.339844 6.992188 30.160156 6.789062 C 30.128906 6.699219 30.050781 6.617188 29.976562 6.570312 C 29.941406 6.550781 29.90625 6.535156 29.867188 6.523438 C 29.730469 6.429688 29.585938 6.378906 29.453125 6.394531 C 29.433594 6.371094 29.410156 6.355469 29.382812 6.34375 C 29.015625 6.199219 28.511719 6.300781 28.128906 6.316406 C 27.984375 6.320312 27.617188 6.285156 27.363281 6.347656 C 27.46875 5.527344 27.691406 3.644531 27.046875 3.441406 C 27.003906 3.378906 26.957031 3.316406 26.902344 3.273438 C 26.738281 3.140625 26.558594 3.054688 26.363281 3.007812 C 26.328125 2.988281 26.289062 2.972656 26.238281 2.972656 C 26.203125 2.972656 26.167969 2.972656 26.132812 2.976562 C 26.097656 2.972656 26.0625 2.972656 26.03125 2.972656 C 25.980469 2.972656 25.9375 2.988281 25.90625 3.007812 C 25.710938 3.054688 25.53125 3.140625 25.367188 3.273438 C 25.210938 3.402344 25.078125 3.644531 25.089844 3.863281 C 25.078125 3.871094 25.066406 3.882812 25.058594 3.894531 C 24.839844 4.273438 24.933594 4.84375 24.941406 5.265625 C 24.941406 5.527344 24.855469 6.109375 25.003906 6.382812 C 24.757812 6.273438 24.304688 6.324219 24.140625 6.316406 C 23.753906 6.300781 23.253906 6.199219 22.882812 6.34375 C 22.855469 6.355469 22.835938 6.371094 22.816406 6.394531 C 22.367188 6.34375 21.835938 7.035156 21.761719 7.410156 C 21.660156 7.910156 22.230469 8.476562 22.714844 8.417969 C 23.019531 8.539062 23.386719 8.523438 23.707031 8.546875 C 24.097656 8.570312 24.492188 8.59375 24.882812 8.59375 C 24.886719 8.59375 24.886719 8.59375 24.890625 8.589844 C 24.746094 9.300781 24.851562 10.136719 24.871094 10.832031 C 24.878906 11.21875 24.769531 12.019531 24.964844 12.457031 C 23.769531 13.191406 22.585938 13.945312 21.375 14.65625 C 20.742188 15.023438 20.101562 15.371094 19.476562 15.75 C 18.988281 16.050781 18.382812 16.207031 17.964844 16.585938 C 17.882812 16.613281 17.816406 16.679688 17.804688 16.773438 C 17.714844 17.664062 17.792969 18.554688 17.691406 19.449219 C 17.625 19.992188 17.664062 20.507812 17.660156 21.039062 C 17.273438 21.070312 16.742188 21.621094 16.53125 21.777344 C 15.753906 22.351562 14.855469 22.789062 14.007812 23.253906 C 13.101562 23.75 12.179688 24.230469 11.277344 24.734375 C 10.765625 25.019531 9.636719 25.398438 9.476562 26.011719 C 9.46875 26.046875 9.484375 26.085938 9.523438 26.09375 C 9.535156 26.097656 9.546875 26.097656 9.558594 26.101562 C 9.371094 28.035156 9.460938 30.019531 9.40625 31.964844 C 9.347656 33.957031 9.269531 35.945312 9.222656 37.9375 C 9.1875 39.621094 9.136719 41.3125 9.210938 42.996094 C 9.246094 43.816406 9.199219 44.734375 9.410156 45.53125 C 9.269531 45.535156 9.128906 45.539062 8.992188 45.539062 C 8.882812 45.535156 7.542969 45.472656 7.21875 45.605469 C 7.160156 45.519531 7.039062 45.546875 6.996094 45.632812 C 6.75 46.148438 6.835938 46.929688 6.8125 47.488281 C 6.792969 47.898438 6.632812 48.527344 6.816406 48.933594 C 6.746094 49.046875 6.800781 49.246094 6.964844 49.253906 C 10.117188 49.40625 13.308594 49.238281 16.464844 49.195312 C 19.480469 49.152344 22.5 49.054688 25.515625 49.140625 C 25.558594 49.167969 25.609375 49.183594 25.671875 49.179688 C 25.824219 49.171875 25.980469 49.167969 26.132812 49.164062 C 26.289062 49.167969 26.441406 49.171875 26.597656 49.179688 C 26.65625 49.183594 26.707031 49.167969 26.75 49.140625 C 29.765625 49.054688 32.789062 49.152344 35.804688 49.195312 C 38.960938 49.238281 42.152344 49.40625 45.304688 49.253906 C 45.464844 49.246094 45.519531 49.046875 45.453125 48.933594 C 45.636719 48.527344 45.476562 47.898438 45.457031 47.488281 Z M 29.449219 47.519531 C 29.441406 47.8125 29.347656 48.257812 29.425781 48.582031 C 28.328125 48.582031 27.230469 48.59375 26.132812 48.636719 C 25.039062 48.59375 23.941406 48.582031 22.84375 48.582031 C 22.921875 48.257812 22.828125 47.8125 22.820312 47.519531 C 22.792969 46.648438 22.789062 45.777344 22.789062 44.90625 C 22.789062 43.949219 22.804688 42.988281 22.828125 42.03125 C 22.84375 41.230469 22.933594 40.40625 22.867188 39.605469 C 23.160156 38.90625 23.257812 38.222656 23.796875 37.621094 C 24.429688 36.914062 25.277344 36.722656 26.132812 36.457031 C 26.992188 36.722656 27.839844 36.914062 28.472656 37.621094 C 29.011719 38.222656 29.105469 38.90625 29.402344 39.605469 C 29.335938 40.40625 29.421875 41.230469 29.441406 42.03125 C 29.464844 42.988281 29.480469 43.949219 29.476562 44.90625 C 29.476562 45.777344 29.472656 46.648438 29.449219 47.519531 Z M 31.617188 42.824219 C 31.621094 44.070312 31.628906 45.320312 31.628906 46.570312 C 31.628906 47.179688 31.496094 47.984375 31.648438 48.597656 C 31.054688 48.589844 30.464844 48.585938 29.871094 48.582031 C 29.980469 48.222656 29.90625 47.671875 29.910156 47.347656 C 29.929688 46.535156 29.9375 45.722656 29.9375 44.910156 C 29.933594 43.949219 29.917969 42.984375 29.890625 42.023438 C 29.863281 41.167969 29.886719 40.265625 29.707031 39.417969 C 29.800781 38.65625 29.347656 37.804688 28.820312 37.296875 C 28.125 36.621094 27.121094 36.148438 26.132812 36.25 C 25.148438 36.148438 24.144531 36.621094 23.449219 37.296875 C 22.921875 37.804688 22.46875 38.65625 22.5625 39.417969 C 22.378906 40.265625 22.40625 41.167969 22.378906 42.023438 C 22.347656 42.984375 22.335938 43.949219 22.332031 44.910156 C 22.332031 45.722656 22.339844 46.535156 22.359375 47.347656 C 22.363281 47.671875 22.285156 48.222656 22.398438 48.582031 C 21.804688 48.585938 21.210938 48.589844 20.621094 48.597656 C 20.773438 47.984375 20.636719 47.179688 20.640625 46.570312 C 20.640625 45.320312 20.648438 44.070312 20.652344 42.824219 C 20.65625 41.585938 20.660156 40.347656 20.628906 39.109375 C 20.625 39.03125 20.636719 38.039062 20.5 37.585938 C 20.792969 37.492188 21.003906 37.175781 21.207031 36.960938 C 21.652344 36.496094 22.117188 36.058594 22.585938 35.617188 C 23.257812 34.976562 23.933594 34.34375 24.601562 33.699219 C 25.085938 33.222656 25.699219 32.730469 26.015625 32.117188 C 26.085938 32.136719 26.167969 32.125 26.238281 32.09375 C 26.550781 32.71875 27.175781 33.21875 27.667969 33.699219 C 28.332031 34.34375 29.011719 34.976562 29.683594 35.617188 C 30.152344 36.058594 30.617188 36.496094 31.0625 36.960938 C 31.265625 37.175781 31.472656 37.492188 31.769531 37.585938 C 31.632812 38.039062 31.644531 39.03125 31.640625 39.109375 C 31.609375 40.347656 31.613281 41.585938 31.617188 42.824219 Z M 31.375 36.429688 C 30.898438 35.933594 30.394531 35.464844 29.890625 34.996094 C 29.210938 34.355469 28.523438 33.722656 27.84375 33.082031 C 27.398438 32.660156 26.972656 32.15625 26.421875 31.867188 C 26.421875 31.863281 26.417969 31.863281 26.414062 31.863281 C 26.4375 31.660156 26.375 31.421875 26.371094 31.226562 C 26.355469 30.746094 26.355469 30.265625 26.351562 29.785156 C 26.351562 29.746094 26.351562 29.707031 26.355469 29.667969 C 26.695312 29.679688 27.042969 29.667969 27.371094 29.609375 C 27.6875 29.550781 27.660156 29.058594 27.335938 29.042969 C 27.027344 29.03125 26.714844 29.042969 26.402344 29.042969 C 26.433594 28.589844 26.421875 28.105469 26.144531 27.90625 C 26.128906 27.894531 26.105469 27.894531 26.089844 27.902344 C 25.78125 28.070312 25.738281 28.558594 25.742188 29.023438 C 25.4375 29.003906 25.121094 28.984375 24.828125 29.042969 C 24.667969 29.074219 24.585938 29.332031 24.75 29.417969 C 25.058594 29.578125 25.417969 29.613281 25.765625 29.632812 C 25.769531 29.675781 25.769531 29.71875 25.769531 29.753906 C 25.753906 30.453125 25.730469 31.179688 25.832031 31.875 C 25.292969 32.164062 24.867188 32.664062 24.425781 33.082031 C 23.746094 33.722656 23.058594 34.355469 22.375 34.996094 C 21.875 35.464844 21.371094 35.933594 20.894531 36.429688 C 20.644531 36.691406 20.191406 37.003906 20.175781 37.394531 C 20.171875 37.410156 20.175781 37.425781 20.175781 37.441406 C 20.0625 37.53125 20.0625 37.628906 20.050781 37.828125 C 20.019531 38.417969 20.035156 39.015625 20.035156 39.609375 C 20.039062 40.765625 20.046875 41.925781 20.046875 43.085938 C 20.042969 44.246094 20.039062 45.402344 20.039062 46.558594 C 20.039062 47.179688 19.90625 47.988281 20.058594 48.605469 C 19.023438 48.621094 17.988281 48.640625 16.953125 48.652344 C 13.714844 48.691406 10.441406 48.609375 7.207031 48.839844 C 7.347656 48.476562 7.277344 47.960938 7.296875 47.617188 C 7.320312 47.097656 7.445312 46.402344 7.3125 45.859375 C 7.789062 46.148438 9.066406 46.019531 9.441406 46.03125 C 10.171875 46.046875 11.019531 46.136719 11.792969 46.046875 C 13.09375 46.191406 14.441406 46.097656 15.75 46.109375 C 17.03125 46.117188 18.417969 46.296875 19.683594 46.058594 C 19.832031 46.03125 19.804688 45.800781 19.667969 45.773438 C 18.417969 45.542969 17.046875 45.675781 15.777344 45.667969 C 14.746094 45.660156 13.679688 45.609375 12.636719 45.6875 C 12.625 45.648438 12.59375 45.613281 12.539062 45.601562 C 11.703125 45.398438 10.75 45.46875 9.84375 45.511719 C 9.917969 45.261719 9.878906 44.984375 9.863281 44.726562 C 9.832031 44.164062 9.796875 43.605469 9.769531 43.042969 C 9.691406 41.363281 9.746094 39.667969 9.78125 37.988281 C 9.824219 36 9.890625 34.015625 9.941406 32.03125 C 9.992188 30.0625 10.152344 28.019531 9.921875 26.058594 C 10.015625 26.019531 10.113281 25.957031 10.242188 25.886719 C 10.726562 25.625 11.207031 25.359375 11.695312 25.101562 C 12.621094 24.609375 13.546875 24.125 14.46875 23.628906 C 15.246094 23.210938 16.082031 22.800781 16.789062 22.273438 C 17.132812 22.015625 17.570312 21.792969 17.832031 21.445312 C 17.949219 21.484375 18.09375 21.449219 18.144531 21.316406 C 18.203125 21.15625 18.195312 21.019531 18.183594 20.847656 C 18.148438 20.398438 18.175781 19.964844 18.21875 19.519531 C 18.308594 18.644531 18.339844 17.78125 18.246094 16.910156 C 18.65625 16.679688 19.117188 16.523438 19.53125 16.296875 C 20.164062 15.941406 20.789062 15.574219 21.417969 15.214844 C 22.757812 14.449219 24.050781 13.609375 25.367188 12.804688 C 25.519531 12.707031 25.5 12.546875 25.40625 12.445312 C 25.53125 12.039062 25.363281 11.402344 25.351562 11.042969 C 25.316406 10.167969 25.472656 9.132812 25.238281 8.289062 C 25.214844 8.195312 25.113281 8.164062 25.039062 8.203125 C 25 8.164062 24.9375 8.140625 24.882812 8.140625 C 24.539062 8.132812 24.199219 8.125 23.855469 8.113281 C 23.484375 8.105469 23.066406 8.039062 22.703125 8.132812 C 22.507812 7.921875 22.191406 7.710938 22.28125 7.429688 C 22.394531 7.078125 22.84375 6.996094 22.992188 6.703125 C 23.351562 6.8125 23.800781 6.773438 24.160156 6.796875 C 24.378906 6.808594 25.167969 6.992188 25.167969 6.59375 C 25.167969 6.5625 25.160156 6.535156 25.148438 6.511719 C 25.207031 6.53125 25.273438 6.523438 25.324219 6.480469 C 25.351562 6.433594 25.421875 6.320312 25.429688 6.265625 C 25.457031 6.054688 25.429688 5.828125 25.421875 5.617188 C 25.414062 5.164062 25.5 4.460938 25.308594 4.019531 C 25.429688 3.882812 25.515625 3.71875 25.660156 3.589844 C 25.789062 3.476562 25.964844 3.433594 26.132812 3.425781 C 26.304688 3.433594 26.480469 3.476562 26.609375 3.589844 C 26.753906 3.71875 26.839844 3.882812 26.960938 4.019531 C 26.769531 4.460938 26.855469 5.164062 26.84375 5.617188 C 26.839844 5.828125 26.8125 6.054688 26.839844 6.265625 C 26.84375 6.308594 26.886719 6.382812 26.917969 6.4375 C 26.917969 6.441406 26.917969 6.445312 26.917969 6.453125 C 26.917969 6.449219 26.917969 6.449219 26.914062 6.449219 C 26.917969 6.449219 26.917969 6.449219 26.917969 6.453125 C 26.917969 6.476562 26.914062 6.496094 26.921875 6.523438 C 26.921875 6.527344 26.925781 6.53125 26.925781 6.535156 C 26.921875 6.570312 26.917969 6.605469 26.914062 6.636719 C 26.914062 6.839844 27.144531 6.910156 27.257812 6.808594 C 27.5 6.902344 27.953125 6.804688 28.105469 6.796875 C 28.347656 6.78125 28.625 6.792969 28.886719 6.769531 C 29.035156 6.867188 29.253906 6.898438 29.398438 6.929688 C 29.445312 6.941406 29.503906 6.960938 29.5625 6.988281 C 29.734375 7.105469 29.921875 7.21875 29.988281 7.429688 C 30 7.460938 30.003906 7.492188 30.003906 7.523438 C 29.949219 7.585938 29.90625 7.652344 29.847656 7.71875 C 29.738281 7.832031 29.570312 7.878906 29.421875 7.917969 C 29.171875 7.976562 28.792969 7.925781 28.597656 8.105469 C 28.535156 8.109375 28.472656 8.113281 28.414062 8.113281 C 28.070312 8.125 27.726562 8.132812 27.382812 8.140625 C 27.332031 8.140625 27.269531 8.164062 27.230469 8.203125 C 27.15625 8.164062 27.054688 8.195312 27.027344 8.289062 C 26.796875 9.132812 26.949219 10.167969 26.917969 11.042969 C 26.90625 11.402344 26.738281 12.039062 26.863281 12.445312 C 26.765625 12.546875 26.75 12.707031 26.902344 12.804688 C 28.214844 13.609375 29.511719 14.449219 30.851562 15.214844 C 31.480469 15.574219 32.105469 15.941406 32.738281 16.296875 C 33.148438 16.523438 33.613281 16.679688 34.019531 16.910156 C 33.925781 17.78125 33.957031 18.644531 34.046875 19.519531 C 34.09375 19.964844 34.121094 20.398438 34.085938 20.847656 C 34.074219 21.019531 34.0625 21.15625 34.125 21.316406 C 34.175781 21.449219 34.316406 21.484375 34.4375 21.445312 C 34.699219 21.792969 35.136719 22.015625 35.476562 22.273438 C 36.1875 22.800781 37.023438 23.210938 37.800781 23.628906 C 38.722656 24.125 39.648438 24.609375 40.574219 25.101562 C 41.0625 25.359375 41.542969 25.625 42.027344 25.886719 C 42.15625 25.957031 42.25 26.019531 42.347656 26.058594 C 42.117188 28.019531 42.277344 30.0625 42.328125 32.03125 C 42.378906 34.015625 42.445312 36 42.488281 37.988281 C 42.523438 39.667969 42.578125 41.363281 42.5 43.042969 C 42.472656 43.605469 42.4375 44.164062 42.40625 44.726562 C 42.390625 44.984375 42.347656 45.261719 42.425781 45.511719 C 41.519531 45.46875 40.566406 45.398438 39.730469 45.601562 C 39.671875 45.613281 39.636719 45.652344 39.625 45.699219 C 38.398438 45.632812 37.160156 45.632812 35.929688 45.632812 C 35.09375 45.636719 34.257812 45.652344 33.417969 45.6875 C 32.976562 45.703125 32.585938 45.652344 32.230469 45.917969 C 32.226562 44.972656 32.222656 44.03125 32.222656 43.085938 C 32.21875 41.925781 32.230469 40.765625 32.230469 39.609375 C 32.234375 39.015625 32.25 38.417969 32.21875 37.828125 C 32.207031 37.628906 32.203125 37.53125 32.089844 37.441406 C 32.09375 37.425781 32.09375 37.410156 32.09375 37.394531 C 32.078125 37.003906 31.625 36.691406 31.375 36.429688 Z M 35.3125 48.652344 C 34.28125 48.640625 33.246094 48.621094 32.210938 48.605469 C 32.363281 47.988281 32.230469 47.179688 32.230469 46.558594 C 32.230469 46.398438 32.230469 46.242188 32.230469 46.082031 C 32.234375 46.082031 32.234375 46.085938 32.238281 46.089844 C 33.039062 46.519531 34.648438 46.164062 35.550781 46.148438 C 37.046875 46.128906 38.558594 46.148438 40.042969 45.972656 C 40.925781 46.171875 41.957031 46.050781 42.828125 46.03125 C 43.203125 46.019531 44.480469 46.148438 44.957031 45.859375 C 44.824219 46.402344 44.949219 47.097656 44.972656 47.617188 C 44.988281 47.960938 44.921875 48.476562 45.0625 48.839844 C 41.828125 48.609375 38.554688 48.691406 35.3125 48.652344 Z M 35.3125 48.652344 " fill-opacity="1" fill-rule="nonzero"/></g><path fill="#b13511" d="M 17.941406 39.457031 C 17.964844 39.410156 17.96875 39.347656 17.949219 39.28125 C 17.59375 38.203125 16.808594 37.464844 15.640625 37.441406 C 14.78125 37.421875 13.808594 38.199219 13.644531 39.066406 C 13.464844 39.414062 13.535156 39.910156 13.53125 40.285156 C 13.523438 40.910156 13.515625 41.535156 13.507812 42.160156 C 13.5 42.734375 13.496094 43.308594 13.503906 43.882812 C 13.507812 44.234375 13.449219 44.65625 13.644531 44.964844 C 13.679688 45.019531 13.742188 45.046875 13.800781 45.03125 C 14.339844 45.140625 14.90625 45.078125 15.453125 45.074219 C 16.160156 45.066406 16.875 45.101562 17.578125 45.046875 C 17.578125 45.046875 17.582031 45.046875 17.582031 45.046875 C 17.636719 45.097656 17.726562 45.097656 17.773438 45.03125 C 17.980469 44.730469 17.925781 44.347656 17.941406 43.992188 C 17.964844 43.453125 17.980469 42.917969 17.992188 42.378906 C 18.011719 41.464844 18.148438 40.371094 17.941406 39.457031 Z M 15.683594 44.566406 C 15.113281 44.574219 14.507812 44.535156 13.945312 44.65625 C 13.96875 44.40625 13.9375 44.148438 13.933594 43.898438 C 13.929688 43.324219 13.933594 42.75 13.941406 42.175781 C 13.945312 41.550781 13.957031 40.925781 13.964844 40.300781 C 13.96875 39.949219 14.046875 39.460938 13.902344 39.113281 C 14.246094 38.628906 14.535156 38.183594 15.175781 37.972656 C 16.292969 37.605469 17.089844 38.527344 17.484375 39.441406 C 17.507812 39.492188 17.539062 39.53125 17.578125 39.554688 C 17.433594 40.460938 17.554688 41.476562 17.542969 42.375 C 17.535156 42.910156 17.519531 43.449219 17.496094 43.984375 C 17.492188 44.179688 17.457031 44.378906 17.460938 44.574219 C 16.871094 44.535156 16.273438 44.558594 15.683594 44.566406 Z M 15.683594 44.566406 " fill-opacity="1" fill-rule="nonzero"/><path fill="#b13511" d="M 38.503906 39.457031 C 38.523438 39.410156 38.53125 39.347656 38.507812 39.28125 C 38.152344 38.203125 37.371094 37.464844 36.203125 37.441406 C 35.34375 37.421875 34.371094 38.199219 34.203125 39.066406 C 34.027344 39.414062 34.097656 39.910156 34.09375 40.285156 C 34.085938 40.910156 34.074219 41.535156 34.066406 42.160156 C 34.058594 42.734375 34.058594 43.308594 34.0625 43.882812 C 34.066406 44.234375 34.011719 44.65625 34.203125 44.964844 C 34.238281 45.019531 34.304688 45.046875 34.359375 45.03125 C 34.898438 45.140625 35.46875 45.078125 36.015625 45.074219 C 36.722656 45.066406 37.4375 45.101562 38.140625 45.046875 C 38.195312 45.097656 38.285156 45.097656 38.332031 45.03125 C 38.542969 44.730469 38.484375 44.347656 38.5 43.992188 C 38.527344 43.453125 38.539062 42.917969 38.550781 42.378906 C 38.574219 41.464844 38.710938 40.371094 38.503906 39.457031 Z M 36.246094 44.566406 C 35.671875 44.574219 35.066406 44.535156 34.503906 44.65625 C 34.53125 44.40625 34.496094 44.148438 34.496094 43.898438 C 34.488281 43.324219 34.496094 42.75 34.5 42.175781 C 34.507812 41.550781 34.515625 40.925781 34.523438 40.300781 C 34.53125 39.949219 34.609375 39.460938 34.460938 39.113281 C 34.808594 38.628906 35.09375 38.183594 35.738281 37.972656 C 36.855469 37.605469 37.648438 38.527344 38.046875 39.441406 C 38.066406 39.492188 38.101562 39.53125 38.140625 39.554688 C 37.996094 40.460938 38.117188 41.476562 38.101562 42.375 C 38.09375 42.910156 38.078125 43.449219 38.058594 43.984375 C 38.050781 44.179688 38.019531 44.378906 38.019531 44.574219 C 37.429688 44.535156 36.835938 44.558594 36.246094 44.566406 Z M 36.246094 44.566406 " fill-opacity="1" fill-rule="nonzero"/><path fill="#b13511" d="M 28.222656 18.03125 C 28.246094 17.980469 28.25 17.921875 28.226562 17.855469 C 27.871094 16.777344 27.089844 16.035156 25.921875 16.011719 C 25.0625 15.996094 24.089844 16.769531 23.921875 17.636719 C 23.746094 17.984375 23.816406 18.480469 23.8125 18.855469 C 23.804688 19.480469 23.792969 20.109375 23.785156 20.734375 C 23.78125 21.308594 23.777344 21.882812 23.78125 22.457031 C 23.785156 22.808594 23.730469 23.226562 23.921875 23.539062 C 23.957031 23.59375 24.023438 23.617188 24.078125 23.601562 C 24.617188 23.714844 25.1875 23.652344 25.734375 23.648438 C 26.441406 23.640625 27.15625 23.675781 27.859375 23.621094 C 27.859375 23.621094 27.859375 23.621094 27.863281 23.621094 C 27.914062 23.671875 28.007812 23.671875 28.054688 23.601562 C 28.261719 23.304688 28.203125 22.917969 28.222656 22.566406 C 28.246094 22.027344 28.261719 21.488281 28.273438 20.949219 C 28.292969 20.035156 28.429688 18.945312 28.222656 18.03125 Z M 25.964844 23.140625 C 25.394531 23.144531 24.785156 23.105469 24.222656 23.230469 C 24.25 22.980469 24.21875 22.722656 24.214844 22.46875 C 24.207031 21.898438 24.214844 21.320312 24.222656 20.75 C 24.226562 20.121094 24.238281 19.496094 24.246094 18.871094 C 24.25 18.523438 24.328125 18.03125 24.183594 17.6875 C 24.527344 17.203125 24.816406 16.757812 25.457031 16.546875 C 26.574219 16.175781 27.367188 17.101562 27.765625 18.011719 C 27.789062 18.066406 27.820312 18.101562 27.859375 18.128906 C 27.714844 19.03125 27.835938 20.050781 27.824219 20.949219 C 27.816406 21.484375 27.796875 22.019531 27.777344 22.558594 C 27.769531 22.75 27.738281 22.953125 27.738281 23.144531 C 27.152344 23.109375 26.554688 23.132812 25.964844 23.140625 Z M 25.964844 23.140625 " fill-opacity="1" fill-rule="nonzero"/><path fill="#b13511" d="M 25.953125 16.324219 C 25.328125 16.773438 24.777344 17.414062 24.351562 18.050781 C 24.328125 18.089844 24.375 18.140625 24.410156 18.105469 C 24.972656 17.582031 25.535156 16.988281 26.007812 16.378906 C 26.035156 16.34375 25.988281 16.300781 25.953125 16.324219 Z M 25.953125 16.324219 " fill-opacity="1" fill-rule="nonzero"/><path fill="#b13511" d="M 26.492188 16.65625 C 26.0625 17.042969 25.636719 17.429688 25.210938 17.824219 C 24.789062 18.207031 24.324219 18.578125 23.984375 19.042969 C 23.949219 19.089844 24.011719 19.136719 24.054688 19.105469 C 24.46875 18.808594 24.820312 18.417969 25.191406 18.066406 C 25.65625 17.628906 26.121094 17.1875 26.554688 16.714844 C 26.585938 16.679688 26.527344 16.625 26.492188 16.65625 Z M 26.492188 16.65625 " fill-opacity="1" fill-rule="nonzero"/><path fill="#b13511" d="M 26.949219 16.96875 C 25.996094 17.835938 24.929688 18.683594 24.140625 19.707031 C 24.109375 19.746094 24.164062 19.796875 24.199219 19.765625 C 25.203125 18.953125 26.144531 17.996094 27.046875 17.070312 C 27.113281 17.003906 27.015625 16.90625 26.949219 16.96875 Z M 26.949219 16.96875 " fill-opacity="1" fill-rule="nonzero"/><path fill="#b13511" d="M 27.160156 17.691406 C 26.039062 18.667969 24.703125 19.542969 23.816406 20.753906 C 23.769531 20.816406 23.867188 20.890625 23.921875 20.835938 C 24.996094 19.773438 26.136719 18.808594 27.257812 17.792969 C 27.328125 17.734375 27.230469 17.632812 27.160156 17.691406 Z M 27.160156 17.691406 " fill-opacity="1" fill-rule="nonzero"/><path fill="#b13511" d="M 27.265625 18.527344 C 26.140625 19.628906 24.855469 20.609375 23.816406 21.792969 C 23.792969 21.820312 23.835938 21.863281 23.863281 21.839844 C 25.105469 20.875 26.285156 19.765625 27.394531 18.648438 C 27.472656 18.566406 27.34375 18.453125 27.265625 18.527344 Z M 27.265625 18.527344 " fill-opacity="1" fill-rule="nonzero"/><path fill="#b13511" d="M 27.75 18.890625 C 27.179688 19.507812 26.566406 20.070312 25.933594 20.617188 C 25.359375 21.117188 24.707031 21.582031 24.226562 22.179688 C 24.195312 22.214844 24.246094 22.273438 24.285156 22.25 C 25.59375 21.417969 26.859375 20.1875 27.871094 19.007812 C 27.941406 18.925781 27.824219 18.8125 27.75 18.890625 Z M 27.75 18.890625 " fill-opacity="1" fill-rule="nonzero"/><path fill="#b13511" d="M 27.683594 19.855469 C 26.679688 20.757812 25.355469 21.640625 24.640625 22.808594 C 24.609375 22.859375 24.671875 22.917969 24.71875 22.878906 C 25.292969 22.414062 25.789062 21.84375 26.332031 21.34375 C 26.828125 20.890625 27.332031 20.445312 27.816406 19.972656 C 27.898438 19.894531 27.769531 19.78125 27.683594 19.855469 Z M 27.683594 19.855469 " fill-opacity="1" fill-rule="nonzero"/><path fill="#b13511" d="M 27.992188 20.492188 C 27.546875 20.953125 27.078125 21.390625 26.601562 21.820312 C 26.125 22.246094 25.574219 22.648438 25.195312 23.164062 C 25.152344 23.222656 25.234375 23.296875 25.292969 23.261719 C 25.828125 22.921875 26.304688 22.445312 26.773438 22.019531 C 27.257812 21.582031 27.714844 21.125 28.109375 20.605469 C 28.171875 20.523438 28.066406 20.414062 27.992188 20.492188 Z M 27.992188 20.492188 " fill-opacity="1" fill-rule="nonzero"/><path fill="#b13511" d="M 27.464844 21.78125 C 27.265625 21.988281 27.0625 22.1875 26.851562 22.386719 C 26.667969 22.5625 26.421875 22.757812 26.300781 22.980469 C 26.273438 23.039062 26.324219 23.117188 26.390625 23.09375 C 26.640625 23.003906 26.847656 22.769531 27.039062 22.589844 C 27.25 22.390625 27.441406 22.164062 27.636719 21.945312 C 27.726562 21.84375 27.558594 21.683594 27.464844 21.78125 Z M 27.464844 21.78125 " fill-opacity="1" fill-rule="nonzero"/><path fill="#b13511" d="M 15.808594 37.6875 C 15.132812 38.191406 14.421875 38.832031 14.070312 39.617188 C 14.058594 39.648438 14.101562 39.683594 14.128906 39.660156 C 14.75 39.070312 15.257812 38.363281 15.886719 37.773438 C 15.945312 37.722656 15.871094 37.644531 15.808594 37.6875 Z M 15.808594 37.6875 " fill-opacity="1" fill-rule="nonzero"/><path fill="#b13511" d="M 16.34375 37.953125 C 15.847656 38.371094 15.375 38.808594 14.917969 39.269531 C 14.527344 39.667969 14.082031 40.097656 13.820312 40.59375 C 13.792969 40.648438 13.851562 40.707031 13.902344 40.667969 C 14.339844 40.300781 14.699219 39.820312 15.089844 39.40625 C 15.527344 38.941406 15.984375 38.496094 16.4375 38.050781 C 16.5 37.988281 16.410156 37.898438 16.34375 37.953125 Z M 16.34375 37.953125 " fill-opacity="1" fill-rule="nonzero"/><path fill="#b13511" d="M 16.761719 38.523438 C 16.238281 38.996094 15.714844 39.46875 15.210938 39.960938 C 14.742188 40.421875 14.121094 40.953125 13.875 41.574219 C 13.855469 41.621094 13.921875 41.660156 13.960938 41.628906 C 14.433594 41.25 14.796875 40.683594 15.21875 40.242188 C 15.75 39.6875 16.3125 39.164062 16.859375 38.625 C 16.921875 38.5625 16.828125 38.464844 16.761719 38.523438 Z M 16.761719 38.523438 " fill-opacity="1" fill-rule="nonzero"/><path fill="#b13511" d="M 17.199219 39.210938 C 16.613281 39.746094 16.039062 40.289062 15.484375 40.851562 C 14.992188 41.351562 14.433594 41.875 14.097656 42.496094 C 14.070312 42.542969 14.121094 42.597656 14.167969 42.5625 C 14.660156 42.179688 15.0625 41.667969 15.492188 41.21875 C 16.097656 40.589844 16.722656 39.976562 17.34375 39.367188 C 17.429688 39.28125 17.289062 39.132812 17.199219 39.210938 Z M 17.199219 39.210938 " fill-opacity="1" fill-rule="nonzero"/><path fill="#b13511" d="M 17.71875 39.726562 C 16.605469 40.964844 14.894531 41.921875 14.160156 43.453125 C 14.125 43.527344 14.222656 43.609375 14.28125 43.542969 C 14.898438 42.835938 15.496094 42.152344 16.191406 41.515625 C 16.769531 40.980469 17.335938 40.457031 17.828125 39.835938 C 17.886719 39.757812 17.785156 39.652344 17.71875 39.726562 Z M 17.71875 39.726562 " fill-opacity="1" fill-rule="nonzero"/><path fill="#b13511" d="M 17.773438 40.597656 C 16.65625 41.753906 15.238281 42.847656 14.386719 44.234375 C 14.328125 44.324219 14.464844 44.398438 14.535156 44.332031 C 15.699219 43.203125 16.835938 41.945312 17.890625 40.710938 C 17.960938 40.632812 17.847656 40.523438 17.773438 40.597656 Z M 17.773438 40.597656 " fill-opacity="1" fill-rule="nonzero"/><path fill="#b13511" d="M 17.59375 41.835938 C 17.207031 42.234375 16.8125 42.628906 16.417969 43.019531 C 15.988281 43.445312 15.394531 43.855469 15.101562 44.390625 C 15.070312 44.449219 15.128906 44.507812 15.1875 44.480469 C 15.691406 44.253906 16.097656 43.75 16.484375 43.363281 C 16.933594 42.914062 17.347656 42.445312 17.722656 41.929688 C 17.777344 41.855469 17.65625 41.773438 17.59375 41.835938 Z M 17.59375 41.835938 " fill-opacity="1" fill-rule="nonzero"/><path fill="#b13511" d="M 17.242188 43.121094 C 16.894531 43.496094 16.488281 43.8125 16.132812 44.179688 C 16.0625 44.25 16.15625 44.382812 16.246094 44.335938 C 16.71875 44.109375 17.085938 43.664062 17.398438 43.253906 C 17.480469 43.148438 17.332031 43.027344 17.242188 43.121094 Z M 17.242188 43.121094 " fill-opacity="1" fill-rule="nonzero"/><path fill="#b13511" d="M 36.1875 37.746094 C 35.84375 38.042969 35.503906 38.34375 35.179688 38.660156 C 34.894531 38.941406 34.574219 39.230469 34.386719 39.585938 C 34.371094 39.621094 34.417969 39.648438 34.445312 39.628906 C 34.769531 39.394531 35.027344 39.066406 35.304688 38.78125 C 35.621094 38.460938 35.941406 38.148438 36.265625 37.835938 C 36.320312 37.78125 36.246094 37.699219 36.1875 37.746094 Z M 36.1875 37.746094 " fill-opacity="1" fill-rule="nonzero"/><path fill="#b13511" d="M 36.722656 38.167969 C 36.3125 38.496094 35.914062 38.832031 35.523438 39.1875 C 35.148438 39.53125 34.710938 39.875 34.417969 40.296875 C 34.386719 40.34375 34.441406 40.382812 34.480469 40.359375 C 34.871094 40.113281 35.1875 39.738281 35.523438 39.421875 C 35.945312 39.027344 36.371094 38.636719 36.8125 38.261719 C 36.875 38.207031 36.785156 38.117188 36.722656 38.167969 Z M 36.722656 38.167969 " fill-opacity="1" fill-rule="nonzero"/><path fill="#b13511" d="M 37.742188 38.105469 C 37.203125 38.597656 36.636719 39.0625 36.082031 39.542969 C 35.589844 39.96875 35.027344 40.398438 34.675781 40.957031 C 34.640625 41.011719 34.710938 41.066406 34.761719 41.03125 C 35.285156 40.648438 35.730469 40.148438 36.21875 39.71875 C 36.777344 39.230469 37.328125 38.742188 37.832031 38.199219 C 37.890625 38.140625 37.808594 38.046875 37.742188 38.105469 Z M 37.742188 38.105469 " fill-opacity="1" fill-rule="nonzero"/><path fill="#b13511" d="M 37.976562 38.828125 C 37.34375 39.378906 36.683594 39.898438 36.054688 40.457031 C 35.558594 40.894531 34.960938 41.386719 34.675781 41.996094 C 34.652344 42.046875 34.71875 42.078125 34.757812 42.050781 C 35.347656 41.605469 35.832031 40.992188 36.390625 40.5 C 36.964844 39.992188 37.546875 39.496094 38.097656 38.96875 C 38.171875 38.894531 38.058594 38.761719 37.976562 38.828125 Z M 37.976562 38.828125 " fill-opacity="1" fill-rule="nonzero"/><path fill="#b13511" d="M 38.460938 39.550781 C 37.164062 40.648438 35.566406 41.621094 34.542969 43 C 34.492188 43.070312 34.597656 43.136719 34.652344 43.085938 C 35.972656 41.980469 37.28125 40.8125 38.558594 39.648438 C 38.625 39.589844 38.53125 39.492188 38.460938 39.550781 Z M 38.460938 39.550781 " fill-opacity="1" fill-rule="nonzero"/><path fill="#b13511" d="M 38.664062 40.148438 C 37.972656 40.777344 37.292969 41.414062 36.605469 42.042969 C 35.917969 42.667969 35.167969 43.261719 34.566406 43.972656 C 34.5 44.046875 34.597656 44.171875 34.683594 44.109375 C 35.421875 43.542969 36.085938 42.863281 36.773438 42.238281 C 37.46875 41.605469 38.15625 40.964844 38.777344 40.257812 C 38.84375 40.179688 38.738281 40.082031 38.664062 40.148438 Z M 38.664062 40.148438 " fill-opacity="1" fill-rule="nonzero"/><path fill="#b13511" d="M 38.328125 41.5 C 37.238281 42.488281 35.855469 43.355469 35.011719 44.574219 C 34.976562 44.625 35.042969 44.675781 35.085938 44.644531 C 36.273438 43.757812 37.417969 42.675781 38.453125 41.617188 C 38.535156 41.539062 38.40625 41.425781 38.328125 41.5 Z M 38.328125 41.5 " fill-opacity="1" fill-rule="nonzero"/><path fill="#b13511" d="M 38.007812 42.757812 C 37.660156 43.097656 37.296875 43.414062 36.929688 43.730469 C 36.582031 44.035156 36.101562 44.320312 35.867188 44.71875 C 35.835938 44.769531 35.882812 44.839844 35.941406 44.824219 C 36.351562 44.6875 36.703125 44.324219 37.03125 44.050781 C 37.445312 43.703125 37.828125 43.332031 38.191406 42.929688 C 38.289062 42.824219 38.109375 42.660156 38.007812 42.757812 Z M 38.007812 42.757812 " fill-opacity="1" fill-rule="nonzero"/><path fill="#b13511" d="M 37.703125 43.84375 C 37.582031 43.972656 37.460938 44.101562 37.332031 44.222656 C 37.203125 44.335938 37.046875 44.4375 36.9375 44.574219 C 36.894531 44.628906 36.925781 44.746094 37.015625 44.726562 C 37.378906 44.652344 37.664062 44.277344 37.898438 44.015625 C 37.996094 43.902344 37.800781 43.734375 37.703125 43.84375 Z M 37.703125 43.84375 " fill-opacity="1" fill-rule="nonzero"/><path fill="#b13511" d="M 25.695312 36.75 C 24.757812 37.433594 23.648438 38.171875 23.003906 39.15625 C 22.980469 39.191406 23.019531 39.234375 23.054688 39.207031 C 23.992188 38.460938 24.828125 37.585938 25.777344 36.839844 C 25.839844 36.792969 25.757812 36.707031 25.695312 36.75 Z M 25.695312 36.75 " fill-opacity="1" fill-rule="nonzero"/><path fill="#b13511" d="M 26.828125 36.683594 C 25.578125 37.816406 24.007812 38.777344 22.960938 40.113281 C 22.925781 40.160156 22.992188 40.210938 23.035156 40.179688 C 24.402344 39.191406 25.75 37.996094 26.929688 36.789062 C 26.996094 36.71875 26.898438 36.621094 26.828125 36.683594 Z M 26.828125 36.683594 " fill-opacity="1" fill-rule="nonzero"/><path fill="#b13511" d="M 28.175781 36.863281 C 27.132812 37.582031 26.140625 38.359375 25.167969 39.171875 C 24.277344 39.914062 23.324219 40.722656 22.652344 41.679688 C 22.609375 41.734375 22.691406 41.796875 22.742188 41.753906 C 23.632812 40.992188 24.4375 40.132812 25.324219 39.359375 C 26.273438 38.535156 27.28125 37.773438 28.242188 36.960938 C 28.292969 36.917969 28.230469 36.824219 28.175781 36.863281 Z M 28.175781 36.863281 " fill-opacity="1" fill-rule="nonzero"/><path fill="#b13511" d="M 28.609375 37.8125 C 26.808594 39.242188 24.921875 40.65625 23.441406 42.4375 C 23.40625 42.480469 23.476562 42.539062 23.515625 42.503906 C 25.195312 40.914062 26.9375 39.421875 28.710938 37.9375 C 28.777344 37.878906 28.683594 37.757812 28.609375 37.8125 Z M 28.609375 37.8125 " fill-opacity="1" fill-rule="nonzero"/><path fill="#b13511" d="M 28.867188 38.882812 C 27.84375 39.796875 26.824219 40.71875 25.8125 41.640625 C 24.804688 42.558594 23.675781 43.421875 22.785156 44.457031 C 22.746094 44.5 22.8125 44.546875 22.851562 44.519531 C 23.976562 43.765625 24.957031 42.734375 25.957031 41.824219 C 26.976562 40.894531 27.984375 39.949219 28.980469 38.992188 C 29.054688 38.921875 28.941406 38.8125 28.867188 38.882812 Z M 28.867188 38.882812 " fill-opacity="1" fill-rule="nonzero"/><path fill="#b13511" d="M 29.34375 40.027344 C 28.269531 40.9375 27.203125 41.855469 26.125 42.765625 C 25.0625 43.664062 23.898438 44.566406 23.027344 45.664062 C 22.996094 45.703125 23.050781 45.75 23.089844 45.722656 C 24.207031 44.875 25.226562 43.871094 26.292969 42.960938 C 27.371094 42.042969 28.464844 41.140625 29.464844 40.140625 C 29.539062 40.0625 29.421875 39.960938 29.34375 40.027344 Z M 29.34375 40.027344 " fill-opacity="1" fill-rule="nonzero"/><path fill="#b13511" d="M 29.222656 41.441406 C 27.324219 43.386719 24.886719 44.871094 23.171875 46.984375 C 23.089844 47.082031 23.226562 47.191406 23.316406 47.109375 C 24.34375 46.15625 25.355469 45.199219 26.425781 44.289062 C 27.445312 43.425781 28.449219 42.554688 29.34375 41.558594 C 29.417969 41.476562 29.296875 41.363281 29.222656 41.441406 Z M 29.222656 41.441406 " fill-opacity="1" fill-rule="nonzero"/><path fill="#b13511" d="M 29.65625 42.957031 C 28.53125 43.851562 27.351562 44.671875 26.179688 45.496094 C 25.050781 46.292969 23.589844 47.164062 22.832031 48.339844 C 22.804688 48.386719 22.859375 48.457031 22.910156 48.425781 C 23.414062 48.101562 23.847656 47.65625 24.308594 47.269531 C 25.027344 46.667969 25.792969 46.125 26.550781 45.578125 C 27.65625 44.777344 28.757812 43.992188 29.753906 43.058594 C 29.820312 42.992188 29.726562 42.898438 29.65625 42.957031 Z M 29.65625 42.957031 " fill-opacity="1" fill-rule="nonzero"/><path fill="#b13511" d="M 29.40625 44.460938 C 28.613281 45.011719 27.871094 45.632812 27.113281 46.238281 C 26.25 46.925781 25.199219 47.53125 24.4375 48.332031 C 24.394531 48.378906 24.441406 48.445312 24.5 48.421875 C 25.460938 48.058594 26.3125 47.261719 27.109375 46.628906 C 27.929688 45.980469 28.730469 45.296875 29.472656 44.558594 C 29.519531 44.511719 29.464844 44.417969 29.40625 44.460938 Z M 29.40625 44.460938 " fill-opacity="1" fill-rule="nonzero"/><path fill="#b13511" d="M 29.191406 45.726562 C 28.71875 46.117188 28.257812 46.515625 27.792969 46.910156 C 27.230469 47.394531 26.535156 47.8125 26.058594 48.371094 C 25.996094 48.441406 26.070312 48.558594 26.160156 48.523438 C 26.722656 48.292969 27.203125 47.8125 27.664062 47.421875 C 28.234375 46.9375 28.773438 46.414062 29.316406 45.894531 C 29.414062 45.804688 29.296875 45.636719 29.191406 45.726562 Z M 29.191406 45.726562 " fill-opacity="1" fill-rule="nonzero"/><path fill="#b13511" d="M 29.386719 46.792969 C 29.027344 47.089844 28.675781 47.394531 28.316406 47.691406 C 27.964844 47.992188 27.546875 48.253906 27.25 48.609375 C 27.1875 48.683594 27.269531 48.816406 27.367188 48.769531 C 27.785156 48.5625 28.140625 48.195312 28.492188 47.890625 C 28.84375 47.585938 29.179688 47.269531 29.496094 46.921875 C 29.558594 46.855469 29.464844 46.730469 29.386719 46.792969 Z M 29.386719 46.792969 " fill-opacity="1" fill-rule="nonzero"/><path fill="#b13511" d="M 29.144531 48.1875 C 28.902344 48.34375 28.675781 48.523438 28.511719 48.761719 C 28.480469 48.8125 28.539062 48.871094 28.589844 48.847656 C 28.839844 48.730469 29.039062 48.539062 29.273438 48.394531 C 29.425781 48.300781 29.292969 48.089844 29.144531 48.1875 Z M 29.144531 48.1875 " fill-opacity="1" fill-rule="nonzero"/><path fill="#b13511" d="M 18.210938 23.113281 C 15.992188 24.144531 13.847656 25.414062 11.871094 26.851562 C 11.828125 26.878906 11.875 26.953125 11.917969 26.925781 C 14.011719 25.652344 16.152344 24.449219 18.238281 23.164062 C 18.269531 23.148438 18.242188 23.097656 18.210938 23.113281 Z M 18.210938 23.113281 " fill-opacity="1" fill-rule="nonzero"/><path fill="#b13511" d="M 18.953125 23.925781 C 17.617188 24.558594 16.289062 25.222656 15.058594 26.054688 C 14.976562 26.109375 15.050781 26.234375 15.136719 26.1875 C 16.421875 25.460938 17.738281 24.789062 19.011719 24.035156 C 19.078125 23.996094 19.027344 23.894531 18.953125 23.925781 Z M 18.953125 23.925781 " fill-opacity="1" fill-rule="nonzero"/><path fill="#b13511" d="M 19.175781 24.910156 C 18.574219 25.210938 17.933594 25.558594 17.433594 26.011719 C 17.398438 26.042969 17.429688 26.101562 17.476562 26.082031 C 18.105469 25.820312 18.644531 25.355469 19.25 25.039062 C 19.335938 24.992188 19.257812 24.867188 19.175781 24.910156 Z M 19.175781 24.910156 " fill-opacity="1" fill-rule="nonzero"/><path fill="#b13511" d="M 19.589844 25.800781 C 19.527344 25.804688 19.476562 25.839844 19.433594 25.882812 C 19.421875 25.894531 19.4375 25.90625 19.449219 25.898438 C 19.488281 25.863281 19.539062 25.835938 19.59375 25.832031 C 19.613281 25.828125 19.613281 25.796875 19.589844 25.800781 Z M 19.589844 25.800781 " fill-opacity="1" fill-rule="nonzero"/><path fill="#b13511" d="M 40.808594 26.4375 C 37.871094 28.464844 35.042969 30.761719 32.359375 33.113281 C 32.308594 33.15625 32.371094 33.226562 32.421875 33.1875 C 35.34375 31.121094 38.101562 28.78125 40.902344 26.554688 C 40.96875 26.503906 40.878906 26.386719 40.808594 26.4375 Z M 40.808594 26.4375 " fill-opacity="1" fill-rule="nonzero"/><path fill="#b13511" d="M 40.191406 28.667969 C 37.449219 30.765625 34.636719 32.769531 31.902344 34.871094 C 31.859375 34.90625 31.90625 34.984375 31.953125 34.953125 C 34.910156 33.1875 37.652344 30.980469 40.285156 28.769531 C 40.351562 28.710938 40.257812 28.617188 40.191406 28.667969 Z M 40.191406 28.667969 " fill-opacity="1" fill-rule="nonzero"/><path fill="#b13511" d="M 37.820312 31.71875 C 36.28125 32.976562 34.609375 34.09375 33.125 35.40625 C 33.085938 35.441406 33.125 35.511719 33.171875 35.484375 C 34.890625 34.496094 36.449219 33.136719 37.933594 31.832031 C 38.011719 31.761719 37.894531 31.65625 37.820312 31.71875 Z M 37.820312 31.71875 " fill-opacity="1" fill-rule="nonzero"/><path fill="#b13511" d="M 37.601562 33.15625 C 36.914062 33.613281 36.136719 34.148438 35.617188 34.800781 C 35.578125 34.847656 35.644531 34.914062 35.695312 34.886719 C 36.414062 34.449219 37 33.785156 37.691406 33.300781 C 37.78125 33.238281 37.695312 33.09375 37.601562 33.15625 Z M 37.601562 33.15625 " fill-opacity="1" fill-rule="nonzero"/><path fill="#b13511" d="M 37.746094 34.21875 C 37.539062 34.363281 37.347656 34.53125 37.144531 34.683594 C 37.0625 34.75 37.140625 34.882812 37.234375 34.828125 C 37.453125 34.695312 37.640625 34.519531 37.851562 34.375 C 37.957031 34.308594 37.847656 34.148438 37.746094 34.21875 Z M 37.746094 34.21875 " fill-opacity="1" fill-rule="nonzero"/><path fill="#b13511" d="M 27.050781 6.941406 C 26.574219 6.796875 25.714844 6.640625 25.265625 6.949219 C 25.195312 7 25.1875 7.117188 25.285156 7.144531 C 25.554688 7.222656 25.859375 7.183594 26.136719 7.183594 C 26.445312 7.179688 26.738281 7.1875 27.039062 7.097656 C 27.109375 7.078125 27.136719 6.96875 27.050781 6.941406 Z M 27.050781 6.941406 " fill-opacity="1" fill-rule="nonzero"/><path fill="#b13511" d="M 26.734375 7.503906 C 26.550781 7.375 26.320312 7.394531 26.105469 7.394531 C 25.875 7.394531 25.660156 7.433594 25.445312 7.519531 C 25.359375 7.554688 25.402344 7.671875 25.480469 7.683594 C 25.667969 7.714844 25.855469 7.738281 26.046875 7.738281 C 26.28125 7.742188 26.542969 7.78125 26.742188 7.636719 C 26.785156 7.605469 26.777344 7.535156 26.734375 7.503906 Z M 26.734375 7.503906 " fill-opacity="1" fill-rule="nonzero"/><path fill="#b13511" d="M 26.6875 7.957031 C 26.347656 7.890625 26.003906 8 25.667969 8.058594 C 25.527344 8.082031 25.566406 8.296875 25.703125 8.300781 C 26.035156 8.308594 26.378906 8.328125 26.707031 8.25 C 26.859375 8.214844 26.832031 7.980469 26.6875 7.957031 Z M 26.6875 7.957031 " fill-opacity="1" fill-rule="nonzero"/><path fill="#b13511" d="M 26.410156 8.636719 C 26.324219 8.503906 26.164062 8.542969 26.03125 8.546875 C 25.851562 8.550781 25.867188 8.816406 26.042969 8.820312 C 26.1875 8.828125 26.34375 8.859375 26.421875 8.710938 C 26.433594 8.683594 26.421875 8.65625 26.410156 8.636719 Z M 26.410156 8.636719 " fill-opacity="1" fill-rule="nonzero"/><path fill="#b13511" d="M 26.210938 9.027344 C 26.199219 9.027344 26.1875 9.027344 26.175781 9.027344 C 26.019531 9.03125 25.996094 9.273438 26.152344 9.300781 C 26.164062 9.304688 26.175781 9.304688 26.1875 9.308594 C 26.390625 9.347656 26.417969 9.023438 26.210938 9.027344 Z M 26.210938 9.027344 " fill-opacity="1" fill-rule="nonzero"/><path fill="#b13511" d="M 33.109375 17.21875 C 32.328125 17.648438 31.566406 18.136719 30.910156 18.75 C 30.867188 18.789062 30.90625 18.878906 30.964844 18.847656 C 31.761719 18.433594 32.441406 17.832031 33.171875 17.320312 C 33.226562 17.28125 33.171875 17.183594 33.109375 17.21875 Z M 33.109375 17.21875 " fill-opacity="1" fill-rule="nonzero"/><path fill="#b13511" d="M 33.1875 18.070312 C 31.582031 18.792969 30.207031 20.269531 28.84375 21.359375 C 28.824219 21.375 28.84375 21.402344 28.863281 21.390625 C 29.65625 20.84375 30.417969 20.246094 31.199219 19.679688 C 31.878906 19.183594 32.617188 18.730469 33.238281 18.160156 C 33.277344 18.121094 33.246094 18.046875 33.1875 18.070312 Z M 33.1875 18.070312 " fill-opacity="1" fill-rule="nonzero"/><path fill="#b13511" d="M 33.054688 19.113281 C 31.765625 19.976562 30.308594 20.9375 29.234375 22.0625 C 29.191406 22.105469 29.257812 22.1875 29.308594 22.15625 C 30.683594 21.421875 31.9375 20.210938 33.117188 19.199219 C 33.171875 19.152344 33.113281 19.074219 33.054688 19.113281 Z M 33.054688 19.113281 " fill-opacity="1" fill-rule="nonzero"/><path fill="#b13511" d="M 32.574219 20.367188 C 32.25 20.664062 31.921875 20.957031 31.597656 21.246094 C 31.566406 21.273438 31.589844 21.335938 31.632812 21.316406 C 32.035156 21.109375 32.355469 20.804688 32.683594 20.5 C 32.769531 20.425781 32.65625 20.292969 32.574219 20.367188 Z M 32.574219 20.367188 " fill-opacity="1" fill-rule="nonzero"/></svg>