<svg xmlns="http://www.w3.org/2000/svg" xmlns:xlink="http://www.w3.org/1999/xlink" width="70" zoomAndPan="magnify" viewBox="0 0 52.5 52.499999" height="70" preserveAspectRatio="xMidYMid meet" version="1.0"><defs><clipPath id="f8eb64e19a"><path d="M 25 3.421875 L 27 3.421875 L 27 8 L 25 8 Z M 25 3.421875 " clip-rule="nonzero"/></clipPath><clipPath id="0222c0f627"><path d="M 27 9 L 46.460938 9 L 46.460938 49.171875 L 27 49.171875 Z M 27 9 " clip-rule="nonzero"/></clipPath><clipPath id="fc7f88907d"><path d="M 6 9 L 26 9 L 26 49.171875 L 6 49.171875 Z M 6 9 " clip-rule="nonzero"/></clipPath></defs><g clip-path="url(#f8eb64e19a)"><path fill="#b13511" d="M 25.511719 3.984375 L 25.511719 6.851562 C 25.511719 7.1875 25.734375 7.414062 26.070312 7.414062 C 26.351562 7.414062 26.632812 7.1875 26.632812 6.851562 L 26.6875 3.984375 C 26.6875 3.648438 26.464844 3.421875 26.128906 3.421875 C 25.792969 3.421875 25.566406 3.703125 25.511719 3.984375 Z M 25.511719 3.984375 " fill-opacity="1" fill-rule="nonzero"/></g><path fill="#b13511" d="M 29.597656 5.953125 L 27.527344 7.917969 C 27.304688 8.144531 27.304688 8.480469 27.527344 8.707031 C 27.640625 8.816406 27.808594 8.875 27.917969 8.875 C 28.03125 8.875 28.199219 8.816406 28.3125 8.707031 L 30.382812 6.738281 C 30.605469 6.515625 30.605469 6.175781 30.382812 5.953125 C 30.214844 5.78125 29.824219 5.78125 29.597656 5.953125 Z M 29.597656 5.953125 " fill-opacity="1" fill-rule="nonzero"/><path fill="#b13511" d="M 21.761719 6.007812 C 21.535156 6.234375 21.535156 6.570312 21.761719 6.792969 L 23.832031 8.761719 C 23.945312 8.875 24.054688 8.929688 24.222656 8.929688 C 24.390625 8.929688 24.503906 8.875 24.617188 8.761719 C 24.839844 8.535156 24.839844 8.199219 24.617188 7.976562 L 22.542969 6.007812 C 22.320312 5.78125 21.929688 5.78125 21.761719 6.007812 Z M 21.761719 6.007812 " fill-opacity="1" fill-rule="nonzero"/><g clip-path="url(#0222c0f627)"><path fill="#b13511" d="M 45.445312 46.082031 L 41.917969 46.925781 L 38.839844 34.277344 C 41.972656 32.875 43.039062 26.523438 41.246094 19.328125 C 40.6875 17.136719 39.117188 11.796875 38.167969 9.773438 C 38.054688 9.546875 37.773438 9.4375 37.550781 9.492188 L 27.472656 11.964844 C 27.191406 12.023438 27.023438 12.246094 27.023438 12.527344 C 27.078125 14.777344 28.144531 20.226562 28.703125 22.417969 C 30.4375 29.5 34.191406 34.558594 37.550781 34.558594 C 37.605469 34.558594 37.664062 34.558594 37.773438 34.558594 L 40.855469 47.207031 L 37.328125 48.046875 C 37.046875 48.105469 36.824219 48.441406 36.933594 48.722656 C 36.992188 49.003906 37.214844 49.171875 37.496094 49.171875 C 37.550781 49.171875 37.605469 49.171875 37.605469 49.171875 L 45.726562 47.207031 C 46.003906 47.148438 46.230469 46.8125 46.117188 46.53125 C 46.0625 46.195312 45.726562 46.023438 45.445312 46.082031 Z M 37.328125 10.617188 C 37.71875 11.515625 38.167969 12.808594 38.613281 14.15625 L 28.648438 16.519531 C 28.421875 15.113281 28.199219 13.820312 28.144531 12.863281 Z M 29.765625 22.082031 C 29.542969 21.070312 29.152344 19.382812 28.816406 17.640625 L 38.894531 15.226562 C 39.398438 16.910156 39.847656 18.542969 40.070312 19.496094 C 41.75 26.296875 40.742188 32.59375 37.941406 33.265625 C 35.199219 34.054688 31.445312 28.882812 29.765625 22.082031 Z M 29.765625 22.082031 " fill-opacity="1" fill-rule="nonzero"/></g><path fill="#b13511" d="M 38.671875 29.78125 C 39.285156 28.320312 39.511719 23.9375 38.222656 18.652344 C 38.167969 18.371094 37.832031 18.148438 37.550781 18.261719 C 37.269531 18.316406 37.046875 18.652344 37.160156 18.933594 C 38.390625 23.878906 38.167969 28.097656 37.664062 29.332031 C 37.550781 29.613281 37.664062 29.949219 37.941406 30.0625 C 38 30.121094 38.109375 30.121094 38.167969 30.121094 C 38.390625 30.175781 38.558594 30.007812 38.671875 29.78125 Z M 38.671875 29.78125 " fill-opacity="1" fill-rule="nonzero"/><g clip-path="url(#fc7f88907d)"><path fill="#b13511" d="M 25.34375 12.472656 C 25.34375 12.191406 25.175781 11.964844 24.894531 11.910156 L 14.816406 9.4375 C 14.539062 9.378906 14.3125 9.492188 14.203125 9.71875 C 13.25 11.742188 11.683594 17.078125 11.121094 19.273438 C 10.226562 22.8125 10.058594 26.355469 10.5625 29.164062 C 11.011719 31.804688 12.074219 33.605469 13.585938 34.277344 L 10.507812 46.980469 L 6.921875 46.082031 C 6.644531 46.023438 6.308594 46.195312 6.25 46.476562 C 6.195312 46.753906 6.363281 47.09375 6.644531 47.148438 L 14.761719 49.117188 C 14.816406 49.117188 14.875 49.117188 14.875 49.117188 C 15.152344 49.117188 15.378906 48.949219 15.433594 48.667969 C 15.488281 48.386719 15.320312 48.046875 15.042969 47.992188 L 11.570312 47.207031 L 14.648438 34.503906 C 14.707031 34.503906 14.816406 34.503906 14.875 34.503906 C 16.441406 34.503906 18.121094 33.433594 19.632812 31.355469 C 21.367188 29.109375 22.769531 25.902344 23.664062 22.308594 C 24.222656 20.171875 25.289062 14.71875 25.34375 12.472656 Z M 15.042969 10.617188 L 24.222656 12.863281 C 24.167969 13.820312 23.945312 15.167969 23.71875 16.519531 L 13.753906 14.15625 C 14.203125 12.808594 14.648438 11.515625 15.042969 10.617188 Z M 18.738281 30.738281 C 17.226562 32.703125 15.601562 33.660156 14.3125 33.378906 C 13.027344 33.042969 12.074219 31.46875 11.625 28.996094 C 11.179688 26.355469 11.347656 22.980469 12.1875 19.554688 C 12.410156 18.542969 12.859375 16.910156 13.363281 15.28125 L 23.441406 17.699219 C 23.105469 19.441406 22.769531 21.125 22.488281 22.136719 C 21.761719 25.511719 20.417969 28.601562 18.738281 30.738281 Z M 18.738281 30.738281 " fill-opacity="1" fill-rule="nonzero"/></g><path fill="#b13511" d="M 14.816406 18.261719 C 14.539062 18.203125 14.203125 18.371094 14.144531 18.652344 C 12.859375 23.9375 13.136719 28.320312 13.699219 29.78125 C 13.808594 30.007812 13.976562 30.121094 14.203125 30.121094 C 14.257812 30.121094 14.371094 30.121094 14.425781 30.0625 C 14.707031 29.949219 14.875 29.613281 14.707031 29.332031 C 14.203125 28.039062 13.976562 23.878906 15.210938 18.933594 C 15.320312 18.652344 15.152344 18.371094 14.816406 18.261719 Z M 14.816406 18.261719 " fill-opacity="1" fill-rule="nonzero"/><path fill="#b13511" d="M 29.039062 33.433594 C 27.917969 32.984375 26.742188 33.324219 25.847656 34.277344 C 25.007812 33.324219 23.832031 32.984375 22.65625 33.433594 C 21.3125 33.941406 20.191406 35.570312 20.640625 37.707031 C 21.367188 41.191406 25.398438 42.988281 25.566406 43.046875 C 25.625 43.101562 25.734375 43.101562 25.792969 43.101562 C 25.847656 43.101562 25.960938 43.101562 26.015625 43.046875 C 26.183594 42.988281 30.214844 41.191406 30.941406 37.707031 C 31.503906 35.570312 30.382812 33.941406 29.039062 33.433594 Z M 29.933594 37.425781 C 29.375 39.898438 26.6875 41.472656 25.847656 41.867188 C 25.0625 41.472656 22.320312 39.898438 21.761719 37.425781 C 21.425781 35.851562 22.207031 34.785156 23.105469 34.445312 C 23.328125 34.390625 23.496094 34.335938 23.71875 34.335938 C 24.335938 34.335938 24.953125 34.726562 25.398438 35.457031 C 25.625 35.796875 26.183594 35.796875 26.351562 35.457031 C 26.910156 34.503906 27.75 34.109375 28.648438 34.445312 C 29.488281 34.785156 30.269531 35.851562 29.933594 37.425781 Z M 29.933594 37.425781 " fill-opacity="1" fill-rule="nonzero"/></svg>