<svg xmlns="http://www.w3.org/2000/svg" xmlns:xlink="http://www.w3.org/1999/xlink" width="70" zoomAndPan="magnify" viewBox="0 0 52.5 52.499999" height="70" preserveAspectRatio="xMidYMid meet" version="1.0"><defs><clipPath id="0dfb4a602e"><path d="M 17 4.058594 L 35 4.058594 L 35 25 L 17 25 Z M 17 4.058594 " clip-rule="nonzero"/></clipPath><clipPath id="f4361c7d39"><path d="M 8 28 L 22 28 L 22 46.058594 L 8 46.058594 Z M 8 28 " clip-rule="nonzero"/></clipPath><clipPath id="d21a55d92d"><path d="M 29 28 L 43 28 L 43 46.058594 L 29 46.058594 Z M 29 28 " clip-rule="nonzero"/></clipPath><clipPath id="6458d3d7ec"><path d="M 43 32 L 46.5 32 L 46.5 38 L 43 38 Z M 43 32 " clip-rule="nonzero"/></clipPath><clipPath id="fdf0e0729e"><path d="M 32 4.058594 L 37 4.058594 L 37 11 L 32 11 Z M 32 4.058594 " clip-rule="nonzero"/></clipPath><clipPath id="624d35575d"><path d="M 5.25 34 L 8 34 L 8 40 L 5.25 40 Z M 5.25 34 " clip-rule="nonzero"/></clipPath></defs><g clip-path="url(#0dfb4a602e)"><path fill="#b13511" d="M 17.1875 16.054688 C 17.1875 17.59375 17.597656 19.039062 18.308594 20.289062 C 18.316406 20.300781 18.324219 20.3125 18.328125 20.324219 C 19.53125 22.414062 21.585938 23.960938 24.019531 24.492188 C 24.027344 24.496094 24.039062 24.496094 24.046875 24.496094 C 24.636719 24.625 25.25 24.691406 25.878906 24.691406 C 29.105469 24.691406 31.925781 22.933594 33.425781 20.328125 C 33.433594 20.3125 33.441406 20.304688 33.445312 20.289062 C 34.160156 19.035156 34.566406 17.59375 34.566406 16.054688 C 34.566406 14.515625 34.160156 13.070312 33.445312 11.820312 C 33.441406 11.804688 33.433594 11.792969 33.425781 11.78125 C 31.972656 9.257812 29.28125 7.53125 26.179688 7.421875 L 26.175781 4.390625 C 26.175781 4.207031 26.023438 4.058594 25.839844 4.058594 C 25.652344 4.058594 25.503906 4.207031 25.503906 4.390625 L 25.511719 7.425781 C 25.011719 7.445312 24.519531 7.507812 24.046875 7.609375 C 24.039062 7.613281 24.035156 7.613281 24.027344 7.613281 C 21.589844 8.140625 19.53125 9.691406 18.328125 11.785156 C 18.324219 11.796875 18.316406 11.804688 18.308594 11.816406 C 17.597656 13.070312 17.1875 14.515625 17.1875 16.054688 Z M 33.886719 15.71875 L 30.355469 15.71875 C 30.332031 14.566406 30.164062 13.417969 29.851562 12.273438 L 32.9375 12.273438 C 33.5 13.308594 33.835938 14.476562 33.886719 15.71875 Z M 32.9375 19.835938 L 29.824219 19.835938 C 30.144531 18.683594 30.320312 17.535156 30.355469 16.386719 L 33.886719 16.386719 C 33.835938 17.628906 33.5 18.800781 32.9375 19.835938 Z M 26.210938 24.019531 L 26.207031 20.5 L 28.90625 20.5 C 28.523438 21.628906 28 22.761719 27.324219 23.894531 C 26.964844 23.960938 26.589844 24.003906 26.210938 24.019531 Z M 24.332031 23.875 C 23.664062 22.75 23.144531 21.625 22.761719 20.5 L 25.535156 20.5 L 25.542969 24.019531 C 25.128906 24 24.726562 23.953125 24.332031 23.875 Z M 17.867188 16.386719 L 21.3125 16.386719 C 21.34375 17.535156 21.523438 18.683594 21.84375 19.835938 L 18.820312 19.835938 C 18.257812 18.800781 17.917969 17.628906 17.867188 16.386719 Z M 22 16.386719 L 25.527344 16.386719 L 25.535156 19.835938 L 22.546875 19.835938 C 22.210938 18.683594 22.03125 17.535156 22 16.386719 Z M 26.203125 19.835938 L 26.199219 16.386719 L 29.667969 16.386719 C 29.632812 17.535156 29.453125 18.683594 29.121094 19.835938 Z M 29.671875 15.71875 L 26.195312 15.71875 L 26.191406 12.273438 L 29.144531 12.273438 C 29.472656 13.417969 29.648438 14.566406 29.671875 15.71875 Z M 25.527344 15.71875 L 21.996094 15.71875 C 22.019531 14.566406 22.195312 13.417969 22.523438 12.273438 L 25.519531 12.273438 Z M 21.308594 15.71875 L 17.867188 15.71875 C 17.917969 14.476562 18.257812 13.308594 18.820312 12.273438 L 21.816406 12.273438 C 21.503906 13.417969 21.332031 14.566406 21.308594 15.71875 Z M 19.226562 20.5 L 22.042969 20.5 C 22.382812 21.546875 22.84375 22.59375 23.421875 23.640625 C 21.695312 23.089844 20.222656 21.96875 19.226562 20.5 Z M 28.222656 23.675781 C 28.8125 22.617188 29.277344 21.558594 29.625 20.5 L 32.53125 20.5 C 31.515625 22 30 23.136719 28.222656 23.675781 Z M 32.53125 11.605469 L 29.648438 11.605469 C 29.304688 10.546875 28.832031 9.488281 28.234375 8.433594 C 30.003906 8.976562 31.515625 10.113281 32.53125 11.605469 Z M 27.328125 8.214844 C 28.015625 9.339844 28.546875 10.46875 28.933594 11.605469 L 26.1875 11.605469 L 26.183594 8.089844 C 26.570312 8.105469 26.953125 8.148438 27.328125 8.214844 Z M 25.519531 11.605469 L 22.734375 11.605469 C 23.117188 10.476562 23.644531 9.351562 24.328125 8.234375 C 24.714844 8.15625 25.109375 8.109375 25.511719 8.089844 Z M 23.410156 8.46875 C 22.824219 9.511719 22.359375 10.558594 22.015625 11.609375 L 19.226562 11.609375 C 20.21875 10.144531 21.6875 9.023438 23.410156 8.46875 Z M 23.410156 8.46875 " fill-opacity="1" fill-rule="nonzero"/></g><g clip-path="url(#f4361c7d39)"><path fill="#b13511" d="M 19.410156 28.617188 L 11.269531 28.617188 C 9.941406 28.617188 8.863281 29.691406 8.863281 31.007812 L 8.863281 43.664062 C 8.863281 44.984375 9.941406 46.058594 11.269531 46.058594 L 19.410156 46.058594 C 20.738281 46.058594 21.816406 44.984375 21.816406 43.664062 L 21.816406 31.007812 C 21.816406 29.691406 20.738281 28.617188 19.410156 28.617188 Z M 21.144531 43.664062 C 21.144531 44.617188 20.367188 45.390625 19.410156 45.390625 L 11.269531 45.390625 C 10.3125 45.390625 9.535156 44.617188 9.535156 43.664062 L 9.535156 31.007812 C 9.535156 30.058594 10.3125 29.28125 11.269531 29.28125 L 19.410156 29.28125 C 20.367188 29.28125 21.144531 30.058594 21.144531 31.007812 Z M 21.144531 43.664062 " fill-opacity="1" fill-rule="nonzero"/></g><path fill="#b13511" d="M 12.734375 33.148438 L 17.945312 33.148438 C 18.679688 33.148438 19.28125 32.554688 19.28125 31.824219 C 19.28125 31.09375 18.679688 30.496094 17.945312 30.496094 L 12.734375 30.496094 C 12 30.496094 11.402344 31.09375 11.402344 31.824219 C 11.402344 32.554688 12 33.148438 12.734375 33.148438 Z M 12.734375 31.164062 L 17.945312 31.164062 C 18.3125 31.164062 18.609375 31.460938 18.609375 31.824219 C 18.609375 32.1875 18.3125 32.484375 17.945312 32.484375 L 12.734375 32.484375 C 12.367188 32.484375 12.070312 32.1875 12.070312 31.824219 C 12.070312 31.460938 12.367188 31.164062 12.734375 31.164062 Z M 12.734375 31.164062 " fill-opacity="1" fill-rule="nonzero"/><path fill="#b13511" d="M 15.339844 36.207031 C 13.484375 36.207031 11.972656 37.710938 11.972656 39.558594 C 11.972656 41.40625 13.484375 42.90625 15.339844 42.90625 C 17.199219 42.90625 18.707031 41.40625 18.707031 39.558594 C 18.707031 37.710938 17.199219 36.207031 15.339844 36.207031 Z M 15.339844 42.242188 C 13.851562 42.242188 12.640625 41.039062 12.640625 39.558594 C 12.640625 38.078125 13.851562 36.875 15.339844 36.875 C 16.828125 36.875 18.039062 38.078125 18.039062 39.558594 C 18.039062 41.039062 16.828125 42.242188 15.339844 42.242188 Z M 15.339844 42.242188 " fill-opacity="1" fill-rule="nonzero"/><path fill="#b13511" d="M 15.339844 34.96875 C 12.792969 34.96875 10.722656 37.027344 10.722656 39.558594 C 10.722656 42.089844 12.792969 44.148438 15.339844 44.148438 C 17.886719 44.148438 19.957031 42.089844 19.957031 39.558594 C 19.957031 37.027344 17.886719 34.96875 15.339844 34.96875 Z M 15.339844 43.480469 C 13.164062 43.480469 11.394531 41.722656 11.394531 39.558594 C 11.394531 37.394531 13.164062 35.632812 15.339844 35.632812 C 17.515625 35.632812 19.289062 37.394531 19.289062 39.558594 C 19.289062 41.722656 17.515625 43.480469 15.339844 43.480469 Z M 15.339844 43.480469 " fill-opacity="1" fill-rule="nonzero"/><g clip-path="url(#d21a55d92d)"><path fill="#b13511" d="M 40.410156 28.617188 L 32.269531 28.617188 C 30.941406 28.617188 29.863281 29.691406 29.863281 31.007812 L 29.863281 43.664062 C 29.863281 44.984375 30.941406 46.058594 32.269531 46.058594 L 40.410156 46.058594 C 41.734375 46.058594 42.816406 44.984375 42.816406 43.664062 L 42.816406 31.007812 C 42.816406 29.691406 41.734375 28.617188 40.410156 28.617188 Z M 42.144531 43.664062 C 42.144531 44.617188 41.367188 45.390625 40.410156 45.390625 L 32.269531 45.390625 C 31.3125 45.390625 30.535156 44.617188 30.535156 43.664062 L 30.535156 31.007812 C 30.535156 30.058594 31.3125 29.28125 32.269531 29.28125 L 40.410156 29.28125 C 41.367188 29.28125 42.144531 30.058594 42.144531 31.007812 Z M 42.144531 43.664062 " fill-opacity="1" fill-rule="nonzero"/></g><path fill="#b13511" d="M 33.734375 33.148438 L 38.945312 33.148438 C 39.679688 33.148438 40.277344 32.554688 40.277344 31.824219 C 40.277344 31.09375 39.679688 30.496094 38.945312 30.496094 L 33.734375 30.496094 C 33 30.496094 32.398438 31.09375 32.398438 31.824219 C 32.398438 32.554688 33 33.148438 33.734375 33.148438 Z M 33.734375 31.164062 L 38.945312 31.164062 C 39.3125 31.164062 39.609375 31.460938 39.609375 31.824219 C 39.609375 32.1875 39.3125 32.484375 38.945312 32.484375 L 33.734375 32.484375 C 33.367188 32.484375 33.070312 32.1875 33.070312 31.824219 C 33.070312 31.460938 33.367188 31.164062 33.734375 31.164062 Z M 33.734375 31.164062 " fill-opacity="1" fill-rule="nonzero"/><path fill="#b13511" d="M 36.339844 36.207031 C 34.480469 36.207031 32.972656 37.710938 32.972656 39.558594 C 32.972656 41.40625 34.480469 42.90625 36.339844 42.90625 C 38.195312 42.90625 39.707031 41.40625 39.707031 39.558594 C 39.707031 37.710938 38.195312 36.207031 36.339844 36.207031 Z M 36.339844 42.242188 C 34.851562 42.242188 33.640625 41.039062 33.640625 39.558594 C 33.640625 38.078125 34.851562 36.875 36.339844 36.875 C 37.828125 36.875 39.039062 38.078125 39.039062 39.558594 C 39.039062 41.039062 37.828125 42.242188 36.339844 42.242188 Z M 36.339844 42.242188 " fill-opacity="1" fill-rule="nonzero"/><path fill="#b13511" d="M 36.339844 34.96875 C 33.792969 34.96875 31.722656 37.027344 31.722656 39.558594 C 31.722656 42.089844 33.792969 44.148438 36.339844 44.148438 C 38.886719 44.148438 40.957031 42.089844 40.957031 39.558594 C 40.957031 37.027344 38.886719 34.96875 36.339844 34.96875 Z M 36.339844 43.480469 C 34.164062 43.480469 32.394531 41.722656 32.394531 39.558594 C 32.394531 37.394531 34.164062 35.632812 36.339844 35.632812 C 38.515625 35.632812 40.285156 37.394531 40.285156 39.558594 C 40.285156 41.722656 38.515625 43.480469 36.339844 43.480469 Z M 36.339844 43.480469 " fill-opacity="1" fill-rule="nonzero"/><path fill="#b13511" d="M 10.230469 26.742188 C 10.433594 26.871094 10.679688 26.941406 10.933594 26.941406 C 10.984375 26.941406 11.03125 26.9375 11.078125 26.933594 C 11.742188 26.867188 12.238281 26.355469 12.179688 25.789062 C 12.179688 25.78125 12.175781 25.773438 12.175781 25.765625 C 12.175781 25.765625 12.175781 25.761719 12.175781 25.757812 L 11.839844 24.117188 C 12.195312 23.71875 12.699219 23.394531 13.328125 23.152344 C 13.449219 23.105469 13.535156 22.996094 13.542969 22.867188 C 13.554688 22.738281 13.488281 22.617188 13.378906 22.550781 C 12.617188 22.117188 11.84375 22.035156 11.078125 22.308594 C 10.917969 22.367188 10.828125 22.527344 10.859375 22.691406 L 11.148438 24.085938 C 11.148438 24.089844 11.148438 24.097656 11.148438 24.101562 L 11.316406 24.917969 C 11.175781 24.886719 11.027344 24.875 10.871094 24.890625 C 10.207031 24.957031 9.714844 25.46875 9.773438 26.03125 C 9.800781 26.316406 9.96875 26.574219 10.230469 26.742188 Z M 12.371094 22.863281 C 12.113281 23.003906 11.882812 23.164062 11.679688 23.339844 L 11.578125 22.859375 C 11.84375 22.800781 12.105469 22.804688 12.371094 22.863281 Z M 10.941406 25.550781 C 10.964844 25.550781 10.988281 25.546875 11.011719 25.546875 C 11.25 25.546875 11.460938 25.664062 11.503906 25.820312 L 11.511719 25.863281 C 11.523438 26.050781 11.292969 26.242188 11.011719 26.269531 C 10.859375 26.285156 10.703125 26.25 10.59375 26.179688 C 10.539062 26.144531 10.449219 26.074219 10.441406 25.964844 C 10.421875 25.773438 10.652344 25.582031 10.941406 25.550781 Z M 10.941406 25.550781 " fill-opacity="1" fill-rule="nonzero"/><path fill="#b13511" d="M 35.777344 23.820312 C 35.785156 23.691406 35.722656 23.570312 35.609375 23.503906 C 34.847656 23.070312 34.074219 22.988281 33.308594 23.261719 C 33.148438 23.316406 33.058594 23.480469 33.089844 23.644531 L 33.378906 25.042969 C 33.378906 25.046875 33.378906 25.046875 33.378906 25.050781 L 33.546875 25.867188 C 33.40625 25.835938 33.253906 25.828125 33.101562 25.84375 C 32.796875 25.875 32.511719 26 32.308594 26.199219 C 32.085938 26.414062 31.976562 26.703125 32.003906 26.984375 C 32.03125 27.269531 32.199219 27.527344 32.460938 27.691406 C 32.664062 27.824219 32.910156 27.890625 33.164062 27.890625 C 33.214844 27.890625 33.261719 27.890625 33.308594 27.886719 C 33.617188 27.855469 33.902344 27.726562 34.105469 27.527344 C 34.328125 27.3125 34.4375 27.027344 34.410156 26.742188 C 34.410156 26.734375 34.40625 26.730469 34.40625 26.722656 C 34.40625 26.71875 34.40625 26.714844 34.40625 26.710938 L 34.070312 25.070312 C 34.425781 24.671875 34.929688 24.34375 35.5625 24.105469 C 35.683594 24.058594 35.765625 23.949219 35.777344 23.820312 Z M 33.242188 27.222656 C 33.089844 27.238281 32.9375 27.203125 32.824219 27.132812 C 32.773438 27.101562 32.683594 27.027344 32.671875 26.917969 C 32.660156 26.808594 32.734375 26.71875 32.777344 26.675781 C 32.871094 26.582031 33.015625 26.519531 33.171875 26.503906 C 33.195312 26.503906 33.222656 26.5 33.246094 26.5 C 33.375 26.5 33.496094 26.535156 33.589844 26.59375 C 33.640625 26.625 33.71875 26.691406 33.738281 26.785156 L 33.742188 26.816406 C 33.75 26.921875 33.679688 27.007812 33.636719 27.050781 C 33.542969 27.144531 33.398438 27.207031 33.242188 27.222656 Z M 33.910156 24.292969 L 33.8125 23.8125 C 34.074219 23.757812 34.339844 23.757812 34.601562 23.816406 C 34.347656 23.957031 34.117188 24.117188 33.910156 24.292969 Z M 33.910156 24.292969 " fill-opacity="1" fill-rule="nonzero"/><path fill="#b13511" d="M 42.941406 23.457031 C 42.765625 23.410156 42.578125 23.511719 42.53125 23.691406 L 41.921875 25.878906 C 41.808594 25.785156 41.679688 25.710938 41.535156 25.65625 C 40.914062 25.414062 40.242188 25.648438 40.035156 26.175781 C 39.828125 26.703125 40.164062 27.328125 40.789062 27.570312 C 40.953125 27.632812 41.121094 27.664062 41.285156 27.664062 C 41.734375 27.664062 42.136719 27.433594 42.289062 27.046875 C 42.292969 27.042969 42.292969 27.035156 42.292969 27.027344 C 42.296875 27.023438 42.296875 27.019531 42.300781 27.015625 L 43.175781 23.867188 C 43.226562 23.691406 43.121094 23.507812 42.941406 23.457031 Z M 41.03125 26.949219 C 40.761719 26.84375 40.589844 26.597656 40.660156 26.417969 C 40.707031 26.296875 40.859375 26.226562 41.035156 26.226562 C 41.117188 26.226562 41.207031 26.242188 41.292969 26.277344 C 41.4375 26.332031 41.558594 26.429688 41.625 26.546875 C 41.65625 26.59375 41.695312 26.6875 41.667969 26.785156 L 41.660156 26.8125 C 41.585938 26.988281 41.292969 27.050781 41.03125 26.949219 Z M 41.03125 26.949219 " fill-opacity="1" fill-rule="nonzero"/><g clip-path="url(#6458d3d7ec)"><path fill="#b13511" d="M 46.152344 32.851562 C 45.972656 32.800781 45.789062 32.90625 45.738281 33.082031 L 45.128906 35.273438 C 45.015625 35.183594 44.886719 35.105469 44.742188 35.050781 C 44.453125 34.9375 44.144531 34.921875 43.871094 35.007812 C 43.574219 35.101562 43.34375 35.304688 43.242188 35.570312 C 43.035156 36.097656 43.375 36.722656 43.996094 36.960938 C 44.160156 37.027344 44.332031 37.058594 44.5 37.058594 C 44.625 37.058594 44.75 37.039062 44.867188 37.003906 C 45.136719 36.921875 45.34375 36.742188 45.457031 36.511719 C 45.460938 36.507812 45.460938 36.507812 45.460938 36.503906 C 45.472656 36.484375 45.488281 36.464844 45.496094 36.441406 C 45.5 36.433594 45.5 36.425781 45.5 36.421875 C 45.503906 36.417969 45.503906 36.414062 45.507812 36.410156 L 46.382812 33.261719 C 46.433594 33.085938 46.328125 32.898438 46.152344 32.851562 Z M 44.667969 36.367188 C 44.539062 36.40625 44.382812 36.398438 44.238281 36.339844 C 43.96875 36.238281 43.796875 35.988281 43.867188 35.8125 C 43.90625 35.707031 44.011719 35.664062 44.070312 35.644531 C 44.125 35.628906 44.179688 35.621094 44.238281 35.621094 C 44.324219 35.621094 44.414062 35.636719 44.5 35.671875 C 44.753906 35.769531 44.921875 35.996094 44.878906 36.171875 L 44.867188 36.207031 C 44.828125 36.304688 44.726562 36.347656 44.667969 36.367188 Z M 44.667969 36.367188 " fill-opacity="1" fill-rule="nonzero"/></g><path fill="#b13511" d="M 36.023438 16.382812 C 36.023438 16.566406 36.171875 16.714844 36.359375 16.714844 C 37.109375 16.714844 37.632812 17.816406 37.632812 18.808594 C 37.632812 18.992188 37.78125 19.140625 37.96875 19.140625 C 38.152344 19.140625 38.304688 18.992188 38.304688 18.808594 C 38.304688 17.816406 38.828125 16.714844 39.578125 16.714844 C 39.761719 16.714844 39.914062 16.566406 39.914062 16.382812 C 39.914062 16.195312 39.761719 16.046875 39.578125 16.046875 C 38.742188 16.046875 38.304688 15 38.304688 13.960938 C 38.304688 13.777344 38.152344 13.628906 37.96875 13.628906 C 37.78125 13.628906 37.632812 13.777344 37.632812 13.960938 C 37.632812 15 37.195312 16.046875 36.359375 16.046875 C 36.171875 16.046875 36.023438 16.195312 36.023438 16.382812 Z M 37.96875 15.570312 C 38.136719 15.917969 38.359375 16.199219 38.625 16.394531 C 38.355469 16.613281 38.132812 16.917969 37.96875 17.269531 C 37.804688 16.917969 37.582031 16.613281 37.3125 16.394531 C 37.578125 16.199219 37.800781 15.917969 37.96875 15.570312 Z M 37.96875 15.570312 " fill-opacity="1" fill-rule="nonzero"/><g clip-path="url(#fdf0e0729e)"><path fill="#b13511" d="M 33.117188 7.816406 C 33.867188 7.816406 34.390625 8.917969 34.390625 9.910156 C 34.390625 10.09375 34.539062 10.242188 34.726562 10.242188 C 34.910156 10.242188 35.0625 10.09375 35.0625 9.910156 C 35.0625 8.917969 35.585938 7.816406 36.335938 7.816406 C 36.519531 7.816406 36.671875 7.664062 36.671875 7.480469 C 36.671875 7.296875 36.519531 7.148438 36.335938 7.148438 C 35.5 7.148438 35.0625 6.097656 35.0625 5.0625 C 35.0625 4.878906 34.910156 4.730469 34.726562 4.730469 C 34.539062 4.730469 34.390625 4.878906 34.390625 5.0625 C 34.390625 6.097656 33.953125 7.148438 33.117188 7.148438 C 32.929688 7.148438 32.78125 7.296875 32.78125 7.480469 C 32.78125 7.664062 32.929688 7.816406 33.117188 7.816406 Z M 34.726562 6.671875 C 34.894531 7.015625 35.117188 7.300781 35.382812 7.496094 C 35.109375 7.714844 34.890625 8.019531 34.726562 8.371094 C 34.5625 8.019531 34.339844 7.714844 34.070312 7.496094 C 34.335938 7.300781 34.558594 7.015625 34.726562 6.671875 Z M 34.726562 6.671875 " fill-opacity="1" fill-rule="nonzero"/></g><path fill="#b13511" d="M 15.914062 24.71875 C 15.730469 24.71875 15.578125 24.871094 15.578125 25.054688 C 15.578125 25.238281 15.730469 25.386719 15.914062 25.386719 C 16.664062 25.386719 17.1875 26.492188 17.1875 27.480469 C 17.1875 27.664062 17.339844 27.8125 17.523438 27.8125 C 17.710938 27.8125 17.859375 27.664062 17.859375 27.480469 C 17.859375 26.492188 18.382812 25.386719 19.132812 25.386719 C 19.320312 25.386719 19.46875 25.238281 19.46875 25.054688 C 19.46875 24.871094 19.320312 24.71875 19.132812 24.71875 C 18.296875 24.71875 17.859375 23.671875 17.859375 22.632812 C 17.859375 22.449219 17.710938 22.300781 17.523438 22.300781 C 17.339844 22.300781 17.1875 22.449219 17.1875 22.632812 C 17.1875 23.671875 16.75 24.71875 15.914062 24.71875 Z M 17.523438 24.242188 C 17.691406 24.589844 17.914062 24.871094 18.179688 25.070312 C 17.910156 25.285156 17.6875 25.59375 17.523438 25.945312 C 17.359375 25.59375 17.140625 25.285156 16.867188 25.070312 C 17.132812 24.871094 17.355469 24.589844 17.523438 24.242188 Z M 17.523438 24.242188 " fill-opacity="1" fill-rule="nonzero"/><path fill="#b13511" d="M 13.535156 10.921875 C 14.285156 10.921875 14.808594 12.023438 14.808594 13.015625 C 14.808594 13.199219 14.960938 13.347656 15.144531 13.347656 C 15.328125 13.347656 15.480469 13.199219 15.480469 13.015625 C 15.480469 12.023438 16.003906 10.921875 16.753906 10.921875 C 16.941406 10.921875 17.089844 10.773438 17.089844 10.589844 C 17.089844 10.402344 16.941406 10.253906 16.753906 10.253906 C 15.917969 10.253906 15.480469 9.207031 15.480469 8.167969 C 15.480469 7.984375 15.328125 7.835938 15.144531 7.835938 C 14.960938 7.835938 14.808594 7.984375 14.808594 8.167969 C 14.808594 9.207031 14.371094 10.253906 13.535156 10.253906 C 13.347656 10.253906 13.199219 10.402344 13.199219 10.589844 C 13.199219 10.773438 13.347656 10.921875 13.535156 10.921875 Z M 15.144531 9.777344 C 15.3125 10.125 15.535156 10.40625 15.800781 10.601562 C 15.53125 10.820312 15.308594 11.125 15.144531 11.476562 C 14.980469 11.125 14.757812 10.820312 14.488281 10.601562 C 14.753906 10.40625 14.976562 10.125 15.144531 9.777344 Z M 15.144531 9.777344 " fill-opacity="1" fill-rule="nonzero"/><path fill="#b13511" d="M 28.109375 29.121094 L 25.640625 27.378906 C 25.554688 27.320312 25.449219 27.300781 25.347656 27.328125 C 25.25 27.359375 25.171875 27.433594 25.132812 27.527344 L 24.304688 29.644531 C 24.203125 29.542969 24.082031 29.453125 23.945312 29.382812 C 23.667969 29.246094 23.363281 29.199219 23.082031 29.257812 C 22.777344 29.316406 22.527344 29.5 22.398438 29.753906 C 22.140625 30.257812 22.414062 30.914062 23.007812 31.214844 C 23.203125 31.3125 23.417969 31.367188 23.628906 31.367188 C 23.710938 31.367188 23.789062 31.359375 23.871094 31.339844 C 24.175781 31.28125 24.421875 31.097656 24.554688 30.84375 C 24.558594 30.839844 24.558594 30.832031 24.5625 30.824219 C 24.5625 30.820312 24.566406 30.816406 24.566406 30.8125 L 25.601562 28.167969 L 27.507812 29.511719 L 26.777344 31.386719 C 26.671875 31.285156 26.550781 31.195312 26.414062 31.125 C 26.140625 30.988281 25.832031 30.941406 25.554688 30.996094 C 25.25 31.058594 25 31.242188 24.871094 31.492188 C 24.609375 32 24.882812 32.652344 25.476562 32.953125 C 25.675781 33.054688 25.890625 33.105469 26.097656 33.105469 C 26.179688 33.105469 26.261719 33.097656 26.339844 33.082031 C 26.617188 33.027344 26.84375 32.867188 26.980469 32.648438 C 26.988281 32.640625 26.992188 32.632812 26.996094 32.628906 C 27.003906 32.613281 27.015625 32.601562 27.023438 32.585938 C 27.027344 32.582031 27.027344 32.574219 27.03125 32.566406 C 27.03125 32.5625 27.035156 32.558594 27.039062 32.554688 L 28.230469 29.511719 C 28.285156 29.371094 28.234375 29.207031 28.109375 29.121094 Z M 23.734375 30.6875 C 23.605469 30.714844 23.449219 30.691406 23.3125 30.621094 C 23.054688 30.488281 22.90625 30.226562 22.996094 30.054688 C 23.046875 29.957031 23.15625 29.921875 23.214844 29.910156 C 23.25 29.902344 23.285156 29.898438 23.324219 29.898438 C 23.425781 29.898438 23.539062 29.925781 23.640625 29.980469 C 23.777344 30.050781 23.890625 30.160156 23.945312 30.28125 C 23.96875 30.332031 23.996094 30.425781 23.964844 30.519531 L 23.953125 30.546875 C 23.898438 30.640625 23.796875 30.675781 23.734375 30.6875 Z M 26.207031 32.429688 C 26.074219 32.457031 25.921875 32.433594 25.78125 32.363281 C 25.527344 32.230469 25.378906 31.96875 25.464844 31.796875 C 25.515625 31.699219 25.625 31.664062 25.6875 31.652344 C 25.722656 31.644531 25.757812 31.640625 25.792969 31.640625 C 25.898438 31.640625 26.007812 31.667969 26.113281 31.71875 C 26.25 31.789062 26.359375 31.898438 26.417969 32.019531 C 26.441406 32.074219 26.46875 32.167969 26.433594 32.261719 L 26.421875 32.289062 C 26.371094 32.382812 26.265625 32.417969 26.207031 32.429688 Z M 26.207031 32.429688 " fill-opacity="1" fill-rule="nonzero"/><g clip-path="url(#624d35575d)"><path fill="#b13511" d="M 7.761719 38.003906 L 7.105469 34.804688 C 7.070312 34.625 6.894531 34.507812 6.710938 34.542969 C 6.527344 34.582031 6.410156 34.757812 6.449219 34.9375 L 6.90625 37.164062 C 6.761719 37.132812 6.613281 37.121094 6.460938 37.136719 C 6.152344 37.167969 5.871094 37.296875 5.664062 37.496094 C 5.441406 37.710938 5.332031 37.996094 5.359375 38.28125 C 5.390625 38.5625 5.554688 38.820312 5.816406 38.988281 C 6.019531 39.117188 6.265625 39.1875 6.523438 39.1875 C 6.570312 39.1875 6.617188 39.183594 6.667969 39.179688 C 7.332031 39.113281 7.824219 38.601562 7.765625 38.039062 C 7.765625 38.03125 7.761719 38.023438 7.761719 38.015625 C 7.761719 38.011719 7.761719 38.007812 7.761719 38.003906 Z M 6.601562 38.515625 C 6.445312 38.53125 6.292969 38.5 6.179688 38.429688 C 6.128906 38.394531 6.039062 38.324219 6.027344 38.210938 C 6.015625 38.101562 6.089844 38.015625 6.132812 37.972656 C 6.230469 37.878906 6.371094 37.816406 6.527344 37.800781 C 6.550781 37.796875 6.578125 37.796875 6.601562 37.796875 C 6.730469 37.796875 6.855469 37.828125 6.949219 37.890625 C 6.996094 37.921875 7.074219 37.984375 7.09375 38.082031 L 7.097656 38.113281 C 7.113281 38.300781 6.882812 38.488281 6.601562 38.515625 Z M 6.601562 38.515625 " fill-opacity="1" fill-rule="nonzero"/></g></svg>