<svg xmlns="http://www.w3.org/2000/svg" xmlns:xlink="http://www.w3.org/1999/xlink" width="70" zoomAndPan="magnify" viewBox="0 0 52.5 52.499999" height="70" preserveAspectRatio="xMidYMid meet" version="1.0"><defs><clipPath id="7c7bfb770b"><path d="M 4.039062 5.25 L 47.527344 5.25 L 47.527344 44.25 L 4.039062 44.25 Z M 4.039062 5.25 " clip-rule="nonzero"/></clipPath></defs><g clip-path="url(#7c7bfb770b)"><path fill="#b13511" d="M 46.980469 29.503906 C 46.890625 29.691406 46.757812 29.824219 46.550781 29.851562 C 46.320312 29.882812 46.089844 29.910156 45.859375 29.910156 C 43.96875 29.898438 42.078125 29.875 40.183594 29.863281 C 39.109375 29.855469 38.03125 29.863281 36.953125 29.859375 C 36.867188 29.859375 36.78125 29.859375 36.664062 29.859375 C 36.875 28.996094 36.847656 28.136719 36.894531 27.265625 C 37.003906 27.265625 37.097656 27.265625 37.1875 27.265625 C 39.652344 27.273438 42.117188 27.28125 44.582031 27.289062 C 45 27.292969 45.421875 27.273438 45.835938 27.3125 C 46.09375 27.339844 46.34375 27.445312 46.585938 27.539062 C 46.792969 27.621094 46.90625 27.8125 46.988281 28.003906 C 47.203125 28.5 47.230469 29.003906 46.980469 29.503906 Z M 45.691406 30.550781 C 45.648438 30.996094 45.609375 31.441406 45.554688 31.886719 C 45.472656 32.5625 45.382812 33.234375 45.285156 33.90625 C 45.199219 34.46875 44.882812 34.851562 44.351562 35.054688 C 43.839844 35.25 43.304688 35.328125 42.757812 35.339844 C 42.726562 35.339844 42.699219 35.332031 42.660156 35.328125 C 42.65625 35.09375 42.671875 34.859375 42.503906 34.636719 C 42.316406 34.84375 42.34375 35.097656 42.296875 35.34375 C 42.078125 35.34375 41.863281 35.359375 41.648438 35.339844 C 41.109375 35.289062 40.570312 35.230469 40.03125 35.164062 C 39.5 35.097656 39.226562 34.753906 39.144531 34.257812 C 39.050781 33.6875 38.964844 33.113281 38.914062 32.539062 C 38.859375 31.875 38.847656 31.210938 38.820312 30.546875 C 38.816406 30.472656 38.820312 30.394531 38.820312 30.304688 C 39.320312 30.304688 39.796875 30.304688 40.304688 30.304688 C 40.289062 30.398438 40.285156 30.460938 40.273438 30.519531 C 40.222656 30.804688 40.234375 31.089844 40.261719 31.375 C 40.269531 31.417969 40.28125 31.464844 40.296875 31.507812 C 40.328125 31.585938 40.382812 31.636719 40.472656 31.632812 C 40.566406 31.628906 40.609375 31.566406 40.628906 31.484375 C 40.6875 31.179688 40.699219 30.871094 40.65625 30.5625 C 40.644531 30.488281 40.636719 30.410156 40.625 30.320312 C 41.242188 30.320312 41.839844 30.320312 42.429688 30.320312 C 42.429688 30.511719 42.429688 30.6875 42.429688 30.863281 C 42.433594 31.125 42.441406 31.386719 42.445312 31.648438 C 42.449219 31.679688 42.445312 31.71875 42.464844 31.738281 C 42.5 31.785156 42.546875 31.851562 42.585938 31.851562 C 42.644531 31.851562 42.726562 31.804688 42.75 31.757812 C 42.792969 31.667969 42.8125 31.566406 42.816406 31.464844 C 42.824219 31.097656 42.816406 30.726562 42.816406 30.324219 C 43.300781 30.292969 43.816406 30.316406 44.355469 30.304688 C 44.347656 30.445312 44.339844 30.566406 44.332031 30.6875 C 44.328125 30.894531 44.320312 31.101562 44.316406 31.3125 C 44.316406 31.339844 44.324219 31.371094 44.328125 31.402344 C 44.347656 31.492188 44.378906 31.570312 44.484375 31.574219 C 44.59375 31.578125 44.632812 31.5 44.648438 31.410156 C 44.695312 31.136719 44.742188 30.863281 44.703125 30.582031 C 44.691406 30.507812 44.6875 30.429688 44.675781 30.320312 C 45.027344 30.339844 45.355469 30.359375 45.691406 30.378906 C 45.691406 30.445312 45.695312 30.5 45.691406 30.550781 Z M 36.152344 26.625 C 36.074219 26.71875 35.996094 26.734375 35.890625 26.730469 C 34.621094 26.722656 33.347656 26.714844 32.078125 26.703125 C 29.222656 26.679688 26.371094 26.65625 23.515625 26.632812 C 20.878906 26.609375 18.246094 26.585938 15.609375 26.5625 C 15.578125 26.5625 15.546875 26.5625 15.507812 26.5625 C 15.226562 26.136719 14.984375 26.132812 14.667969 26.542969 C 14.371094 26.542969 14.070312 26.546875 13.769531 26.539062 C 13.714844 26.539062 13.652344 26.503906 13.605469 26.46875 C 13.519531 26.40625 13.433594 26.335938 13.363281 26.253906 C 12.847656 25.65625 12.335938 25.054688 11.816406 24.460938 C 11.722656 24.351562 11.699219 24.246094 11.722656 24.101562 C 11.882812 23.058594 11.289062 22.03125 10.300781 21.652344 C 10.160156 21.601562 10.089844 21.523438 10.03125 21.394531 C 9.453125 20.078125 9.234375 18.699219 9.359375 17.269531 C 9.488281 15.832031 10.132812 14.648438 11.1875 13.671875 C 11.261719 13.601562 11.367188 13.550781 11.46875 13.519531 C 12.246094 13.28125 13.019531 13.027344 13.804688 12.828125 C 15.429688 12.410156 17.082031 12.164062 18.746094 11.976562 C 21.441406 11.675781 24.144531 11.558594 26.851562 11.625 C 28.136719 11.660156 29.421875 11.738281 30.707031 11.839844 C 31.847656 11.933594 32.988281 12.0625 34.121094 12.230469 C 36.171875 12.53125 38.183594 12.996094 40.148438 13.671875 C 40.570312 13.816406 40.871094 14.046875 41.136719 14.382812 C 41.96875 15.445312 42.332031 16.652344 42.328125 17.988281 C 42.328125 19.160156 42.097656 20.277344 41.640625 21.351562 C 41.578125 21.5 41.496094 21.585938 41.34375 21.640625 C 40.347656 21.996094 39.738281 23.058594 39.917969 24.105469 C 39.941406 24.242188 39.925781 24.351562 39.835938 24.46875 C 39.320312 25.109375 38.785156 25.730469 38.183594 26.289062 C 38.0625 26.40625 37.945312 26.53125 37.832031 26.660156 C 37.765625 26.726562 37.699219 26.753906 37.605469 26.75 C 37.40625 26.746094 37.203125 26.742188 37 26.746094 C 36.898438 26.75 36.835938 26.714844 36.765625 26.632812 C 36.582031 26.414062 36.324219 26.410156 36.152344 26.625 Z M 35.964844 29.847656 C 35.898438 29.851562 35.828125 29.859375 35.761719 29.859375 C 34.320312 29.855469 32.878906 29.847656 31.4375 29.84375 C 31.308594 29.84375 31.226562 29.808594 31.148438 29.699219 C 30.558594 28.859375 29.808594 28.179688 28.949219 27.628906 C 28.703125 27.472656 28.433594 27.351562 28.175781 27.214844 C 28.175781 27.203125 28.175781 27.195312 28.175781 27.183594 C 30.792969 27.210938 33.410156 27.238281 36.054688 27.265625 C 36.0625 28.128906 36.082031 28.980469 35.964844 29.847656 Z M 29.097656 29.824219 C 28.980469 28.816406 28.492188 28.03125 27.6875 27.429688 C 27.699219 27.417969 27.707031 27.402344 27.71875 27.390625 C 27.824219 27.429688 27.933594 27.464844 28.035156 27.511719 C 28.417969 27.683594 28.765625 27.910156 29.09375 28.171875 C 29.628906 28.601562 30.113281 29.070312 30.535156 29.613281 C 30.582031 29.671875 30.625 29.734375 30.691406 29.824219 C 30.132812 29.824219 29.625 29.824219 29.097656 29.824219 Z M 27.417969 29.816406 C 27.457031 28.972656 27.472656 28.144531 27.054688 27.375 C 27.835938 27.609375 28.730469 28.882812 28.757812 29.816406 C 28.304688 29.816406 27.875 29.816406 27.417969 29.816406 Z M 27.027344 29.808594 C 26.484375 29.808594 25.941406 29.808594 25.363281 29.808594 C 25.410156 29.71875 25.441406 29.648438 25.480469 29.578125 C 25.738281 29.109375 25.945312 28.621094 26.03125 28.085938 C 26.074219 27.820312 26.101562 27.554688 26.140625 27.265625 C 26.179688 27.265625 26.242188 27.269531 26.296875 27.257812 C 26.582031 27.199219 26.722656 27.359375 26.828125 27.589844 C 26.957031 27.882812 27.03125 28.1875 27.058594 28.507812 C 27.09375 28.9375 27.105469 29.367188 27.027344 29.808594 Z M 24.882812 29.804688 C 24.449219 29.804688 24.023438 29.804688 23.59375 29.804688 C 24.03125 29.058594 25.394531 27.25 25.792969 27.175781 C 25.898438 27.601562 25.386719 29.082031 24.882812 29.804688 Z M 23.128906 29.652344 C 23.039062 29.777344 22.945312 29.816406 22.796875 29.816406 C 21.070312 29.804688 19.339844 29.800781 17.613281 29.796875 C 16.992188 29.792969 16.371094 29.792969 15.75 29.789062 C 15.675781 29.789062 15.601562 29.78125 15.527344 29.777344 C 15.527344 28.867188 15.527344 27.988281 15.527344 27.113281 C 15.742188 27.0625 24.640625 27.121094 25.203125 27.175781 C 25.1875 27.203125 25.183594 27.234375 25.164062 27.25 C 24.679688 27.664062 24.269531 28.152344 23.882812 28.652344 C 23.625 28.984375 23.371094 29.316406 23.128906 29.652344 Z M 14.347656 29.78125 C 11.472656 29.777344 8.59375 29.773438 5.71875 29.769531 C 5.578125 29.769531 5.433594 29.777344 5.304688 29.742188 C 4.859375 29.613281 4.671875 29.265625 4.617188 28.84375 C 4.558594 28.371094 4.65625 27.917969 4.859375 27.488281 C 4.914062 27.371094 5 27.292969 5.117188 27.234375 C 5.523438 27.039062 5.949219 26.960938 6.398438 26.96875 C 7.882812 26.988281 9.363281 27.007812 10.84375 27.023438 C 11.992188 27.039062 13.136719 27.050781 14.285156 27.0625 C 14.371094 27.0625 14.453125 27.0625 14.550781 27.0625 C 14.460938 27.992188 14.554688 28.867188 14.601562 29.773438 C 14.511719 29.777344 14.429688 29.78125 14.347656 29.78125 Z M 12.652344 34.097656 C 12.617188 34.292969 12.546875 34.484375 12.46875 34.667969 C 12.386719 34.863281 12.234375 35 12.027344 35.054688 C 11.765625 35.121094 11.5 35.191406 11.234375 35.21875 C 10.710938 35.269531 10.183594 35.296875 9.660156 35.332031 C 9.597656 35.339844 9.539062 35.328125 9.460938 35.324219 C 9.441406 35.070312 9.449219 34.835938 9.28125 34.625 C 9.078125 34.820312 9.128906 35.066406 9.109375 35.316406 C 8.921875 35.308594 8.746094 35.308594 8.570312 35.292969 C 8.160156 35.25 7.757812 35.167969 7.375 35.011719 C 6.902344 34.820312 6.59375 34.476562 6.507812 33.972656 C 6.40625 33.363281 6.320312 32.753906 6.246094 32.140625 C 6.171875 31.542969 6.117188 30.941406 6.054688 30.34375 C 6.050781 30.3125 6.054688 30.285156 6.054688 30.246094 C 6.402344 30.246094 6.738281 30.246094 7.0625 30.246094 C 7.0625 30.441406 7.054688 30.625 7.066406 30.808594 C 7.074219 30.992188 7.097656 31.179688 7.117188 31.363281 C 7.128906 31.460938 7.164062 31.546875 7.28125 31.550781 C 7.378906 31.554688 7.445312 31.480469 7.445312 31.335938 C 7.445312 31.042969 7.429688 30.75 7.421875 30.457031 C 7.417969 30.394531 7.40625 30.335938 7.398438 30.238281 C 7.929688 30.230469 8.453125 30.234375 8.984375 30.234375 C 8.96875 30.527344 8.941406 30.796875 8.941406 31.066406 C 8.9375 31.25 8.960938 31.433594 8.980469 31.617188 C 8.984375 31.664062 8.996094 31.714844 9.027344 31.746094 C 9.066406 31.789062 9.132812 31.84375 9.171875 31.835938 C 9.226562 31.820312 9.296875 31.753906 9.304688 31.703125 C 9.332031 31.460938 9.351562 31.210938 9.351562 30.964844 C 9.351562 30.734375 9.324219 30.503906 9.308594 30.273438 C 9.464844 30.226562 10.792969 30.214844 11.148438 30.257812 C 11.136719 30.363281 11.132812 30.46875 11.113281 30.570312 C 11.058594 30.832031 11.09375 31.09375 11.125 31.355469 C 11.140625 31.53125 11.203125 31.613281 11.300781 31.617188 C 11.402344 31.621094 11.488281 31.535156 11.496094 31.371094 C 11.511719 31.109375 11.507812 30.847656 11.503906 30.585938 C 11.503906 30.480469 11.480469 30.375 11.464844 30.25 C 11.949219 30.25 12.425781 30.25 12.917969 30.25 C 12.925781 30.296875 12.941406 30.339844 12.941406 30.382812 C 12.949219 31.628906 12.886719 32.871094 12.652344 34.097656 Z M 9.539062 21.785156 C 10.605469 21.808594 11.433594 22.664062 11.40625 23.71875 C 11.417969 24.707031 10.574219 25.683594 9.390625 25.640625 C 8.347656 25.601562 7.515625 24.722656 7.539062 23.652344 C 7.5625 22.597656 8.464844 21.757812 9.539062 21.785156 Z M 5.269531 22.609375 C 5.394531 22.011719 5.539062 21.417969 5.765625 20.847656 C 6.09375 20.015625 6.585938 19.304688 7.347656 18.808594 C 7.714844 18.566406 8.109375 18.394531 8.5625 18.394531 C 8.613281 18.394531 8.667969 18.394531 8.75 18.394531 C 8.800781 19.457031 9.003906 20.484375 9.414062 21.480469 C 8.035156 21.625 7.382812 22.582031 7.273438 23.496094 C 7.164062 24.386719 7.617188 25.3125 8.527344 25.761719 C 9.28125 26.132812 10.5 26.15625 11.417969 24.972656 C 11.863281 25.476562 12.304688 25.976562 12.746094 26.476562 C 12.738281 26.496094 12.734375 26.503906 12.730469 26.507812 C 12.726562 26.515625 12.71875 26.523438 12.714844 26.523438 C 10.226562 26.515625 7.738281 26.507812 5.246094 26.5 C 5.210938 26.5 5.171875 26.488281 5.113281 26.476562 C 5.082031 26.203125 5.046875 25.929688 5.023438 25.652344 C 4.941406 24.625 5.066406 23.613281 5.269531 22.609375 Z M 13.804688 12.222656 C 14.929688 11.859375 16.074219 11.589844 17.242188 11.425781 C 18.515625 11.246094 19.792969 11.082031 21.070312 10.933594 C 21.679688 10.859375 22.289062 10.820312 22.902344 10.789062 C 23.785156 10.738281 24.667969 10.683594 25.550781 10.667969 C 26.683594 10.648438 27.8125 10.695312 28.941406 10.804688 C 29.589844 10.867188 30.242188 10.890625 30.890625 10.964844 C 32.019531 11.097656 33.152344 11.242188 34.277344 11.398438 C 35.277344 11.539062 36.261719 11.761719 37.230469 12.035156 C 38.09375 12.273438 38.929688 12.574219 39.683594 13.066406 C 39.75 13.109375 39.8125 13.152344 39.859375 13.226562 C 39.71875 13.183594 39.585938 13.140625 39.445312 13.09375 C 37.839844 12.5625 36.191406 12.199219 34.519531 11.945312 C 33.332031 11.765625 32.140625 11.601562 30.945312 11.484375 C 28.582031 11.253906 26.207031 11.171875 23.832031 11.238281 C 22.710938 11.269531 21.585938 11.308594 20.464844 11.394531 C 18.5 11.539062 16.546875 11.796875 14.621094 12.21875 C 14.039062 12.347656 13.464844 12.503906 12.886719 12.648438 C 12.835938 12.660156 12.789062 12.667969 12.738281 12.675781 C 12.734375 12.660156 12.730469 12.648438 12.726562 12.632812 C 13.085938 12.496094 13.441406 12.339844 13.804688 12.222656 Z M 36.902344 11.335938 C 36.601562 11.269531 36.320312 11.203125 36.035156 11.140625 C 35.011719 10.914062 33.980469 10.75 32.941406 10.632812 C 32.242188 10.550781 31.539062 10.457031 30.839844 10.402344 C 29.933594 10.324219 29.027344 10.28125 28.125 10.222656 C 27.589844 10.1875 27.054688 10.15625 26.523438 10.113281 C 25.792969 10.054688 25.066406 10.089844 24.339844 10.140625 C 23.289062 10.214844 22.234375 10.277344 21.183594 10.367188 C 20.4375 10.425781 19.6875 10.503906 18.941406 10.605469 C 18.042969 10.722656 17.144531 10.84375 16.253906 11.015625 C 15.503906 11.15625 14.765625 11.367188 14.019531 11.546875 C 13.929688 11.566406 13.84375 11.59375 13.722656 11.628906 C 13.914062 10.308594 14.175781 9.035156 14.507812 7.769531 C 15.058594 7.691406 15.59375 7.605469 16.132812 7.53125 C 16.914062 7.425781 17.695312 7.3125 18.484375 7.230469 C 19.339844 7.144531 20.195312 7.070312 21.054688 7.023438 C 22.347656 6.949219 23.640625 6.890625 24.933594 6.84375 C 26.265625 6.796875 27.601562 6.800781 28.933594 6.867188 C 30.40625 6.941406 31.863281 7.144531 33.304688 7.453125 C 34.320312 7.667969 35.335938 7.882812 36.351562 8.097656 C 36.417969 8.113281 36.484375 8.132812 36.578125 8.15625 C 36.695312 9.214844 36.894531 10.257812 36.902344 11.335938 Z M 13.882812 7.128906 C 14.636719 6.925781 15.394531 6.703125 16.160156 6.515625 C 17.25 6.246094 18.363281 6.074219 19.480469 5.941406 C 20.789062 5.78125 22.101562 5.691406 23.417969 5.648438 C 24.777344 5.601562 26.132812 5.617188 27.488281 5.679688 C 29.339844 5.765625 31.183594 5.945312 33.015625 6.230469 C 34.449219 6.453125 35.867188 6.746094 37.269531 7.113281 C 37.328125 7.128906 37.386719 7.148438 37.464844 7.171875 C 37.574219 7.902344 37.707031 8.632812 37.746094 9.375 C 37.789062 10.101562 37.800781 10.832031 37.828125 11.597656 C 37.59375 11.53125 37.398438 11.472656 37.238281 11.425781 C 37.195312 10.886719 37.164062 10.378906 37.117188 9.875 C 37.074219 9.441406 37.019531 9.011719 36.953125 8.585938 C 36.921875 8.394531 36.851562 8.214844 36.804688 8.027344 C 36.769531 7.898438 36.6875 7.832031 36.566406 7.804688 C 36.203125 7.714844 35.847656 7.609375 35.484375 7.539062 C 34.320312 7.300781 33.160156 7.066406 31.992188 6.855469 C 31.007812 6.675781 30.011719 6.585938 29.011719 6.53125 C 27.726562 6.464844 26.441406 6.433594 25.152344 6.492188 C 23.9375 6.546875 22.71875 6.582031 21.503906 6.652344 C 20.011719 6.738281 18.519531 6.855469 17.042969 7.097656 C 16.183594 7.238281 15.328125 7.382812 14.472656 7.519531 C 14.378906 7.535156 14.339844 7.589844 14.3125 7.664062 C 14.191406 7.996094 14.054688 8.328125 13.964844 8.667969 C 13.710938 9.671875 13.492188 10.683594 13.398438 11.746094 C 13.191406 11.824219 12.988281 11.90625 12.765625 11.992188 C 13.050781 10.347656 13.492188 8.757812 13.882812 7.128906 Z M 40.164062 23.65625 C 40.1875 22.601562 41.085938 21.757812 42.160156 21.785156 C 43.230469 21.808594 44.058594 22.664062 44.035156 23.714844 C 44.042969 24.707031 43.199219 25.683594 42.023438 25.640625 C 40.976562 25.601562 40.140625 24.722656 40.164062 23.65625 Z M 42.902344 18.402344 C 43.234375 18.382812 43.542969 18.417969 43.835938 18.550781 C 44.582031 18.890625 45.140625 19.433594 45.546875 20.136719 C 45.902344 20.75 46.113281 21.421875 46.273438 22.109375 C 46.488281 23.046875 46.660156 23.988281 46.652344 24.953125 C 46.648438 25.429688 46.585938 25.90625 46.550781 26.386719 C 46.53125 26.644531 46.367188 26.785156 46.136719 26.859375 C 46.042969 26.890625 45.9375 26.90625 45.839844 26.90625 C 43.640625 26.859375 41.4375 26.8125 39.234375 26.765625 C 39.074219 26.761719 38.910156 26.761719 38.75 26.761719 C 38.738281 26.746094 38.726562 26.726562 38.714844 26.707031 C 39.214844 26.132812 39.71875 25.558594 40.234375 24.96875 C 40.289062 25.035156 40.34375 25.097656 40.394531 25.160156 C 41.359375 26.328125 43.164062 26.242188 44.011719 24.984375 C 44.804688 23.804688 44.253906 22.136719 42.902344 21.644531 C 42.703125 21.570312 42.488281 21.53125 42.246094 21.46875 C 42.640625 20.496094 42.855469 19.476562 42.902344 18.402344 Z M 40.082031 38.824219 C 40.292969 38.785156 40.507812 38.742188 40.71875 38.707031 C 40.785156 38.695312 40.855469 38.6875 40.921875 38.679688 C 40.691406 38.914062 40.507812 39.148438 40.398438 39.433594 C 40.351562 39.546875 40.261719 39.546875 40.171875 39.558594 C 39.71875 39.625 39.269531 39.683594 38.816406 39.75 C 38.550781 39.789062 38.285156 39.835938 38 39.878906 C 38.019531 39.605469 38.136719 39.386719 38.304688 39.195312 C 38.355469 39.140625 38.453125 39.113281 38.53125 39.097656 C 39.046875 39.003906 39.566406 38.914062 40.082031 38.824219 Z M 42.441406 39.097656 C 42.648438 39.394531 42.714844 39.613281 42.730469 40.09375 C 42.769531 40.46875 42.597656 40.820312 42.261719 41.089844 C 41.910156 41.375 41.554688 41.414062 41.191406 41.113281 C 40.675781 40.683594 40.359375 39.832031 40.957031 39.058594 C 41.375 38.515625 42.042969 38.53125 42.441406 39.097656 Z M 40.960938 41.457031 C 40.21875 41.496094 39.476562 41.53125 38.734375 41.570312 C 38.726562 41.570312 38.71875 41.570312 38.710938 41.570312 C 38.351562 41.570312 38.289062 41.523438 38.164062 41.152344 C 38.949219 41 39.746094 40.984375 40.511719 40.875 C 40.695312 41.066406 40.863281 41.242188 41.039062 41.425781 C 41.011719 41.4375 40.988281 41.457031 40.960938 41.457031 Z M 38.046875 40.9375 C 37.90625 40.679688 37.890625 40.414062 37.941406 40.144531 C 38.730469 40.019531 39.507812 39.898438 40.269531 39.777344 C 40.316406 40.074219 40.367188 40.375 40.417969 40.691406 C 39.632812 40.730469 38.839844 40.75 38.046875 40.9375 Z M 32.566406 39.863281 C 32.621094 39.921875 32.675781 39.984375 32.742188 40.011719 C 32.796875 40.035156 32.882812 40.027344 32.933594 40 C 32.996094 39.957031 32.988281 39.875 32.945312 39.8125 C 32.886719 39.730469 32.820312 39.652344 32.757812 39.574219 C 32.652344 39.441406 32.546875 39.3125 32.425781 39.160156 C 32.539062 39.105469 32.632812 39.054688 32.730469 39.007812 C 32.894531 39.246094 33.039062 39.476562 33.199219 39.691406 C 33.359375 39.910156 33.53125 40.113281 33.710938 40.335938 C 33.382812 40.449219 33.128906 40.632812 32.945312 40.917969 C 32.570312 40.496094 32.210938 40.089844 31.835938 39.671875 C 31.921875 39.582031 32.007812 39.488281 32.109375 39.382812 C 32.269531 39.554688 32.417969 39.710938 32.566406 39.863281 Z M 33.292969 39.042969 C 33.59375 39.386719 33.894531 39.726562 34.195312 40.070312 C 34.246094 40.125 34.292969 40.1875 34.367188 40.28125 C 34.207031 40.28125 34.101562 40.28125 33.972656 40.28125 C 33.621094 39.859375 33.253906 39.421875 32.886719 38.980469 C 33.140625 38.863281 33.144531 38.867188 33.292969 39.042969 Z M 34.917969 41.804688 C 34.777344 42.027344 34.585938 42.1875 34.347656 42.300781 C 33.714844 42.601562 32.984375 42.023438 33.035156 41.445312 C 33.015625 41.253906 33.09375 41.085938 33.199219 40.933594 C 33.441406 40.582031 33.804688 40.449219 34.207031 40.457031 C 34.8125 40.460938 35.289062 41.230469 34.917969 41.804688 Z M 32.777344 41.707031 C 32.335938 41.164062 31.929688 40.664062 31.511719 40.152344 C 31.589844 40.027344 31.660156 39.910156 31.742188 39.777344 C 32.117188 40.230469 32.476562 40.667969 32.835938 41.101562 C 32.820312 41.28125 32.800781 41.46875 32.777344 41.707031 Z M 28.054688 40.96875 C 28.273438 40.945312 28.445312 40.996094 28.59375 41.160156 C 28.703125 41.289062 28.804688 41.417969 28.871094 41.582031 C 28.386719 41.636719 27.917969 41.691406 27.453125 41.746094 C 27.183594 41.78125 26.914062 41.816406 26.644531 41.839844 C 26.582031 41.84375 26.492188 41.832031 26.460938 41.792969 C 26.257812 41.542969 26.019531 41.34375 25.726562 41.183594 C 25.808594 41.171875 25.890625 41.15625 25.972656 41.152344 C 26.667969 41.089844 27.363281 41.035156 28.054688 40.96875 Z M 28.996094 41.828125 C 29.117188 42.0625 29.152344 42.320312 29.109375 42.617188 C 28.304688 42.652344 27.523438 42.8125 26.71875 43.007812 C 26.71875 42.84375 26.730469 42.691406 26.714844 42.546875 C 26.699219 42.394531 26.65625 42.242188 26.625 42.082031 C 27.402344 41.996094 28.183594 41.914062 28.996094 41.828125 Z M 28.9375 43.253906 C 28.90625 43.3125 28.816406 43.347656 28.746094 43.367188 C 28.441406 43.449219 28.132812 43.523438 27.824219 43.589844 C 27.375 43.6875 26.929688 43.773438 26.480469 43.863281 C 26.429688 43.871094 26.378906 43.875 26.324219 43.878906 C 26.449219 43.652344 26.566406 43.441406 26.699219 43.199219 C 27.453125 43.082031 28.238281 42.960938 29.042969 42.835938 C 29.054688 43.011719 29.003906 43.140625 28.9375 43.253906 Z M 26.085938 43.625 C 25.839844 43.941406 25.542969 44.042969 25.164062 43.898438 C 24.765625 43.75 24.480469 43.488281 24.363281 43.058594 C 24.261719 42.675781 24.234375 42.300781 24.394531 41.925781 C 24.492188 41.6875 24.648438 41.503906 24.890625 41.398438 C 25.175781 41.273438 25.445312 41.335938 25.6875 41.484375 C 26.125 41.761719 26.378906 42.160156 26.394531 42.683594 C 26.382812 43.035156 26.296875 43.347656 26.085938 43.625 Z M 19.367188 40.085938 C 19.359375 40.097656 19.351562 40.109375 19.347656 40.121094 C 19.210938 40.070312 19.078125 40.019531 18.933594 39.964844 C 18.964844 39.894531 18.992188 39.832031 19.023438 39.773438 C 19.042969 39.730469 19.066406 39.691406 19.105469 39.621094 C 19.199219 39.789062 19.285156 39.9375 19.367188 40.085938 Z M 19.640625 41.308594 C 19.640625 41.960938 19.0625 42.589844 18.460938 42.574219 C 17.71875 42.546875 17.195312 41.933594 17.203125 41.359375 C 17.214844 40.804688 17.679688 40.167969 18.4375 40.167969 C 19.097656 40.171875 19.640625 40.6875 19.640625 41.308594 Z M 16.414062 38.898438 C 16.519531 38.820312 16.636719 38.742188 16.761719 38.65625 C 16.949219 39.25 17.128906 39.816406 17.320312 40.421875 C 17.226562 40.550781 17.121094 40.699219 17 40.867188 C 16.800781 40.203125 16.609375 39.5625 16.414062 38.898438 Z M 17.636719 38.320312 C 17.792969 38.855469 17.949219 39.394531 18.105469 39.941406 C 17.910156 40.035156 17.714844 40.128906 17.511719 40.226562 C 17.328125 39.671875 17.144531 39.117188 16.957031 38.558594 C 17.15625 38.421875 17.375 38.359375 17.636719 38.320312 Z M 18.507812 38.449219 C 18.535156 38.457031 18.554688 38.484375 18.574219 38.507812 C 18.589844 38.535156 18.597656 38.566406 18.609375 38.59375 C 18.6875 38.769531 18.816406 38.941406 18.824219 39.125 C 18.832031 39.300781 18.722656 39.488281 18.664062 39.667969 C 18.640625 39.75 18.617188 39.832031 18.585938 39.921875 C 18.515625 39.921875 18.441406 39.921875 18.390625 39.921875 C 18.199219 39.386719 18.007812 38.859375 17.816406 38.324219 C 18.074219 38.296875 18.289062 38.390625 18.507812 38.449219 Z M 14.433594 39.4375 C 14.652344 39.414062 14.824219 39.453125 14.972656 39.621094 C 15.085938 39.75 15.1875 39.882812 15.257812 40.046875 C 14.570312 40.128906 13.910156 40.207031 13.25 40.285156 C 13.160156 40.296875 13.066406 40.3125 12.972656 40.308594 C 12.925781 40.308594 12.863281 40.285156 12.835938 40.253906 C 12.640625 40 12.394531 39.808594 12.050781 39.660156 C 12.195312 39.640625 12.285156 39.625 12.375 39.617188 C 13.0625 39.558594 13.75 39.503906 14.433594 39.4375 Z M 15.378906 40.292969 C 15.507812 40.527344 15.527344 40.789062 15.492188 41.082031 C 14.683594 41.117188 13.894531 41.289062 13.128906 41.46875 C 13.097656 41.152344 13.070312 40.855469 13.039062 40.546875 C 13.796875 40.464844 14.582031 40.378906 15.378906 40.292969 Z M 15.4375 41.378906 C 15.414062 41.679688 15.257812 41.835938 14.953125 41.894531 C 14.230469 42.03125 13.515625 42.191406 12.796875 42.34375 C 12.773438 42.347656 12.75 42.34375 12.714844 42.34375 C 12.835938 42.121094 12.953125 41.902344 13.082031 41.667969 C 13.847656 41.570312 14.625 41.386719 15.433594 41.324219 C 15.4375 41.363281 15.4375 41.371094 15.4375 41.378906 Z M 12.34375 42.242188 C 12.214844 42.371094 12.0625 42.425781 11.878906 42.421875 C 11.445312 42.402344 11.09375 42.207031 10.886719 41.835938 C 10.632812 41.378906 10.574219 40.882812 10.785156 40.382812 C 10.878906 40.160156 11.023438 39.988281 11.242188 39.882812 C 11.542969 39.738281 11.828125 39.796875 12.082031 39.960938 C 12.980469 40.53125 12.949219 41.621094 12.34375 42.242188 Z M 47.492188 28.527344 C 47.40625 28.070312 47.269531 27.628906 46.992188 27.242188 C 46.945312 27.179688 46.921875 27.121094 46.949219 27.03125 C 47.1875 26.300781 47.234375 25.546875 47.214844 24.785156 C 47.1875 23.898438 47.046875 23.03125 46.855469 22.167969 C 46.691406 21.433594 46.480469 20.714844 46.113281 20.050781 C 45.6875 19.285156 45.117188 18.660156 44.339844 18.230469 C 43.914062 17.996094 43.476562 17.890625 42.996094 18.011719 C 42.976562 18.015625 42.953125 18.007812 42.902344 18.003906 C 42.902344 17.882812 42.90625 17.757812 42.898438 17.636719 C 42.894531 17.511719 42.882812 17.390625 42.871094 17.265625 C 42.742188 15.671875 42.050781 14.351562 40.886719 13.269531 C 40.160156 12.59375 39.308594 12.128906 38.378906 11.792969 C 38.300781 11.765625 38.222656 11.734375 38.15625 11.707031 C 38.171875 11.410156 38.195312 11.132812 38.199219 10.855469 C 38.207031 10.121094 38.148438 9.390625 38.054688 8.660156 C 37.984375 8.09375 37.894531 7.527344 37.726562 6.980469 C 37.707031 6.917969 37.644531 6.855469 37.585938 6.8125 C 37.53125 6.777344 37.457031 6.765625 37.390625 6.75 C 36.089844 6.421875 34.777344 6.15625 33.453125 5.9375 C 31.96875 5.691406 30.476562 5.515625 28.976562 5.402344 C 27.234375 5.273438 25.492188 5.207031 23.746094 5.28125 C 22.886719 5.316406 22.027344 5.363281 21.167969 5.433594 C 20.457031 5.492188 19.75 5.589844 19.042969 5.671875 C 17.949219 5.800781 16.859375 5.953125 15.792969 6.222656 C 15.195312 6.371094 14.609375 6.539062 14.035156 6.753906 C 13.785156 6.851562 13.648438 7.007812 13.578125 7.253906 C 13.363281 8.019531 13.117188 8.777344 12.929688 9.550781 C 12.730469 10.378906 12.582031 11.214844 12.417969 12.046875 C 12.398438 12.148438 12.34375 12.1875 12.269531 12.230469 C 11.996094 12.394531 11.710938 12.542969 11.453125 12.726562 C 9.898438 13.832031 8.972656 15.316406 8.785156 17.230469 C 8.761719 17.488281 8.75 17.75 8.730469 18.019531 C 8.628906 18.003906 8.535156 17.988281 8.445312 17.972656 C 8.007812 17.914062 7.617188 18.054688 7.25 18.269531 C 6.4375 18.734375 5.855469 19.414062 5.441406 20.246094 C 5.109375 20.914062 4.914062 21.628906 4.757812 22.359375 C 4.460938 23.773438 4.292969 25.195312 4.59375 26.636719 C 4.617188 26.746094 4.585938 26.824219 4.507812 26.90625 C 4.273438 27.140625 4.105469 27.421875 4.066406 27.757812 C 4.003906 28.308594 4.039062 28.863281 4.257812 29.375 C 4.46875 29.875 4.839844 30.210938 5.433594 30.210938 C 5.523438 30.210938 5.613281 30.222656 5.722656 30.230469 C 5.722656 30.351562 5.714844 30.457031 5.722656 30.5625 C 5.769531 31.300781 5.804688 32.042969 5.875 32.78125 C 5.917969 33.226562 6 33.667969 6.097656 34.105469 C 6.226562 34.699219 6.566406 35.152344 7.132812 35.394531 C 7.445312 35.527344 7.773438 35.625 8.101562 35.710938 C 8.601562 35.835938 9.117188 35.832031 9.628906 35.839844 C 10.414062 35.847656 11.191406 35.777344 11.957031 35.582031 C 12.527344 35.433594 12.875 35.074219 13.035156 34.515625 C 13.273438 33.683594 13.355469 32.828125 13.390625 31.96875 C 13.410156 31.46875 13.390625 30.964844 13.390625 30.460938 C 13.394531 30.394531 13.402344 30.328125 13.40625 30.273438 C 16.480469 30.273438 19.535156 30.273438 22.628906 30.273438 C 22.570312 30.355469 22.542969 30.398438 22.511719 30.441406 C 21.980469 31.117188 21.453125 31.792969 20.914062 32.464844 C 20.4375 33.066406 19.902344 33.617188 19.347656 34.148438 C 18.492188 34.96875 17.542969 35.683594 16.589844 36.386719 C 15.636719 37.085938 14.742188 37.847656 14.023438 38.792969 C 13.917969 38.929688 13.828125 39.097656 13.6875 39.171875 C 13.546875 39.246094 13.355469 39.21875 13.1875 39.246094 C 12.59375 39.347656 11.996094 39.4375 11.40625 39.570312 C 10.941406 39.671875 10.644531 39.976562 10.503906 40.445312 C 10.371094 40.886719 10.433594 41.308594 10.558594 41.742188 C 10.703125 42.253906 11.394531 42.757812 11.976562 42.714844 C 12.183594 42.699219 12.394531 42.6875 12.597656 42.648438 C 13.214844 42.539062 13.832031 42.417969 14.445312 42.296875 C 14.726562 42.242188 15.007812 42.179688 15.285156 42.101562 C 15.394531 42.066406 15.53125 41.996094 15.582031 41.902344 C 15.792969 41.519531 15.921875 41.101562 15.882812 40.65625 C 15.832031 40.085938 15.527344 39.644531 15.085938 39.296875 C 14.917969 39.167969 14.726562 39.117188 14.515625 39.136719 C 14.429688 39.148438 14.335938 39.167969 14.242188 39.109375 C 14.414062 38.929688 14.570312 38.761719 14.734375 38.597656 C 15.121094 38.21875 15.488281 37.816406 15.90625 37.472656 C 16.566406 36.933594 17.261719 36.441406 17.9375 35.921875 C 19.152344 35 20.265625 33.96875 21.230469 32.792969 C 21.867188 32.019531 22.472656 31.226562 23.082031 30.433594 C 23.179688 30.308594 23.28125 30.261719 23.429688 30.265625 C 23.765625 30.277344 24.097656 30.269531 24.433594 30.273438 C 24.480469 30.273438 24.527344 30.285156 24.59375 30.296875 C 24.542969 30.382812 24.507812 30.453125 24.464844 30.515625 C 24.171875 30.941406 23.890625 31.378906 23.582031 31.792969 C 22.703125 32.972656 21.796875 34.136719 20.925781 35.320312 C 20.160156 36.363281 19.519531 37.488281 19.019531 38.683594 C 19.007812 38.714844 18.984375 38.738281 18.945312 38.792969 C 18.886719 38.660156 18.847656 38.550781 18.792969 38.449219 C 18.75 38.371094 18.695312 38.28125 18.621094 38.242188 C 17.941406 37.90625 16.996094 37.996094 16.402344 38.652344 C 16.257812 38.8125 16.207031 38.984375 16.269531 39.203125 C 16.402344 39.671875 16.515625 40.144531 16.640625 40.613281 C 16.75 41.007812 16.855469 41.402344 16.972656 41.796875 C 17.21875 42.628906 18.078125 43 18.679688 42.890625 C 19.472656 42.75 20.066406 41.964844 19.949219 41.175781 C 19.878906 40.722656 19.792969 40.261719 19.554688 39.851562 C 19.472656 39.707031 19.40625 39.558594 19.324219 39.421875 C 19.265625 39.324219 19.265625 39.242188 19.3125 39.140625 C 19.476562 38.808594 19.632812 38.46875 19.789062 38.132812 C 20.460938 36.722656 21.332031 35.4375 22.265625 34.1875 C 23.203125 32.9375 24.191406 31.71875 25.011719 30.386719 C 25.070312 30.289062 25.140625 30.269531 25.242188 30.269531 C 25.753906 30.273438 26.265625 30.273438 26.777344 30.273438 C 26.832031 30.273438 26.882812 30.285156 26.945312 30.289062 C 26.9375 30.351562 26.933594 30.40625 26.917969 30.457031 C 26.796875 30.953125 26.6875 31.453125 26.542969 31.941406 C 26.152344 33.292969 25.777344 34.644531 25.621094 36.050781 C 25.515625 37.015625 25.542969 37.964844 25.761719 38.910156 C 25.894531 39.503906 26.164062 40.042969 26.402344 40.597656 C 26.429688 40.664062 26.457031 40.730469 26.492188 40.8125 C 26.359375 40.832031 26.25 40.84375 26.144531 40.867188 C 25.765625 40.941406 25.382812 41.003906 25.007812 41.101562 C 24.546875 41.222656 24.25 41.523438 24.113281 41.988281 C 23.984375 42.429688 24.046875 42.855469 24.175781 43.285156 C 24.324219 43.78125 25 44.285156 25.578125 44.246094 C 25.796875 44.234375 26.011719 44.21875 26.226562 44.179688 C 26.835938 44.070312 27.441406 43.953125 28.050781 43.832031 C 28.339844 43.773438 28.625 43.703125 28.910156 43.632812 C 29.085938 43.589844 29.214844 43.484375 29.269531 43.300781 C 29.316406 43.148438 29.378906 42.996094 29.421875 42.839844 C 29.628906 42.066406 29.355469 41.300781 28.707031 40.835938 C 28.542969 40.71875 28.367188 40.65625 28.164062 40.667969 C 27.894531 40.6875 27.621094 40.699219 27.351562 40.71875 C 27.175781 40.730469 27 40.75 26.816406 40.769531 C 26.679688 40.363281 26.539062 39.972656 26.414062 39.574219 C 26.128906 38.660156 25.957031 37.730469 26.003906 36.765625 C 26.054688 35.773438 26.230469 34.800781 26.464844 33.839844 C 26.6875 32.945312 26.933594 32.058594 27.160156 31.167969 C 27.234375 30.878906 27.285156 30.585938 27.347656 30.296875 C 27.652344 30.253906 28.679688 30.265625 28.863281 30.324219 C 28.90625 31 28.953125 31.6875 28.996094 32.375 C 29.042969 33.128906 29.105469 33.882812 29.273438 34.625 C 29.515625 35.6875 29.894531 36.691406 30.546875 37.566406 C 30.941406 38.089844 31.394531 38.570312 31.824219 39.070312 C 31.875 39.132812 31.933594 39.191406 31.984375 39.25 C 31.773438 39.488281 31.558594 39.691406 31.453125 39.976562 C 31.402344 40.109375 31.402344 40.21875 31.488281 40.34375 C 31.949219 41.015625 32.449219 41.65625 33.019531 42.238281 C 33.621094 42.847656 34.339844 42.761719 34.882812 42.320312 C 35.449219 41.855469 35.425781 41.179688 35.054688 40.726562 C 34.734375 40.332031 34.382812 39.960938 34.035156 39.585938 C 33.800781 39.328125 33.546875 39.085938 33.3125 38.832031 C 33.21875 38.734375 33.113281 38.707031 32.996094 38.742188 C 32.761719 38.8125 32.53125 38.898438 32.285156 38.980469 C 32.085938 38.746094 31.867188 38.496094 31.660156 38.234375 C 31.328125 37.824219 30.980469 37.429688 30.6875 36.992188 C 29.90625 35.828125 29.539062 34.515625 29.410156 33.136719 C 29.355469 32.574219 29.324219 32.007812 29.28125 31.445312 C 29.253906 31.070312 29.21875 30.691406 29.183594 30.277344 C 29.277344 30.277344 29.351562 30.277344 29.429688 30.277344 C 29.871094 30.277344 30.3125 30.285156 30.753906 30.269531 C 30.9375 30.261719 31.039062 30.320312 31.117188 30.484375 C 31.445312 31.175781 31.789062 31.859375 32.117188 32.550781 C 32.414062 33.179688 32.738281 33.796875 33.144531 34.367188 C 33.835938 35.339844 34.699219 36.128906 35.664062 36.820312 C 36.625 37.503906 37.648438 38.085938 38.710938 38.59375 C 38.761719 38.617188 38.804688 38.652344 38.886719 38.703125 C 38.710938 38.746094 38.570312 38.761719 38.441406 38.8125 C 38.300781 38.867188 38.140625 38.921875 38.042969 39.03125 C 37.640625 39.46875 37.46875 39.996094 37.542969 40.589844 C 37.585938 40.941406 37.785156 41.234375 37.96875 41.53125 C 38.132812 41.792969 38.355469 41.894531 38.652344 41.875 C 38.691406 41.871094 38.730469 41.875 38.769531 41.871094 C 39.242188 41.847656 39.714844 41.835938 40.183594 41.796875 C 40.726562 41.746094 41.265625 41.695312 41.800781 41.605469 C 42.402344 41.5 42.785156 41.097656 42.929688 40.53125 C 43.074219 39.945312 42.964844 39.371094 42.585938 38.882812 C 42.410156 38.648438 42.179688 38.46875 41.871094 38.449219 C 41.613281 38.433594 41.347656 38.414062 41.085938 38.429688 C 40.695312 38.453125 40.300781 38.492188 39.910156 38.550781 C 39.695312 38.585938 39.511719 38.550781 39.332031 38.449219 C 39.277344 38.417969 39.21875 38.390625 39.167969 38.359375 C 38.417969 37.921875 37.664062 37.496094 36.925781 37.039062 C 36.464844 36.753906 36.019531 36.445312 35.585938 36.117188 C 34.359375 35.191406 33.40625 34.039062 32.738281 32.652344 C 32.375 31.90625 31.996094 31.171875 31.621094 30.433594 C 31.601562 30.386719 31.582031 30.339844 31.566406 30.296875 C 33.84375 30.296875 36.105469 30.296875 38.375 30.296875 C 38.378906 30.363281 38.386719 30.410156 38.386719 30.453125 C 38.378906 30.753906 38.351562 31.058594 38.367188 31.355469 C 38.398438 32.042969 38.433594 32.730469 38.503906 33.414062 C 38.550781 33.875 38.644531 34.332031 38.816406 34.769531 C 38.96875 35.148438 39.238281 35.414062 39.628906 35.542969 C 39.84375 35.613281 40.0625 35.664062 40.28125 35.710938 C 41.078125 35.875 41.886719 35.871094 42.691406 35.847656 C 43.308594 35.832031 43.90625 35.726562 44.484375 35.492188 C 45.167969 35.21875 45.5625 34.71875 45.707031 34.003906 C 45.886719 33.105469 45.964844 32.199219 46.019531 31.289062 C 46.035156 30.996094 46.046875 30.703125 46.0625 30.394531 C 46.167969 30.386719 46.257812 30.371094 46.351562 30.375 C 46.78125 30.398438 47.082031 30.191406 47.273438 29.832031 C 47.492188 29.425781 47.582031 28.984375 47.492188 28.527344 " fill-opacity="1" fill-rule="nonzero"/></g><path fill="#b13511" d="M 32.40625 24.234375 C 32.257812 24.257812 32.101562 24.304688 31.921875 24.21875 C 31.921875 23.996094 31.914062 23.769531 31.925781 23.539062 C 31.933594 23.300781 31.953125 23.058594 31.976562 22.820312 C 32.019531 22.367188 32.03125 21.914062 31.945312 21.457031 C 32.59375 21.148438 33.214844 20.816406 33.894531 20.625 C 34.117188 20.5625 34.339844 20.488281 34.5625 20.421875 C 34.75 20.363281 34.796875 20.292969 34.753906 20.09375 C 34.71875 19.929688 34.664062 19.769531 34.621094 19.605469 C 34.613281 19.570312 34.609375 19.53125 34.601562 19.488281 C 35.28125 19.574219 35.925781 19.441406 36.566406 19.300781 C 37.222656 19.15625 37.875 18.988281 38.53125 18.828125 C 38.664062 18.796875 38.792969 18.75 38.945312 18.742188 C 38.878906 18.824219 38.8125 18.910156 38.742188 18.988281 C 38.34375 19.429688 37.929688 19.859375 37.546875 20.316406 C 37.347656 20.546875 37.1875 20.816406 37.019531 21.074219 C 36.976562 21.136719 36.949219 21.214844 36.929688 21.289062 C 36.859375 21.519531 36.929688 21.699219 37.132812 21.824219 C 37.246094 21.890625 37.367188 21.949219 37.484375 22.003906 C 37.890625 22.195312 38.300781 22.382812 38.707031 22.574219 C 38.765625 22.601562 38.824219 22.636719 38.886719 22.667969 C 38.886719 22.6875 38.882812 22.703125 38.882812 22.71875 C 38.34375 22.886719 37.808594 23.058594 37.265625 23.21875 C 36.226562 23.53125 35.167969 23.75 34.097656 23.941406 C 33.535156 24.039062 32.972656 24.140625 32.40625 24.234375 Z M 30.640625 20.636719 C 29.765625 20.800781 28.878906 20.808594 28 20.683594 C 27.0625 20.554688 26.132812 20.382812 25.203125 20.222656 C 24.09375 20.03125 22.980469 19.875 21.851562 19.894531 C 20.75 19.910156 19.652344 19.988281 18.578125 20.25 C 18.15625 20.351562 17.75 20.5 17.3125 20.632812 C 17.355469 19.992188 17.417969 19.371094 17.558594 18.757812 C 17.773438 17.824219 18.113281 16.925781 18.398438 16.011719 C 18.492188 15.710938 18.652344 15.570312 18.941406 15.464844 C 20.078125 15.054688 21.253906 14.839844 22.445312 14.675781 C 23.445312 14.542969 24.449219 14.445312 25.460938 14.488281 C 26.292969 14.523438 27.105469 14.671875 27.90625 14.898438 C 29.226562 15.273438 30.566406 15.398438 31.933594 15.273438 C 32.417969 15.226562 32.898438 15.140625 33.382812 15.070312 C 33.433594 15.0625 33.484375 15.0625 33.542969 15.054688 C 33.683594 16.730469 33.921875 18.378906 34.390625 20.007812 C 34.320312 20.011719 34.261719 20.023438 34.203125 20.023438 C 33.730469 20.007812 33.265625 20.082031 32.800781 20.1875 C 32.082031 20.347656 31.363281 20.5 30.640625 20.636719 Z M 18.390625 23.652344 C 17.121094 24.011719 14.308594 24.085938 13.609375 23.765625 C 13.675781 23.703125 13.730469 23.644531 13.785156 23.585938 C 14.070312 23.292969 14.367188 23.003906 14.636719 22.699219 C 14.75 22.566406 14.832031 22.402344 14.894531 22.238281 C 14.980469 22.003906 14.917969 21.804688 14.710938 21.667969 C 14.550781 21.566406 14.371094 21.484375 14.191406 21.414062 C 13.683594 21.210938 13.15625 21.105469 12.613281 21.015625 C 14.144531 20.589844 15.625 20.035156 17.078125 19.3125 C 17.050781 19.523438 17.019531 19.710938 17.007812 19.898438 C 16.988281 20.214844 16.964844 20.527344 16.980469 20.84375 C 16.988281 21.0625 17.023438 21.046875 17.238281 21.066406 C 17.671875 21.101562 18.109375 21.039062 18.558594 21.160156 C 18.316406 21.980469 18.347656 22.820312 18.390625 23.652344 Z M 38.996094 23.046875 C 39.136719 23 39.269531 22.9375 39.398438 22.863281 C 39.539062 22.785156 39.554688 22.640625 39.441406 22.535156 C 39.375 22.476562 39.292969 22.429688 39.207031 22.390625 C 38.652344 22.136719 38.09375 21.886719 37.535156 21.640625 C 37.1875 21.488281 37.175781 21.449219 37.347656 21.109375 C 37.523438 20.765625 37.78125 20.488281 38.035156 20.203125 C 38.367188 19.828125 38.695312 19.445312 39.019531 19.0625 C 39.101562 18.960938 39.167969 18.847656 39.230469 18.730469 C 39.335938 18.535156 39.277344 18.421875 39.050781 18.398438 C 38.9375 18.386719 38.816406 18.390625 38.707031 18.417969 C 38.292969 18.515625 37.882812 18.632812 37.46875 18.730469 C 36.722656 18.898438 35.972656 19.066406 35.21875 19.210938 C 35.003906 19.253906 34.777344 19.21875 34.535156 19.21875 C 34.515625 19.144531 34.492188 19.082031 34.480469 19.015625 C 34.296875 18.074219 34.121094 17.132812 34.054688 16.175781 C 34.027344 15.785156 33.957031 15.394531 33.882812 15.007812 C 33.835938 14.761719 33.757812 14.714844 33.507812 14.722656 C 33.136719 14.738281 32.765625 14.746094 32.394531 14.785156 C 30.867188 14.957031 29.363281 14.859375 27.878906 14.4375 C 27.023438 14.191406 26.140625 14.046875 25.246094 14.027344 C 24.609375 14.015625 23.972656 14.046875 23.339844 14.117188 C 22.402344 14.21875 21.464844 14.359375 20.554688 14.613281 C 19.890625 14.796875 19.230469 15.003906 18.570312 15.199219 C 18.394531 15.25 18.28125 15.363281 18.21875 15.539062 C 17.832031 16.621094 17.417969 17.699219 17.179688 18.828125 C 17.15625 18.9375 17.105469 18.988281 17.007812 19.019531 C 16.816406 19.082031 16.628906 19.152344 16.441406 19.226562 C 15.371094 19.652344 14.296875 20.078125 13.199219 20.429688 C 12.859375 20.539062 12.53125 20.675781 12.199219 20.808594 C 12.113281 20.839844 12.027344 20.886719 11.960938 20.945312 C 11.847656 21.039062 11.878906 21.191406 12.015625 21.238281 C 12.082031 21.257812 12.15625 21.257812 12.222656 21.269531 C 12.359375 21.292969 12.5 21.304688 12.632812 21.34375 C 13.019531 21.457031 13.40625 21.574219 13.789062 21.699219 C 14.007812 21.773438 14.226562 21.855469 14.4375 21.949219 C 14.59375 22.015625 14.617188 22.070312 14.539062 22.21875 C 14.464844 22.367188 14.371094 22.519531 14.257812 22.640625 C 13.980469 22.941406 13.683594 23.226562 13.394531 23.519531 C 13.332031 23.585938 13.265625 23.652344 13.21875 23.730469 C 13.140625 23.855469 13.164062 23.953125 13.289062 24.027344 C 13.382812 24.078125 13.488281 24.117188 13.589844 24.144531 C 14.027344 24.257812 14.46875 24.320312 14.921875 24.347656 C 16.175781 24.425781 17.414062 24.292969 18.644531 24.074219 C 18.863281 24.03125 18.863281 24.027344 18.855469 23.800781 C 18.847656 23.5 18.820312 23.199219 18.839844 22.898438 C 18.886719 22.09375 19.046875 21.308594 19.359375 20.535156 C 20.128906 20.398438 20.902344 20.347656 21.675781 20.351562 C 22.851562 20.363281 24.011719 20.519531 25.164062 20.738281 C 26.167969 20.925781 27.167969 21.148438 28.1875 21.246094 C 28.984375 21.324219 29.78125 21.320312 30.574219 21.195312 C 30.894531 21.144531 31.210938 21.082031 31.550781 21.019531 C 31.566406 21.128906 31.585938 21.234375 31.59375 21.339844 C 31.671875 22.121094 31.570312 22.898438 31.53125 23.679688 C 31.523438 23.882812 31.542969 24.097656 31.589844 24.296875 C 31.640625 24.523438 31.777344 24.613281 32.011719 24.613281 C 32.152344 24.613281 32.292969 24.601562 32.429688 24.582031 C 32.910156 24.503906 33.390625 24.410156 33.871094 24.339844 C 34.984375 24.175781 36.089844 23.984375 37.164062 23.640625 C 37.777344 23.449219 38.386719 23.25 38.996094 23.046875 " fill-opacity="1" fill-rule="nonzero"/><path fill="#b13511" d="M 9.386719 32.621094 C 9.363281 32.566406 9.292969 32.515625 9.238281 32.507812 C 9.199219 32.5 9.128906 32.566406 9.109375 32.613281 C 8.972656 33.011719 9.011719 33.402344 9.195312 33.78125 C 9.21875 33.828125 9.300781 33.878906 9.359375 33.878906 C 9.445312 33.878906 9.484375 33.800781 9.488281 33.714844 C 9.492188 33.59375 9.488281 33.46875 9.488281 33.347656 C 9.511719 33.097656 9.488281 32.851562 9.386719 32.621094 " fill-opacity="1" fill-rule="nonzero"/><path fill="#b13511" d="M 11.265625 32.40625 C 11.207031 32.421875 11.136719 32.476562 11.121094 32.527344 C 11.066406 32.6875 11.039062 32.855469 11.003906 33 C 11.03125 33.15625 11.046875 33.285156 11.074219 33.414062 C 11.09375 33.503906 11.160156 33.5625 11.253906 33.570312 C 11.347656 33.574219 11.417969 33.523438 11.449219 33.433594 C 11.542969 33.132812 11.546875 32.828125 11.4375 32.527344 C 11.410156 32.449219 11.351562 32.382812 11.265625 32.40625 " fill-opacity="1" fill-rule="nonzero"/><path fill="#b13511" d="M 7.265625 32.332031 C 7.226562 32.332031 7.160156 32.398438 7.148438 32.441406 C 7.054688 32.800781 7.050781 33.15625 7.15625 33.515625 C 7.183594 33.601562 7.238281 33.667969 7.339844 33.65625 C 7.441406 33.640625 7.472656 33.5625 7.480469 33.46875 C 7.488281 33.371094 7.492188 33.269531 7.496094 33.171875 C 7.507812 33.167969 7.515625 33.167969 7.527344 33.164062 C 7.484375 32.925781 7.445312 32.679688 7.390625 32.441406 C 7.382812 32.394531 7.3125 32.335938 7.265625 32.332031 " fill-opacity="1" fill-rule="nonzero"/><path fill="#b13511" d="M 42.625 32.574219 C 42.574219 32.496094 42.488281 32.492188 42.429688 32.5625 C 42.394531 32.609375 42.363281 32.667969 42.351562 32.726562 C 42.308594 32.945312 42.273438 33.167969 42.238281 33.386719 C 42.246094 33.386719 42.253906 33.390625 42.261719 33.390625 C 42.273438 33.523438 42.277344 33.652344 42.296875 33.78125 C 42.304688 33.824219 42.355469 33.886719 42.390625 33.894531 C 42.441406 33.902344 42.507812 33.871094 42.554688 33.839844 C 42.585938 33.816406 42.605469 33.761719 42.621094 33.71875 C 42.742188 33.410156 42.761719 33.089844 42.703125 32.761719 C 42.691406 32.695312 42.664062 32.628906 42.625 32.574219 " fill-opacity="1" fill-rule="nonzero"/><path fill="#b13511" d="M 40.492188 32.425781 C 40.429688 32.441406 40.351562 32.503906 40.332031 32.566406 C 40.285156 32.710938 40.265625 32.863281 40.238281 33.003906 C 40.261719 33.15625 40.28125 33.292969 40.3125 33.429688 C 40.335938 33.527344 40.40625 33.589844 40.511719 33.589844 C 40.609375 33.585938 40.675781 33.527344 40.699219 33.4375 C 40.777344 33.140625 40.769531 32.84375 40.660156 32.550781 C 40.628906 32.476562 40.578125 32.398438 40.492188 32.425781 " fill-opacity="1" fill-rule="nonzero"/><path fill="#b13511" d="M 44.503906 32.347656 C 44.457031 32.394531 44.40625 32.4375 44.367188 32.488281 C 44.347656 32.507812 44.351562 32.546875 44.34375 32.574219 C 44.269531 32.878906 44.25 33.179688 44.296875 33.488281 C 44.308594 33.578125 44.320312 33.660156 44.429688 33.675781 C 44.542969 33.6875 44.601562 33.613281 44.621094 33.515625 C 44.652344 33.34375 44.675781 33.167969 44.703125 33 C 44.679688 32.824219 44.664062 32.652344 44.628906 32.488281 C 44.617188 32.4375 44.546875 32.394531 44.503906 32.347656 " fill-opacity="1" fill-rule="nonzero"/><path fill="#b13511" d="M 9.4375 22.308594 C 10.21875 22.308594 10.839844 22.941406 10.839844 23.738281 C 10.835938 24.515625 10.214844 25.132812 9.433594 25.132812 C 8.652344 25.128906 8.011719 24.480469 8.023438 23.703125 C 8.03125 22.933594 8.667969 22.308594 9.4375 22.308594 Z M 9.460938 25.375 C 10.363281 25.378906 11.109375 24.644531 11.117188 23.746094 C 11.128906 22.859375 10.375 22.109375 9.472656 22.109375 C 8.5625 22.105469 7.824219 22.839844 7.824219 23.738281 C 7.820312 24.652344 8.542969 25.371094 9.460938 25.375 " fill-opacity="1" fill-rule="nonzero"/><path fill="#b13511" d="M 42.070312 22.308594 C 42.855469 22.316406 43.46875 22.949219 43.464844 23.746094 C 43.460938 24.523438 42.832031 25.136719 42.050781 25.132812 C 41.28125 25.125 40.652344 24.492188 40.648438 23.722656 C 40.644531 22.949219 41.296875 22.300781 42.070312 22.308594 Z M 42.089844 25.375 C 42.992188 25.378906 43.734375 24.644531 43.746094 23.746094 C 43.753906 22.855469 43 22.109375 42.097656 22.109375 C 41.1875 22.105469 40.449219 22.839844 40.449219 23.742188 C 40.449219 24.652344 41.171875 25.371094 42.089844 25.375 " fill-opacity="1" fill-rule="nonzero"/><path fill="#b13511" d="M 25.617188 43.125 C 25.453125 43.289062 25.222656 43.28125 25.066406 43.109375 C 24.796875 42.816406 24.8125 42.3125 25.101562 42.042969 C 25.328125 41.828125 25.59375 41.882812 25.710938 42.167969 C 25.738281 42.230469 25.757812 42.296875 25.773438 42.363281 C 25.789062 42.441406 25.792969 42.515625 25.796875 42.5625 C 25.804688 42.792969 25.765625 42.976562 25.617188 43.125 Z M 25.90625 41.9375 C 25.65625 41.601562 25.199219 41.597656 24.929688 41.910156 C 24.609375 42.289062 24.582031 42.707031 24.761719 43.144531 C 24.949219 43.597656 25.476562 43.699219 25.828125 43.359375 C 26.039062 43.164062 26.121094 42.914062 26.121094 42.628906 C 26.121094 42.375 26.058594 42.140625 25.90625 41.9375 " fill-opacity="1" fill-rule="nonzero"/><path fill="#b13511" d="M 12.015625 41.578125 C 11.851562 41.757812 11.605469 41.753906 11.449219 41.574219 C 11.179688 41.273438 11.199219 40.777344 11.492188 40.503906 C 11.71875 40.292969 11.984375 40.351562 12.097656 40.640625 C 12.128906 40.71875 12.15625 40.800781 12.171875 40.882812 C 12.1875 40.953125 12.1875 41.023438 12.1875 41.054688 C 12.191406 41.273438 12.144531 41.441406 12.015625 41.578125 Z M 12.277344 40.386719 C 12.027344 40.070312 11.574219 40.074219 11.320312 40.378906 C 11.007812 40.746094 10.960938 41.152344 11.136719 41.589844 C 11.328125 42.078125 11.886719 42.179688 12.25 41.796875 C 12.433594 41.601562 12.503906 41.363281 12.515625 41.074219 C 12.5 40.839844 12.441406 40.59375 12.277344 40.386719 " fill-opacity="1" fill-rule="nonzero"/><path fill="#b13511" d="M 41.203125 39.597656 C 41.25 39.316406 41.476562 39.203125 41.738281 39.335938 C 42.007812 39.472656 42.128906 39.675781 42.136719 40.011719 C 42.121094 40.109375 42.121094 40.214844 42.089844 40.308594 C 42 40.578125 41.730469 40.667969 41.5 40.496094 C 41.417969 40.433594 41.34375 40.34375 41.292969 40.253906 C 41.1875 40.046875 41.164062 39.824219 41.203125 39.597656 Z M 40.953125 40.285156 C 41.046875 40.523438 41.195312 40.714844 41.433594 40.828125 C 41.832031 41.019531 42.25 40.824219 42.355469 40.394531 C 42.375 40.3125 42.382812 40.226562 42.394531 40.144531 C 42.40625 39.683594 42.183594 39.359375 41.808594 39.132812 C 41.722656 39.078125 41.605469 39.039062 41.507812 39.046875 C 41.207031 39.066406 40.976562 39.28125 40.910156 39.578125 C 40.859375 39.816406 40.867188 40.054688 40.953125 40.285156 " fill-opacity="1" fill-rule="nonzero"/><path fill="#b13511" d="M 18.546875 42.046875 C 18.125 42.121094 17.777344 41.824219 17.78125 41.355469 C 17.824219 41.117188 17.835938 40.828125 18.105469 40.640625 C 18.488281 40.371094 18.996094 40.535156 19.136719 40.980469 C 19.292969 41.464844 19.015625 41.964844 18.546875 42.046875 Z M 18.40625 40.3125 C 18.296875 40.324219 18.179688 40.367188 18.085938 40.429688 C 17.804688 40.613281 17.679688 40.898438 17.617188 41.222656 C 17.554688 41.574219 17.679688 41.96875 17.964844 42.140625 C 18.273438 42.332031 18.601562 42.3125 18.910156 42.136719 C 19.261719 41.941406 19.359375 41.609375 19.371094 41.152344 C 19.410156 40.609375 18.910156 40.265625 18.40625 40.3125 " fill-opacity="1" fill-rule="nonzero"/><path fill="#b13511" d="M 34.394531 40.8125 C 34.566406 40.902344 34.628906 41.066406 34.628906 41.257812 C 34.625 41.53125 34.273438 41.914062 33.996094 41.933594 C 33.917969 41.9375 33.820312 41.910156 33.761719 41.863281 C 33.402344 41.558594 33.445312 41.082031 33.820312 40.820312 C 33.984375 40.703125 34.203125 40.714844 34.394531 40.8125 Z M 33.328125 41.394531 C 33.378906 41.546875 33.40625 41.707031 33.480469 41.847656 C 33.585938 42.054688 33.765625 42.175781 34.007812 42.152344 C 34.339844 42.121094 34.703125 41.800781 34.789062 41.480469 C 34.890625 41.097656 34.691406 40.707031 34.347656 40.636719 C 34.230469 40.613281 34.101562 40.636719 33.984375 40.65625 C 33.578125 40.722656 33.359375 40.984375 33.328125 41.394531 " fill-opacity="1" fill-rule="nonzero"/><path fill="#b13511" d="M 22.269531 17.109375 C 22.148438 17.054688 22.035156 17.097656 21.949219 17.183594 C 21.800781 17.332031 21.65625 17.480469 21.515625 17.636719 C 21.453125 17.703125 21.398438 17.785156 21.3125 17.886719 C 21.273438 17.75 21.25 17.652344 21.21875 17.558594 C 21.175781 17.429688 21.140625 17.289062 21.078125 17.167969 C 20.972656 16.96875 20.753906 16.972656 20.640625 17.167969 C 20.609375 17.222656 20.589844 17.28125 20.566406 17.339844 C 20.363281 17.894531 20.164062 18.453125 19.960938 19.011719 C 19.941406 19.0625 19.917969 19.113281 19.917969 19.167969 C 19.917969 19.296875 20.035156 19.359375 20.140625 19.289062 C 20.171875 19.265625 20.195312 19.234375 20.222656 19.207031 C 20.453125 18.964844 20.597656 18.679688 20.71875 18.375 C 20.757812 18.269531 20.804688 18.167969 20.859375 18.039062 C 20.914062 18.183594 20.945312 18.296875 20.996094 18.402344 C 21.09375 18.597656 21.285156 18.617188 21.425781 18.449219 C 21.472656 18.390625 21.511719 18.320312 21.554688 18.257812 C 21.667969 18.105469 21.785156 17.953125 21.898438 17.800781 C 21.910156 17.8125 21.921875 17.820312 21.9375 17.832031 C 21.902344 18.125 21.855469 18.414062 21.839844 18.703125 C 21.832031 18.847656 21.867188 18.992188 21.902344 19.132812 C 21.921875 19.21875 21.992188 19.277344 22.09375 19.273438 C 22.191406 19.269531 22.25 19.207031 22.277344 19.121094 C 22.304688 19.019531 22.324219 18.910156 22.332031 18.804688 C 22.359375 18.472656 22.375 18.140625 22.394531 17.808594 C 22.402344 17.679688 22.417969 17.546875 22.421875 17.417969 C 22.429688 17.285156 22.398438 17.164062 22.269531 17.109375 " fill-opacity="1" fill-rule="nonzero"/><path fill="#b13511" d="M 32.292969 18.523438 C 32.230469 19 31.964844 19.234375 31.441406 19.253906 C 31.453125 18.792969 31.46875 18.335938 31.480469 17.890625 C 31.976562 17.746094 32.351562 18.058594 32.292969 18.523438 Z M 31.613281 17.46875 C 31.511719 17.476562 31.410156 17.476562 31.269531 17.484375 C 31.25 17.535156 31.199219 17.617188 31.191406 17.703125 C 31.136719 18.269531 31.09375 18.839844 31.050781 19.40625 C 31.046875 19.453125 31.042969 19.5 31.054688 19.542969 C 31.085938 19.679688 31.21875 19.742188 31.316406 19.644531 C 31.402344 19.5625 31.476562 19.585938 31.566406 19.59375 C 31.648438 19.601562 31.738281 19.605469 31.820312 19.59375 C 32.234375 19.515625 32.519531 19.289062 32.640625 18.875 C 32.773438 18.4375 32.679688 18.050781 32.351562 17.734375 C 32.144531 17.535156 31.902344 17.4375 31.613281 17.46875 " fill-opacity="1" fill-rule="nonzero"/><path fill="#b13511" d="M 27.015625 17.941406 C 26.90625 18.019531 26.777344 18.078125 26.628906 18.0625 C 26.628906 17.863281 26.628906 17.675781 26.628906 17.445312 C 26.777344 17.488281 26.894531 17.507812 26.992188 17.558594 C 27.167969 17.648438 27.179688 17.832031 27.015625 17.941406 Z M 27.292969 17.371094 C 27.089844 17.203125 26.859375 17.148438 26.597656 17.210938 C 26.363281 17.269531 26.363281 17.261719 26.332031 17.492188 C 26.265625 17.980469 26.191406 18.46875 26.136719 18.960938 C 26.121094 19.101562 26.140625 19.253906 26.171875 19.394531 C 26.179688 19.445312 26.261719 19.5 26.316406 19.511719 C 26.347656 19.515625 26.421875 19.445312 26.433594 19.398438 C 26.472656 19.25 26.496094 19.09375 26.523438 18.945312 C 26.535156 18.882812 26.546875 18.824219 26.570312 18.71875 C 26.730469 18.953125 26.859375 19.144531 26.992188 19.335938 C 27.039062 19.40625 27.089844 19.476562 27.152344 19.53125 C 27.21875 19.597656 27.300781 19.617188 27.382812 19.558594 C 27.46875 19.503906 27.492188 19.421875 27.460938 19.335938 C 27.429688 19.253906 27.382812 19.167969 27.324219 19.097656 C 27.144531 18.867188 26.960938 18.640625 26.765625 18.402344 C 26.917969 18.347656 27.0625 18.3125 27.191406 18.246094 C 27.5625 18.058594 27.609375 17.636719 27.292969 17.371094 " fill-opacity="1" fill-rule="nonzero"/><path fill="#b13511" d="M 25.355469 17.835938 C 25.242188 17.902344 25.109375 17.9375 24.941406 18.003906 C 24.960938 17.796875 24.976562 17.640625 25 17.441406 C 25.132812 17.46875 25.242188 17.472656 25.335938 17.511719 C 25.492188 17.585938 25.503906 17.746094 25.355469 17.835938 Z M 25.691406 17.925781 C 25.933594 17.609375 25.769531 17.191406 25.378906 17.132812 C 25.25 17.113281 25.117188 17.164062 24.988281 17.152344 C 24.800781 17.136719 24.738281 17.242188 24.703125 17.390625 C 24.597656 17.847656 24.488281 18.304688 24.390625 18.765625 C 24.363281 18.898438 24.378906 19.042969 24.378906 19.179688 C 24.378906 19.273438 24.410156 19.351562 24.515625 19.363281 C 24.621094 19.378906 24.667969 19.308594 24.699219 19.222656 C 24.714844 19.179688 24.730469 19.136719 24.742188 19.089844 C 24.785156 18.914062 24.824219 18.734375 24.871094 18.523438 C 24.921875 18.597656 24.953125 18.644531 24.988281 18.691406 C 25.148438 18.917969 25.304688 19.148438 25.46875 19.371094 C 25.503906 19.421875 25.550781 19.472656 25.605469 19.492188 C 25.652344 19.511719 25.730469 19.507812 25.773438 19.480469 C 25.800781 19.464844 25.804688 19.382812 25.792969 19.335938 C 25.769531 19.265625 25.730469 19.195312 25.6875 19.132812 C 25.503906 18.855469 25.316406 18.582031 25.121094 18.292969 C 25.34375 18.199219 25.550781 18.113281 25.691406 17.925781 " fill-opacity="1" fill-rule="nonzero"/><path fill="#b13511" d="M 23.589844 18.011719 C 23.511719 18.011719 23.441406 18.011719 23.363281 18.011719 C 23.386719 17.847656 23.457031 17.734375 23.589844 17.621094 C 23.589844 17.769531 23.589844 17.890625 23.589844 18.011719 Z M 23.953125 17.535156 C 23.941406 17.433594 23.898438 17.328125 23.847656 17.230469 C 23.746094 17.039062 23.566406 17.011719 23.410156 17.164062 C 23.347656 17.230469 23.28125 17.300781 23.238281 17.378906 C 22.945312 17.890625 22.71875 18.429688 22.59375 19.007812 C 22.578125 19.074219 22.578125 19.148438 22.597656 19.214844 C 22.609375 19.257812 22.664062 19.316406 22.699219 19.316406 C 22.75 19.320312 22.824219 19.289062 22.851562 19.246094 C 22.898438 19.171875 22.914062 19.074219 22.945312 18.988281 C 23.023438 18.757812 23.105469 18.527344 23.183594 18.289062 C 23.335938 18.308594 23.457031 18.328125 23.597656 18.34375 C 23.597656 18.5625 23.59375 18.753906 23.597656 18.945312 C 23.597656 19.015625 23.605469 19.085938 23.621094 19.152344 C 23.644531 19.242188 23.710938 19.300781 23.804688 19.304688 C 23.910156 19.308594 23.984375 19.25 24.011719 19.148438 C 24.03125 19.074219 24.046875 18.996094 24.042969 18.921875 C 24.019531 18.460938 23.992188 17.996094 23.953125 17.535156 " fill-opacity="1" fill-rule="nonzero"/><path fill="#b13511" d="M 30.457031 17.46875 C 30.210938 17.449219 29.964844 17.425781 29.71875 17.421875 C 29.605469 17.421875 29.515625 17.484375 29.488281 17.609375 C 29.464844 17.738281 29.425781 17.863281 29.410156 17.992188 C 29.375 18.261719 29.355469 18.53125 29.328125 18.796875 C 29.304688 19.027344 29.269531 19.257812 29.261719 19.488281 C 29.25 19.695312 29.34375 19.78125 29.554688 19.789062 C 29.660156 19.796875 29.769531 19.816406 29.875 19.808594 C 30.011719 19.800781 30.152344 19.78125 30.285156 19.746094 C 30.382812 19.722656 30.441406 19.644531 30.425781 19.535156 C 30.40625 19.425781 30.324219 19.390625 30.222656 19.386719 C 30.183594 19.382812 30.144531 19.394531 30.105469 19.394531 C 29.96875 19.390625 29.835938 19.386719 29.691406 19.382812 C 29.710938 19.128906 29.726562 18.910156 29.746094 18.675781 C 29.925781 18.675781 30.09375 18.675781 30.265625 18.675781 C 30.371094 18.675781 30.46875 18.652344 30.492188 18.527344 C 30.511719 18.425781 30.4375 18.339844 30.296875 18.308594 C 30.253906 18.296875 30.207031 18.296875 30.160156 18.289062 C 30.027344 18.269531 29.890625 18.246094 29.753906 18.222656 C 29.765625 18.058594 29.773438 17.914062 29.785156 17.761719 C 29.839844 17.757812 29.882812 17.75 29.929688 17.75 C 30.097656 17.746094 30.269531 17.746094 30.4375 17.742188 C 30.527344 17.738281 30.589844 17.699219 30.589844 17.601562 C 30.589844 17.523438 30.539062 17.472656 30.457031 17.46875 " fill-opacity="1" fill-rule="nonzero"/><path fill="#b13511" d="M 24.703125 15.007812 C 24.707031 15.007812 24.707031 15.003906 24.710938 15.003906 C 24.710938 15.003906 24.710938 15 24.710938 15 C 24.707031 15 24.703125 15.003906 24.703125 15.003906 C 24.703125 15.003906 24.703125 15.007812 24.703125 15.007812 " fill-opacity="1" fill-rule="nonzero"/><path fill="#b13511" d="M 24.660156 15.992188 C 24.660156 16.089844 24.683594 16.191406 24.714844 16.285156 C 24.808594 16.550781 25.054688 16.628906 25.265625 16.445312 C 25.375 16.34375 25.484375 16.214844 25.535156 16.078125 C 25.625 15.84375 25.675781 15.589844 25.734375 15.34375 C 25.753906 15.253906 25.769531 15.160156 25.761719 15.070312 C 25.753906 15.011719 25.710938 14.9375 25.660156 14.910156 C 25.589844 14.871094 25.523438 14.929688 25.5 15 C 25.460938 15.101562 25.433594 15.203125 25.402344 15.308594 C 25.34375 15.507812 25.289062 15.707031 25.222656 15.902344 C 25.199219 15.976562 25.183594 16.09375 25.070312 16.074219 C 24.949219 16.054688 24.964844 15.933594 24.957031 15.847656 C 24.953125 15.71875 24.960938 15.585938 24.964844 15.457031 C 24.972656 15.339844 24.992188 15.226562 24.992188 15.109375 C 24.996094 15.015625 25.039062 14.894531 24.902344 14.851562 C 24.78125 14.816406 24.769531 14.945312 24.710938 15.003906 C 24.707031 15.039062 24.707031 15.078125 24.707031 15.117188 C 24.691406 15.40625 24.667969 15.699219 24.660156 15.992188 " fill-opacity="1" fill-rule="nonzero"/><path fill="#b13511" d="M 25.6875 16.175781 C 25.679688 16.238281 25.691406 16.320312 25.726562 16.367188 C 25.835938 16.519531 25.984375 16.613281 26.179688 16.597656 C 26.414062 16.582031 26.617188 16.492188 26.78125 16.328125 C 26.96875 16.136719 26.972656 15.855469 26.773438 15.667969 C 26.683594 15.585938 26.570312 15.53125 26.464844 15.46875 C 26.398438 15.425781 26.324219 15.390625 26.21875 15.335938 C 26.316406 15.261719 26.378906 15.214844 26.457031 15.15625 C 26.53125 15.242188 26.582031 15.320312 26.652344 15.375 C 26.691406 15.40625 26.777344 15.429688 26.816406 15.40625 C 26.855469 15.386719 26.894531 15.300781 26.882812 15.257812 C 26.863281 15.179688 26.824219 15.09375 26.765625 15.039062 C 26.546875 14.828125 26.296875 14.847656 26.097656 15.074219 C 25.890625 15.3125 25.929688 15.527344 26.207031 15.675781 C 26.289062 15.71875 26.378906 15.75 26.453125 15.804688 C 26.601562 15.910156 26.601562 16.070312 26.449219 16.164062 C 26.355469 16.222656 26.238281 16.277344 26.128906 16.28125 C 26.058594 16.28125 25.988281 16.183594 25.917969 16.128906 C 25.90625 16.121094 25.894531 16.109375 25.882812 16.097656 C 25.800781 16.042969 25.703125 16.074219 25.6875 16.175781 " fill-opacity="1" fill-rule="nonzero"/><path fill="#b13511" d="M 28.636719 19.089844 C 28.550781 19.148438 28.464844 19.210938 28.339844 19.296875 C 28.320312 19.140625 28.285156 19.019531 28.292969 18.902344 C 28.304688 18.644531 28.34375 18.382812 28.367188 18.121094 C 28.378906 18.007812 28.394531 17.890625 28.382812 17.777344 C 28.378906 17.730469 28.320312 17.671875 28.273438 17.652344 C 28.203125 17.621094 28.132812 17.65625 28.105469 17.730469 C 28.070312 17.816406 28.03125 17.90625 28.019531 17.996094 C 27.96875 18.34375 27.925781 18.695312 27.886719 19.046875 C 27.875 19.140625 27.878906 19.234375 27.894531 19.324219 C 27.957031 19.652344 28.203125 19.773438 28.496094 19.613281 C 28.625 19.546875 28.738281 19.449219 28.847656 19.355469 C 28.964844 19.253906 28.984375 19.152344 28.925781 19.074219 C 28.859375 18.992188 28.769531 18.996094 28.636719 19.089844 " fill-opacity="1" fill-rule="nonzero"/><path fill="#b13511" d="M 24.523438 14.808594 C 24.179688 14.835938 23.832031 14.875 23.488281 14.914062 C 23.453125 14.917969 23.414062 14.9375 23.382812 14.960938 C 23.320312 15.007812 23.332031 15.097656 23.40625 15.125 C 23.457031 15.144531 23.511719 15.144531 23.566406 15.144531 C 23.691406 15.144531 23.820312 15.144531 23.976562 15.144531 C 23.914062 15.402344 23.871094 15.632812 23.800781 15.851562 C 23.710938 16.113281 23.605469 16.148438 23.347656 16.035156 C 23.332031 16.027344 23.320312 16.015625 23.304688 16.015625 C 23.261719 16.019531 23.199219 16.015625 23.179688 16.039062 C 23.152344 16.074219 23.128906 16.144531 23.144531 16.183594 C 23.199219 16.304688 23.28125 16.40625 23.417969 16.449219 C 23.648438 16.515625 23.910156 16.425781 24.035156 16.195312 C 24.113281 16.042969 24.160156 15.867188 24.195312 15.695312 C 24.234375 15.507812 24.238281 15.316406 24.257812 15.144531 C 24.417969 15.09375 24.558594 15.046875 24.703125 15.003906 C 24.683594 14.832031 24.664062 14.800781 24.523438 14.808594 " fill-opacity="1" fill-rule="nonzero"/><path fill="#b13511" d="M 27.921875 16.183594 C 27.9375 15.917969 27.953125 15.648438 27.96875 15.375 C 28.117188 15.359375 28.246094 15.34375 28.378906 15.332031 C 28.457031 15.324219 28.523438 15.289062 28.515625 15.210938 C 28.511719 15.164062 28.445312 15.121094 28.410156 15.078125 C 28.398438 15.070312 28.382812 15.0625 28.367188 15.0625 C 28.023438 14.980469 27.675781 14.992188 27.332031 15.039062 C 27.242188 15.050781 27.179688 15.113281 27.199219 15.195312 C 27.210938 15.25 27.277344 15.308594 27.332031 15.328125 C 27.417969 15.359375 27.515625 15.359375 27.632812 15.375 C 27.628906 15.4375 27.621094 15.480469 27.617188 15.527344 C 27.59375 15.832031 27.570312 16.140625 27.554688 16.449219 C 27.550781 16.578125 27.621094 16.664062 27.714844 16.660156 C 27.828125 16.660156 27.882812 16.582031 27.894531 16.484375 C 27.910156 16.382812 27.917969 16.285156 27.921875 16.183594 " fill-opacity="1" fill-rule="nonzero"/><path fill="#b13511" d="M 28.03125 17.320312 C 28.03125 17.441406 28.132812 17.546875 28.25 17.546875 C 28.367188 17.542969 28.476562 17.441406 28.480469 17.324219 C 28.484375 17.207031 28.382812 17.105469 28.261719 17.101562 C 28.144531 17.101562 28.035156 17.207031 28.03125 17.320312 " fill-opacity="1" fill-rule="nonzero"/><path fill="#b13511" d="M 17.785156 19.660156 C 17.671875 19.667969 17.582031 19.769531 17.589844 19.878906 C 17.597656 19.992188 17.699219 20.078125 17.8125 20.066406 C 17.914062 20.054688 18 19.960938 17.996094 19.859375 C 17.996094 19.753906 17.890625 19.65625 17.785156 19.660156 " fill-opacity="1" fill-rule="nonzero"/><path fill="#b13511" d="M 33.691406 19.675781 C 33.800781 19.679688 33.90625 19.585938 33.90625 19.476562 C 33.910156 19.367188 33.8125 19.273438 33.699219 19.273438 C 33.59375 19.277344 33.511719 19.355469 33.503906 19.460938 C 33.492188 19.574219 33.582031 19.671875 33.691406 19.675781 " fill-opacity="1" fill-rule="nonzero"/><path fill="#b13511" d="M 33.082031 15.78125 C 33.191406 15.78125 33.28125 15.6875 33.28125 15.574219 C 33.28125 15.46875 33.199219 15.386719 33.09375 15.382812 C 32.984375 15.382812 32.890625 15.476562 32.894531 15.589844 C 32.894531 15.691406 32.980469 15.777344 33.082031 15.78125 " fill-opacity="1" fill-rule="nonzero"/><path fill="#b13511" d="M 18.800781 15.808594 C 18.722656 15.789062 18.648438 15.882812 18.65625 15.96875 C 18.660156 16.0625 18.710938 16.109375 18.800781 16.113281 C 18.886719 16.117188 18.953125 16.035156 18.949219 15.90625 C 18.914062 15.878906 18.863281 15.824219 18.800781 15.808594 " fill-opacity="1" fill-rule="nonzero"/></svg>