<svg xmlns="http://www.w3.org/2000/svg" xmlns:xlink="http://www.w3.org/1999/xlink" width="80" zoomAndPan="magnify" viewBox="0 0 60 60" height="80" preserveAspectRatio="xMidYMid meet" version="1.0"><defs><clipPath id="e71eb76255"><path d="M 4.015625 7.144531 L 55.765625 7.144531 L 55.765625 49.894531 L 4.015625 49.894531 Z M 4.015625 7.144531 " clip-rule="nonzero"/></clipPath></defs><g clip-path="url(#e71eb76255)"><path fill="#0e6655" d="M 8.1875 14.164062 L 9.191406 14.164062 L 9.191406 10.65625 C 9.191406 10.289062 9.492188 9.988281 9.859375 9.988281 L 17.203125 9.988281 C 17.570312 9.988281 17.871094 10.289062 17.871094 10.65625 L 17.871094 14.164062 L 20.410156 14.164062 C 21.277344 11.394531 22.265625 8.445312 25.246094 7.324219 C 28.101562 7.324219 30.960938 7.324219 33.816406 7.324219 C 37.117188 7.144531 38.554688 11.636719 39.375 14.164062 L 51.589844 14.164062 C 53.882812 14.164062 55.761719 16.042969 55.761719 18.335938 L 55.761719 45.71875 C 55.761719 48.015625 53.882812 49.894531 51.589844 49.894531 L 8.1875 49.894531 C 5.894531 49.894531 4.015625 48.015625 4.015625 45.71875 L 4.015625 18.335938 C 4.015625 16.042969 5.894531 14.164062 8.1875 14.164062 Z M 15.867188 11.15625 L 15.867188 14.164062 L 16.535156 14.164062 L 16.535156 11.15625 Z M 15.199219 14.164062 L 15.199219 11.15625 L 14.53125 11.15625 L 14.53125 14.164062 Z M 13.863281 14.164062 L 13.863281 11.15625 L 13.195312 11.15625 L 13.195312 14.164062 Z M 12.527344 14.164062 L 12.527344 11.15625 L 11.859375 11.15625 L 11.859375 14.164062 Z M 11.191406 14.164062 L 11.191406 11.15625 L 10.527344 11.15625 L 10.527344 14.164062 Z M 25.546875 8.992188 C 31.113281 8.992188 33.894531 8.992188 33.894531 8.992188 C 35.230469 8.992188 36.4375 10.515625 37.566406 14 C 37.566406 14 32.449219 14 22.210938 14 C 23.09375 11.167969 24.207031 9.5 25.546875 8.992188 Z M 8.1875 15.832031 L 51.589844 15.832031 C 52.964844 15.832031 54.09375 16.960938 54.09375 18.335938 L 54.09375 45.71875 C 54.09375 47.097656 52.964844 48.226562 51.589844 48.226562 L 8.1875 48.226562 C 6.8125 48.226562 5.683594 47.097656 5.683594 45.71875 L 5.683594 18.335938 C 5.683594 16.960938 6.8125 15.832031 8.1875 15.832031 Z M 8.1875 15.832031 " fill-opacity="1" fill-rule="evenodd"/></g><path fill="#0e6655" d="M 41.90625 17.671875 L 48.585938 17.671875 L 48.585938 21.007812 L 41.90625 21.007812 Z M 42.574219 18.335938 L 47.917969 18.335938 L 47.917969 20.339844 L 42.574219 20.339844 Z M 42.574219 18.335938 " fill-opacity="1" fill-rule="evenodd"/><path fill="#0e6655" d="M 36.515625 23.011719 L 43.242188 23.011719 L 43.242188 23.679688 L 37.410156 23.679688 C 37.121094 23.445312 36.824219 23.222656 36.515625 23.011719 Z M 36.515625 23.011719 " fill-opacity="1" fill-rule="evenodd"/><path fill="#0e6655" d="M 5.519531 23.011719 L 23.429688 23.011719 C 23.121094 23.222656 22.824219 23.445312 22.535156 23.679688 L 5.519531 23.679688 Z M 5.519531 23.011719 " fill-opacity="1" fill-rule="evenodd"/><path fill="#0e6655" d="M 46.582031 23.011719 L 51.921875 23.011719 L 51.921875 23.679688 L 46.582031 23.679688 Z M 46.582031 23.011719 " fill-opacity="1" fill-rule="evenodd"/><path fill="#0e6655" d="M 36.714844 42.242188 L 51.757812 42.242188 L 51.757812 43.214844 L 35.070312 43.214844 C 35.648438 42.9375 36.195312 42.609375 36.714844 42.242188 Z M 36.714844 42.242188 " fill-opacity="1" fill-rule="evenodd"/><path fill="#0e6655" d="M 5.683594 42.242188 L 23.230469 42.242188 C 23.746094 42.609375 24.296875 42.9375 24.875 43.214844 L 5.683594 43.214844 Z M 5.683594 42.242188 " fill-opacity="1" fill-rule="evenodd"/><path fill="#0e6655" d="M 29.972656 25.101562 C 34.167969 25.101562 37.566406 28.5 37.566406 32.695312 C 37.566406 36.890625 34.167969 40.292969 29.972656 40.292969 C 25.777344 40.292969 22.378906 36.890625 22.378906 32.695312 C 22.378906 28.5 25.777344 25.101562 29.972656 25.101562 Z M 29.972656 26.101562 C 33.613281 26.101562 36.566406 29.054688 36.566406 32.695312 C 36.566406 36.339844 33.613281 39.292969 29.972656 39.292969 C 26.332031 39.292969 23.378906 36.339844 23.378906 32.695312 C 23.378906 29.054688 26.332031 26.101562 29.972656 26.101562 Z M 29.972656 26.101562 " fill-opacity="1" fill-rule="evenodd"/><path fill="#0e6655" d="M 29.972656 21.007812 C 36.425781 21.007812 41.65625 26.242188 41.65625 32.695312 C 41.65625 39.152344 36.425781 44.382812 29.972656 44.382812 C 23.519531 44.382812 18.289062 39.152344 18.289062 32.695312 C 18.289062 26.242188 23.519531 21.007812 29.972656 21.007812 Z M 29.972656 22.550781 C 35.574219 22.550781 40.117188 27.09375 40.117188 32.695312 C 40.117188 38.300781 35.574219 42.84375 29.972656 42.84375 C 24.371094 42.84375 19.828125 38.300781 19.828125 32.695312 C 19.828125 27.09375 24.371094 22.550781 29.972656 22.550781 Z M 29.972656 22.550781 " fill-opacity="1" fill-rule="evenodd"/><path fill="#0e6655" d="M 32.726562 28.878906 C 33.773438 28.878906 34.625 29.730469 34.625 30.777344 C 34.625 31.824219 33.773438 32.671875 32.726562 32.671875 C 31.679688 32.671875 30.832031 31.824219 30.832031 30.777344 C 30.832031 29.730469 31.679688 28.878906 32.726562 28.878906 Z M 32.726562 29.128906 C 33.636719 29.128906 34.375 29.867188 34.375 30.777344 C 34.375 31.6875 33.636719 32.421875 32.726562 32.421875 C 31.816406 32.421875 31.082031 31.6875 31.082031 30.777344 C 31.082031 29.867188 31.816406 29.128906 32.726562 29.128906 Z M 32.726562 29.128906 " fill-opacity="1" fill-rule="evenodd"/></svg>