<svg xmlns="http://www.w3.org/2000/svg" xmlns:xlink="http://www.w3.org/1999/xlink" width="80" zoomAndPan="magnify" viewBox="0 0 60 60" height="80" preserveAspectRatio="xMidYMid meet" version="1.0"><defs><clipPath id="f61626d82a"><path d="M 21 48 L 29 48 L 29 51.75 L 21 51.75 Z M 21 48 " clip-rule="nonzero"/></clipPath><clipPath id="5d060a8315"><path d="M 14 48 L 22 48 L 22 51.75 L 14 51.75 Z M 14 48 " clip-rule="nonzero"/></clipPath><clipPath id="030e09e68d"><path d="M 5.789062 48 L 16 48 L 16 51.75 L 5.789062 51.75 Z M 5.789062 48 " clip-rule="nonzero"/></clipPath><clipPath id="5ce8957db7"><path d="M 42 48 L 51.539062 48 L 51.539062 51.75 L 42 51.75 Z M 42 48 " clip-rule="nonzero"/></clipPath><clipPath id="e5c183051a"><path d="M 35 48 L 43 48 L 43 51.75 L 35 51.75 Z M 35 48 " clip-rule="nonzero"/></clipPath><clipPath id="ad2e2b871b"><path d="M 29 48 L 36 48 L 36 51.75 L 29 51.75 Z M 29 48 " clip-rule="nonzero"/></clipPath></defs><path fill="#0e6655" d="M 24.089844 20.691406 C 23.929688 19.773438 23.832031 18.785156 23.808594 17.738281 L 20.503906 17.738281 C 20.546875 18.78125 20.773438 19.777344 21.148438 20.691406 Z M 24.089844 20.691406 " fill-opacity="1" fill-rule="nonzero"/><path fill="#0e6655" d="M 24.089844 14.015625 L 21.148438 14.015625 C 20.773438 14.929688 20.546875 15.925781 20.503906 16.96875 L 23.808594 16.96875 C 23.832031 15.921875 23.929688 14.933594 24.089844 14.015625 Z M 24.089844 14.015625 " fill-opacity="1" fill-rule="nonzero"/><path fill="#0e6655" d="M 34.332031 16.96875 L 37.636719 16.96875 C 37.59375 15.925781 37.367188 14.933594 36.992188 14.015625 L 34.050781 14.015625 C 34.210938 14.933594 34.308594 15.921875 34.332031 16.96875 Z M 34.332031 16.96875 " fill-opacity="1" fill-rule="nonzero"/><path fill="#0e6655" d="M 25.460938 25.257812 C 25.007812 24.222656 24.554688 22.945312 24.238281 21.460938 L 21.507812 21.460938 C 22.382812 23.121094 23.773438 24.460938 25.460938 25.257812 Z M 25.460938 25.257812 " fill-opacity="1" fill-rule="nonzero"/><path fill="#0e6655" d="M 33.570312 17.738281 L 29.449219 17.738281 L 29.449219 20.691406 L 33.277344 20.691406 C 33.441406 19.777344 33.546875 18.789062 33.570312 17.738281 Z M 33.570312 17.738281 " fill-opacity="1" fill-rule="nonzero"/><path fill="#0e6655" d="M 33.121094 21.460938 L 29.449219 21.460938 L 29.449219 26.0625 C 30.214844 26.027344 30.953125 25.890625 31.652344 25.667969 C 32.171875 24.601562 32.738281 23.179688 33.121094 21.460938 Z M 33.121094 21.460938 " fill-opacity="1" fill-rule="nonzero"/><path fill="#0e6655" d="M 31.652344 9.039062 C 30.953125 8.816406 30.214844 8.679688 29.449219 8.648438 L 29.449219 13.246094 L 33.121094 13.246094 C 32.738281 11.53125 32.171875 10.105469 31.652344 9.039062 Z M 31.652344 9.039062 " fill-opacity="1" fill-rule="nonzero"/><path fill="#0e6655" d="M 36.632812 13.246094 C 35.757812 11.585938 34.367188 10.246094 32.679688 9.449219 C 33.132812 10.484375 33.585938 11.765625 33.902344 13.246094 Z M 36.632812 13.246094 " fill-opacity="1" fill-rule="nonzero"/><path fill="#0e6655" d="M 33.277344 14.015625 L 29.449219 14.015625 L 29.449219 16.96875 L 33.570312 16.96875 C 33.546875 15.917969 33.441406 14.929688 33.277344 14.015625 Z M 33.277344 14.015625 " fill-opacity="1" fill-rule="nonzero"/><path fill="#0e6655" d="M 28.6875 26.0625 L 28.6875 21.460938 L 25.019531 21.460938 C 25.402344 23.179688 25.96875 24.601562 26.488281 25.667969 C 27.1875 25.890625 27.925781 26.027344 28.6875 26.0625 Z M 28.6875 26.0625 " fill-opacity="1" fill-rule="nonzero"/><path fill="#0e6655" d="M 37.636719 17.738281 L 34.332031 17.738281 C 34.308594 18.785156 34.210938 19.773438 34.050781 20.691406 L 36.992188 20.691406 C 37.367188 19.777344 37.59375 18.78125 37.636719 17.738281 Z M 37.636719 17.738281 " fill-opacity="1" fill-rule="nonzero"/><path fill="#0e6655" d="M 28.6875 13.246094 L 28.6875 8.648438 C 27.925781 8.679688 27.1875 8.816406 26.488281 9.039062 C 25.96875 10.105469 25.402344 11.53125 25.019531 13.246094 Z M 28.6875 13.246094 " fill-opacity="1" fill-rule="nonzero"/><path fill="#0e6655" d="M 32.679688 25.257812 C 34.367188 24.460938 35.757812 23.121094 36.632812 21.460938 L 33.902344 21.460938 C 33.585938 22.945312 33.132812 24.222656 32.679688 25.257812 Z M 32.679688 25.257812 " fill-opacity="1" fill-rule="nonzero"/><path fill="#0e6655" d="M 28.6875 17.738281 L 24.570312 17.738281 C 24.59375 18.789062 24.699219 19.777344 24.863281 20.691406 L 28.6875 20.691406 Z M 28.6875 17.738281 " fill-opacity="1" fill-rule="nonzero"/><path fill="#0e6655" d="M 25.460938 9.449219 C 23.773438 10.246094 22.382812 11.585938 21.507812 13.246094 L 24.238281 13.246094 C 24.554688 11.765625 25.007812 10.484375 25.460938 9.449219 Z M 25.460938 9.449219 " fill-opacity="1" fill-rule="nonzero"/><path fill="#0e6655" d="M 28.6875 14.015625 L 24.863281 14.015625 C 24.699219 14.929688 24.59375 15.917969 24.570312 16.96875 L 28.6875 16.96875 Z M 28.6875 14.015625 " fill-opacity="1" fill-rule="nonzero"/><path fill="#0e6655" d="M 40.949219 48 L 39.742188 45.457031 L 34.359375 45.457031 L 35.136719 48 Z M 40.949219 48 " fill-opacity="1" fill-rule="nonzero"/><path fill="#0e6655" d="M 38.363281 42.5625 L 33.476562 42.5625 L 34.125 44.6875 L 39.375 44.6875 Z M 38.363281 42.5625 " fill-opacity="1" fill-rule="nonzero"/><path fill="#0e6655" d="M 38 41.792969 L 37.382812 40.492188 L 32.84375 40.492188 L 33.242188 41.792969 Z M 38 41.792969 " fill-opacity="1" fill-rule="nonzero"/><path fill="#0e6655" d="M 44.460938 41.792969 L 43.535156 40.492188 L 38.226562 40.492188 L 38.84375 41.792969 Z M 44.460938 41.792969 " fill-opacity="1" fill-rule="nonzero"/><path fill="#0e6655" d="M 48.882812 48 L 47.074219 45.457031 L 40.585938 45.457031 L 41.792969 48 Z M 48.882812 48 " fill-opacity="1" fill-rule="nonzero"/><path fill="#0e6655" d="M 40.21875 44.6875 L 46.523438 44.6875 L 45.007812 42.5625 L 39.210938 42.5625 Z M 40.21875 44.6875 " fill-opacity="1" fill-rule="nonzero"/><path fill="#0e6655" d="M 29.042969 44.6875 L 33.328125 44.6875 L 32.679688 42.5625 L 29.042969 42.5625 Z M 29.042969 44.6875 " fill-opacity="1" fill-rule="nonzero"/><path fill="#0e6655" d="M 29.042969 40.492188 L 29.042969 41.792969 L 32.445312 41.792969 L 32.046875 40.492188 Z M 29.042969 40.492188 " fill-opacity="1" fill-rule="nonzero"/><path fill="#0e6655" d="M 29.042969 48 L 34.339844 48 L 33.5625 45.457031 L 29.042969 45.457031 Z M 29.042969 48 " fill-opacity="1" fill-rule="nonzero"/><path fill="#0e6655" d="M 22.988281 48 L 28.28125 48 L 28.28125 45.457031 L 23.761719 45.457031 Z M 22.988281 48 " fill-opacity="1" fill-rule="nonzero"/><g clip-path="url(#f61626d82a)"><path fill="#0e6655" d="M 21.847656 51.722656 L 28.28125 51.722656 L 28.28125 48.765625 L 22.75 48.765625 Z M 21.847656 51.722656 " fill-opacity="1" fill-rule="nonzero"/></g><g clip-path="url(#5d060a8315)"><path fill="#0e6655" d="M 16.011719 48.765625 L 14.609375 51.722656 L 21.050781 51.722656 L 21.953125 48.765625 Z M 16.011719 48.765625 " fill-opacity="1" fill-rule="nonzero"/></g><g clip-path="url(#030e09e68d)"><path fill="#0e6655" d="M 7.894531 48.765625 L 5.789062 51.722656 L 13.765625 51.722656 L 15.167969 48.765625 Z M 7.894531 48.765625 " fill-opacity="1" fill-rule="nonzero"/></g><g clip-path="url(#5ce8957db7)"><path fill="#0e6655" d="M 49.429688 48.765625 L 42.15625 48.765625 L 43.5625 51.722656 L 51.539062 51.722656 Z M 49.429688 48.765625 " fill-opacity="1" fill-rule="nonzero"/></g><path fill="#0e6655" d="M 23.996094 44.6875 L 28.28125 44.6875 L 28.28125 42.5625 L 24.648438 42.5625 Z M 23.996094 44.6875 " fill-opacity="1" fill-rule="nonzero"/><g clip-path="url(#e5c183051a)"><path fill="#0e6655" d="M 35.371094 48.765625 L 36.273438 51.722656 L 42.71875 51.722656 L 41.3125 48.765625 Z M 35.371094 48.765625 " fill-opacity="1" fill-rule="nonzero"/></g><path fill="#0e6655" d="M 15.53125 48 L 16.742188 45.457031 L 10.253906 45.457031 L 8.441406 48 Z M 15.53125 48 " fill-opacity="1" fill-rule="nonzero"/><g clip-path="url(#ad2e2b871b)"><path fill="#0e6655" d="M 29.042969 48.765625 L 29.042969 51.722656 L 35.476562 51.722656 L 34.574219 48.765625 Z M 29.042969 48.765625 " fill-opacity="1" fill-rule="nonzero"/></g><path fill="#0e6655" d="M 24.882812 41.792969 L 28.28125 41.792969 L 28.28125 40.492188 L 25.28125 40.492188 Z M 24.882812 41.792969 " fill-opacity="1" fill-rule="nonzero"/><path fill="#0e6655" d="M 16.378906 48 L 22.1875 48 L 22.964844 45.457031 L 17.585938 45.457031 Z M 16.378906 48 " fill-opacity="1" fill-rule="nonzero"/><path fill="#0e6655" d="M 12.863281 41.792969 L 18.480469 41.792969 L 19.097656 40.492188 L 13.792969 40.492188 Z M 12.863281 41.792969 " fill-opacity="1" fill-rule="nonzero"/><path fill="#0e6655" d="M 23.851562 42.5625 L 18.960938 42.5625 L 17.949219 44.6875 L 23.199219 44.6875 Z M 23.851562 42.5625 " fill-opacity="1" fill-rule="nonzero"/><path fill="#0e6655" d="M 24.480469 40.492188 L 19.945312 40.492188 L 19.328125 41.792969 L 24.085938 41.792969 Z M 24.480469 40.492188 " fill-opacity="1" fill-rule="nonzero"/><path fill="#0e6655" d="M 18.117188 42.5625 L 12.316406 42.5625 L 10.800781 44.6875 L 17.105469 44.6875 Z M 18.117188 42.5625 " fill-opacity="1" fill-rule="nonzero"/><path fill="#0e6655" d="M 16.804688 12.058594 C 16.953125 11.769531 17.160156 11.480469 17.445312 11.226562 C 17.574219 11.105469 17.71875 11 17.871094 10.90625 C 17.71875 10.8125 17.578125 10.707031 17.445312 10.585938 C 17.160156 10.332031 16.953125 10.042969 16.804688 9.753906 C 16.65625 10.042969 16.449219 10.332031 16.164062 10.585938 C 16.03125 10.707031 15.886719 10.8125 15.734375 10.90625 C 15.886719 11 16.03125 11.105469 16.164062 11.226562 C 16.449219 11.480469 16.65625 11.769531 16.804688 12.058594 Z M 16.804688 12.058594 " fill-opacity="1" fill-rule="nonzero"/><path fill="#0e6655" d="M 39.300781 8.332031 C 39.449219 8.046875 39.65625 7.757812 39.941406 7.5 C 40.074219 7.382812 40.214844 7.277344 40.367188 7.183594 C 40.214844 7.089844 40.074219 6.984375 39.941406 6.863281 C 39.65625 6.605469 39.449219 6.316406 39.300781 6.03125 C 39.152344 6.316406 38.945312 6.605469 38.660156 6.863281 C 38.527344 6.984375 38.382812 7.089844 38.230469 7.183594 C 38.382812 7.277344 38.527344 7.382812 38.660156 7.5 C 38.945312 7.757812 39.152344 8.046875 39.300781 8.332031 Z M 39.300781 8.332031 " fill-opacity="1" fill-rule="nonzero"/><path fill="#0e6655" d="M 43.40625 19.65625 C 43.558594 19.359375 43.769531 19.0625 44.0625 18.800781 C 44.199219 18.675781 44.347656 18.566406 44.507812 18.46875 C 44.347656 18.375 44.199219 18.265625 44.0625 18.140625 C 43.769531 17.875 43.558594 17.582031 43.40625 17.285156 C 43.257812 17.582031 43.046875 17.875 42.75 18.140625 C 42.617188 18.265625 42.46875 18.375 42.308594 18.46875 C 42.46875 18.566406 42.617188 18.675781 42.753906 18.800781 C 43.046875 19.0625 43.257812 19.359375 43.40625 19.65625 Z M 43.40625 19.65625 " fill-opacity="1" fill-rule="nonzero"/><path fill="#0e6655" d="M 21.71875 27.238281 C 21.582031 27.496094 21.390625 27.753906 21.136719 27.984375 C 21.023438 28.085938 20.898438 28.179688 20.765625 28.261719 C 20.898438 28.347656 21.023438 28.441406 21.136719 28.542969 C 21.390625 28.773438 21.582031 29.03125 21.71875 29.289062 C 21.855469 29.03125 22.046875 28.773438 22.300781 28.542969 C 22.414062 28.441406 22.539062 28.347656 22.671875 28.261719 C 22.539062 28.179688 22.414062 28.085938 22.300781 27.984375 C 22.046875 27.753906 21.855469 27.496094 21.71875 27.238281 Z M 21.71875 27.238281 " fill-opacity="1" fill-rule="nonzero"/><path fill="#0e6655" d="M 37.34375 26.550781 L 37.769531 29.070312 C 37.71875 29.058594 37.671875 29.042969 37.621094 29.035156 C 37.210938 28.964844 36.824219 29.03125 36.578125 29.203125 C 36.429688 29.3125 36.335938 29.457031 36.308594 29.625 C 36.234375 30.078125 36.675781 30.492188 37.359375 30.609375 C 37.46875 30.628906 37.574219 30.636719 37.679688 30.636719 C 37.964844 30.636719 38.21875 30.570312 38.398438 30.441406 C 38.546875 30.332031 38.640625 30.1875 38.667969 30.019531 C 38.679688 29.957031 38.675781 29.890625 38.667969 29.828125 C 38.664062 29.824219 38.667969 29.820312 38.667969 29.816406 L 38.160156 26.800781 L 39.390625 26.585938 C 39.597656 26.550781 39.734375 26.351562 39.699219 26.144531 C 39.664062 25.933594 39.46875 25.792969 39.261719 25.828125 L 37.65625 26.109375 C 37.449219 26.144531 37.308594 26.34375 37.34375 26.550781 Z M 37.484375 29.851562 C 37.382812 29.835938 37.300781 29.808594 37.230469 29.777344 C 37.304688 29.773438 37.390625 29.777344 37.492188 29.792969 C 37.59375 29.8125 37.679688 29.839844 37.746094 29.867188 C 37.675781 29.871094 37.585938 29.867188 37.484375 29.851562 Z M 37.484375 29.851562 " fill-opacity="1" fill-rule="nonzero"/><path fill="#0e6655" d="M 12.542969 29.546875 C 12.652344 29.566406 12.757812 29.574219 12.863281 29.574219 C 13.148438 29.574219 13.40625 29.507812 13.582031 29.378906 C 13.734375 29.269531 13.824219 29.125 13.851562 28.960938 C 13.863281 28.894531 13.859375 28.828125 13.851562 28.765625 C 13.851562 28.761719 13.851562 28.757812 13.851562 28.753906 L 13.34375 25.738281 L 14.574219 25.523438 C 14.78125 25.488281 14.921875 25.289062 14.886719 25.082031 C 14.847656 24.871094 14.652344 24.730469 14.445312 24.765625 L 12.839844 25.046875 C 12.632812 25.082031 12.492188 25.28125 12.527344 25.488281 L 12.953125 28.007812 C 12.902344 27.996094 12.855469 27.980469 12.804688 27.972656 C 12.398438 27.90625 12.007812 27.964844 11.765625 28.140625 C 11.617188 28.25 11.523438 28.394531 11.496094 28.5625 C 11.421875 29.015625 11.863281 29.429688 12.542969 29.546875 Z M 12.679688 28.730469 C 12.78125 28.75 12.863281 28.777344 12.929688 28.804688 C 12.859375 28.808594 12.773438 28.804688 12.671875 28.789062 C 12.566406 28.773438 12.484375 28.746094 12.417969 28.714844 C 12.488281 28.710938 12.578125 28.714844 12.679688 28.730469 Z M 12.679688 28.730469 " fill-opacity="1" fill-rule="nonzero"/><path fill="#0e6655" d="M 7.929688 20.421875 C 8.039062 20.441406 8.148438 20.449219 8.25 20.449219 C 8.535156 20.449219 8.792969 20.378906 8.96875 20.25 C 9.121094 20.144531 9.214844 20 9.238281 19.832031 C 9.25 19.765625 9.25 19.703125 9.238281 19.636719 C 9.238281 19.632812 9.238281 19.632812 9.238281 19.628906 L 8.667969 16.234375 C 8.632812 16.027344 8.4375 15.886719 8.230469 15.921875 C 8.023438 15.957031 7.882812 16.15625 7.917969 16.363281 L 8.339844 18.882812 C 8.292969 18.871094 8.242188 18.855469 8.191406 18.847656 C 7.785156 18.777344 7.394531 18.839844 7.152344 19.015625 C 7.003906 19.125 6.910156 19.269531 6.882812 19.433594 C 6.808594 19.890625 7.25 20.304688 7.929688 20.421875 Z M 8.066406 19.605469 C 8.167969 19.621094 8.253906 19.648438 8.316406 19.675781 C 8.246094 19.683594 8.160156 19.679688 8.058594 19.664062 C 7.957031 19.644531 7.871094 19.617188 7.804688 19.589844 C 7.875 19.585938 7.964844 19.589844 8.066406 19.605469 Z M 8.066406 19.605469 " fill-opacity="1" fill-rule="nonzero"/><path fill="#0e6655" d="M 46.117188 30.507812 C 46.378906 30.652344 46.652344 30.726562 46.890625 30.726562 C 46.984375 30.726562 47.074219 30.714844 47.15625 30.691406 C 47.332031 30.636719 47.464844 30.53125 47.546875 30.382812 C 47.578125 30.324219 47.59375 30.261719 47.605469 30.199219 C 47.605469 30.195312 47.609375 30.191406 47.609375 30.1875 L 48.152344 26.789062 C 48.1875 26.582031 48.046875 26.382812 47.839844 26.351562 C 47.628906 26.316406 47.433594 26.457031 47.402344 26.667969 L 46.996094 29.1875 C 46.957031 29.160156 46.914062 29.132812 46.867188 29.105469 C 46.503906 28.90625 46.117188 28.835938 45.832031 28.921875 C 45.65625 28.976562 45.519531 29.082031 45.441406 29.230469 C 45.226562 29.636719 45.507812 30.175781 46.117188 30.507812 Z M 46.503906 29.78125 C 46.59375 29.832031 46.667969 29.882812 46.71875 29.933594 C 46.652344 29.914062 46.570312 29.882812 46.480469 29.835938 C 46.390625 29.785156 46.320312 29.730469 46.265625 29.683594 C 46.335938 29.703125 46.417969 29.730469 46.503906 29.78125 Z M 46.503906 29.78125 " fill-opacity="1" fill-rule="nonzero"/><path fill="#0e6655" d="M 29.988281 36.050781 C 30.082031 36.050781 30.171875 36.039062 30.253906 36.011719 C 30.429688 35.960938 30.5625 35.855469 30.640625 35.707031 C 30.671875 35.648438 30.691406 35.585938 30.703125 35.523438 C 30.703125 35.519531 30.707031 35.515625 30.707031 35.511719 L 31.25 32.113281 C 31.253906 32.101562 31.25 32.09375 31.25 32.085938 C 31.253906 32.058594 31.25 32.03125 31.246094 32.007812 C 31.242188 31.980469 31.242188 31.960938 31.234375 31.9375 C 31.226562 31.914062 31.214844 31.890625 31.203125 31.871094 C 31.191406 31.847656 31.179688 31.828125 31.164062 31.808594 C 31.148438 31.792969 31.132812 31.777344 31.113281 31.761719 C 31.09375 31.746094 31.074219 31.730469 31.050781 31.714844 C 31.039062 31.710938 31.035156 31.703125 31.027344 31.699219 L 28.175781 30.457031 C 28.066406 30.410156 27.945312 30.417969 27.839844 30.476562 C 27.738281 30.53125 27.667969 30.632812 27.648438 30.75 L 27.246094 33.269531 C 27.203125 33.242188 27.164062 33.214844 27.117188 33.1875 C 26.753906 32.988281 26.363281 32.917969 26.078125 33.007812 C 25.902344 33.058594 25.769531 33.164062 25.6875 33.3125 C 25.472656 33.71875 25.757812 34.257812 26.363281 34.589844 C 26.625 34.734375 26.898438 34.808594 27.136719 34.808594 C 27.230469 34.808594 27.320312 34.796875 27.402344 34.773438 C 27.578125 34.71875 27.714844 34.613281 27.792969 34.464844 C 27.824219 34.40625 27.839844 34.34375 27.851562 34.28125 C 27.851562 34.277344 27.855469 34.273438 27.855469 34.269531 L 28.320312 31.359375 L 30.453125 32.285156 L 30.09375 34.511719 C 30.054688 34.484375 30.011719 34.453125 29.964844 34.429688 C 29.601562 34.230469 29.214844 34.160156 28.929688 34.246094 C 28.753906 34.300781 28.617188 34.40625 28.539062 34.554688 C 28.324219 34.960938 28.605469 35.496094 29.214844 35.832031 C 29.476562 35.972656 29.746094 36.050781 29.988281 36.050781 Z M 26.730469 33.914062 C 26.636719 33.867188 26.566406 33.8125 26.511719 33.761719 C 26.582031 33.78125 26.664062 33.8125 26.75 33.863281 C 26.84375 33.914062 26.914062 33.964844 26.96875 34.015625 C 26.898438 33.996094 26.816406 33.964844 26.730469 33.914062 Z M 29.601562 35.105469 C 29.691406 35.152344 29.765625 35.207031 29.816406 35.253906 C 29.75 35.234375 29.667969 35.207031 29.578125 35.15625 C 29.488281 35.105469 29.417969 35.054688 29.363281 35.003906 C 29.433594 35.023438 29.515625 35.054688 29.601562 35.105469 Z M 29.601562 35.105469 " fill-opacity="1" fill-rule="nonzero"/></svg>