<svg xmlns="http://www.w3.org/2000/svg" xmlns:xlink="http://www.w3.org/1999/xlink" width="80" zoomAndPan="magnify" viewBox="0 0 60 60" height="80" preserveAspectRatio="xMidYMid meet" version="1.0"><defs><clipPath id="8edea388e7"><path d="M 7.585938 3.355469 L 52.585938 3.355469 L 52.585938 56.605469 L 7.585938 56.605469 Z M 7.585938 3.355469 " clip-rule="nonzero"/></clipPath></defs><path fill="#0e6655" d="M 29.179688 7.378906 C 29.171875 7.390625 29.160156 7.402344 29.144531 7.414062 C 29.125 7.449219 29.125 7.449219 29.179688 7.378906 Z M 29.179688 7.378906 " fill-opacity="1" fill-rule="nonzero"/><g clip-path="url(#8edea388e7)"><path fill="#0e6655" d="M 52.378906 54.375 C 52.347656 53.734375 52.449219 52.839844 52.164062 52.25 C 52.113281 52.152344 51.972656 52.117188 51.910156 52.214844 C 51.53125 52.0625 49.988281 52.140625 49.859375 52.140625 C 49.703125 52.140625 49.539062 52.136719 49.378906 52.132812 C 49.625 51.21875 49.570312 50.171875 49.609375 49.226562 C 49.695312 47.300781 49.636719 45.363281 49.59375 43.4375 C 49.542969 41.15625 49.453125 38.878906 49.386719 36.597656 C 49.320312 34.371094 49.425781 32.097656 49.207031 29.882812 C 49.222656 29.878906 49.234375 29.878906 49.25 29.875 C 49.292969 29.867188 49.3125 29.820312 49.304688 29.78125 C 49.117188 29.078125 47.816406 28.644531 47.226562 28.320312 C 46.183594 27.742188 45.121094 27.191406 44.070312 26.621094 C 43.097656 26.089844 42.058594 25.589844 41.160156 24.929688 C 40.921875 24.753906 40.304688 24.125 39.859375 24.089844 C 39.855469 23.476562 39.898438 22.886719 39.824219 22.265625 C 39.707031 21.242188 39.796875 20.21875 39.691406 19.203125 C 39.679688 19.09375 39.601562 19.019531 39.507812 18.988281 C 39.027344 18.550781 38.324219 18.371094 37.765625 18.03125 C 37.042969 17.59375 36.300781 17.199219 35.574219 16.777344 C 34.242188 16.003906 32.941406 15.183594 31.628906 14.382812 C 31.628906 14.375 31.632812 14.363281 31.632812 14.355469 C 31.617188 14.175781 31.609375 13.984375 31.542969 13.820312 C 31.601562 13.328125 31.53125 12.730469 31.539062 12.398438 C 31.558594 11.601562 31.6875 10.644531 31.515625 9.832031 C 31.519531 9.832031 31.523438 9.835938 31.527344 9.835938 C 31.976562 9.835938 32.429688 9.808594 32.882812 9.78125 C 33.25 9.757812 33.679688 9.773438 34.027344 9.632812 C 34.585938 9.703125 35.246094 9.054688 35.128906 8.480469 C 35.089844 8.28125 34.933594 8.003906 34.730469 7.769531 C 34.6875 7.667969 34.601562 7.570312 34.515625 7.519531 C 34.476562 7.496094 34.433594 7.476562 34.386719 7.460938 C 34.230469 7.359375 34.066406 7.296875 33.910156 7.316406 C 33.890625 7.292969 33.863281 7.269531 33.832031 7.257812 C 33.40625 7.09375 32.828125 7.210938 32.382812 7.226562 C 32.214844 7.234375 31.792969 7.191406 31.5 7.265625 C 31.625 6.324219 31.875 4.167969 31.132812 3.9375 C 31.082031 3.863281 31.03125 3.792969 30.96875 3.742188 C 30.78125 3.589844 30.570312 3.492188 30.34375 3.441406 C 30.308594 3.414062 30.261719 3.398438 30.203125 3.398438 C 30.164062 3.398438 30.121094 3.402344 30.082031 3.402344 C 30.042969 3.402344 30 3.398438 29.960938 3.398438 C 29.902344 3.398438 29.855469 3.414062 29.820312 3.441406 C 29.59375 3.492188 29.382812 3.589844 29.195312 3.742188 C 29.015625 3.890625 28.863281 4.167969 28.875 4.417969 C 28.863281 4.425781 28.847656 4.4375 28.839844 4.457031 C 28.585938 4.890625 28.699219 5.542969 28.703125 6.023438 C 28.707031 6.324219 28.609375 6.992188 28.777344 7.300781 C 28.492188 7.179688 27.972656 7.234375 27.78125 7.226562 C 27.335938 7.210938 26.757812 7.09375 26.332031 7.257812 C 26.300781 7.269531 26.273438 7.292969 26.253906 7.316406 C 25.734375 7.257812 25.121094 8.050781 25.035156 8.480469 C 24.917969 9.054688 25.578125 9.703125 26.136719 9.632812 C 26.488281 9.773438 26.914062 9.757812 27.28125 9.78125 C 27.734375 9.808594 28.1875 9.835938 28.636719 9.835938 C 28.640625 9.835938 28.644531 9.832031 28.648438 9.832031 C 28.476562 10.644531 28.605469 11.601562 28.625 12.398438 C 28.632812 12.839844 28.507812 13.757812 28.734375 14.261719 C 27.355469 15.101562 25.988281 15.964844 24.589844 16.777344 C 23.863281 17.199219 23.121094 17.59375 22.398438 18.03125 C 21.839844 18.371094 21.136719 18.550781 20.65625 18.988281 C 20.5625 19.019531 20.484375 19.09375 20.472656 19.203125 C 20.367188 20.21875 20.457031 21.242188 20.339844 22.265625 C 20.265625 22.886719 20.308594 23.476562 20.304688 24.089844 C 19.859375 24.125 19.242188 24.753906 19.003906 24.929688 C 18.105469 25.589844 17.066406 26.089844 16.09375 26.621094 C 15.042969 27.191406 13.980469 27.742188 12.9375 28.320312 C 12.347656 28.644531 11.046875 29.078125 10.859375 29.78125 C 10.851562 29.820312 10.871094 29.867188 10.914062 29.875 C 10.929688 29.878906 10.941406 29.878906 10.957031 29.882812 C 10.738281 32.097656 10.84375 34.371094 10.777344 36.597656 C 10.710938 38.878906 10.621094 41.15625 10.570312 43.4375 C 10.527344 45.363281 10.46875 47.300781 10.554688 49.226562 C 10.59375 50.171875 10.539062 51.21875 10.785156 52.132812 C 10.625 52.136719 10.460938 52.140625 10.304688 52.140625 C 10.175781 52.140625 8.632812 52.0625 8.253906 52.214844 C 8.191406 52.117188 8.050781 52.152344 8 52.25 C 7.714844 52.839844 7.816406 53.734375 7.785156 54.375 C 7.761719 54.84375 7.582031 55.566406 7.792969 56.027344 C 7.714844 56.160156 7.777344 56.386719 7.960938 56.394531 C 11.601562 56.570312 15.28125 56.378906 18.925781 56.328125 C 22.402344 56.28125 25.890625 56.167969 29.371094 56.265625 C 29.417969 56.296875 29.480469 56.3125 29.546875 56.308594 C 29.726562 56.300781 29.902344 56.296875 30.082031 56.292969 C 30.261719 56.296875 30.4375 56.300781 30.617188 56.308594 C 30.683594 56.3125 30.746094 56.296875 30.792969 56.265625 C 34.273438 56.167969 37.761719 56.28125 41.238281 56.328125 C 44.882812 56.378906 48.5625 56.570312 52.203125 56.394531 C 52.386719 56.386719 52.453125 56.160156 52.371094 56.027344 C 52.582031 55.566406 52.402344 54.84375 52.378906 54.375 Z M 33.90625 54.410156 C 33.898438 54.742188 33.789062 55.253906 33.878906 55.625 C 32.613281 55.625 31.347656 55.640625 30.082031 55.6875 C 28.816406 55.640625 27.550781 55.625 26.285156 55.625 C 26.375 55.253906 26.265625 54.742188 26.257812 54.410156 C 26.230469 53.410156 26.222656 52.414062 26.222656 51.417969 C 26.222656 50.320312 26.238281 49.222656 26.265625 48.125 C 26.285156 47.210938 26.386719 46.265625 26.3125 45.347656 C 26.652344 44.546875 26.761719 43.761719 27.382812 43.074219 C 28.117188 42.265625 29.09375 42.042969 30.082031 41.742188 C 31.070312 42.042969 32.050781 42.265625 32.78125 43.074219 C 33.402344 43.761719 33.511719 44.546875 33.851562 45.347656 C 33.777344 46.265625 33.878906 47.210938 33.898438 48.125 C 33.925781 49.222656 33.941406 50.320312 33.941406 51.417969 C 33.941406 52.414062 33.9375 53.410156 33.90625 54.410156 Z M 36.40625 49.03125 C 36.410156 50.460938 36.421875 51.894531 36.421875 53.324219 C 36.425781 54.023438 36.269531 54.945312 36.445312 55.644531 C 35.761719 55.636719 35.078125 55.628906 34.394531 55.628906 C 34.519531 55.214844 34.433594 54.582031 34.441406 54.214844 C 34.460938 53.285156 34.46875 52.351562 34.46875 51.421875 C 34.464844 50.320312 34.449219 49.21875 34.414062 48.117188 C 34.382812 47.136719 34.414062 46.101562 34.203125 45.132812 C 34.3125 44.257812 33.789062 43.285156 33.179688 42.703125 C 32.378906 41.929688 31.21875 41.390625 30.082031 41.503906 C 28.945312 41.390625 27.785156 41.929688 26.984375 42.703125 C 26.375 43.285156 25.851562 44.257812 25.960938 45.132812 C 25.75 46.101562 25.78125 47.136719 25.75 48.117188 C 25.714844 49.21875 25.699219 50.320312 25.695312 51.421875 C 25.695312 52.351562 25.703125 53.285156 25.722656 54.214844 C 25.730469 54.582031 25.644531 55.214844 25.769531 55.628906 C 25.085938 55.628906 24.402344 55.636719 23.71875 55.644531 C 23.894531 54.945312 23.742188 54.023438 23.742188 53.324219 C 23.742188 51.894531 23.753906 50.460938 23.757812 49.03125 C 23.761719 47.613281 23.765625 46.195312 23.730469 44.78125 C 23.726562 44.691406 23.738281 43.554688 23.582031 43.035156 C 23.921875 42.929688 24.160156 42.566406 24.398438 42.320312 C 24.910156 41.789062 25.449219 41.285156 25.984375 40.777344 C 26.761719 40.046875 27.542969 39.324219 28.3125 38.582031 C 28.875 38.039062 29.578125 37.476562 29.945312 36.773438 C 30.027344 36.792969 30.121094 36.78125 30.199219 36.742188 C 30.5625 37.460938 31.28125 38.03125 31.851562 38.582031 C 32.621094 39.324219 33.402344 40.046875 34.179688 40.777344 C 34.714844 41.285156 35.253906 41.789062 35.765625 42.320312 C 36.003906 42.566406 36.242188 42.929688 36.582031 43.035156 C 36.425781 43.554688 36.4375 44.691406 36.433594 44.78125 C 36.398438 46.195312 36.402344 47.613281 36.40625 49.03125 Z M 36.128906 41.710938 C 35.578125 41.144531 34.996094 40.605469 34.417969 40.066406 C 33.632812 39.335938 32.835938 38.613281 32.054688 37.875 C 31.539062 37.394531 31.046875 36.816406 30.414062 36.484375 C 30.414062 36.484375 30.410156 36.484375 30.40625 36.480469 C 30.429688 36.25 30.359375 35.976562 30.355469 35.75 C 30.339844 35.199219 30.335938 34.652344 30.332031 34.101562 C 30.332031 34.058594 30.332031 34.015625 30.335938 33.964844 C 30.730469 33.980469 31.132812 33.96875 31.511719 33.902344 C 31.875 33.835938 31.84375 33.269531 31.46875 33.253906 C 31.109375 33.238281 30.75 33.25 30.390625 33.25 C 30.425781 32.730469 30.414062 32.179688 30.09375 31.953125 C 30.078125 31.9375 30.046875 31.9375 30.027344 31.949219 C 29.675781 32.136719 29.625 32.699219 29.632812 33.226562 C 29.277344 33.207031 28.910156 33.183594 28.574219 33.25 C 28.386719 33.289062 28.296875 33.582031 28.488281 33.679688 C 28.839844 33.863281 29.253906 33.902344 29.65625 33.929688 C 29.660156 33.976562 29.660156 34.027344 29.660156 34.066406 C 29.644531 34.867188 29.617188 35.699219 29.730469 36.496094 C 29.109375 36.824219 28.621094 37.398438 28.109375 37.875 C 27.328125 38.613281 26.53125 39.335938 25.746094 40.066406 C 25.167969 40.605469 24.585938 41.144531 24.035156 41.710938 C 23.746094 42.007812 23.226562 42.371094 23.207031 42.816406 C 23.203125 42.835938 23.207031 42.851562 23.207031 42.871094 C 23.078125 42.972656 23.078125 43.085938 23.0625 43.308594 C 23.023438 43.988281 23.046875 44.671875 23.046875 45.347656 C 23.046875 46.679688 23.058594 48.007812 23.058594 49.335938 C 23.054688 50.660156 23.046875 51.984375 23.046875 53.3125 C 23.046875 54.019531 22.894531 54.945312 23.070312 55.65625 C 21.878906 55.671875 20.683594 55.691406 19.488281 55.707031 C 15.753906 55.753906 11.972656 55.660156 8.242188 55.917969 C 8.402344 55.507812 8.324219 54.914062 8.34375 54.523438 C 8.375 53.929688 8.515625 53.128906 8.363281 52.511719 C 8.914062 52.839844 10.386719 52.691406 10.820312 52.703125 C 11.664062 52.726562 12.640625 52.824219 13.535156 52.722656 C 15.035156 52.890625 16.59375 52.78125 18.101562 52.792969 C 19.578125 52.804688 21.179688 53.011719 22.636719 52.738281 C 22.8125 52.703125 22.777344 52.441406 22.621094 52.410156 C 21.179688 52.144531 19.59375 52.300781 18.128906 52.289062 C 16.945312 52.28125 15.710938 52.222656 14.507812 52.308594 C 14.492188 52.265625 14.457031 52.226562 14.394531 52.210938 C 13.429688 51.980469 12.332031 52.0625 11.285156 52.113281 C 11.371094 51.824219 11.324219 51.507812 11.308594 51.210938 C 11.273438 50.570312 11.230469 49.925781 11.199219 49.28125 C 11.109375 47.359375 11.175781 45.417969 11.214844 43.492188 C 11.261719 41.21875 11.339844 38.945312 11.398438 36.671875 C 11.457031 34.417969 11.640625 32.078125 11.375 29.835938 C 11.484375 29.789062 11.597656 29.71875 11.742188 29.640625 C 12.300781 29.335938 12.859375 29.03125 13.417969 28.738281 C 14.488281 28.175781 15.558594 27.621094 16.621094 27.050781 C 17.519531 26.574219 18.484375 26.105469 19.300781 25.5 C 19.695312 25.207031 20.199219 24.949219 20.503906 24.554688 C 20.640625 24.597656 20.804688 24.554688 20.863281 24.402344 C 20.933594 24.222656 20.921875 24.0625 20.90625 23.867188 C 20.867188 23.355469 20.898438 22.859375 20.949219 22.34375 C 21.054688 21.34375 21.089844 20.359375 20.980469 19.359375 C 21.453125 19.09375 21.988281 18.914062 22.460938 18.652344 C 23.191406 18.25 23.914062 17.828125 24.640625 17.417969 C 26.183594 16.542969 27.679688 15.578125 29.195312 14.65625 C 29.375 14.546875 29.351562 14.363281 29.242188 14.246094 C 29.382812 13.78125 29.191406 13.050781 29.179688 12.640625 C 29.140625 11.636719 29.320312 10.453125 29.050781 9.488281 C 29.019531 9.378906 28.902344 9.34375 28.820312 9.386719 C 28.769531 9.34375 28.703125 9.320312 28.640625 9.316406 C 28.242188 9.308594 27.847656 9.296875 27.453125 9.285156 C 27.023438 9.277344 26.542969 9.199219 26.121094 9.308594 C 25.898438 9.0625 25.53125 8.824219 25.636719 8.5 C 25.765625 8.097656 26.285156 8.003906 26.457031 7.667969 C 26.871094 7.796875 27.390625 7.753906 27.804688 7.777344 C 28.054688 7.792969 28.96875 8 28.964844 7.546875 C 28.964844 7.511719 28.957031 7.480469 28.945312 7.453125 C 29.015625 7.472656 29.085938 7.460938 29.144531 7.414062 C 29.179688 7.363281 29.261719 7.230469 29.269531 7.167969 C 29.300781 6.925781 29.265625 6.667969 29.261719 6.425781 C 29.25 5.90625 29.347656 5.105469 29.128906 4.597656 C 29.269531 4.441406 29.371094 4.25 29.53125 4.105469 C 29.683594 3.972656 29.886719 3.925781 30.082031 3.917969 C 30.277344 3.925781 30.480469 3.972656 30.628906 4.105469 C 30.796875 4.25 30.894531 4.441406 31.035156 4.597656 C 30.816406 5.105469 30.914062 5.90625 30.902344 6.425781 C 30.898438 6.667969 30.863281 6.925781 30.894531 7.167969 C 30.902344 7.214844 30.949219 7.300781 30.988281 7.363281 C 30.984375 7.371094 30.988281 7.378906 30.988281 7.382812 C 30.984375 7.382812 30.984375 7.378906 30.984375 7.378906 C 30.984375 7.382812 30.984375 7.382812 30.988281 7.382812 C 30.984375 7.410156 30.984375 7.433594 30.992188 7.464844 C 30.992188 7.46875 30.996094 7.472656 30.996094 7.476562 C 30.992188 7.519531 30.988281 7.558594 30.984375 7.597656 C 30.984375 7.828125 31.246094 7.90625 31.378906 7.789062 C 31.660156 7.898438 32.179688 7.789062 32.359375 7.777344 C 32.632812 7.761719 32.953125 7.769531 33.261719 7.746094 C 33.425781 7.859375 33.679688 7.890625 33.847656 7.929688 C 33.902344 7.941406 33.96875 7.96875 34.039062 7.996094 C 34.238281 8.132812 34.453125 8.261719 34.527344 8.5 C 34.539062 8.539062 34.546875 8.574219 34.546875 8.613281 C 34.484375 8.683594 34.4375 8.757812 34.367188 8.832031 C 34.238281 8.964844 34.046875 9.019531 33.875 9.0625 C 33.589844 9.128906 33.152344 9.070312 32.921875 9.277344 C 32.851562 9.28125 32.78125 9.285156 32.714844 9.285156 C 32.316406 9.296875 31.921875 9.308594 31.523438 9.316406 C 31.460938 9.320312 31.394531 9.34375 31.34375 9.386719 C 31.261719 9.34375 31.144531 9.378906 31.113281 9.488281 C 30.84375 10.453125 31.023438 11.636719 30.988281 12.640625 C 30.972656 13.050781 30.78125 13.78125 30.921875 14.246094 C 30.8125 14.363281 30.789062 14.546875 30.96875 14.65625 C 32.484375 15.578125 33.980469 16.542969 35.523438 17.417969 C 36.25 17.828125 36.972656 18.25 37.703125 18.652344 C 38.175781 18.914062 38.710938 19.09375 39.183594 19.359375 C 39.074219 20.359375 39.109375 21.34375 39.214844 22.34375 C 39.265625 22.859375 39.296875 23.355469 39.257812 23.867188 C 39.242188 24.0625 39.230469 24.222656 39.300781 24.402344 C 39.359375 24.554688 39.523438 24.597656 39.660156 24.554688 C 39.964844 24.949219 40.46875 25.207031 40.863281 25.5 C 41.679688 26.105469 42.644531 26.574219 43.542969 27.050781 C 44.605469 27.621094 45.675781 28.175781 46.742188 28.738281 C 47.304688 29.03125 47.863281 29.335938 48.421875 29.640625 C 48.566406 29.71875 48.679688 29.789062 48.789062 29.835938 C 48.523438 32.078125 48.707031 34.417969 48.765625 36.671875 C 48.824219 38.945312 48.902344 41.21875 48.949219 43.492188 C 48.992188 45.417969 49.054688 47.359375 48.964844 49.28125 C 48.933594 49.925781 48.890625 50.570312 48.855469 51.210938 C 48.839844 51.507812 48.792969 51.824219 48.878906 52.113281 C 47.832031 52.0625 46.734375 51.980469 45.769531 52.210938 C 45.703125 52.226562 45.664062 52.273438 45.648438 52.324219 C 44.230469 52.25 42.804688 52.25 41.386719 52.25 C 40.417969 52.253906 39.453125 52.273438 38.488281 52.3125 C 37.976562 52.332031 37.527344 52.273438 37.113281 52.574219 C 37.113281 51.496094 37.109375 50.414062 37.105469 49.335938 C 37.105469 48.007812 37.117188 46.679688 37.117188 45.347656 C 37.121094 44.671875 37.140625 43.988281 37.101562 43.308594 C 37.085938 43.085938 37.085938 42.972656 36.957031 42.871094 C 36.957031 42.851562 36.960938 42.835938 36.957031 42.816406 C 36.9375 42.371094 36.417969 42.007812 36.128906 41.710938 Z M 40.675781 55.707031 C 39.480469 55.691406 38.285156 55.671875 37.09375 55.65625 C 37.269531 54.945312 37.117188 54.019531 37.117188 53.3125 C 37.117188 53.128906 37.117188 52.945312 37.113281 52.761719 C 37.117188 52.765625 37.121094 52.769531 37.125 52.769531 C 38.050781 53.261719 39.90625 52.855469 40.949219 52.839844 C 42.671875 52.816406 44.417969 52.839844 46.132812 52.640625 C 47.148438 52.863281 48.339844 52.730469 49.34375 52.703125 C 49.777344 52.691406 51.25 52.839844 51.800781 52.511719 C 51.648438 53.128906 51.789062 53.929688 51.820312 54.523438 C 51.839844 54.914062 51.761719 55.507812 51.921875 55.917969 C 48.191406 55.660156 44.410156 55.753906 40.675781 55.707031 Z M 40.675781 55.707031 " fill-opacity="1" fill-rule="nonzero"/></g><path fill="#0e6655" d="M 20.628906 45.175781 C 20.65625 45.121094 20.660156 45.054688 20.636719 44.976562 C 20.226562 43.742188 19.320312 42.894531 17.976562 42.867188 C 16.984375 42.847656 15.859375 43.734375 15.667969 44.726562 C 15.464844 45.125 15.546875 45.695312 15.539062 46.125 C 15.53125 46.839844 15.519531 47.558594 15.511719 48.273438 C 15.503906 48.929688 15.5 49.585938 15.507812 50.246094 C 15.511719 50.648438 15.445312 51.128906 15.667969 51.484375 C 15.710938 51.550781 15.785156 51.578125 15.847656 51.558594 C 16.472656 51.683594 17.125 51.617188 17.761719 51.609375 C 18.574219 51.601562 19.398438 51.644531 20.210938 51.578125 C 20.210938 51.578125 20.210938 51.578125 20.214844 51.578125 C 20.277344 51.636719 20.378906 51.636719 20.433594 51.558594 C 20.675781 51.21875 20.609375 50.777344 20.628906 50.371094 C 20.65625 49.753906 20.671875 49.136719 20.6875 48.523438 C 20.710938 47.476562 20.867188 46.222656 20.628906 45.175781 Z M 18.023438 51.027344 C 17.367188 51.035156 16.664062 50.992188 16.015625 51.128906 C 16.046875 50.847656 16.007812 50.550781 16.003906 50.261719 C 16 49.605469 16.007812 48.949219 16.011719 48.289062 C 16.019531 47.574219 16.03125 46.859375 16.039062 46.140625 C 16.042969 45.742188 16.136719 45.179688 15.96875 44.785156 C 16.367188 44.230469 16.699219 43.71875 17.4375 43.476562 C 18.726562 43.054688 19.644531 44.113281 20.101562 45.15625 C 20.128906 45.21875 20.167969 45.261719 20.210938 45.289062 C 20.042969 46.324219 20.183594 47.492188 20.167969 48.519531 C 20.160156 49.132812 20.140625 49.746094 20.117188 50.363281 C 20.109375 50.582031 20.070312 50.8125 20.074219 51.035156 C 19.394531 50.992188 18.707031 51.019531 18.023438 51.027344 Z M 18.023438 51.027344 " fill-opacity="1" fill-rule="nonzero"/><path fill="#0e6655" d="M 44.355469 45.175781 C 44.378906 45.121094 44.386719 45.054688 44.359375 44.976562 C 43.949219 43.742188 43.046875 42.894531 41.699219 42.867188 C 40.707031 42.847656 39.582031 43.734375 39.394531 44.726562 C 39.1875 45.125 39.269531 45.695312 39.265625 46.125 C 39.253906 46.839844 39.242188 47.558594 39.234375 48.273438 C 39.226562 48.929688 39.222656 49.585938 39.230469 50.246094 C 39.234375 50.648438 39.167969 51.128906 39.394531 51.484375 C 39.433594 51.550781 39.507812 51.578125 39.574219 51.558594 C 40.195312 51.683594 40.851562 51.617188 41.484375 51.609375 C 42.296875 51.601562 43.121094 51.644531 43.933594 51.578125 C 43.933594 51.578125 43.9375 51.578125 43.9375 51.578125 C 44 51.636719 44.105469 51.636719 44.15625 51.558594 C 44.398438 51.21875 44.332031 50.777344 44.351562 50.371094 C 44.378906 49.753906 44.398438 49.136719 44.410156 48.523438 C 44.433594 47.476562 44.59375 46.222656 44.355469 45.175781 Z M 41.75 51.027344 C 41.089844 51.035156 40.390625 50.992188 39.738281 51.128906 C 39.769531 50.847656 39.734375 50.550781 39.730469 50.261719 C 39.722656 49.605469 39.730469 48.949219 39.738281 48.289062 C 39.742188 47.574219 39.753906 46.859375 39.761719 46.140625 C 39.769531 45.742188 39.859375 45.179688 39.691406 44.785156 C 40.089844 44.230469 40.421875 43.71875 41.160156 43.476562 C 42.453125 43.054688 43.367188 44.113281 43.824219 45.15625 C 43.851562 45.21875 43.890625 45.261719 43.933594 45.289062 C 43.769531 46.324219 43.910156 47.492188 43.890625 48.519531 C 43.882812 49.132812 43.863281 49.746094 43.839844 50.363281 C 43.832031 50.582031 43.792969 50.8125 43.796875 51.035156 C 43.117188 50.992188 42.429688 51.019531 41.75 51.027344 Z M 41.75 51.027344 " fill-opacity="1" fill-rule="nonzero"/><path fill="#0e6655" d="M 32.492188 20.640625 C 32.515625 20.585938 32.523438 20.515625 32.496094 20.441406 C 32.089844 19.207031 31.183594 18.359375 29.835938 18.332031 C 28.847656 18.308594 27.722656 19.199219 27.53125 20.191406 C 27.328125 20.589844 27.410156 21.15625 27.402344 21.585938 C 27.394531 22.304688 27.382812 23.019531 27.375 23.738281 C 27.363281 24.394531 27.359375 25.050781 27.367188 25.707031 C 27.371094 26.113281 27.308594 26.59375 27.53125 26.949219 C 27.570312 27.011719 27.648438 27.039062 27.710938 27.023438 C 28.332031 27.148438 28.988281 27.078125 29.621094 27.074219 C 30.4375 27.066406 31.261719 27.105469 32.070312 27.042969 C 32.074219 27.042969 32.074219 27.042969 32.074219 27.042969 C 32.136719 27.101562 32.242188 27.097656 32.296875 27.023438 C 32.535156 26.679688 32.472656 26.238281 32.488281 25.835938 C 32.519531 25.21875 32.535156 24.601562 32.546875 23.984375 C 32.574219 22.9375 32.730469 21.6875 32.492188 20.640625 Z M 29.886719 26.492188 C 29.226562 26.5 28.527344 26.453125 27.878906 26.59375 C 27.90625 26.308594 27.871094 26.015625 27.867188 25.726562 C 27.859375 25.070312 27.867188 24.410156 27.875 23.753906 C 27.882812 23.039062 27.894531 22.320312 27.902344 21.605469 C 27.90625 21.203125 28 20.644531 27.828125 20.25 C 28.226562 19.691406 28.558594 19.183594 29.300781 18.941406 C 30.589844 18.519531 31.507812 19.574219 31.964844 20.621094 C 31.988281 20.679688 32.027344 20.722656 32.074219 20.753906 C 31.90625 21.789062 32.046875 22.953125 32.03125 23.980469 C 32.019531 24.597656 32.003906 25.210938 31.980469 25.824219 C 31.96875 26.046875 31.933594 26.277344 31.933594 26.5 C 31.253906 26.457031 30.566406 26.484375 29.886719 26.492188 Z M 29.886719 26.492188 " fill-opacity="1" fill-rule="nonzero"/><path fill="#0e6655" d="M 29.875 18.691406 C 29.152344 19.199219 28.515625 19.9375 28.027344 20.664062 C 27.996094 20.707031 28.050781 20.765625 28.09375 20.730469 C 28.742188 20.125 29.390625 19.449219 29.9375 18.75 C 29.96875 18.710938 29.914062 18.660156 29.875 18.691406 Z M 29.875 18.691406 " fill-opacity="1" fill-rule="nonzero"/><path fill="#0e6655" d="M 30.496094 19.066406 C 30 19.507812 29.507812 19.957031 29.015625 20.402344 C 28.53125 20.84375 27.992188 21.269531 27.601562 21.800781 C 27.5625 21.851562 27.632812 21.910156 27.683594 21.875 C 28.160156 21.53125 28.566406 21.085938 28.996094 20.683594 C 29.53125 20.179688 30.066406 19.675781 30.566406 19.132812 C 30.601562 19.09375 30.535156 19.03125 30.496094 19.066406 Z M 30.496094 19.066406 " fill-opacity="1" fill-rule="nonzero"/><path fill="#0e6655" d="M 31.023438 19.425781 C 29.921875 20.421875 28.691406 21.390625 27.78125 22.5625 C 27.746094 22.605469 27.808594 22.664062 27.851562 22.628906 C 29.007812 21.695312 30.097656 20.601562 31.136719 19.542969 C 31.210938 19.46875 31.101562 19.355469 31.023438 19.425781 Z M 31.023438 19.425781 " fill-opacity="1" fill-rule="nonzero"/><path fill="#0e6655" d="M 31.265625 20.253906 C 29.972656 21.371094 28.429688 22.371094 27.40625 23.761719 C 27.355469 23.832031 27.464844 23.914062 27.527344 23.855469 C 28.769531 22.636719 30.085938 21.53125 31.378906 20.371094 C 31.460938 20.300781 31.34375 20.1875 31.265625 20.253906 Z M 31.265625 20.253906 " fill-opacity="1" fill-rule="nonzero"/><path fill="#0e6655" d="M 31.386719 21.210938 C 30.089844 22.472656 28.605469 23.59375 27.40625 24.949219 C 27.378906 24.984375 27.429688 25.03125 27.460938 25.003906 C 28.894531 23.898438 30.257812 22.628906 31.535156 21.347656 C 31.628906 21.253906 31.480469 21.125 31.386719 21.210938 Z M 31.386719 21.210938 " fill-opacity="1" fill-rule="nonzero"/><path fill="#0e6655" d="M 31.945312 21.628906 C 31.289062 22.332031 30.578125 22.976562 29.851562 23.605469 C 29.1875 24.179688 28.433594 24.710938 27.878906 25.390625 C 27.847656 25.433594 27.902344 25.5 27.949219 25.472656 C 29.460938 24.519531 30.921875 23.109375 32.085938 21.757812 C 32.167969 21.667969 32.03125 21.539062 31.945312 21.628906 Z M 31.945312 21.628906 " fill-opacity="1" fill-rule="nonzero"/><path fill="#0e6655" d="M 31.871094 22.730469 C 30.710938 23.765625 29.183594 24.777344 28.359375 26.113281 C 28.324219 26.171875 28.394531 26.238281 28.449219 26.191406 C 29.109375 25.664062 29.683594 25.007812 30.3125 24.4375 C 30.882812 23.914062 31.464844 23.40625 32.023438 22.867188 C 32.117188 22.773438 31.96875 22.644531 31.871094 22.730469 Z M 31.871094 22.730469 " fill-opacity="1" fill-rule="nonzero"/><path fill="#0e6655" d="M 32.226562 23.457031 C 31.710938 23.984375 31.171875 24.488281 30.621094 24.980469 C 30.074219 25.46875 29.4375 25.929688 29 26.519531 C 28.949219 26.585938 29.042969 26.675781 29.109375 26.632812 C 29.726562 26.242188 30.277344 25.695312 30.820312 25.207031 C 31.378906 24.707031 31.902344 24.183594 32.363281 23.589844 C 32.433594 23.496094 32.3125 23.371094 32.226562 23.457031 Z M 32.226562 23.457031 " fill-opacity="1" fill-rule="nonzero"/><path fill="#0e6655" d="M 31.617188 24.9375 C 31.386719 25.171875 31.152344 25.402344 30.910156 25.628906 C 30.695312 25.828125 30.410156 26.054688 30.277344 26.3125 C 30.242188 26.375 30.300781 26.464844 30.375 26.4375 C 30.667969 26.339844 30.90625 26.070312 31.125 25.863281 C 31.371094 25.632812 31.589844 25.375 31.816406 25.125 C 31.917969 25.007812 31.726562 24.824219 31.617188 24.9375 Z M 31.617188 24.9375 " fill-opacity="1" fill-rule="nonzero"/><path fill="#0e6655" d="M 18.167969 43.152344 C 17.386719 43.730469 16.566406 44.460938 16.164062 45.359375 C 16.148438 45.398438 16.199219 45.4375 16.230469 45.410156 C 16.949219 44.734375 17.53125 43.925781 18.261719 43.25 C 18.324219 43.191406 18.238281 43.101562 18.167969 43.152344 Z M 18.167969 43.152344 " fill-opacity="1" fill-rule="nonzero"/><path fill="#0e6655" d="M 18.785156 43.457031 C 18.210938 43.933594 17.667969 44.4375 17.140625 44.964844 C 16.6875 45.417969 16.175781 45.910156 15.871094 46.480469 C 15.839844 46.542969 15.910156 46.609375 15.96875 46.5625 C 16.472656 46.144531 16.886719 45.59375 17.339844 45.117188 C 17.84375 44.585938 18.367188 44.078125 18.890625 43.566406 C 18.964844 43.496094 18.859375 43.390625 18.785156 43.457031 Z M 18.785156 43.457031 " fill-opacity="1" fill-rule="nonzero"/><path fill="#0e6655" d="M 19.269531 44.109375 C 18.664062 44.648438 18.0625 45.191406 17.480469 45.753906 C 16.9375 46.28125 16.21875 46.890625 15.9375 47.601562 C 15.917969 47.65625 15.988281 47.699219 16.035156 47.664062 C 16.582031 47.230469 17 46.582031 17.488281 46.078125 C 18.097656 45.441406 18.75 44.839844 19.378906 44.222656 C 19.453125 44.152344 19.34375 44.042969 19.269531 44.109375 Z M 19.269531 44.109375 " fill-opacity="1" fill-rule="nonzero"/><path fill="#0e6655" d="M 19.773438 44.898438 C 19.097656 45.507812 18.433594 46.128906 17.792969 46.773438 C 17.222656 47.34375 16.582031 47.945312 16.191406 48.660156 C 16.164062 48.710938 16.222656 48.773438 16.273438 48.730469 C 16.839844 48.292969 17.304688 47.710938 17.804688 47.195312 C 18.5 46.476562 19.222656 45.773438 19.941406 45.074219 C 20.039062 44.976562 19.875 44.804688 19.773438 44.898438 Z M 19.773438 44.898438 " fill-opacity="1" fill-rule="nonzero"/><path fill="#0e6655" d="M 20.371094 45.488281 C 19.085938 46.902344 17.113281 48 16.265625 49.75 C 16.222656 49.835938 16.335938 49.933594 16.40625 49.855469 C 17.117188 49.046875 17.808594 48.261719 18.609375 47.53125 C 19.277344 46.921875 19.933594 46.320312 20.496094 45.609375 C 20.566406 45.523438 20.449219 45.402344 20.371094 45.488281 Z M 20.371094 45.488281 " fill-opacity="1" fill-rule="nonzero"/><path fill="#0e6655" d="M 20.433594 46.484375 C 19.144531 47.808594 17.507812 49.0625 16.527344 50.644531 C 16.460938 50.75 16.617188 50.835938 16.695312 50.761719 C 18.042969 49.46875 19.351562 48.027344 20.570312 46.613281 C 20.648438 46.523438 20.519531 46.398438 20.433594 46.484375 Z M 20.433594 46.484375 " fill-opacity="1" fill-rule="nonzero"/><path fill="#0e6655" d="M 20.230469 47.902344 C 19.78125 48.359375 19.328125 48.808594 18.871094 49.257812 C 18.375 49.746094 17.6875 50.214844 17.351562 50.824219 C 17.316406 50.894531 17.386719 50.960938 17.453125 50.929688 C 18.03125 50.667969 18.503906 50.089844 18.949219 49.648438 C 19.46875 49.132812 19.945312 48.597656 20.375 48.007812 C 20.4375 47.921875 20.300781 47.828125 20.230469 47.902344 Z M 20.230469 47.902344 " fill-opacity="1" fill-rule="nonzero"/><path fill="#0e6655" d="M 19.824219 49.375 C 19.417969 49.804688 18.953125 50.164062 18.542969 50.582031 C 18.460938 50.664062 18.566406 50.816406 18.671875 50.765625 C 19.21875 50.503906 19.640625 49.992188 20.003906 49.523438 C 20.09375 49.402344 19.925781 49.265625 19.824219 49.375 Z M 19.824219 49.375 " fill-opacity="1" fill-rule="nonzero"/><path fill="#0e6655" d="M 41.679688 43.21875 C 41.28125 43.558594 40.894531 43.902344 40.519531 44.265625 C 40.1875 44.585938 39.820312 44.914062 39.605469 45.324219 C 39.585938 45.367188 39.640625 45.398438 39.671875 45.375 C 40.042969 45.105469 40.34375 44.726562 40.664062 44.402344 C 41.027344 44.035156 41.398438 43.675781 41.773438 43.320312 C 41.832031 43.261719 41.746094 43.164062 41.679688 43.21875 Z M 41.679688 43.21875 " fill-opacity="1" fill-rule="nonzero"/><path fill="#0e6655" d="M 42.300781 43.699219 C 41.828125 44.074219 41.363281 44.464844 40.917969 44.867188 C 40.480469 45.261719 39.976562 45.65625 39.640625 46.140625 C 39.605469 46.191406 39.664062 46.238281 39.710938 46.210938 C 40.160156 45.925781 40.527344 45.496094 40.914062 45.136719 C 41.402344 44.683594 41.890625 44.234375 42.402344 43.808594 C 42.472656 43.746094 42.375 43.640625 42.300781 43.699219 Z M 42.300781 43.699219 " fill-opacity="1" fill-rule="nonzero"/><path fill="#0e6655" d="M 43.476562 43.628906 C 42.851562 44.195312 42.199219 44.726562 41.5625 45.273438 C 40.992188 45.761719 40.34375 46.253906 39.9375 46.894531 C 39.894531 46.957031 39.976562 47.019531 40.035156 46.976562 C 40.636719 46.539062 41.15625 45.96875 41.71875 45.476562 C 42.359375 44.917969 42.996094 44.359375 43.582031 43.738281 C 43.648438 43.667969 43.550781 43.5625 43.476562 43.628906 Z M 43.476562 43.628906 " fill-opacity="1" fill-rule="nonzero"/><path fill="#0e6655" d="M 43.75 44.460938 C 43.015625 45.085938 42.253906 45.683594 41.53125 46.320312 C 40.957031 46.824219 40.269531 47.386719 39.9375 48.082031 C 39.910156 48.140625 39.988281 48.179688 40.03125 48.148438 C 40.714844 47.636719 41.273438 46.9375 41.917969 46.371094 C 42.578125 45.792969 43.25 45.222656 43.886719 44.617188 C 43.972656 44.535156 43.839844 44.382812 43.75 44.460938 Z M 43.75 44.460938 " fill-opacity="1" fill-rule="nonzero"/><path fill="#0e6655" d="M 44.304688 45.285156 C 42.808594 46.539062 40.96875 47.65625 39.785156 49.234375 C 39.726562 49.3125 39.84375 49.390625 39.910156 49.335938 C 41.4375 48.066406 42.945312 46.730469 44.417969 45.398438 C 44.496094 45.328125 44.382812 45.21875 44.304688 45.285156 Z M 44.304688 45.285156 " fill-opacity="1" fill-rule="nonzero"/><path fill="#0e6655" d="M 44.539062 45.96875 C 43.742188 46.6875 42.957031 47.417969 42.164062 48.136719 C 41.371094 48.855469 40.503906 49.535156 39.8125 50.347656 C 39.734375 50.433594 39.847656 50.578125 39.945312 50.503906 C 40.796875 49.859375 41.5625 49.078125 42.355469 48.363281 C 43.160156 47.636719 43.953125 46.90625 44.667969 46.09375 C 44.746094 46.007812 44.625 45.890625 44.539062 45.96875 Z M 44.539062 45.96875 " fill-opacity="1" fill-rule="nonzero"/><path fill="#0e6655" d="M 44.148438 47.515625 C 42.894531 48.648438 41.296875 49.640625 40.324219 51.039062 C 40.285156 51.097656 40.359375 51.15625 40.414062 51.117188 C 41.78125 50.101562 43.101562 48.863281 44.296875 47.652344 C 44.390625 47.558594 44.242188 47.433594 44.148438 47.515625 Z M 44.148438 47.515625 " fill-opacity="1" fill-rule="nonzero"/><path fill="#0e6655" d="M 43.78125 48.957031 C 43.382812 49.34375 42.960938 49.710938 42.539062 50.070312 C 42.136719 50.417969 41.585938 50.746094 41.3125 51.203125 C 41.277344 51.261719 41.332031 51.34375 41.398438 51.320312 C 41.871094 51.167969 42.277344 50.75 42.652344 50.4375 C 43.132812 50.039062 43.574219 49.613281 43.996094 49.152344 C 44.105469 49.03125 43.898438 48.847656 43.78125 48.957031 Z M 43.78125 48.957031 " fill-opacity="1" fill-rule="nonzero"/><path fill="#0e6655" d="M 43.429688 50.199219 C 43.292969 50.347656 43.152344 50.496094 43 50.632812 C 42.851562 50.765625 42.671875 50.878906 42.546875 51.035156 C 42.496094 51.101562 42.535156 51.230469 42.636719 51.210938 C 43.054688 51.128906 43.386719 50.699219 43.65625 50.394531 C 43.769531 50.269531 43.546875 50.074219 43.429688 50.199219 Z M 43.429688 50.199219 " fill-opacity="1" fill-rule="nonzero"/><path fill="#0e6655" d="M 29.578125 42.078125 C 28.496094 42.859375 27.214844 43.707031 26.46875 44.832031 C 26.441406 44.871094 26.488281 44.921875 26.527344 44.890625 C 27.609375 44.035156 28.578125 43.035156 29.671875 42.183594 C 29.742188 42.125 29.648438 42.027344 29.578125 42.078125 Z M 29.578125 42.078125 " fill-opacity="1" fill-rule="nonzero"/><path fill="#0e6655" d="M 30.882812 42.003906 C 29.4375 43.300781 27.628906 44.398438 26.421875 45.929688 C 26.378906 45.984375 26.457031 46.042969 26.503906 46.007812 C 28.082031 44.875 29.640625 43.503906 31 42.121094 C 31.078125 42.042969 30.960938 41.929688 30.882812 42.003906 Z M 30.882812 42.003906 " fill-opacity="1" fill-rule="nonzero"/><path fill="#0e6655" d="M 32.433594 42.207031 C 31.234375 43.027344 30.085938 43.921875 28.96875 44.851562 C 27.941406 45.703125 26.839844 46.625 26.0625 47.71875 C 26.015625 47.785156 26.109375 47.859375 26.167969 47.808594 C 27.195312 46.9375 28.125 45.949219 29.148438 45.066406 C 30.246094 44.121094 31.402344 43.25 32.515625 42.320312 C 32.574219 42.269531 32.5 42.164062 32.433594 42.207031 Z M 32.433594 42.207031 " fill-opacity="1" fill-rule="nonzero"/><path fill="#0e6655" d="M 32.941406 43.296875 C 30.859375 44.933594 28.683594 46.550781 26.976562 48.589844 C 26.933594 48.636719 27.011719 48.707031 27.058594 48.664062 C 28.996094 46.84375 31.007812 45.136719 33.054688 43.4375 C 33.132812 43.371094 33.019531 43.230469 32.941406 43.296875 Z M 32.941406 43.296875 " fill-opacity="1" fill-rule="nonzero"/><path fill="#0e6655" d="M 33.234375 44.519531 C 32.054688 45.566406 30.878906 46.621094 29.707031 47.679688 C 28.546875 48.730469 27.242188 49.71875 26.214844 50.902344 C 26.175781 50.953125 26.246094 51.003906 26.292969 50.972656 C 27.589844 50.113281 28.722656 48.929688 29.875 47.890625 C 31.054688 46.824219 32.21875 45.742188 33.367188 44.644531 C 33.453125 44.5625 33.320312 44.441406 33.234375 44.519531 Z M 33.234375 44.519531 " fill-opacity="1" fill-rule="nonzero"/><path fill="#0e6655" d="M 33.785156 45.828125 C 32.546875 46.875 31.316406 47.925781 30.074219 48.964844 C 28.84375 49.996094 27.5 51.027344 26.496094 52.285156 C 26.460938 52.332031 26.523438 52.382812 26.570312 52.351562 C 27.859375 51.382812 29.035156 50.234375 30.265625 49.191406 C 31.507812 48.140625 32.769531 47.105469 33.921875 45.957031 C 34.011719 45.871094 33.875 45.753906 33.785156 45.828125 Z M 33.785156 45.828125 " fill-opacity="1" fill-rule="nonzero"/><path fill="#0e6655" d="M 33.644531 47.449219 C 31.457031 49.679688 28.640625 51.378906 26.664062 53.796875 C 26.570312 53.910156 26.726562 54.035156 26.828125 53.941406 C 28.015625 52.847656 29.179688 51.75 30.417969 50.710938 C 31.59375 49.71875 32.75 48.722656 33.785156 47.582031 C 33.867188 47.488281 33.730469 47.363281 33.644531 47.449219 Z M 33.644531 47.449219 " fill-opacity="1" fill-rule="nonzero"/><path fill="#0e6655" d="M 34.144531 49.183594 C 32.851562 50.210938 31.488281 51.148438 30.136719 52.09375 C 28.832031 53.003906 27.148438 54.003906 26.273438 55.351562 C 26.238281 55.402344 26.300781 55.484375 26.359375 55.445312 C 26.941406 55.074219 27.441406 54.566406 27.972656 54.125 C 28.804688 53.4375 29.6875 52.8125 30.5625 52.183594 C 31.835938 51.269531 33.109375 50.371094 34.257812 49.300781 C 34.335938 49.226562 34.226562 49.121094 34.144531 49.183594 Z M 34.144531 49.183594 " fill-opacity="1" fill-rule="nonzero"/><path fill="#0e6655" d="M 33.855469 50.90625 C 32.941406 51.539062 32.082031 52.25 31.210938 52.941406 C 30.214844 53.730469 29.003906 54.421875 28.125 55.339844 C 28.074219 55.390625 28.128906 55.46875 28.195312 55.445312 C 29.304688 55.027344 30.285156 54.117188 31.207031 53.390625 C 32.152344 52.648438 33.078125 51.867188 33.9375 51.019531 C 33.988281 50.964844 33.925781 50.859375 33.855469 50.90625 Z M 33.855469 50.90625 " fill-opacity="1" fill-rule="nonzero"/><path fill="#0e6655" d="M 33.609375 52.355469 C 33.066406 52.800781 32.53125 53.257812 31.992188 53.714844 C 31.347656 54.265625 30.546875 54.746094 29.992188 55.386719 C 29.925781 55.464844 30.007812 55.597656 30.109375 55.558594 C 30.757812 55.296875 31.316406 54.746094 31.84375 54.296875 C 32.503906 53.742188 33.125 53.140625 33.753906 52.550781 C 33.867188 52.445312 33.734375 52.25 33.609375 52.355469 Z M 33.609375 52.355469 " fill-opacity="1" fill-rule="nonzero"/><path fill="#0e6655" d="M 33.835938 53.578125 C 33.421875 53.917969 33.011719 54.265625 32.601562 54.609375 C 32.195312 54.949219 31.710938 55.25 31.371094 55.65625 C 31.296875 55.742188 31.394531 55.894531 31.503906 55.84375 C 31.988281 55.605469 32.394531 55.183594 32.800781 54.835938 C 33.210938 54.484375 33.597656 54.121094 33.960938 53.726562 C 34.035156 53.648438 33.925781 53.507812 33.835938 53.578125 Z M 33.835938 53.578125 " fill-opacity="1" fill-rule="nonzero"/><path fill="#0e6655" d="M 33.558594 55.175781 C 33.277344 55.355469 33.015625 55.558594 32.828125 55.835938 C 32.789062 55.890625 32.855469 55.957031 32.914062 55.929688 C 33.203125 55.792969 33.433594 55.578125 33.707031 55.410156 C 33.878906 55.304688 33.726562 55.0625 33.558594 55.175781 Z M 33.558594 55.175781 " fill-opacity="1" fill-rule="nonzero"/><path fill="#0e6655" d="M 20.9375 26.460938 C 18.382812 27.640625 15.90625 29.097656 13.625 30.742188 C 13.578125 30.773438 13.625 30.855469 13.675781 30.828125 C 16.097656 29.371094 18.5625 27.992188 20.972656 26.519531 C 21.003906 26.5 20.972656 26.445312 20.9375 26.460938 Z M 20.9375 26.460938 " fill-opacity="1" fill-rule="nonzero"/><path fill="#0e6655" d="M 21.796875 27.394531 C 20.253906 28.117188 18.722656 28.878906 17.304688 29.832031 C 17.210938 29.894531 17.292969 30.035156 17.390625 29.980469 C 18.875 29.148438 20.394531 28.378906 21.863281 27.515625 C 21.941406 27.472656 21.878906 27.355469 21.796875 27.394531 Z M 21.796875 27.394531 " fill-opacity="1" fill-rule="nonzero"/><path fill="#0e6655" d="M 22.050781 28.519531 C 21.359375 28.863281 20.617188 29.261719 20.042969 29.78125 C 20 29.816406 20.039062 29.882812 20.09375 29.863281 C 20.816406 29.5625 21.441406 29.03125 22.136719 28.667969 C 22.234375 28.617188 22.148438 28.46875 22.050781 28.519531 Z M 22.050781 28.519531 " fill-opacity="1" fill-rule="nonzero"/><path fill="#0e6655" d="M 22.53125 29.539062 C 22.460938 29.546875 22.398438 29.582031 22.347656 29.636719 C 22.335938 29.644531 22.355469 29.660156 22.367188 29.652344 C 22.414062 29.609375 22.472656 29.578125 22.535156 29.574219 C 22.558594 29.574219 22.554688 29.535156 22.53125 29.539062 Z M 22.53125 29.539062 " fill-opacity="1" fill-rule="nonzero"/><path fill="#0e6655" d="M 47.015625 30.269531 C 43.625 32.59375 40.363281 35.21875 37.265625 37.914062 C 37.207031 37.960938 37.277344 38.042969 37.339844 38 C 40.710938 35.632812 43.886719 32.953125 47.121094 30.40625 C 47.199219 30.34375 47.09375 30.210938 47.015625 30.269531 Z M 47.015625 30.269531 " fill-opacity="1" fill-rule="nonzero"/><path fill="#0e6655" d="M 46.300781 32.824219 C 43.136719 35.222656 39.894531 37.519531 36.738281 39.925781 C 36.6875 39.964844 36.742188 40.054688 36.796875 40.019531 C 40.207031 38 43.371094 35.46875 46.410156 32.9375 C 46.488281 32.871094 46.378906 32.765625 46.300781 32.824219 Z M 46.300781 32.824219 " fill-opacity="1" fill-rule="nonzero"/><path fill="#0e6655" d="M 43.5625 36.316406 C 41.789062 37.757812 39.863281 39.035156 38.148438 40.539062 C 38.101562 40.578125 38.148438 40.660156 38.203125 40.628906 C 40.183594 39.496094 41.984375 37.9375 43.695312 36.445312 C 43.785156 36.367188 43.652344 36.246094 43.5625 36.316406 Z M 43.5625 36.316406 " fill-opacity="1" fill-rule="nonzero"/><path fill="#0e6655" d="M 43.3125 37.960938 C 42.519531 38.484375 41.625 39.097656 41.023438 39.84375 C 40.980469 39.898438 41.054688 39.976562 41.113281 39.941406 C 41.941406 39.441406 42.621094 38.679688 43.417969 38.125 C 43.523438 38.054688 43.421875 37.890625 43.3125 37.960938 Z M 43.3125 37.960938 " fill-opacity="1" fill-rule="nonzero"/><path fill="#0e6655" d="M 43.480469 39.179688 C 43.238281 39.34375 43.019531 39.535156 42.789062 39.710938 C 42.691406 39.785156 42.78125 39.9375 42.890625 39.875 C 43.144531 39.722656 43.359375 39.523438 43.605469 39.359375 C 43.722656 39.28125 43.597656 39.097656 43.480469 39.179688 Z M 43.480469 39.179688 " fill-opacity="1" fill-rule="nonzero"/><path fill="#0e6655" d="M 31.140625 7.945312 C 30.585938 7.777344 29.597656 7.601562 29.082031 7.953125 C 29 8.007812 28.992188 8.144531 29.101562 8.175781 C 29.414062 8.261719 29.765625 8.21875 30.085938 8.21875 C 30.441406 8.214844 30.78125 8.222656 31.125 8.125 C 31.207031 8.101562 31.238281 7.972656 31.140625 7.945312 Z M 31.140625 7.945312 " fill-opacity="1" fill-rule="nonzero"/><path fill="#0e6655" d="M 30.773438 8.585938 C 30.566406 8.441406 30.296875 8.464844 30.046875 8.464844 C 29.78125 8.464844 29.535156 8.507812 29.289062 8.605469 C 29.1875 8.644531 29.234375 8.78125 29.324219 8.796875 C 29.542969 8.828125 29.761719 8.855469 29.984375 8.855469 C 30.253906 8.859375 30.554688 8.90625 30.78125 8.742188 C 30.835938 8.703125 30.824219 8.621094 30.773438 8.585938 Z M 30.773438 8.585938 " fill-opacity="1" fill-rule="nonzero"/><path fill="#0e6655" d="M 30.71875 9.105469 C 30.328125 9.03125 29.929688 9.15625 29.546875 9.222656 C 29.378906 9.25 29.425781 9.496094 29.582031 9.5 C 29.96875 9.507812 30.367188 9.527344 30.742188 9.441406 C 30.917969 9.402344 30.886719 9.136719 30.71875 9.105469 Z M 30.71875 9.105469 " fill-opacity="1" fill-rule="nonzero"/><path fill="#0e6655" d="M 30.398438 9.882812 C 30.300781 9.734375 30.117188 9.773438 29.964844 9.78125 C 29.757812 9.785156 29.773438 10.089844 29.976562 10.097656 C 30.140625 10.101562 30.324219 10.136719 30.414062 9.96875 C 30.425781 9.941406 30.414062 9.90625 30.398438 9.882812 Z M 30.398438 9.882812 " fill-opacity="1" fill-rule="nonzero"/><path fill="#0e6655" d="M 30.171875 10.332031 C 30.15625 10.332031 30.144531 10.332031 30.132812 10.332031 C 29.953125 10.335938 29.921875 10.613281 30.101562 10.644531 C 30.117188 10.648438 30.128906 10.652344 30.144531 10.652344 C 30.378906 10.699219 30.410156 10.328125 30.171875 10.332031 Z M 30.171875 10.332031 " fill-opacity="1" fill-rule="nonzero"/><path fill="#0e6655" d="M 38.132812 19.710938 C 37.230469 20.203125 36.347656 20.765625 35.59375 21.464844 C 35.542969 21.511719 35.585938 21.613281 35.65625 21.578125 C 36.574219 21.101562 37.359375 20.414062 38.199219 19.828125 C 38.265625 19.785156 38.199219 19.671875 38.132812 19.710938 Z M 38.132812 19.710938 " fill-opacity="1" fill-rule="nonzero"/><path fill="#0e6655" d="M 38.21875 20.6875 C 36.367188 21.511719 34.78125 23.207031 33.207031 24.453125 C 33.1875 24.472656 33.207031 24.503906 33.230469 24.488281 C 34.144531 23.863281 35.023438 23.179688 35.925781 22.53125 C 36.710938 21.964844 37.5625 21.445312 38.277344 20.789062 C 38.324219 20.746094 38.285156 20.660156 38.21875 20.6875 Z M 38.21875 20.6875 " fill-opacity="1" fill-rule="nonzero"/><path fill="#0e6655" d="M 38.066406 21.878906 C 36.578125 22.871094 34.898438 23.96875 33.660156 25.257812 C 33.609375 25.308594 33.683594 25.402344 33.746094 25.367188 C 35.332031 24.527344 36.777344 23.136719 38.140625 21.980469 C 38.203125 21.929688 38.132812 21.835938 38.066406 21.878906 Z M 38.066406 21.878906 " fill-opacity="1" fill-rule="nonzero"/><path fill="#0e6655" d="M 37.511719 23.320312 C 37.140625 23.660156 36.761719 23.992188 36.382812 24.324219 C 36.347656 24.355469 36.375 24.429688 36.425781 24.402344 C 36.890625 24.167969 37.261719 23.820312 37.640625 23.46875 C 37.734375 23.382812 37.605469 23.230469 37.511719 23.320312 Z M 37.511719 23.320312 " fill-opacity="1" fill-rule="nonzero"/></svg>