<svg xmlns="http://www.w3.org/2000/svg" xmlns:xlink="http://www.w3.org/1999/xlink" width="80" zoomAndPan="magnify" viewBox="0 0 60 60" height="80" preserveAspectRatio="xMidYMid meet" version="1.0"><defs><clipPath id="85b334f4e8"><path d="M 4.167969 9.625 L 55.917969 9.625 L 55.917969 50.527344 L 4.167969 50.527344 Z M 4.167969 9.625 " clip-rule="nonzero"/></clipPath></defs><g clip-path="url(#85b334f4e8)"><path fill="#0e6655" d="M 21.785156 10.808594 L 38.296875 10.808594 C 38.800781 10.808594 39.246094 11.128906 39.410156 11.601562 L 40.933594 16.046875 C 41.421875 17.476562 42.765625 18.433594 44.269531 18.433594 L 46.765625 18.433594 L 46.765625 16.398438 L 51.4375 16.398438 L 51.4375 18.433594 L 53.566406 18.433594 C 54.210938 18.433594 54.742188 18.964844 54.742188 19.613281 L 54.742188 48.167969 C 54.742188 48.820312 54.210938 49.347656 53.566406 49.347656 L 6.519531 49.347656 C 5.871094 49.347656 5.34375 48.820312 5.34375 48.167969 L 5.34375 19.613281 C 5.34375 18.964844 5.871094 18.433594 6.519531 18.433594 L 10.789062 18.433594 L 10.789062 16.398438 L 13.613281 16.398438 L 13.613281 18.433594 L 15.8125 18.433594 C 17.320312 18.433594 18.664062 17.476562 19.148438 16.046875 L 20.675781 11.601562 C 20.839844 11.128906 21.285156 10.808594 21.785156 10.808594 Z M 21.785156 9.628906 C 20.785156 9.628906 19.890625 10.265625 19.5625 11.21875 L 18.039062 15.664062 C 17.710938 16.613281 16.820312 17.253906 15.8125 17.253906 L 14.789062 17.253906 L 14.789062 15.21875 L 9.613281 15.21875 L 9.613281 17.253906 L 6.519531 17.253906 C 5.21875 17.253906 4.167969 18.308594 4.167969 19.613281 L 4.167969 48.167969 C 4.167969 49.472656 5.21875 50.527344 6.519531 50.527344 L 53.566406 50.527344 C 54.867188 50.527344 55.917969 49.472656 55.917969 48.167969 L 55.917969 19.613281 C 55.917969 18.308594 54.867188 17.253906 53.566406 17.253906 L 52.613281 17.253906 L 52.613281 15.21875 L 45.589844 15.21875 L 45.589844 17.253906 L 44.269531 17.253906 C 43.265625 17.253906 42.367188 16.613281 42.046875 15.664062 L 40.515625 11.21875 C 40.195312 10.265625 39.300781 9.628906 38.296875 9.628906 L 21.785156 9.628906 " fill-opacity="1" fill-rule="nonzero"/></g><path fill="#0e6655" d="M 29.808594 24.636719 C 34.230469 24.507812 37.921875 28 38.050781 32.433594 C 38.054688 32.511719 38.054688 32.589844 38.054688 32.667969 C 38.0625 37.105469 34.484375 40.714844 30.054688 40.722656 C 25.632812 40.726562 22.039062 37.136719 22.03125 32.703125 C 22.03125 32.6875 22.03125 32.679688 22.03125 32.667969 C 22.03125 28.320312 25.476562 24.765625 29.808594 24.636719 Z M 29.707031 19.960938 C 22.84375 20.140625 17.375 25.78125 17.394531 32.667969 C 17.375 39.671875 23.023438 45.367188 30.011719 45.386719 C 36.992188 45.402344 42.671875 39.742188 42.691406 32.734375 C 42.691406 32.714844 42.691406 32.691406 42.691406 32.667969 C 42.707031 25.664062 37.0625 19.972656 30.074219 19.953125 C 29.949219 19.953125 29.832031 19.953125 29.707031 19.960938 " fill-opacity="1" fill-rule="nonzero"/><path fill="#0e6655" d="M 50.722656 24.285156 C 50.722656 23.257812 49.886719 22.425781 48.859375 22.425781 C 47.835938 22.425781 47 23.257812 47 24.285156 C 47 25.316406 47.835938 26.152344 48.859375 26.152344 C 49.886719 26.152344 50.722656 25.316406 50.722656 24.285156 " fill-opacity="1" fill-rule="nonzero"/></svg>