<svg xmlns="http://www.w3.org/2000/svg" xmlns:xlink="http://www.w3.org/1999/xlink" width="80" zoomAndPan="magnify" viewBox="0 0 60 60" height="80" preserveAspectRatio="xMidYMid meet" version="1.0"><defs><clipPath id="c898ec43c3"><path d="M 11.621094 3.304688 L 48.371094 3.304688 L 48.371094 54.289062 L 11.621094 54.289062 Z M 11.621094 3.304688 " clip-rule="nonzero"/></clipPath></defs><g clip-path="url(#c898ec43c3)"><path fill="#0e6655" d="M 15.097656 53.214844 L 44.890625 53.214844 C 46.222656 53.214844 47.300781 52.128906 47.300781 50.789062 L 47.300781 6.804688 C 47.300781 5.464844 46.222656 4.378906 44.890625 4.378906 L 15.097656 4.378906 C 13.765625 4.378906 12.683594 5.464844 12.683594 6.804688 L 12.683594 50.789062 C 12.683594 52.128906 13.765625 53.214844 15.097656 53.214844 Z M 45.957031 54.289062 L 14.03125 54.289062 C 12.699219 54.289062 11.621094 53.203125 11.621094 51.863281 L 11.621094 5.734375 C 11.621094 4.394531 12.699219 3.308594 14.03125 3.308594 L 45.957031 3.308594 C 47.289062 3.308594 48.371094 4.394531 48.371094 5.734375 L 48.371094 51.863281 C 48.371094 53.203125 47.289062 54.289062 45.957031 54.289062 " fill-opacity="1" fill-rule="nonzero"/></g><path fill="#0e6655" d="M 16.625 23.335938 L 15.40625 21.761719 C 15.289062 21.613281 15.300781 21.398438 15.433594 21.257812 C 15.589844 21.097656 15.804688 20.890625 15.953125 21.058594 L 16.617188 21.816406 C 16.777344 21.996094 17.054688 21.988281 17.203125 21.796875 L 18.542969 20.082031 C 18.644531 19.953125 18.835938 19.941406 18.953125 20.058594 L 19.335938 20.445312 C 19.480469 20.589844 19.484375 20.820312 19.351562 20.972656 L 17.210938 23.355469 C 17.050781 23.53125 16.769531 23.523438 16.625 23.335938 " fill-opacity="1" fill-rule="nonzero"/><path fill="#0e6655" d="M 16.625 30.957031 L 15.40625 29.386719 C 15.289062 29.234375 15.300781 29.019531 15.433594 28.882812 C 15.589844 28.722656 15.804688 28.515625 15.953125 28.683594 L 16.617188 29.4375 C 16.777344 29.617188 17.054688 29.609375 17.203125 29.421875 L 18.363281 27.929688 C 18.558594 27.679688 18.929688 27.660156 19.152344 27.882812 L 19.335938 28.066406 C 19.480469 28.210938 19.484375 28.445312 19.351562 28.597656 L 17.210938 30.976562 C 17.050781 31.15625 16.769531 31.144531 16.625 30.957031 " fill-opacity="1" fill-rule="nonzero"/><path fill="#0e6655" d="M 16.625 39.347656 L 15.40625 37.773438 C 15.289062 37.621094 15.300781 37.410156 15.433594 37.269531 C 15.589844 37.109375 15.804688 36.902344 15.953125 37.070312 L 16.617188 37.828125 C 16.777344 38.007812 17.054688 37.996094 17.203125 37.808594 L 18.363281 36.320312 C 18.558594 36.070312 18.929688 36.046875 19.152344 36.273438 L 19.335938 36.457031 C 19.480469 36.601562 19.484375 36.832031 19.351562 36.984375 L 17.210938 39.367188 C 17.050781 39.542969 16.769531 39.535156 16.625 39.347656 " fill-opacity="1" fill-rule="nonzero"/><path fill="#0e6655" d="M 29.339844 13.570312 C 28.769531 14.144531 27.859375 14.828125 27.339844 14.785156 C 26.5 14.71875 25.410156 13.578125 25.410156 13.578125 C 25.410156 13.578125 22.816406 11.710938 24.375 9.886719 C 25.492188 8.582031 27.339844 10.671875 27.339844 10.671875 C 27.339844 10.671875 29.066406 8.457031 30.417969 9.21875 C 32.046875 10.132812 30.34375 12.574219 29.339844 13.570312 Z M 31.195312 8.210938 C 29.238281 7.109375 27.347656 9.1875 27.347656 9.1875 C 26.632812 8.621094 25.664062 8.164062 24.75 8.167969 C 23.25 8.167969 22.132812 9.742188 22.351562 11.191406 C 22.605469 12.859375 24.3125 14.238281 25.546875 15.199219 C 25.929688 15.496094 26.324219 15.789062 26.78125 15.953125 C 28.144531 16.441406 29.367188 15.167969 30.246094 14.292969 C 31.699219 12.847656 33.554688 9.535156 31.195312 8.210938 " fill-opacity="1" fill-rule="nonzero"/><path fill="#0e6655" d="M 34.722656 15.238281 C 34.148438 15.808594 33.242188 16.492188 32.71875 16.453125 C 31.878906 16.382812 30.789062 15.242188 30.789062 15.242188 C 30.789062 15.242188 27.867188 13.371094 29.425781 11.550781 C 30.539062 10.246094 32.722656 12.335938 32.722656 12.335938 C 32.722656 12.335938 34.027344 10.28125 35.378906 11.042969 C 37.003906 11.957031 35.722656 14.238281 34.722656 15.238281 Z M 36.578125 9.875 C 34.617188 8.773438 32.734375 11.132812 32.734375 11.132812 C 32.023438 10.566406 31.046875 9.832031 30.128906 9.832031 C 28.628906 9.835938 27.511719 11.410156 27.734375 12.855469 C 27.988281 14.527344 29.691406 15.90625 30.929688 16.863281 C 31.3125 17.160156 31.707031 17.457031 32.160156 17.617188 C 33.523438 18.105469 34.746094 16.832031 35.628906 15.957031 C 37.078125 14.511719 38.933594 11.203125 36.578125 9.875 " fill-opacity="1" fill-rule="nonzero"/><path fill="#0e6655" d="M 43.144531 21.707031 L 21.902344 21.707031 C 21.523438 21.707031 21.214844 21.398438 21.214844 21.015625 C 21.214844 20.636719 21.523438 20.328125 21.902344 20.328125 L 43.144531 20.328125 C 43.523438 20.328125 43.832031 20.636719 43.832031 21.015625 C 43.832031 21.398438 43.523438 21.707031 43.144531 21.707031 " fill-opacity="1" fill-rule="nonzero"/><path fill="#0e6655" d="M 43.144531 26.070312 L 21.902344 26.070312 C 21.523438 26.070312 21.214844 25.761719 21.214844 25.378906 C 21.214844 24.996094 21.523438 24.6875 21.902344 24.6875 L 43.144531 24.6875 C 43.523438 24.6875 43.832031 24.996094 43.832031 25.378906 C 43.832031 25.761719 43.523438 26.070312 43.144531 26.070312 " fill-opacity="1" fill-rule="nonzero"/><path fill="#0e6655" d="M 43.144531 30.429688 L 21.902344 30.429688 C 21.523438 30.429688 21.214844 30.121094 21.214844 29.742188 C 21.214844 29.359375 21.523438 29.050781 21.902344 29.050781 L 43.144531 29.050781 C 43.523438 29.050781 43.832031 29.359375 43.832031 29.742188 C 43.832031 30.121094 43.523438 30.429688 43.144531 30.429688 " fill-opacity="1" fill-rule="nonzero"/><path fill="#0e6655" d="M 43.144531 34.792969 L 21.902344 34.792969 C 21.523438 34.792969 21.214844 34.484375 21.214844 34.101562 C 21.214844 33.722656 21.523438 33.414062 21.902344 33.414062 L 43.144531 33.414062 C 43.523438 33.414062 43.832031 33.722656 43.832031 34.101562 C 43.832031 34.484375 43.523438 34.792969 43.144531 34.792969 " fill-opacity="1" fill-rule="nonzero"/><path fill="#0e6655" d="M 43.144531 39.15625 L 21.902344 39.15625 C 21.523438 39.15625 21.214844 38.847656 21.214844 38.464844 C 21.214844 38.082031 21.523438 37.773438 21.902344 37.773438 L 43.144531 37.773438 C 43.523438 37.773438 43.832031 38.082031 43.832031 38.464844 C 43.832031 38.847656 43.523438 39.15625 43.144531 39.15625 " fill-opacity="1" fill-rule="nonzero"/><path fill="#0e6655" d="M 28.257812 48.214844 L 22.164062 48.214844 C 21.800781 48.214844 21.507812 47.917969 21.507812 47.554688 C 21.507812 47.191406 21.800781 46.894531 22.164062 46.894531 L 28.257812 46.894531 C 28.621094 46.894531 28.914062 47.191406 28.914062 47.554688 C 28.914062 47.917969 28.621094 48.214844 28.257812 48.214844 " fill-opacity="1" fill-rule="nonzero"/><path fill="#0e6655" d="M 39.71875 42.128906 C 37.175781 41.855469 35.039062 44.003906 35.308594 46.566406 C 35.503906 48.429688 36.996094 49.933594 38.851562 50.128906 C 41.398438 50.402344 43.53125 48.253906 43.261719 45.691406 C 43.066406 43.824219 41.574219 42.324219 39.71875 42.128906 Z M 39.746094 51.195312 C 36.59375 51.480469 33.96875 48.835938 34.246094 45.664062 C 34.464844 43.234375 36.410156 41.277344 38.824219 41.0625 C 41.976562 40.777344 44.605469 43.421875 44.324219 46.59375 C 44.109375 49.023438 42.164062 50.980469 39.746094 51.195312 " fill-opacity="1" fill-rule="nonzero"/><path fill="#0e6655" d="M 41.859375 46.632812 C 41.640625 46.558594 41.507812 46.34375 41.507812 46.113281 C 41.5 44.894531 40.515625 43.902344 39.300781 43.894531 C 39.074219 43.890625 38.855469 43.761719 38.785156 43.539062 C 38.664062 43.171875 38.933594 42.828125 39.285156 42.828125 C 41.09375 42.828125 42.566406 44.308594 42.566406 46.128906 C 42.566406 46.480469 42.226562 46.753906 41.859375 46.632812 " fill-opacity="1" fill-rule="nonzero"/><path fill="#0e6655" d="M 39.285156 49.429688 C 37.480469 49.429688 36.011719 47.957031 36.003906 46.144531 C 36.003906 45.886719 36.179688 45.652344 36.433594 45.605469 C 36.769531 45.542969 37.0625 45.800781 37.0625 46.128906 C 37.0625 47.359375 38.054688 48.359375 39.277344 48.363281 C 39.546875 48.363281 39.78125 48.570312 39.8125 48.835938 C 39.847656 49.15625 39.597656 49.429688 39.285156 49.429688 " fill-opacity="1" fill-rule="nonzero"/></svg>