<svg xmlns="http://www.w3.org/2000/svg" xmlns:xlink="http://www.w3.org/1999/xlink" width="80" zoomAndPan="magnify" viewBox="0 0 60 60" height="80" preserveAspectRatio="xMidYMid meet" version="1.0"><defs><clipPath id="271fa83a5a"><path d="M 29 3.910156 L 31 3.910156 L 31 9 L 29 9 Z M 29 3.910156 " clip-rule="nonzero"/></clipPath><clipPath id="faa44d6a93"><path d="M 30 10 L 53 10 L 53 55.660156 L 30 55.660156 Z M 30 10 " clip-rule="nonzero"/></clipPath><clipPath id="877c64a1a4"><path d="M 7 10 L 30 10 L 30 55.660156 L 7 55.660156 Z M 7 10 " clip-rule="nonzero"/></clipPath></defs><g clip-path="url(#271fa83a5a)"><path fill="#0e6655" d="M 29.261719 4.546875 L 29.261719 7.789062 C 29.261719 8.171875 29.515625 8.425781 29.902344 8.425781 C 30.222656 8.425781 30.546875 8.171875 30.546875 7.789062 L 30.609375 4.546875 C 30.609375 4.164062 30.351562 3.910156 29.96875 3.910156 C 29.582031 3.910156 29.324219 4.230469 29.261719 4.546875 Z M 29.261719 4.546875 " fill-opacity="1" fill-rule="nonzero"/></g><path fill="#0e6655" d="M 33.953125 6.773438 L 31.574219 8.996094 C 31.316406 9.25 31.316406 9.632812 31.574219 9.886719 C 31.703125 10.015625 31.894531 10.078125 32.023438 10.078125 C 32.152344 10.078125 32.34375 10.015625 32.472656 9.886719 L 34.851562 7.664062 C 35.109375 7.40625 35.109375 7.027344 34.851562 6.773438 C 34.660156 6.582031 34.210938 6.582031 33.953125 6.773438 Z M 33.953125 6.773438 " fill-opacity="1" fill-rule="nonzero"/><path fill="#0e6655" d="M 24.953125 6.835938 C 24.695312 7.089844 24.695312 7.472656 24.953125 7.726562 L 27.332031 9.949219 C 27.460938 10.078125 27.589844 10.140625 27.78125 10.140625 C 27.976562 10.140625 28.101562 10.078125 28.230469 9.949219 C 28.488281 9.695312 28.488281 9.316406 28.230469 9.0625 L 25.855469 6.835938 C 25.597656 6.582031 25.148438 6.582031 24.953125 6.835938 Z M 24.953125 6.835938 " fill-opacity="1" fill-rule="nonzero"/><g clip-path="url(#faa44d6a93)"><path fill="#0e6655" d="M 52.140625 52.164062 L 48.09375 53.117188 L 44.558594 38.8125 C 48.15625 37.226562 49.378906 30.039062 47.320312 21.902344 C 46.679688 19.421875 44.878906 13.382812 43.785156 11.09375 C 43.65625 10.839844 43.335938 10.714844 43.078125 10.777344 L 31.511719 13.574219 C 31.1875 13.636719 30.996094 13.894531 30.996094 14.210938 C 31.058594 16.753906 32.28125 22.921875 32.925781 25.398438 C 34.917969 33.410156 39.222656 39.132812 43.078125 39.132812 C 43.144531 39.132812 43.207031 39.132812 43.335938 39.132812 L 46.871094 53.4375 L 42.820312 54.390625 C 42.5 54.453125 42.242188 54.835938 42.371094 55.152344 C 42.4375 55.46875 42.695312 55.660156 43.015625 55.660156 C 43.078125 55.660156 43.144531 55.660156 43.144531 55.660156 L 52.464844 53.4375 C 52.785156 53.371094 53.042969 52.992188 52.914062 52.671875 C 52.847656 52.292969 52.464844 52.101562 52.140625 52.164062 Z M 42.820312 12.050781 C 43.273438 13.066406 43.785156 14.527344 44.300781 16.054688 L 32.859375 18.722656 C 32.601562 17.136719 32.34375 15.671875 32.28125 14.59375 Z M 34.144531 25.019531 C 33.886719 23.875 33.4375 21.964844 33.050781 19.996094 L 44.621094 17.261719 C 45.199219 19.167969 45.714844 21.011719 45.972656 22.09375 C 47.898438 29.785156 46.742188 36.90625 43.527344 37.667969 C 40.378906 38.558594 36.074219 32.710938 34.144531 25.019531 Z M 34.144531 25.019531 " fill-opacity="1" fill-rule="nonzero"/></g><path fill="#0e6655" d="M 44.363281 33.726562 C 45.070312 32.074219 45.328125 27.117188 43.851562 21.140625 C 43.785156 20.824219 43.402344 20.566406 43.078125 20.695312 C 42.757812 20.757812 42.5 21.140625 42.628906 21.457031 C 44.042969 27.050781 43.785156 31.820312 43.207031 33.21875 C 43.078125 33.539062 43.207031 33.917969 43.527344 34.046875 C 43.59375 34.109375 43.722656 34.109375 43.785156 34.109375 C 44.042969 34.171875 44.234375 33.980469 44.363281 33.726562 Z M 44.363281 33.726562 " fill-opacity="1" fill-rule="nonzero"/><g clip-path="url(#877c64a1a4)"><path fill="#0e6655" d="M 29.066406 14.148438 C 29.066406 13.828125 28.875 13.574219 28.554688 13.511719 L 16.984375 10.714844 C 16.664062 10.648438 16.40625 10.777344 16.277344 11.03125 C 15.183594 13.320312 13.386719 19.359375 12.742188 21.839844 C 11.714844 25.84375 11.519531 29.851562 12.097656 33.027344 C 12.613281 36.015625 13.835938 38.050781 15.570312 38.8125 L 12.035156 53.183594 L 7.921875 52.164062 C 7.601562 52.101562 7.214844 52.292969 7.148438 52.609375 C 7.085938 52.925781 7.277344 53.308594 7.601562 53.371094 L 16.917969 55.597656 C 16.984375 55.597656 17.046875 55.597656 17.046875 55.597656 C 17.371094 55.597656 17.625 55.40625 17.691406 55.089844 C 17.753906 54.769531 17.5625 54.390625 17.242188 54.328125 L 13.257812 53.4375 L 16.792969 39.066406 C 16.855469 39.066406 16.984375 39.066406 17.046875 39.066406 C 18.847656 39.066406 20.777344 37.859375 22.511719 35.507812 C 24.503906 32.964844 26.109375 29.339844 27.140625 25.273438 C 27.78125 22.855469 29.003906 16.691406 29.066406 14.148438 Z M 17.242188 12.050781 L 27.78125 14.59375 C 27.71875 15.671875 27.460938 17.199219 27.203125 18.722656 L 15.761719 16.054688 C 16.277344 14.527344 16.792969 13.066406 17.242188 12.050781 Z M 21.484375 34.808594 C 19.746094 37.035156 17.882812 38.113281 16.40625 37.796875 C 14.925781 37.414062 13.835938 35.636719 13.320312 32.839844 C 12.804688 29.851562 13 26.035156 13.964844 22.15625 C 14.21875 21.011719 14.734375 19.167969 15.3125 17.324219 L 26.882812 20.058594 C 26.496094 22.03125 26.109375 23.9375 25.789062 25.082031 C 24.953125 28.894531 23.410156 32.394531 21.484375 34.808594 Z M 21.484375 34.808594 " fill-opacity="1" fill-rule="nonzero"/></g><path fill="#0e6655" d="M 16.984375 20.695312 C 16.664062 20.632812 16.277344 20.824219 16.210938 21.140625 C 14.734375 27.117188 15.054688 32.074219 15.699219 33.726562 C 15.828125 33.980469 16.019531 34.109375 16.277344 34.109375 C 16.339844 34.109375 16.46875 34.109375 16.535156 34.046875 C 16.855469 33.917969 17.046875 33.539062 16.855469 33.21875 C 16.277344 31.757812 16.019531 27.050781 17.433594 21.457031 C 17.5625 21.140625 17.371094 20.824219 16.984375 20.695312 Z M 16.984375 20.695312 " fill-opacity="1" fill-rule="nonzero"/><path fill="#0e6655" d="M 33.308594 37.859375 C 32.023438 37.351562 30.675781 37.734375 29.644531 38.8125 C 28.683594 37.734375 27.332031 37.351562 25.980469 37.859375 C 24.441406 38.433594 23.15625 40.277344 23.667969 42.691406 C 24.503906 46.632812 29.132812 48.667969 29.324219 48.730469 C 29.390625 48.796875 29.515625 48.796875 29.582031 48.796875 C 29.644531 48.796875 29.773438 48.796875 29.839844 48.730469 C 30.03125 48.667969 34.660156 46.632812 35.496094 42.691406 C 36.136719 40.277344 34.851562 38.433594 33.308594 37.859375 Z M 34.335938 42.375 C 33.695312 45.171875 30.609375 46.953125 29.644531 47.398438 C 28.746094 46.953125 25.597656 45.171875 24.953125 42.375 C 24.570312 40.59375 25.46875 39.386719 26.496094 39.003906 C 26.753906 38.941406 26.945312 38.878906 27.203125 38.878906 C 27.910156 38.878906 28.617188 39.324219 29.132812 40.148438 C 29.390625 40.53125 30.03125 40.53125 30.222656 40.148438 C 30.867188 39.066406 31.832031 38.625 32.859375 39.003906 C 33.824219 39.386719 34.722656 40.59375 34.335938 42.375 Z M 34.335938 42.375 " fill-opacity="1" fill-rule="nonzero"/></svg>