<svg xmlns="http://www.w3.org/2000/svg" xmlns:xlink="http://www.w3.org/1999/xlink" width="80" zoomAndPan="magnify" viewBox="0 0 60 60" height="80" preserveAspectRatio="xMidYMid meet" version="1.0"><defs><clipPath id="a9ac5075d1"><path d="M 26 12 L 56.578125 12 L 56.578125 50.308594 L 26 50.308594 Z M 26 12 " clip-rule="nonzero"/></clipPath><clipPath id="21c9b885fa"><path d="M 4.078125 15 L 29 15 L 29 49 L 4.078125 49 Z M 4.078125 15 " clip-rule="nonzero"/></clipPath><clipPath id="95ad0d2516"><path d="M 11 10.558594 L 15 10.558594 L 15 17 L 11 17 Z M 11 10.558594 " clip-rule="nonzero"/></clipPath><clipPath id="44138432f7"><path d="M 4.078125 27 L 7 27 L 7 30 L 4.078125 30 Z M 4.078125 27 " clip-rule="nonzero"/></clipPath></defs><g clip-path="url(#a9ac5075d1)"><path fill="#0e6655" d="M 51.441406 44.214844 C 51.367188 44.246094 51.335938 44.257812 51.3125 44.277344 C 49.199219 46.242188 46.628906 47.222656 43.871094 47.757812 C 42.652344 47.992188 41.417969 48.078125 40.191406 48.238281 C 40.0625 48.261719 39.925781 48.28125 39.746094 48.304688 C 39.832031 48.601562 39.914062 48.859375 39.988281 49.125 C 40.105469 49.519531 39.988281 49.796875 39.578125 50.085938 C 39.25 50.308594 38.921875 50.300781 38.59375 50.03125 C 38.285156 49.777344 38.222656 49.507812 38.382812 49.105469 C 38.464844 48.890625 38.507812 48.65625 38.59375 48.386719 C 37.273438 48.429688 36.046875 48.28125 34.882812 47.757812 C 33.707031 47.222656 32.789062 46.402344 32.195312 45.226562 C 31.964844 45.421875 31.773438 45.601562 31.5625 45.761719 C 31.179688 46.050781 30.78125 46.082031 30.335938 45.847656 C 29.375 45.34375 28.675781 44.566406 28.09375 43.667969 C 27.363281 42.539062 26.835938 41.320312 26.496094 40.007812 C 26.378906 39.570312 26.453125 39.214844 26.78125 38.9375 C 27.4375 38.382812 28.09375 37.828125 28.78125 37.304688 C 30.535156 35.980469 32.34375 34.699219 34.078125 33.34375 C 35.316406 32.371094 36.40625 31.230469 37.261719 29.894531 C 38.03125 28.710938 38.507812 27.429688 38.359375 25.976562 C 38.234375 24.683594 37.917969 23.4375 37.417969 22.230469 C 37.238281 21.792969 37.101562 21.355469 37.472656 20.863281 C 36.859375 20.949219 36.308594 20.992188 35.78125 21.109375 C 34.480469 21.398438 33.210938 21.238281 31.933594 20.992188 C 31.117188 20.84375 30.3125 20.691406 29.5 20.542969 C 29.300781 20.5 29.226562 20.5625 29.121094 20.746094 C 28.832031 21.214844 28.484375 21.664062 28.167969 22.113281 C 28.136719 22.101562 28.105469 22.089844 28.074219 22.070312 C 28.136719 21.886719 28.210938 21.71875 28.273438 21.535156 C 27.785156 21.578125 27.566406 21.867188 27.605469 22.433594 C 27.894531 22.433594 28.179688 22.433594 28.484375 22.433594 C 28.539062 22.625 28.433594 22.742188 28.230469 22.773438 C 28.0625 22.804688 27.882812 22.804688 27.648438 22.828125 C 28.050781 23.425781 28.867188 23.203125 29.226562 23.765625 C 29.121094 23.808594 29.046875 23.84375 28.949219 23.875 C 29.046875 23.980469 29.128906 24.085938 29.246094 24.226562 C 29.097656 24.28125 28.980469 24.363281 28.867188 24.363281 C 28.316406 24.34375 27.777344 24.289062 27.238281 24.246094 C 27.171875 24.246094 27.109375 24.214844 27.046875 24.195312 C 26.527344 24.011719 26.496094 23.960938 26.59375 23.425781 C 26.632812 23.191406 26.707031 22.964844 26.71875 22.730469 C 26.730469 22.402344 26.878906 22.324219 27.171875 22.390625 C 27.214844 22.402344 27.257812 22.390625 27.269531 22.390625 C 27.269531 21.996094 27.269531 21.621094 27.269531 21.238281 C 27.121094 21.3125 26.929688 21.398438 26.71875 21.503906 C 26.730469 21.441406 26.730469 21.40625 26.738281 21.398438 C 27.839844 20.445312 29.023438 19.710938 30.546875 19.773438 C 31.433594 19.816406 32.332031 19.796875 33.222656 19.839844 C 34.640625 19.914062 35.992188 19.679688 37.304688 19.144531 C 38.023438 18.855469 38.773438 18.632812 39.511719 18.40625 C 39.703125 18.355469 39.746094 18.269531 39.714844 18.097656 C 39.652344 17.628906 39.609375 17.160156 39.523438 16.6875 C 39.511719 16.601562 39.367188 16.496094 39.269531 16.464844 C 39.070312 16.410156 38.847656 16.421875 38.636719 16.398438 C 38.371094 16.378906 38.339844 16.238281 38.402344 16.003906 C 38.476562 15.675781 38.519531 15.34375 38.550781 15.011719 C 38.5625 14.9375 38.433594 14.851562 38.382812 14.789062 C 38.390625 14.746094 38.390625 14.714844 38.402344 14.703125 C 38.742188 14.542969 38.910156 14.253906 39.046875 13.914062 C 39.144531 13.667969 39.34375 13.464844 39.492188 13.238281 C 39.058594 12.855469 38.984375 12.492188 39.324219 12.214844 C 39.597656 11.992188 39.925781 12.023438 40.242188 12.109375 C 40.285156 12.117188 40.339844 12.128906 40.359375 12.160156 C 40.792969 12.609375 41.394531 12.738281 41.933594 12.984375 C 42.664062 13.324219 42.886719 13.964844 42.601562 14.722656 C 42.496094 15.011719 42.367188 15.277344 42.273438 15.566406 C 42.15625 15.941406 42.242188 16.058594 42.589844 16.21875 C 42.8125 16.316406 43.046875 16.433594 43.203125 16.59375 C 43.5 16.902344 43.445312 17.234375 43.097656 17.5 C 43.046875 17.542969 43.023438 17.605469 42.972656 17.648438 C 42.800781 17.777344 42.632812 17.90625 42.453125 18.011719 C 42.335938 18.085938 42.210938 18.140625 42.082031 18.203125 C 42.082031 18.238281 42.082031 18.269531 42.09375 18.300781 C 42.210938 18.300781 42.335938 18.3125 42.453125 18.300781 C 42.960938 18.246094 43.371094 18.398438 43.773438 18.738281 C 44.597656 19.441406 45.464844 20.105469 46.292969 20.800781 C 47.199219 21.566406 48.238281 22.027344 49.390625 22.292969 C 50.425781 22.527344 51.441406 22.882812 52.457031 23.234375 C 53.257812 23.511719 53.925781 24.003906 54.371094 24.78125 C 54.550781 25.101562 54.8125 25.378906 55.046875 25.667969 C 55.023438 25.6875 54.992188 25.710938 54.972656 25.730469 C 54.824219 25.59375 54.6875 25.453125 54.464844 25.242188 C 54.558594 25.753906 54.445312 26.117188 54.15625 26.425781 C 54.117188 26.46875 54.011719 26.457031 53.863281 26.480469 C 54.085938 25.945312 54.011719 25.539062 53.511719 25.25 C 53.523438 25.476562 53.535156 25.679688 53.542969 25.882812 C 53.511719 25.890625 53.472656 25.890625 53.4375 25.902344 C 53.269531 25.316406 53.101562 24.726562 52.910156 24.152344 C 52.878906 24.066406 52.71875 23.992188 52.605469 23.96875 C 51.101562 23.714844 49.589844 23.480469 48.089844 23.222656 C 47.273438 23.082031 46.585938 22.65625 45.910156 22.21875 C 45.457031 21.929688 45.023438 21.609375 44.558594 21.34375 C 43.636719 20.820312 42.949219 21.042969 42.527344 22.003906 C 42.070312 23.03125 41.808594 24.109375 41.785156 25.242188 C 41.785156 25.410156 41.820312 25.613281 41.914062 25.753906 C 43.003906 27.367188 44.050781 29 45.210938 30.558594 C 46.628906 32.46875 48.523438 33.804688 50.691406 34.710938 C 52.5625 35.5 54.464844 36.195312 56.355469 36.933594 C 56.421875 36.953125 56.484375 36.972656 56.539062 36.996094 C 56.472656 38.90625 54.6875 41.425781 52.0625 43.296875 C 52.316406 43.980469 52.792969 44.46875 53.375 44.898438 C 53.988281 45.34375 54.601562 45.804688 55.152344 46.316406 C 55.417969 46.5625 55.574219 46.9375 55.722656 47.289062 C 55.882812 47.671875 55.777344 47.769531 55.351562 47.703125 C 54.507812 47.578125 53.882812 47.105469 53.34375 46.464844 C 52.710938 45.75 52.074219 44.980469 51.441406 44.214844 Z M 51.441406 44.214844 " fill-opacity="1" fill-rule="nonzero"/></g><g clip-path="url(#21c9b885fa)"><path fill="#0e6655" d="M 26.539062 22.445312 C 26.339844 23.125 26.148438 23.765625 25.945312 24.441406 C 25.015625 24.109375 24.105469 23.777344 23.199219 23.457031 C 22.945312 23.371094 22.699219 23.253906 22.4375 23.191406 C 20.289062 22.601562 18.621094 21.238281 17.023438 19.761719 C 16.9375 19.679688 16.84375 19.601562 16.683594 19.453125 C 16.378906 20.339844 16.027344 21.171875 15.808594 22.027344 C 15.628906 22.742188 15.519531 23.488281 15.511719 24.226562 C 15.5 24.78125 15.648438 25.367188 15.816406 25.902344 C 16.242188 27.183594 16.769531 28.421875 17.148438 29.714844 C 17.359375 30.417969 17.742188 30.996094 18.132812 31.570312 C 19.011719 32.863281 19.886719 34.15625 20.828125 35.394531 C 21.433594 36.195312 22.195312 36.890625 22.796875 37.691406 C 24.339844 39.738281 25.621094 41.960938 26.835938 44.214844 C 27.386719 45.226562 27.945312 46.242188 28.496094 47.257812 C 28.558594 47.375 28.601562 47.503906 28.652344 47.628906 C 28.726562 47.832031 28.664062 47.949219 28.453125 47.992188 C 27.671875 48.152344 26.953125 47.855469 26.496094 47.203125 C 26.117188 46.660156 25.714844 46.113281 25.324219 45.558594 C 25.1875 45.644531 25.058594 45.730469 24.964844 45.792969 C 22.5 42.976562 19.953125 40.242188 17.753906 37.210938 C 16.664062 35.714844 15.414062 34.335938 14.210938 32.929688 C 13.894531 32.554688 13.5 32.253906 13.078125 31.859375 C 12.921875 32.179688 12.78125 32.40625 12.699219 32.652344 C 12.136719 34.453125 11.894531 36.269531 12.253906 38.171875 C 12.761719 40.882812 13.183594 43.605469 13.597656 46.328125 C 13.660156 46.742188 13.355469 47.097656 12.960938 47.34375 C 12.984375 47.417969 13.003906 47.492188 13.035156 47.554688 C 13.140625 47.886719 13.066406 48.121094 12.761719 48.25 C 12.488281 48.355469 12.191406 48.410156 11.894531 48.464844 C 11.726562 48.496094 11.535156 48.503906 11.367188 48.496094 C 11.195312 48.484375 10.933594 48.464844 10.902344 48.367188 C 10.847656 48.207031 10.867188 47.960938 10.964844 47.800781 C 11.144531 47.46875 11.386719 47.171875 11.609375 46.851562 C 11.671875 46.765625 11.726562 46.667969 11.851562 46.488281 C 11.597656 46.550781 11.429688 46.59375 11.226562 46.648438 C 11.195312 46.542969 11.144531 46.433594 11.113281 46.328125 C 10.625 44.554688 10.140625 42.773438 9.640625 41 C 9.410156 40.175781 9.15625 39.367188 8.921875 38.542969 C 8.554688 37.242188 8.585938 35.917969 8.742188 34.59375 C 8.988281 32.492188 9.25 30.398438 9.515625 28.292969 C 9.609375 27.566406 9.738281 26.851562 9.84375 26.125 C 9.992188 25.164062 9.875 24.214844 9.75 23.265625 C 9.695312 22.839844 9.640625 22.421875 9.527344 21.984375 C 9.453125 22.175781 9.367188 22.359375 9.304688 22.550781 C 8.679688 24.238281 8.015625 25.914062 6.902344 27.34375 C 6.820312 27.449219 6.746094 27.558594 6.648438 27.664062 C 6.214844 28.167969 6.363281 28.207031 5.675781 27.855469 C 5.347656 27.6875 5.042969 27.460938 4.714844 27.246094 C 5.203125 26.371094 5.65625 25.527344 6.132812 24.707031 C 7.347656 22.605469 8.078125 20.328125 8.574219 17.960938 C 8.871094 16.570312 8.722656 16.871094 9.960938 16.476562 C 10.550781 16.28125 11.164062 16.175781 11.820312 16.015625 C 11.683594 16.519531 11.578125 16.957031 11.449219 17.394531 C 11.25 18.085938 11.324219 18.769531 11.429688 19.464844 C 11.554688 20.320312 11.660156 21.171875 11.820312 22.027344 C 12.855469 20.09375 13.609375 18.078125 14.074219 15.886719 C 14.960938 16.1875 15.808594 16.496094 16.675781 16.761719 C 17.359375 16.976562 17.921875 17.339844 18.429688 17.863281 C 19.019531 18.480469 19.6875 19.039062 20.34375 19.601562 C 21.230469 20.363281 22.226562 20.917969 23.335938 21.289062 C 24.402344 21.621094 25.449219 22.039062 26.539062 22.445312 Z M 26.539062 22.445312 " fill-opacity="1" fill-rule="nonzero"/></g><g clip-path="url(#95ad0d2516)"><path fill="#0e6655" d="M 12.792969 16.433594 C 12.601562 16.15625 12.402344 15.910156 12.253906 15.632812 C 12.179688 15.492188 12.210938 15.289062 12.203125 15.117188 C 12.179688 14.722656 12.148438 14.328125 12.128906 13.878906 C 11.789062 14.03125 11.683594 13.890625 11.640625 13.65625 C 11.578125 13.324219 11.460938 12.996094 11.863281 12.78125 C 11.90625 12.757812 11.894531 12.632812 11.894531 12.554688 C 11.925781 12.269531 11.9375 11.96875 11.96875 11.679688 C 12 11.339844 12.179688 11.125 12.519531 11.050781 C 12.550781 11.039062 12.59375 11.0625 12.613281 11.039062 C 13.121094 10.558594 13.722656 10.773438 14.304688 10.785156 C 14.421875 10.785156 14.582031 10.878906 14.644531 10.976562 C 14.875 11.296875 15.003906 11.628906 14.917969 12.074219 C 14.8125 12.589844 14.898438 13.132812 14.800781 13.644531 C 14.71875 14.105469 14.539062 14.542969 14.347656 14.96875 C 14.050781 15.652344 13.429688 16.027344 12.792969 16.433594 Z M 12.792969 16.433594 " fill-opacity="1" fill-rule="nonzero"/></g><g clip-path="url(#44138432f7)"><path fill="#0e6655" d="M 4.777344 29.683594 C 4.566406 29.320312 4.398438 29.042969 4.25 28.773438 C 4.121094 28.550781 4.230469 27.910156 4.417969 27.6875 C 4.503906 27.589844 4.578125 27.492188 4.664062 27.398438 C 4.925781 27.589844 5.160156 27.769531 5.390625 27.929688 C 5.625 28.082031 5.878906 28.199219 6.183594 28.367188 C 6.089844 28.765625 5.984375 29.191406 5.867188 29.617188 C 5.644531 29.542969 5.644531 29.542969 5.582031 28.945312 C 5.308594 29.191406 5.03125 29.449219 4.777344 29.683594 Z M 4.777344 29.683594 " fill-opacity="1" fill-rule="nonzero"/></g><path fill="#0e6655" d="M 11.894531 17.585938 C 11.875 17.160156 11.851562 16.816406 11.832031 16.496094 C 11.894531 16.476562 11.925781 16.453125 11.9375 16.453125 C 12.328125 16.710938 12.699219 16.699219 13.101562 16.421875 C 13.300781 16.28125 13.460938 16.410156 13.449219 16.679688 C 13.449219 16.761719 13.429688 16.859375 13.40625 16.945312 C 13.300781 17.597656 13.300781 17.585938 12.707031 17.328125 C 12.613281 17.285156 12.476562 17.320312 12.371094 17.351562 C 12.242188 17.382812 12.117188 17.46875 11.894531 17.585938 Z M 11.894531 17.585938 " fill-opacity="1" fill-rule="nonzero"/></svg>