<svg xmlns="http://www.w3.org/2000/svg" xmlns:xlink="http://www.w3.org/1999/xlink" width="80" zoomAndPan="magnify" viewBox="0 0 60 60" height="80" preserveAspectRatio="xMidYMid meet" version="1.0"><defs><clipPath id="4341f151ce"><path d="M 6.007812 48.222656 L 56.242188 48.222656 L 56.242188 53.925781 L 6.007812 53.925781 Z M 6.007812 48.222656 " clip-rule="nonzero"/></clipPath><clipPath id="ba3e957974"><path d="M 30 8.191406 L 32 8.191406 L 32 18 L 30 18 Z M 30 8.191406 " clip-rule="nonzero"/></clipPath></defs><path fill="#0e6655" d="M 11.261719 45.472656 C 11.738281 34.863281 20.472656 26.410156 31.1875 26.410156 C 41.894531 26.410156 50.636719 34.863281 51.113281 45.472656 Z M 29.808594 23.894531 C 29.808594 23.175781 30.40625 22.578125 31.125 22.578125 C 31.84375 22.578125 32.445312 23.175781 32.445312 23.894531 C 32.445312 24.195312 32.320312 24.433594 32.203125 24.675781 L 30.050781 24.675781 C 29.871094 24.433594 29.808594 24.136719 29.808594 23.894531 Z M 34.117188 24.792969 C 34.238281 24.492188 34.300781 24.195312 34.300781 23.835938 C 34.300781 22.09375 32.863281 20.71875 31.1875 20.71875 C 29.453125 20.71875 28.074219 22.15625 28.074219 23.835938 C 28.074219 24.195312 28.132812 24.492188 28.253906 24.792969 C 17.660156 26.230469 9.523438 35.34375 9.523438 46.3125 L 9.523438 47.210938 L 52.96875 47.210938 L 52.96875 46.3125 C 52.847656 35.402344 44.710938 26.292969 34.117188 24.792969 " fill-opacity="1" fill-rule="nonzero"/><path fill="#0e6655" d="M 14.128906 43.558594 L 13.949219 43.558594 C 13.472656 43.4375 13.230469 43.015625 13.351562 42.539062 C 14.730469 36.722656 19.160156 31.742188 25.324219 29.171875 C 25.738281 28.988281 26.21875 29.171875 26.398438 29.648438 C 26.574219 30.070312 26.398438 30.546875 25.921875 30.726562 C 20.296875 33.066406 16.167969 37.621094 14.910156 42.894531 C 14.847656 43.257812 14.488281 43.558594 14.128906 43.558594 " fill-opacity="1" fill-rule="nonzero"/><g clip-path="url(#4341f151ce)"><path fill="#0e6655" d="M 10.003906 52.1875 L 52.25 52.1875 L 53.925781 49.972656 L 8.324219 49.972656 Z M 52.308594 53.925781 L 9.941406 53.925781 C 9.464844 53.925781 8.980469 53.691406 8.683594 53.328125 L 6.230469 50.152344 C 5.992188 49.789062 5.929688 49.371094 6.109375 48.949219 C 6.292969 48.59375 6.710938 48.351562 7.128906 48.351562 L 55.125 48.351562 C 55.542969 48.351562 55.960938 48.59375 56.136719 48.953125 C 56.320312 49.3125 56.261719 49.789062 56.019531 50.152344 L 53.566406 53.328125 C 53.269531 53.691406 52.785156 53.925781 52.308594 53.925781 " fill-opacity="1" fill-rule="nonzero"/></g><g clip-path="url(#ba3e957974)"><path fill="#0e6655" d="M 30.945312 17.660156 C 30.464844 17.660156 30.109375 17.300781 30.109375 16.820312 L 30.109375 9.027344 C 30.109375 8.546875 30.464844 8.191406 30.945312 8.191406 C 31.421875 8.191406 31.785156 8.546875 31.785156 8.96875 L 31.785156 16.757812 C 31.785156 17.242188 31.367188 17.660156 30.945312 17.660156 " fill-opacity="1" fill-rule="nonzero"/></g><path fill="#0e6655" d="M 20.894531 20.117188 C 20.59375 20.117188 20.296875 19.9375 20.175781 19.699219 L 16.285156 12.925781 C 16.046875 12.507812 16.167969 12.023438 16.585938 11.785156 C 17.003906 11.546875 17.480469 11.664062 17.722656 12.085938 L 21.613281 18.859375 C 21.851562 19.277344 21.730469 19.757812 21.3125 20 C 21.191406 20.054688 21.070312 20.117188 20.894531 20.117188 " fill-opacity="1" fill-rule="nonzero"/><path fill="#0e6655" d="M 40.9375 20.117188 C 40.820312 20.117188 40.644531 20.054688 40.523438 20 C 40.101562 19.757812 39.984375 19.277344 40.222656 18.859375 L 44.113281 12.085938 C 44.351562 11.664062 44.832031 11.546875 45.25 11.785156 C 45.664062 12.023438 45.789062 12.507812 45.546875 12.925781 L 41.65625 19.699219 C 41.539062 19.9375 41.238281 20.117188 40.9375 20.117188 " fill-opacity="1" fill-rule="nonzero"/></svg>