<svg xmlns="http://www.w3.org/2000/svg" xmlns:xlink="http://www.w3.org/1999/xlink" width="80" zoomAndPan="magnify" viewBox="0 0 60 60" height="80" preserveAspectRatio="xMidYMid meet" version="1.0"><defs><clipPath id="e4d109b7ad"><path d="M 19 4.636719 L 40 4.636719 L 40 29 L 19 29 Z M 19 4.636719 " clip-rule="nonzero"/></clipPath><clipPath id="94df9efa49"><path d="M 10 32 L 25 32 L 25 52.636719 L 10 52.636719 Z M 10 32 " clip-rule="nonzero"/></clipPath><clipPath id="433f421b11"><path d="M 34 32 L 50 32 L 50 52.636719 L 34 52.636719 Z M 34 32 " clip-rule="nonzero"/></clipPath><clipPath id="2f5ef8aaf3"><path d="M 49 37 L 53.25 37 L 53.25 43 L 49 43 Z M 49 37 " clip-rule="nonzero"/></clipPath></defs><g clip-path="url(#e4d109b7ad)"><path fill="#0e6655" d="M 19.675781 18.347656 C 19.675781 20.105469 20.140625 21.757812 20.957031 23.1875 C 20.964844 23.203125 20.972656 23.214844 20.980469 23.226562 C 22.355469 25.617188 24.710938 27.386719 27.5 27.992188 C 27.507812 27.992188 27.519531 27.996094 27.53125 27.996094 C 28.207031 28.140625 28.910156 28.21875 29.628906 28.21875 C 33.328125 28.21875 36.558594 26.207031 38.273438 23.230469 C 38.28125 23.214844 38.292969 23.203125 38.300781 23.1875 C 39.117188 21.757812 39.582031 20.105469 39.582031 18.347656 C 39.582031 16.589844 39.117188 14.9375 38.300781 13.507812 C 38.292969 13.492188 38.285156 13.480469 38.273438 13.464844 C 36.613281 10.582031 33.527344 8.605469 29.976562 8.484375 L 29.96875 5.019531 C 29.96875 4.808594 29.796875 4.636719 29.585938 4.636719 C 29.585938 4.636719 29.585938 4.636719 29.582031 4.636719 C 29.371094 4.636719 29.199219 4.808594 29.199219 5.019531 L 29.207031 8.484375 C 28.632812 8.507812 28.074219 8.582031 27.527344 8.699219 C 27.523438 8.699219 27.515625 8.699219 27.507812 8.703125 C 24.714844 9.304688 22.359375 11.074219 20.980469 13.46875 C 20.972656 13.480469 20.964844 13.492188 20.957031 13.507812 C 20.140625 14.9375 19.675781 16.589844 19.675781 18.347656 Z M 38.804688 17.964844 L 34.757812 17.964844 C 34.730469 16.648438 34.539062 15.335938 34.179688 14.027344 L 37.714844 14.027344 C 38.359375 15.207031 38.746094 16.546875 38.804688 17.964844 Z M 37.714844 22.667969 L 34.148438 22.667969 C 34.515625 21.351562 34.71875 20.039062 34.757812 18.726562 L 38.804688 18.726562 C 38.746094 20.148438 38.359375 21.488281 37.714844 22.667969 Z M 30.011719 27.449219 L 30.003906 23.429688 L 33.097656 23.429688 C 32.65625 24.722656 32.058594 26.015625 31.289062 27.308594 C 30.871094 27.382812 30.445312 27.429688 30.011719 27.449219 Z M 27.855469 27.285156 C 27.089844 26 26.496094 24.714844 26.054688 23.429688 L 29.234375 23.429688 L 29.242188 27.449219 C 28.769531 27.429688 28.308594 27.375 27.855469 27.285156 Z M 20.453125 18.726562 L 24.398438 18.726562 C 24.433594 20.039062 24.636719 21.351562 25.003906 22.667969 L 21.542969 22.667969 C 20.898438 21.488281 20.511719 20.148438 20.453125 18.726562 Z M 25.183594 18.726562 L 29.226562 18.726562 L 29.234375 22.667969 L 25.8125 22.667969 C 25.429688 21.351562 25.222656 20.039062 25.183594 18.726562 Z M 30.003906 22.667969 L 29.996094 18.726562 L 33.972656 18.726562 C 33.933594 20.039062 33.726562 21.351562 33.34375 22.667969 Z M 33.976562 17.964844 L 29.992188 17.964844 L 29.984375 14.027344 L 33.371094 14.027344 C 33.746094 15.335938 33.949219 16.648438 33.976562 17.964844 Z M 29.226562 17.964844 L 25.179688 17.964844 C 25.207031 16.648438 25.40625 15.335938 25.785156 14.027344 L 29.21875 14.027344 Z M 24.394531 17.964844 L 20.453125 17.964844 C 20.511719 16.546875 20.898438 15.207031 21.542969 14.027344 L 24.976562 14.027344 C 24.613281 15.335938 24.421875 16.648438 24.394531 17.964844 Z M 22.007812 23.429688 L 25.234375 23.429688 C 25.625 24.625 26.152344 25.824219 26.816406 27.019531 C 24.835938 26.386719 23.148438 25.105469 22.007812 23.429688 Z M 32.316406 27.058594 C 32.988281 25.847656 33.523438 24.636719 33.917969 23.429688 L 37.25 23.429688 C 36.085938 25.140625 34.351562 26.441406 32.316406 27.058594 Z M 37.25 13.265625 L 33.949219 13.265625 C 33.554688 12.050781 33.015625 10.84375 32.328125 9.640625 C 34.359375 10.257812 36.085938 11.558594 37.25 13.265625 Z M 31.289062 9.386719 C 32.078125 10.671875 32.683594 11.964844 33.128906 13.265625 L 29.984375 13.265625 L 29.976562 9.246094 C 30.421875 9.261719 30.863281 9.3125 31.289062 9.386719 Z M 29.214844 13.265625 L 26.027344 13.265625 C 26.464844 11.972656 27.070312 10.6875 27.851562 9.410156 C 28.292969 9.324219 28.746094 9.269531 29.207031 9.246094 Z M 26.800781 9.679688 C 26.128906 10.871094 25.597656 12.066406 25.207031 13.265625 L 22.007812 13.265625 C 23.144531 11.59375 24.828125 10.3125 26.800781 9.679688 Z M 26.800781 9.679688 " fill-opacity="1" fill-rule="nonzero"/></g><g clip-path="url(#94df9efa49)"><path fill="#0e6655" d="M 22.21875 32.703125 L 12.890625 32.703125 C 11.371094 32.703125 10.136719 33.929688 10.136719 35.4375 L 10.136719 49.902344 C 10.136719 51.410156 11.371094 52.636719 12.890625 52.636719 L 22.21875 52.636719 C 23.738281 52.636719 24.976562 51.410156 24.976562 49.902344 L 24.976562 35.4375 C 24.976562 33.929688 23.738281 32.703125 22.21875 32.703125 Z M 24.207031 49.902344 C 24.207031 50.992188 23.316406 51.875 22.21875 51.875 L 12.890625 51.875 C 11.796875 51.875 10.902344 50.992188 10.902344 49.902344 L 10.902344 35.4375 C 10.902344 34.351562 11.796875 33.464844 12.890625 33.464844 L 22.21875 33.464844 C 23.316406 33.464844 24.207031 34.351562 24.207031 35.4375 Z M 24.207031 49.902344 " fill-opacity="1" fill-rule="nonzero"/></g><path fill="#0e6655" d="M 14.570312 37.886719 L 20.539062 37.886719 C 21.382812 37.886719 22.070312 37.207031 22.070312 36.371094 C 22.070312 35.535156 21.382812 34.855469 20.539062 34.855469 L 14.570312 34.855469 C 13.726562 34.855469 13.042969 35.535156 13.042969 36.371094 C 13.042969 37.207031 13.726562 37.886719 14.570312 37.886719 Z M 14.570312 35.617188 L 20.539062 35.617188 C 20.960938 35.617188 21.300781 35.953125 21.300781 36.371094 C 21.300781 36.785156 20.960938 37.125 20.539062 37.125 L 14.570312 37.125 C 14.152344 37.125 13.808594 36.785156 13.808594 36.371094 C 13.808594 35.953125 14.152344 35.617188 14.570312 35.617188 Z M 14.570312 35.617188 " fill-opacity="1" fill-rule="nonzero"/><path fill="#0e6655" d="M 17.554688 41.382812 C 15.425781 41.382812 13.695312 43.097656 13.695312 45.210938 C 13.695312 47.320312 15.425781 49.035156 17.554688 49.035156 C 19.683594 49.035156 21.414062 47.320312 21.414062 45.210938 C 21.414062 43.097656 19.683594 41.382812 17.554688 41.382812 Z M 17.554688 48.273438 C 15.851562 48.273438 14.464844 46.898438 14.464844 45.210938 C 14.464844 43.519531 15.851562 42.144531 17.554688 42.144531 C 19.261719 42.144531 20.644531 43.519531 20.644531 45.210938 C 20.644531 46.898438 19.257812 48.273438 17.554688 48.273438 Z M 17.554688 48.273438 " fill-opacity="1" fill-rule="nonzero"/><path fill="#0e6655" d="M 17.554688 39.960938 C 14.636719 39.960938 12.265625 42.316406 12.265625 45.210938 C 12.265625 48.101562 14.636719 50.457031 17.554688 50.457031 C 20.472656 50.457031 22.84375 48.101562 22.84375 45.210938 C 22.84375 42.316406 20.472656 39.960938 17.554688 39.960938 Z M 17.554688 49.695312 C 15.0625 49.695312 13.035156 47.683594 13.035156 45.210938 C 13.035156 42.738281 15.0625 40.722656 17.554688 40.722656 C 20.046875 40.722656 22.078125 42.738281 22.078125 45.210938 C 22.078125 47.683594 20.046875 49.695312 17.554688 49.695312 Z M 17.554688 49.695312 " fill-opacity="1" fill-rule="nonzero"/><g clip-path="url(#433f421b11)"><path fill="#0e6655" d="M 46.277344 32.703125 L 36.953125 32.703125 C 35.429688 32.703125 34.195312 33.929688 34.195312 35.4375 L 34.195312 49.902344 C 34.195312 51.410156 35.429688 52.636719 36.953125 52.636719 L 46.277344 52.636719 C 47.796875 52.636719 49.035156 51.410156 49.035156 49.902344 L 49.035156 35.4375 C 49.035156 33.929688 47.796875 32.703125 46.277344 32.703125 Z M 48.265625 49.902344 C 48.265625 50.992188 47.375 51.875 46.277344 51.875 L 36.953125 51.875 C 35.855469 51.875 34.960938 50.992188 34.960938 49.902344 L 34.960938 35.4375 C 34.960938 34.351562 35.855469 33.464844 36.953125 33.464844 L 46.277344 33.464844 C 47.375 33.464844 48.265625 34.351562 48.265625 35.4375 Z M 48.265625 49.902344 " fill-opacity="1" fill-rule="nonzero"/></g><path fill="#0e6655" d="M 38.628906 37.886719 L 44.597656 37.886719 C 45.441406 37.886719 46.128906 37.207031 46.128906 36.371094 C 46.128906 35.535156 45.441406 34.855469 44.597656 34.855469 L 38.628906 34.855469 C 37.785156 34.855469 37.101562 35.535156 37.101562 36.371094 C 37.101562 37.207031 37.785156 37.886719 38.628906 37.886719 Z M 38.628906 35.617188 L 44.597656 35.617188 C 45.019531 35.617188 45.359375 35.953125 45.359375 36.371094 C 45.359375 36.785156 45.019531 37.125 44.597656 37.125 L 38.628906 37.125 C 38.210938 37.125 37.867188 36.785156 37.867188 36.371094 C 37.867188 35.953125 38.210938 35.617188 38.628906 35.617188 Z M 38.628906 35.617188 " fill-opacity="1" fill-rule="nonzero"/><path fill="#0e6655" d="M 41.613281 41.382812 C 39.484375 41.382812 37.753906 43.097656 37.753906 45.210938 C 37.753906 47.320312 39.484375 49.035156 41.613281 49.035156 C 43.742188 49.035156 45.472656 47.320312 45.472656 45.210938 C 45.472656 43.097656 43.742188 41.382812 41.613281 41.382812 Z M 41.613281 48.273438 C 39.910156 48.273438 38.523438 46.898438 38.523438 45.210938 C 38.523438 43.519531 39.910156 42.144531 41.613281 42.144531 C 43.320312 42.144531 44.707031 43.519531 44.707031 45.210938 C 44.707031 46.898438 43.320312 48.273438 41.613281 48.273438 Z M 41.613281 48.273438 " fill-opacity="1" fill-rule="nonzero"/><path fill="#0e6655" d="M 41.613281 39.960938 C 38.699219 39.960938 36.324219 42.316406 36.324219 45.210938 C 36.324219 48.101562 38.699219 50.457031 41.613281 50.457031 C 44.53125 50.457031 46.90625 48.101562 46.90625 45.210938 C 46.90625 42.316406 44.53125 39.960938 41.613281 39.960938 Z M 41.613281 49.695312 C 39.121094 49.695312 37.09375 47.683594 37.09375 45.210938 C 37.09375 42.738281 39.121094 40.722656 41.613281 40.722656 C 44.109375 40.722656 46.136719 42.738281 46.136719 45.210938 C 46.136719 47.683594 44.109375 49.695312 41.613281 49.695312 Z M 41.613281 49.695312 " fill-opacity="1" fill-rule="nonzero"/><path fill="#0e6655" d="M 11.699219 30.5625 C 11.933594 30.710938 12.214844 30.789062 12.507812 30.789062 C 12.5625 30.789062 12.617188 30.785156 12.675781 30.78125 C 13.433594 30.703125 14 30.117188 13.933594 29.472656 C 13.933594 29.464844 13.929688 29.457031 13.929688 29.449219 C 13.925781 29.445312 13.929688 29.441406 13.929688 29.4375 L 13.542969 27.5625 C 13.953125 27.105469 14.527344 26.734375 15.253906 26.460938 C 15.390625 26.40625 15.484375 26.28125 15.496094 26.132812 C 15.507812 25.988281 15.433594 25.847656 15.304688 25.773438 C 14.4375 25.277344 13.550781 25.183594 12.671875 25.496094 C 12.492188 25.558594 12.386719 25.746094 12.421875 25.929688 L 12.75 27.527344 C 12.753906 27.535156 12.753906 27.539062 12.753906 27.542969 L 12.945312 28.476562 C 12.785156 28.441406 12.613281 28.425781 12.4375 28.445312 C 11.675781 28.523438 11.109375 29.109375 11.175781 29.75 C 11.210938 30.074219 11.398438 30.371094 11.699219 30.5625 Z M 14.152344 26.128906 C 13.859375 26.292969 13.597656 26.472656 13.359375 26.675781 L 13.246094 26.125 C 13.550781 26.058594 13.851562 26.0625 14.152344 26.128906 Z M 12.515625 29.203125 C 12.542969 29.199219 12.570312 29.199219 12.597656 29.199219 C 12.871094 29.199219 13.109375 29.332031 13.160156 29.507812 L 13.167969 29.558594 C 13.183594 29.773438 12.921875 29.988281 12.597656 30.019531 C 12.421875 30.039062 12.242188 30 12.117188 29.921875 C 12.054688 29.882812 11.953125 29.800781 11.941406 29.671875 C 11.917969 29.457031 12.1875 29.234375 12.515625 29.203125 Z M 12.515625 29.203125 " fill-opacity="1" fill-rule="nonzero"/><path fill="#0e6655" d="M 40.96875 27.222656 C 40.980469 27.074219 40.90625 26.9375 40.777344 26.863281 C 39.90625 26.367188 39.019531 26.273438 38.140625 26.585938 C 37.960938 26.648438 37.855469 26.835938 37.894531 27.019531 L 38.222656 28.621094 C 38.222656 28.625 38.222656 28.625 38.222656 28.628906 L 38.417969 29.5625 C 38.253906 29.527344 38.082031 29.515625 37.90625 29.535156 C 37.554688 29.570312 37.230469 29.714844 36.996094 29.941406 C 36.742188 30.1875 36.613281 30.515625 36.644531 30.839844 C 36.679688 31.164062 36.871094 31.457031 37.167969 31.648438 C 37.402344 31.796875 37.683594 31.878906 37.976562 31.878906 C 38.03125 31.878906 38.089844 31.875 38.144531 31.867188 C 38.496094 31.832031 38.820312 31.6875 39.054688 31.460938 C 39.308594 31.214844 39.4375 30.886719 39.402344 30.5625 C 39.402344 30.554688 39.398438 30.546875 39.398438 30.539062 C 39.398438 30.535156 39.398438 30.53125 39.398438 30.527344 L 39.011719 28.652344 C 39.421875 28.195312 39.996094 27.824219 40.722656 27.546875 C 40.859375 27.496094 40.957031 27.371094 40.96875 27.222656 Z M 38.066406 31.109375 C 37.890625 31.128906 37.714844 31.089844 37.585938 31.007812 C 37.527344 30.972656 37.425781 30.890625 37.410156 30.761719 C 37.398438 30.636719 37.480469 30.535156 37.53125 30.488281 C 37.640625 30.382812 37.804688 30.308594 37.984375 30.292969 C 38.011719 30.289062 38.042969 30.289062 38.070312 30.289062 C 38.21875 30.289062 38.359375 30.324219 38.464844 30.394531 C 38.519531 30.429688 38.609375 30.503906 38.632812 30.613281 L 38.640625 30.648438 C 38.648438 30.769531 38.570312 30.867188 38.519531 30.914062 C 38.410156 31.023438 38.246094 31.09375 38.066406 31.109375 Z M 38.832031 27.765625 L 38.71875 27.214844 C 39.019531 27.152344 39.320312 27.152344 39.625 27.21875 C 39.332031 27.382812 39.066406 27.5625 38.832031 27.765625 Z M 38.832031 27.765625 " fill-opacity="1" fill-rule="nonzero"/><path fill="#0e6655" d="M 49.179688 26.808594 C 48.976562 26.753906 48.765625 26.871094 48.707031 27.074219 L 48.007812 29.574219 C 47.878906 29.46875 47.730469 29.382812 47.566406 29.320312 C 46.855469 29.046875 46.082031 29.3125 45.847656 29.914062 C 45.609375 30.519531 45.996094 31.230469 46.710938 31.507812 C 46.898438 31.582031 47.09375 31.617188 47.28125 31.617188 C 47.796875 31.617188 48.257812 31.355469 48.429688 30.910156 C 48.433594 30.902344 48.433594 30.894531 48.4375 30.886719 C 48.4375 30.882812 48.441406 30.878906 48.441406 30.875 L 49.449219 27.277344 C 49.503906 27.074219 49.382812 26.867188 49.179688 26.808594 Z M 46.988281 30.796875 C 46.683594 30.679688 46.484375 30.398438 46.5625 30.191406 C 46.617188 30.054688 46.789062 29.976562 46.992188 29.976562 C 47.089844 29.976562 47.191406 29.992188 47.289062 30.03125 C 47.457031 30.09375 47.59375 30.207031 47.671875 30.339844 C 47.703125 30.394531 47.75 30.5 47.71875 30.609375 L 47.710938 30.644531 C 47.625 30.839844 47.289062 30.914062 46.988281 30.796875 Z M 46.988281 30.796875 " fill-opacity="1" fill-rule="nonzero"/><g clip-path="url(#2f5ef8aaf3)"><path fill="#0e6655" d="M 52.855469 37.542969 C 52.652344 37.488281 52.4375 37.605469 52.382812 37.808594 L 51.683594 40.316406 C 51.554688 40.210938 51.410156 40.121094 51.242188 40.054688 C 50.910156 39.929688 50.558594 39.910156 50.242188 40.007812 C 49.902344 40.113281 49.640625 40.347656 49.523438 40.652344 C 49.285156 41.253906 49.671875 41.96875 50.382812 42.242188 C 50.574219 42.316406 50.769531 42.351562 50.960938 42.351562 C 51.105469 42.351562 51.25 42.332031 51.382812 42.289062 C 51.691406 42.195312 51.929688 41.988281 52.0625 41.726562 C 52.0625 41.726562 52.066406 41.722656 52.066406 41.71875 C 52.078125 41.695312 52.09375 41.671875 52.105469 41.648438 C 52.109375 41.640625 52.109375 41.632812 52.109375 41.625 C 52.113281 41.621094 52.117188 41.617188 52.117188 41.609375 L 53.121094 38.011719 C 53.179688 37.808594 53.058594 37.601562 52.855469 37.542969 Z M 51.15625 41.5625 C 51.007812 41.605469 50.828125 41.597656 50.664062 41.53125 C 50.355469 41.414062 50.15625 41.132812 50.238281 40.925781 C 50.285156 40.808594 50.40625 40.757812 50.472656 40.734375 C 50.53125 40.71875 50.597656 40.707031 50.664062 40.707031 C 50.761719 40.707031 50.867188 40.726562 50.964844 40.765625 C 51.253906 40.878906 51.445312 41.136719 51.394531 41.339844 L 51.386719 41.378906 C 51.335938 41.488281 51.222656 41.542969 51.15625 41.5625 Z M 51.15625 41.5625 " fill-opacity="1" fill-rule="nonzero"/></g><path fill="#0e6655" d="M 41.25 18.722656 C 41.25 18.933594 41.421875 19.101562 41.636719 19.101562 C 42.496094 19.101562 43.097656 20.363281 43.097656 21.496094 C 43.097656 21.707031 43.269531 21.875 43.480469 21.875 C 43.691406 21.875 43.863281 21.707031 43.863281 21.496094 C 43.863281 20.363281 44.464844 19.101562 45.324219 19.101562 C 45.535156 19.101562 45.707031 18.933594 45.707031 18.722656 C 45.707031 18.511719 45.535156 18.339844 45.324219 18.339844 C 44.367188 18.339844 43.863281 17.140625 43.863281 15.957031 C 43.863281 15.746094 43.691406 15.574219 43.480469 15.574219 C 43.269531 15.574219 43.097656 15.746094 43.097656 15.957031 C 43.097656 17.140625 42.59375 18.339844 41.636719 18.339844 C 41.421875 18.339844 41.25 18.511719 41.25 18.722656 Z M 43.480469 17.792969 C 43.671875 18.191406 43.929688 18.511719 44.234375 18.738281 C 43.921875 18.988281 43.667969 19.335938 43.480469 19.738281 C 43.292969 19.335938 43.039062 18.988281 42.726562 18.738281 C 43.03125 18.511719 43.289062 18.191406 43.480469 17.792969 Z M 43.480469 17.792969 " fill-opacity="1" fill-rule="nonzero"/><path fill="#0e6655" d="M 37.921875 8.929688 C 38.78125 8.929688 39.378906 10.191406 39.378906 11.324219 C 39.378906 11.535156 39.550781 11.707031 39.765625 11.707031 C 39.976562 11.707031 40.148438 11.535156 40.148438 11.324219 C 40.148438 10.191406 40.75 8.929688 41.609375 8.929688 C 41.820312 8.929688 41.992188 8.761719 41.992188 8.550781 C 41.992188 8.339844 41.820312 8.167969 41.609375 8.167969 C 40.652344 8.167969 40.148438 6.96875 40.148438 5.785156 C 40.148438 5.574219 39.976562 5.40625 39.765625 5.40625 C 39.550781 5.40625 39.378906 5.574219 39.378906 5.785156 C 39.378906 6.96875 38.878906 8.167969 37.921875 8.167969 C 37.707031 8.167969 37.535156 8.339844 37.535156 8.550781 C 37.535156 8.761719 37.707031 8.929688 37.921875 8.929688 Z M 39.765625 7.625 C 39.957031 8.019531 40.210938 8.339844 40.515625 8.566406 C 40.207031 8.816406 39.953125 9.164062 39.765625 9.566406 C 39.574219 9.164062 39.324219 8.816406 39.011719 8.566406 C 39.316406 8.339844 39.574219 8.019531 39.765625 7.625 Z M 39.765625 7.625 " fill-opacity="1" fill-rule="nonzero"/><path fill="#0e6655" d="M 18.214844 28.253906 C 18 28.253906 17.828125 28.421875 17.828125 28.632812 C 17.828125 28.84375 18 29.015625 18.214844 29.015625 C 19.074219 29.015625 19.671875 30.277344 19.671875 31.40625 C 19.671875 31.617188 19.84375 31.789062 20.058594 31.789062 C 20.269531 31.789062 20.441406 31.617188 20.441406 31.40625 C 20.441406 30.273438 21.042969 29.015625 21.902344 29.015625 C 22.113281 29.015625 22.285156 28.84375 22.285156 28.632812 C 22.285156 28.421875 22.113281 28.253906 21.902344 28.253906 C 20.945312 28.253906 20.441406 27.054688 20.441406 25.867188 C 20.441406 25.65625 20.269531 25.488281 20.058594 25.488281 C 19.84375 25.488281 19.671875 25.65625 19.671875 25.867188 C 19.675781 27.054688 19.171875 28.253906 18.214844 28.253906 Z M 20.058594 27.707031 C 20.25 28.101562 20.503906 28.425781 20.808594 28.648438 C 20.5 28.898438 20.246094 29.246094 20.058594 29.648438 C 19.871094 29.246094 19.617188 28.898438 19.304688 28.648438 C 19.609375 28.425781 19.867188 28.101562 20.058594 27.707031 Z M 20.058594 27.707031 " fill-opacity="1" fill-rule="nonzero"/><path fill="#0e6655" d="M 15.488281 12.480469 C 16.347656 12.480469 16.945312 13.742188 16.945312 14.875 C 16.945312 15.085938 17.117188 15.253906 17.332031 15.253906 C 17.542969 15.253906 17.714844 15.085938 17.714844 14.875 C 17.714844 13.742188 18.316406 12.480469 19.175781 12.480469 C 19.386719 12.480469 19.558594 12.3125 19.558594 12.101562 C 19.558594 11.890625 19.386719 11.71875 19.175781 11.71875 C 18.21875 11.71875 17.714844 10.519531 17.714844 9.335938 C 17.714844 9.125 17.542969 8.957031 17.332031 8.957031 C 17.117188 8.957031 16.945312 9.125 16.945312 9.335938 C 16.945312 10.519531 16.445312 11.71875 15.488281 11.71875 C 15.273438 11.71875 15.101562 11.890625 15.101562 12.101562 C 15.101562 12.3125 15.273438 12.480469 15.488281 12.480469 Z M 17.332031 11.171875 C 17.523438 11.570312 17.78125 11.890625 18.082031 12.117188 C 17.773438 12.367188 17.519531 12.714844 17.332031 13.117188 C 17.144531 12.714844 16.890625 12.367188 16.578125 12.117188 C 16.882812 11.890625 17.140625 11.570312 17.332031 11.171875 Z M 17.332031 11.171875 " fill-opacity="1" fill-rule="nonzero"/><path fill="#0e6655" d="M 32.1875 33.28125 L 29.355469 31.289062 C 29.257812 31.222656 29.136719 31.199219 29.023438 31.234375 C 28.910156 31.269531 28.816406 31.351562 28.773438 31.460938 L 27.824219 33.878906 C 27.707031 33.761719 27.570312 33.660156 27.414062 33.582031 C 27.097656 33.421875 26.746094 33.371094 26.425781 33.4375 C 26.074219 33.507812 25.789062 33.714844 25.640625 34.003906 C 25.34375 34.578125 25.65625 35.328125 26.339844 35.671875 C 26.566406 35.785156 26.808594 35.847656 27.050781 35.847656 C 27.144531 35.847656 27.238281 35.835938 27.328125 35.820312 C 27.675781 35.746094 27.960938 35.539062 28.109375 35.25 C 28.113281 35.242188 28.117188 35.234375 28.121094 35.226562 C 28.121094 35.222656 28.125 35.21875 28.125 35.214844 L 29.3125 32.191406 L 31.496094 33.726562 L 30.65625 35.871094 C 30.539062 35.753906 30.402344 35.652344 30.246094 35.570312 C 29.929688 35.414062 29.578125 35.359375 29.253906 35.425781 C 28.90625 35.496094 28.621094 35.703125 28.472656 35.992188 C 28.175781 36.570312 28.488281 37.320312 29.167969 37.664062 C 29.394531 37.777344 29.640625 37.835938 29.878906 37.835938 C 29.972656 37.835938 30.066406 37.828125 30.160156 37.808594 C 30.476562 37.746094 30.738281 37.5625 30.894531 37.3125 C 30.898438 37.304688 30.902344 37.296875 30.910156 37.289062 C 30.917969 37.273438 30.933594 37.257812 30.941406 37.242188 C 30.945312 37.234375 30.945312 37.226562 30.949219 37.21875 C 30.953125 37.214844 30.957031 37.210938 30.957031 37.207031 L 32.320312 33.726562 C 32.386719 33.566406 32.328125 33.378906 32.1875 33.28125 Z M 27.171875 35.074219 C 27.023438 35.101562 26.847656 35.074219 26.6875 34.996094 C 26.394531 34.847656 26.226562 34.542969 26.324219 34.351562 C 26.382812 34.238281 26.507812 34.195312 26.578125 34.183594 C 26.617188 34.175781 26.660156 34.171875 26.703125 34.171875 C 26.820312 34.171875 26.949219 34.203125 27.066406 34.261719 C 27.222656 34.339844 27.351562 34.46875 27.414062 34.605469 C 27.441406 34.664062 27.472656 34.773438 27.433594 34.878906 L 27.421875 34.910156 C 27.363281 35.019531 27.242188 35.058594 27.171875 35.074219 Z M 30.003906 37.0625 C 29.855469 37.09375 29.675781 37.066406 29.519531 36.984375 C 29.226562 36.835938 29.054688 36.535156 29.15625 36.339844 C 29.214844 36.226562 29.339844 36.1875 29.410156 36.171875 C 29.449219 36.164062 29.488281 36.160156 29.53125 36.160156 C 29.652344 36.160156 29.777344 36.191406 29.894531 36.253906 C 30.054688 36.332031 30.179688 36.457031 30.246094 36.59375 C 30.273438 36.65625 30.304688 36.765625 30.265625 36.871094 L 30.253906 36.902344 C 30.191406 37.007812 30.070312 37.050781 30.003906 37.0625 Z M 30.003906 37.0625 " fill-opacity="1" fill-rule="nonzero"/><path fill="#0e6655" d="M 8.871094 43.433594 L 8.121094 39.777344 C 8.078125 39.570312 7.875 39.4375 7.667969 39.480469 C 7.460938 39.523438 7.324219 39.722656 7.367188 39.929688 L 7.890625 42.472656 C 7.726562 42.433594 7.554688 42.425781 7.382812 42.441406 C 7.027344 42.476562 6.703125 42.621094 6.46875 42.851562 C 6.214844 43.097656 6.089844 43.425781 6.121094 43.746094 C 6.152344 44.070312 6.34375 44.367188 6.644531 44.558594 C 6.875 44.707031 7.160156 44.785156 7.453125 44.785156 C 7.507812 44.785156 7.5625 44.785156 7.617188 44.777344 C 8.378906 44.703125 8.945312 44.117188 8.878906 43.472656 C 8.878906 43.464844 8.875 43.457031 8.871094 43.445312 C 8.871094 43.441406 8.875 43.4375 8.871094 43.433594 Z M 7.542969 44.019531 C 7.367188 44.039062 7.1875 44 7.0625 43.917969 C 7 43.878906 6.898438 43.796875 6.886719 43.671875 C 6.871094 43.546875 6.957031 43.445312 7.007812 43.394531 C 7.117188 43.289062 7.28125 43.21875 7.457031 43.199219 C 7.488281 43.199219 7.515625 43.195312 7.546875 43.195312 C 7.691406 43.195312 7.832031 43.234375 7.941406 43.300781 C 7.996094 43.335938 8.082031 43.414062 8.105469 43.523438 L 8.113281 43.554688 C 8.128906 43.773438 7.867188 43.988281 7.542969 44.019531 Z M 7.542969 44.019531 " fill-opacity="1" fill-rule="nonzero"/></svg>