<svg xmlns="http://www.w3.org/2000/svg" xmlns:xlink="http://www.w3.org/1999/xlink" width="80" zoomAndPan="magnify" viewBox="0 0 60 60" height="80" preserveAspectRatio="xMidYMid meet" version="1.0"><defs><clipPath id="5630453d41"><path d="M 4.621094 6 L 54.097656 6 L 54.097656 50.25 L 4.621094 50.25 Z M 4.621094 6 " clip-rule="nonzero"/></clipPath></defs><g clip-path="url(#5630453d41)"><path fill="#0e6655" d="M 53.476562 33.519531 C 53.371094 33.730469 53.21875 33.882812 52.984375 33.914062 C 52.726562 33.949219 52.460938 33.980469 52.199219 33.980469 C 50.046875 33.964844 47.894531 33.941406 45.746094 33.925781 C 44.519531 33.917969 43.292969 33.925781 42.066406 33.925781 C 41.96875 33.925781 41.875 33.925781 41.738281 33.925781 C 41.976562 32.941406 41.945312 31.964844 42 30.980469 C 42.125 30.980469 42.230469 30.980469 42.335938 30.980469 C 45.140625 30.988281 47.945312 30.996094 50.75 31.007812 C 51.226562 31.007812 51.703125 30.988281 52.175781 31.035156 C 52.464844 31.0625 52.753906 31.183594 53.027344 31.289062 C 53.265625 31.378906 53.394531 31.601562 53.484375 31.816406 C 53.730469 32.378906 53.761719 32.953125 53.476562 33.519531 Z M 52.007812 34.707031 C 51.957031 35.210938 51.914062 35.71875 51.851562 36.222656 C 51.757812 36.988281 51.660156 37.753906 51.546875 38.515625 C 51.449219 39.152344 51.089844 39.585938 50.484375 39.816406 C 49.902344 40.035156 49.292969 40.125 48.671875 40.140625 C 48.636719 40.140625 48.605469 40.132812 48.5625 40.128906 C 48.558594 39.859375 48.574219 39.597656 48.382812 39.339844 C 48.167969 39.578125 48.199219 39.867188 48.144531 40.144531 C 47.898438 40.144531 47.652344 40.160156 47.410156 40.140625 C 46.796875 40.082031 46.183594 40.015625 45.570312 39.941406 C 44.96875 39.863281 44.65625 39.476562 44.5625 38.914062 C 44.453125 38.265625 44.355469 37.613281 44.300781 36.960938 C 44.238281 36.210938 44.226562 35.453125 44.191406 34.703125 C 44.1875 34.617188 44.191406 34.53125 44.191406 34.429688 C 44.761719 34.429688 45.304688 34.429688 45.878906 34.429688 C 45.863281 34.535156 45.859375 34.601562 45.847656 34.671875 C 45.789062 34.992188 45.800781 35.316406 45.832031 35.640625 C 45.839844 35.691406 45.855469 35.742188 45.871094 35.792969 C 45.90625 35.882812 45.96875 35.9375 46.070312 35.933594 C 46.175781 35.929688 46.230469 35.859375 46.246094 35.765625 C 46.316406 35.421875 46.328125 35.070312 46.28125 34.71875 C 46.269531 34.636719 46.257812 34.550781 46.246094 34.445312 C 46.945312 34.445312 47.628906 34.445312 48.300781 34.445312 C 48.300781 34.664062 48.296875 34.863281 48.300781 35.0625 C 48.304688 35.359375 48.3125 35.65625 48.316406 35.953125 C 48.320312 35.988281 48.316406 36.03125 48.335938 36.054688 C 48.375 36.105469 48.429688 36.183594 48.476562 36.183594 C 48.542969 36.179688 48.636719 36.132812 48.664062 36.074219 C 48.710938 35.976562 48.734375 35.855469 48.738281 35.746094 C 48.746094 35.324219 48.738281 34.90625 48.738281 34.449219 C 49.289062 34.414062 49.875 34.441406 50.492188 34.429688 C 50.480469 34.589844 50.46875 34.726562 50.464844 34.859375 C 50.457031 35.097656 50.449219 35.332031 50.445312 35.570312 C 50.445312 35.605469 50.453125 35.640625 50.460938 35.671875 C 50.480469 35.773438 50.515625 35.863281 50.636719 35.867188 C 50.761719 35.871094 50.804688 35.785156 50.820312 35.683594 C 50.875 35.371094 50.929688 35.058594 50.886719 34.742188 C 50.875 34.65625 50.867188 34.570312 50.855469 34.445312 C 51.25 34.46875 51.625 34.488281 52.011719 34.507812 C 52.011719 34.589844 52.015625 34.648438 52.007812 34.707031 Z M 41.15625 30.253906 C 41.066406 30.359375 40.980469 30.375 40.859375 30.375 C 39.414062 30.363281 37.96875 30.351562 36.519531 30.339844 C 33.273438 30.3125 30.027344 30.289062 26.78125 30.261719 C 23.78125 30.234375 20.78125 30.207031 17.78125 30.183594 C 17.746094 30.183594 17.710938 30.183594 17.667969 30.183594 C 17.347656 29.695312 17.074219 29.695312 16.714844 30.160156 C 16.375 30.160156 16.035156 30.164062 15.691406 30.15625 C 15.628906 30.15625 15.558594 30.117188 15.503906 30.074219 C 15.40625 30.003906 15.308594 29.921875 15.230469 29.832031 C 14.640625 29.152344 14.058594 28.472656 13.46875 27.796875 C 13.363281 27.671875 13.335938 27.554688 13.363281 27.390625 C 13.546875 26.203125 12.867188 25.039062 11.742188 24.613281 C 11.585938 24.550781 11.503906 24.464844 11.4375 24.316406 C 10.78125 22.824219 10.53125 21.261719 10.675781 19.640625 C 10.820312 18.007812 11.554688 16.664062 12.753906 15.558594 C 12.839844 15.476562 12.957031 15.417969 13.074219 15.382812 C 13.957031 15.113281 14.835938 14.824219 15.730469 14.597656 C 17.578125 14.125 19.460938 13.84375 21.355469 13.632812 C 24.417969 13.289062 27.492188 13.15625 30.574219 13.234375 C 32.039062 13.273438 33.5 13.359375 34.960938 13.476562 C 36.257812 13.585938 37.558594 13.730469 38.847656 13.917969 C 41.179688 14.261719 43.46875 14.789062 45.703125 15.554688 C 46.179688 15.71875 46.527344 15.980469 46.828125 16.363281 C 47.773438 17.566406 48.1875 18.9375 48.183594 20.457031 C 48.179688 21.78125 47.921875 23.050781 47.402344 24.269531 C 47.332031 24.4375 47.238281 24.535156 47.0625 24.597656 C 45.929688 25 45.234375 26.207031 45.441406 27.390625 C 45.46875 27.550781 45.449219 27.671875 45.34375 27.804688 C 44.761719 28.53125 44.152344 29.234375 43.46875 29.875 C 43.328125 30.003906 43.195312 30.144531 43.066406 30.289062 C 42.996094 30.371094 42.917969 30.398438 42.8125 30.394531 C 42.582031 30.386719 42.351562 30.386719 42.121094 30.390625 C 42.007812 30.394531 41.933594 30.355469 41.855469 30.261719 C 41.644531 30.015625 41.351562 30.007812 41.15625 30.253906 Z M 40.941406 33.910156 C 40.867188 33.914062 40.789062 33.921875 40.710938 33.921875 C 39.070312 33.917969 37.433594 33.910156 35.792969 33.90625 C 35.644531 33.90625 35.550781 33.863281 35.464844 33.742188 C 34.792969 32.785156 33.941406 32.019531 32.960938 31.390625 C 32.679688 31.214844 32.375 31.078125 32.082031 30.921875 C 32.082031 30.910156 32.082031 30.898438 32.082031 30.886719 C 35.058594 30.917969 38.035156 30.949219 41.042969 30.980469 C 41.054688 31.957031 41.078125 32.925781 40.941406 33.910156 Z M 33.128906 33.882812 C 32.996094 32.738281 32.441406 31.847656 31.523438 31.167969 C 31.539062 31.152344 31.550781 31.136719 31.5625 31.121094 C 31.679688 31.164062 31.804688 31.203125 31.921875 31.257812 C 32.359375 31.453125 32.753906 31.710938 33.125 32.007812 C 33.734375 32.492188 34.289062 33.027344 34.765625 33.640625 C 34.820312 33.707031 34.867188 33.78125 34.941406 33.882812 C 34.308594 33.882812 33.730469 33.882812 33.128906 33.882812 Z M 31.21875 33.871094 C 31.261719 32.917969 31.28125 31.972656 30.804688 31.105469 C 31.695312 31.367188 32.710938 32.816406 32.742188 33.871094 C 32.226562 33.871094 31.738281 33.871094 31.21875 33.871094 Z M 30.777344 33.863281 C 30.15625 33.863281 29.542969 33.863281 28.882812 33.863281 C 28.933594 33.765625 28.972656 33.683594 29.015625 33.605469 C 29.308594 33.070312 29.542969 32.515625 29.644531 31.910156 C 29.691406 31.609375 29.722656 31.308594 29.765625 30.980469 C 29.8125 30.976562 29.878906 30.984375 29.945312 30.96875 C 30.269531 30.902344 30.429688 31.085938 30.546875 31.347656 C 30.695312 31.679688 30.78125 32.027344 30.808594 32.386719 C 30.851562 32.875 30.867188 33.363281 30.777344 33.863281 Z M 28.335938 33.859375 C 27.839844 33.859375 27.359375 33.859375 26.867188 33.859375 C 27.363281 33.011719 28.914062 30.964844 29.371094 30.878906 C 29.488281 31.363281 28.910156 33.039062 28.335938 33.859375 Z M 26.335938 33.6875 C 26.238281 33.828125 26.132812 33.871094 25.964844 33.871094 C 23.996094 33.859375 22.03125 33.855469 20.0625 33.851562 C 19.359375 33.847656 18.652344 33.84375 17.945312 33.84375 C 17.859375 33.839844 17.773438 33.835938 17.691406 33.832031 C 17.691406 32.796875 17.691406 31.796875 17.691406 30.804688 C 17.933594 30.746094 28.058594 30.816406 28.699219 30.875 C 28.683594 30.910156 28.675781 30.945312 28.65625 30.960938 C 28.101562 31.433594 27.640625 31.984375 27.195312 32.554688 C 26.90625 32.929688 26.613281 33.304688 26.335938 33.6875 Z M 16.351562 33.835938 C 13.078125 33.832031 9.804688 33.828125 6.53125 33.820312 C 6.371094 33.820312 6.207031 33.832031 6.058594 33.789062 C 5.550781 33.644531 5.339844 33.25 5.277344 32.769531 C 5.210938 32.234375 5.324219 31.722656 5.554688 31.234375 C 5.617188 31.097656 5.710938 31.007812 5.84375 30.945312 C 6.308594 30.722656 6.796875 30.632812 7.308594 30.640625 C 8.992188 30.664062 10.675781 30.683594 12.363281 30.707031 C 13.667969 30.722656 14.972656 30.734375 16.277344 30.75 C 16.375 30.75 16.46875 30.75 16.582031 30.75 C 16.476562 31.800781 16.582031 32.796875 16.636719 33.824219 C 16.539062 33.828125 16.445312 33.835938 16.351562 33.835938 Z M 14.421875 38.730469 C 14.378906 38.953125 14.300781 39.171875 14.210938 39.378906 C 14.117188 39.597656 13.941406 39.757812 13.710938 39.816406 C 13.414062 39.894531 13.109375 39.96875 12.804688 40 C 12.210938 40.0625 11.613281 40.09375 11.015625 40.132812 C 10.945312 40.136719 10.875 40.128906 10.785156 40.121094 C 10.769531 39.832031 10.777344 39.566406 10.585938 39.328125 C 10.351562 39.550781 10.410156 39.832031 10.386719 40.117188 C 10.175781 40.105469 9.976562 40.105469 9.777344 40.085938 C 9.308594 40.039062 8.851562 39.945312 8.417969 39.769531 C 7.878906 39.550781 7.527344 39.160156 7.429688 38.589844 C 7.3125 37.898438 7.214844 37.203125 7.128906 36.507812 C 7.046875 35.832031 6.984375 35.148438 6.914062 34.46875 C 6.910156 34.4375 6.914062 34.402344 6.914062 34.359375 C 7.308594 34.359375 7.691406 34.359375 8.0625 34.359375 C 8.0625 34.582031 8.054688 34.792969 8.0625 35 C 8.074219 35.210938 8.101562 35.417969 8.125 35.628906 C 8.136719 35.738281 8.175781 35.835938 8.3125 35.839844 C 8.421875 35.84375 8.492188 35.761719 8.496094 35.597656 C 8.496094 35.265625 8.480469 34.929688 8.46875 34.597656 C 8.464844 34.53125 8.453125 34.460938 8.441406 34.351562 C 9.046875 34.34375 9.640625 34.347656 10.246094 34.347656 C 10.226562 34.683594 10.199219 34.984375 10.195312 35.289062 C 10.195312 35.5 10.222656 35.710938 10.242188 35.917969 C 10.246094 35.96875 10.261719 36.027344 10.292969 36.0625 C 10.339844 36.109375 10.414062 36.175781 10.460938 36.164062 C 10.519531 36.148438 10.605469 36.074219 10.609375 36.015625 C 10.640625 35.738281 10.664062 35.457031 10.664062 35.179688 C 10.664062 34.917969 10.632812 34.65625 10.617188 34.394531 C 10.792969 34.335938 12.304688 34.324219 12.707031 34.375 C 12.695312 34.492188 12.691406 34.613281 12.667969 34.730469 C 12.605469 35.027344 12.648438 35.324219 12.679688 35.617188 C 12.703125 35.816406 12.773438 35.910156 12.882812 35.914062 C 13 35.917969 13.09375 35.824219 13.105469 35.636719 C 13.125 35.339844 13.117188 35.042969 13.113281 34.746094 C 13.113281 34.625 13.085938 34.507812 13.066406 34.367188 C 13.621094 34.367188 14.164062 34.367188 14.722656 34.367188 C 14.734375 34.421875 14.75 34.46875 14.75 34.515625 C 14.757812 35.929688 14.6875 37.339844 14.421875 38.730469 Z M 10.878906 24.757812 C 12.09375 24.789062 13.03125 25.761719 13.003906 26.957031 C 13.015625 28.078125 12.054688 29.183594 10.710938 29.132812 C 9.523438 29.089844 8.574219 28.09375 8.601562 26.878906 C 8.628906 25.683594 9.65625 24.730469 10.878906 24.757812 Z M 6.023438 25.695312 C 6.160156 25.015625 6.324219 24.34375 6.582031 23.699219 C 6.960938 22.753906 7.515625 21.949219 8.382812 21.382812 C 8.804688 21.109375 9.25 20.914062 9.765625 20.914062 C 9.824219 20.914062 9.886719 20.914062 9.980469 20.914062 C 10.039062 22.121094 10.269531 23.285156 10.738281 24.417969 C 9.164062 24.582031 8.425781 25.667969 8.296875 26.703125 C 8.175781 27.710938 8.691406 28.765625 9.730469 29.273438 C 10.585938 29.695312 11.96875 29.722656 13.015625 28.375 C 13.523438 28.949219 14.027344 29.519531 14.523438 30.082031 C 14.515625 30.105469 14.515625 30.113281 14.507812 30.121094 C 14.503906 30.128906 14.496094 30.136719 14.492188 30.136719 C 11.660156 30.128906 8.828125 30.121094 5.996094 30.113281 C 5.953125 30.113281 5.910156 30.097656 5.84375 30.085938 C 5.808594 29.773438 5.765625 29.460938 5.738281 29.148438 C 5.644531 27.984375 5.789062 26.835938 6.023438 25.695312 Z M 15.734375 13.914062 C 17.011719 13.5 18.3125 13.195312 19.644531 13.007812 C 21.09375 12.800781 22.542969 12.617188 23.996094 12.449219 C 24.6875 12.367188 25.386719 12.320312 26.082031 12.28125 C 27.085938 12.226562 28.089844 12.167969 29.09375 12.148438 C 30.382812 12.128906 31.671875 12.179688 32.953125 12.304688 C 33.691406 12.375 34.433594 12.402344 35.167969 12.484375 C 36.457031 12.632812 37.742188 12.800781 39.027344 12.976562 C 40.160156 13.136719 41.28125 13.390625 42.382812 13.695312 C 43.363281 13.96875 44.316406 14.3125 45.175781 14.867188 C 45.25 14.914062 45.320312 14.964844 45.371094 15.050781 C 45.214844 15 45.0625 14.949219 44.90625 14.898438 C 43.074219 14.296875 41.199219 13.886719 39.296875 13.597656 C 37.945312 13.394531 36.589844 13.207031 35.230469 13.074219 C 32.542969 12.8125 29.84375 12.722656 27.140625 12.796875 C 25.863281 12.832031 24.582031 12.875 23.308594 12.96875 C 21.074219 13.132812 18.851562 13.425781 16.660156 13.90625 C 16 14.054688 15.34375 14.230469 14.683594 14.394531 C 14.628906 14.40625 14.574219 14.414062 14.519531 14.425781 C 14.511719 14.410156 14.507812 14.394531 14.503906 14.375 C 14.910156 14.21875 15.316406 14.046875 15.734375 13.914062 Z M 42.007812 12.90625 C 41.667969 12.828125 41.347656 12.753906 41.023438 12.683594 C 39.859375 12.425781 38.6875 12.242188 37.503906 12.105469 C 36.707031 12.015625 35.910156 11.910156 35.109375 11.84375 C 34.082031 11.757812 33.050781 11.707031 32.023438 11.640625 C 31.414062 11.601562 30.808594 11.570312 30.199219 11.519531 C 29.371094 11.453125 28.542969 11.488281 27.714844 11.546875 C 26.519531 11.632812 25.324219 11.707031 24.128906 11.804688 C 23.273438 11.875 22.425781 11.960938 21.578125 12.074219 C 20.554688 12.210938 19.53125 12.347656 18.519531 12.539062 C 17.664062 12.703125 16.824219 12.9375 15.976562 13.144531 C 15.875 13.167969 15.773438 13.199219 15.636719 13.238281 C 15.855469 11.738281 16.152344 10.292969 16.53125 8.859375 C 17.160156 8.769531 17.769531 8.671875 18.378906 8.589844 C 19.269531 8.46875 20.160156 8.339844 21.054688 8.25 C 22.027344 8.148438 23.003906 8.066406 23.980469 8.011719 C 25.449219 7.925781 26.921875 7.859375 28.394531 7.808594 C 29.910156 7.753906 31.425781 7.757812 32.945312 7.835938 C 34.621094 7.921875 36.277344 8.148438 37.917969 8.5 C 39.074219 8.742188 40.226562 8.988281 41.382812 9.230469 C 41.460938 9.25 41.535156 9.269531 41.640625 9.296875 C 41.773438 10.5 42 11.679688 42.007812 12.90625 Z M 15.820312 8.132812 C 16.675781 7.898438 17.539062 7.648438 18.410156 7.433594 C 19.652344 7.128906 20.917969 6.933594 22.1875 6.78125 C 23.675781 6.605469 25.171875 6.503906 26.671875 6.453125 C 28.214844 6.398438 29.757812 6.417969 31.300781 6.488281 C 33.40625 6.582031 35.503906 6.792969 37.589844 7.113281 C 39.21875 7.367188 40.832031 7.699219 42.425781 8.117188 C 42.496094 8.132812 42.5625 8.15625 42.648438 8.179688 C 42.773438 9.011719 42.925781 9.839844 42.972656 10.679688 C 43.019531 11.503906 43.03125 12.335938 43.0625 13.203125 C 42.796875 13.125 42.574219 13.0625 42.390625 13.007812 C 42.34375 12.394531 42.308594 11.820312 42.253906 11.246094 C 42.207031 10.757812 42.140625 10.269531 42.066406 9.785156 C 42.03125 9.570312 41.953125 9.363281 41.898438 9.152344 C 41.859375 9.007812 41.765625 8.933594 41.625 8.898438 C 41.214844 8.796875 40.808594 8.679688 40.394531 8.59375 C 39.074219 8.328125 37.75 8.058594 36.425781 7.820312 C 35.304688 7.617188 34.171875 7.515625 33.035156 7.453125 C 31.570312 7.375 30.109375 7.34375 28.644531 7.410156 C 27.257812 7.472656 25.875 7.511719 24.492188 7.589844 C 22.792969 7.6875 21.09375 7.820312 19.414062 8.097656 C 18.4375 8.253906 17.464844 8.417969 16.492188 8.574219 C 16.382812 8.59375 16.339844 8.65625 16.308594 8.738281 C 16.171875 9.117188 16.015625 9.492188 15.914062 9.878906 C 15.621094 11.019531 15.375 12.167969 15.269531 13.367188 C 15.03125 13.460938 14.804688 13.550781 14.550781 13.648438 C 14.875 11.785156 15.375 9.980469 15.820312 8.132812 Z M 45.722656 26.882812 C 45.746094 25.6875 46.769531 24.730469 47.992188 24.757812 C 49.207031 24.785156 50.148438 25.757812 50.125 26.953125 C 50.136719 28.078125 49.175781 29.183594 47.835938 29.132812 C 46.644531 29.089844 45.695312 28.097656 45.722656 26.882812 Z M 48.835938 20.921875 C 49.214844 20.902344 49.5625 20.941406 49.898438 21.09375 C 50.75 21.476562 51.382812 22.09375 51.84375 22.890625 C 52.25 23.585938 52.488281 24.347656 52.671875 25.128906 C 52.917969 26.191406 53.109375 27.261719 53.101562 28.355469 C 53.097656 28.898438 53.027344 29.4375 52.984375 29.980469 C 52.960938 30.273438 52.777344 30.4375 52.515625 30.519531 C 52.410156 30.554688 52.289062 30.574219 52.179688 30.570312 C 49.675781 30.519531 47.167969 30.464844 44.664062 30.410156 C 44.480469 30.40625 44.296875 30.410156 44.109375 30.410156 C 44.097656 30.386719 44.082031 30.367188 44.070312 30.34375 C 44.640625 29.695312 45.210938 29.042969 45.800781 28.375 C 45.863281 28.449219 45.921875 28.519531 45.984375 28.589844 C 47.082031 29.917969 49.136719 29.816406 50.097656 28.390625 C 51 27.050781 50.371094 25.160156 48.839844 24.601562 C 48.609375 24.519531 48.363281 24.472656 48.089844 24.398438 C 48.539062 23.300781 48.785156 22.140625 48.835938 20.921875 Z M 45.628906 44.09375 C 45.871094 44.050781 46.109375 44.003906 46.351562 43.960938 C 46.429688 43.945312 46.507812 43.9375 46.582031 43.929688 C 46.320312 44.195312 46.113281 44.460938 45.984375 44.785156 C 45.9375 44.914062 45.832031 44.914062 45.730469 44.929688 C 45.214844 45.003906 44.703125 45.070312 44.1875 45.144531 C 43.886719 45.1875 43.585938 45.238281 43.261719 45.292969 C 43.28125 44.980469 43.414062 44.730469 43.605469 44.515625 C 43.660156 44.453125 43.773438 44.421875 43.863281 44.40625 C 44.449219 44.296875 45.039062 44.195312 45.628906 44.09375 Z M 48.308594 44.402344 C 48.546875 44.738281 48.625 44.988281 48.640625 45.535156 C 48.683594 45.960938 48.488281 46.359375 48.109375 46.664062 C 47.707031 46.988281 47.304688 47.03125 46.890625 46.6875 C 46.304688 46.203125 45.941406 45.238281 46.621094 44.359375 C 47.097656 43.742188 47.859375 43.761719 48.308594 44.402344 Z M 46.628906 47.082031 C 45.78125 47.125 44.9375 47.167969 44.09375 47.207031 C 44.082031 47.210938 44.074219 47.210938 44.066406 47.210938 C 43.65625 47.210938 43.589844 47.15625 43.445312 46.734375 C 44.335938 46.5625 45.246094 46.542969 46.117188 46.421875 C 46.324219 46.636719 46.515625 46.835938 46.71875 47.046875 C 46.6875 47.058594 46.65625 47.078125 46.628906 47.082031 Z M 43.3125 46.492188 C 43.152344 46.199219 43.132812 45.898438 43.195312 45.59375 C 44.089844 45.453125 44.976562 45.3125 45.839844 45.175781 C 45.894531 45.511719 45.949219 45.851562 46.007812 46.214844 C 45.117188 46.253906 44.210938 46.277344 43.3125 46.492188 Z M 37.078125 45.273438 C 37.136719 45.335938 37.199219 45.410156 37.277344 45.441406 C 37.339844 45.46875 37.4375 45.460938 37.492188 45.425781 C 37.566406 45.378906 37.558594 45.285156 37.507812 45.214844 C 37.441406 45.121094 37.367188 45.035156 37.292969 44.945312 C 37.171875 44.796875 37.050781 44.644531 36.914062 44.476562 C 37.046875 44.410156 37.152344 44.359375 37.265625 44.300781 C 37.449219 44.574219 37.613281 44.832031 37.796875 45.078125 C 37.976562 45.324219 38.175781 45.554688 38.378906 45.808594 C 38.003906 45.9375 37.714844 46.144531 37.507812 46.472656 C 37.078125 45.988281 36.671875 45.53125 36.246094 45.054688 C 36.34375 44.953125 36.441406 44.847656 36.558594 44.726562 C 36.742188 44.921875 36.90625 45.101562 37.078125 45.273438 Z M 37.90625 44.339844 C 38.246094 44.730469 38.589844 45.117188 38.933594 45.507812 C 38.988281 45.570312 39.039062 45.640625 39.125 45.746094 C 38.945312 45.746094 38.824219 45.746094 38.675781 45.746094 C 38.273438 45.265625 37.859375 44.773438 37.441406 44.269531 C 37.730469 44.140625 37.734375 44.144531 37.90625 44.339844 Z M 39.753906 47.476562 C 39.589844 47.730469 39.371094 47.910156 39.105469 48.035156 C 38.382812 48.378906 37.550781 47.722656 37.609375 47.066406 C 37.585938 46.851562 37.675781 46.660156 37.796875 46.484375 C 38.074219 46.085938 38.484375 45.9375 38.941406 45.945312 C 39.628906 45.953125 40.175781 46.824219 39.753906 47.476562 Z M 37.316406 47.363281 C 36.816406 46.75 36.351562 46.179688 35.878906 45.597656 C 35.964844 45.457031 36.042969 45.328125 36.136719 45.175781 C 36.566406 45.691406 36.976562 46.1875 37.386719 46.679688 C 37.363281 46.882812 37.34375 47.09375 37.316406 47.363281 Z M 31.945312 46.523438 C 32.195312 46.5 32.386719 46.558594 32.554688 46.746094 C 32.683594 46.890625 32.796875 47.039062 32.871094 47.222656 C 32.320312 47.285156 31.789062 47.347656 31.257812 47.410156 C 30.953125 47.445312 30.648438 47.488281 30.339844 47.515625 C 30.269531 47.519531 30.164062 47.507812 30.128906 47.460938 C 29.898438 47.179688 29.628906 46.953125 29.296875 46.773438 C 29.386719 46.757812 29.480469 46.742188 29.574219 46.734375 C 30.367188 46.664062 31.15625 46.605469 31.945312 46.523438 Z M 33.011719 47.5 C 33.152344 47.765625 33.195312 48.0625 33.144531 48.394531 C 32.226562 48.433594 31.335938 48.621094 30.421875 48.839844 C 30.421875 48.65625 30.433594 48.484375 30.417969 48.316406 C 30.402344 48.144531 30.355469 47.972656 30.316406 47.789062 C 31.203125 47.695312 32.089844 47.597656 33.011719 47.5 Z M 32.949219 49.121094 C 32.914062 49.1875 32.8125 49.226562 32.730469 49.25 C 32.382812 49.339844 32.03125 49.425781 31.679688 49.503906 C 31.171875 49.609375 30.660156 49.707031 30.152344 49.808594 C 30.09375 49.820312 30.035156 49.824219 29.976562 49.828125 C 30.117188 49.574219 30.25 49.332031 30.402344 49.058594 C 31.261719 48.925781 32.152344 48.785156 33.070312 48.644531 C 33.082031 48.84375 33.023438 48.992188 32.949219 49.121094 Z M 29.703125 49.539062 C 29.425781 49.902344 29.085938 50.015625 28.652344 49.851562 C 28.203125 49.679688 27.878906 49.382812 27.746094 48.898438 C 27.625 48.464844 27.597656 48.035156 27.777344 47.613281 C 27.890625 47.34375 28.066406 47.136719 28.34375 47.015625 C 28.667969 46.875 28.976562 46.941406 29.25 47.113281 C 29.75 47.425781 30.039062 47.882812 30.054688 48.472656 C 30.039062 48.871094 29.945312 49.226562 29.703125 49.539062 Z M 22.0625 45.523438 C 22.050781 45.539062 22.042969 45.550781 22.035156 45.5625 C 21.882812 45.507812 21.730469 45.449219 21.566406 45.390625 C 21.601562 45.308594 21.632812 45.238281 21.667969 45.167969 C 21.691406 45.125 21.714844 45.078125 21.761719 44.996094 C 21.871094 45.191406 21.964844 45.359375 22.0625 45.523438 Z M 22.367188 46.910156 C 22.367188 47.65625 21.714844 48.367188 21.03125 48.347656 C 20.1875 48.320312 19.585938 47.621094 19.601562 46.972656 C 19.613281 46.339844 20.140625 45.617188 21.003906 45.621094 C 21.753906 45.625 22.367188 46.207031 22.367188 46.910156 Z M 18.699219 44.175781 C 18.820312 44.089844 18.953125 44 19.09375 43.902344 C 19.308594 44.574219 19.511719 45.222656 19.730469 45.90625 C 19.625 46.054688 19.503906 46.222656 19.367188 46.410156 C 19.140625 45.660156 18.925781 44.933594 18.699219 44.175781 Z M 20.09375 43.523438 C 20.269531 44.128906 20.445312 44.738281 20.625 45.359375 C 20.402344 45.464844 20.179688 45.574219 19.949219 45.683594 C 19.738281 45.054688 19.527344 44.425781 19.316406 43.792969 C 19.542969 43.636719 19.792969 43.566406 20.09375 43.523438 Z M 21.082031 43.671875 C 21.113281 43.679688 21.136719 43.710938 21.15625 43.738281 C 21.175781 43.765625 21.1875 43.800781 21.199219 43.832031 C 21.285156 44.03125 21.433594 44.230469 21.441406 44.433594 C 21.453125 44.636719 21.328125 44.847656 21.261719 45.050781 C 21.230469 45.144531 21.203125 45.234375 21.171875 45.339844 C 21.089844 45.339844 21.007812 45.339844 20.949219 45.339844 C 20.730469 44.730469 20.515625 44.136719 20.292969 43.527344 C 20.585938 43.496094 20.832031 43.601562 21.082031 43.671875 Z M 16.445312 44.789062 C 16.695312 44.765625 16.890625 44.808594 17.0625 45 C 17.191406 45.144531 17.300781 45.296875 17.386719 45.480469 C 16.605469 45.574219 15.851562 45.664062 15.101562 45.753906 C 14.996094 45.765625 14.890625 45.78125 14.785156 45.78125 C 14.730469 45.777344 14.660156 45.753906 14.628906 45.714844 C 14.40625 45.425781 14.125 45.210938 13.734375 45.042969 C 13.898438 45.019531 14.003906 45.003906 14.105469 44.992188 C 14.886719 44.925781 15.667969 44.867188 16.445312 44.789062 Z M 17.523438 45.761719 C 17.671875 46.023438 17.691406 46.324219 17.648438 46.65625 C 16.730469 46.695312 15.835938 46.890625 14.960938 47.09375 C 14.925781 46.734375 14.894531 46.402344 14.859375 46.046875 C 15.71875 45.953125 16.613281 45.859375 17.523438 45.761719 Z M 17.589844 46.992188 C 17.5625 47.332031 17.386719 47.511719 17.039062 47.574219 C 16.214844 47.730469 15.402344 47.917969 14.582031 48.089844 C 14.558594 48.09375 14.53125 48.089844 14.488281 48.089844 C 14.628906 47.832031 14.765625 47.585938 14.910156 47.320312 C 15.78125 47.210938 16.664062 47 17.585938 46.929688 C 17.589844 46.972656 17.589844 46.984375 17.589844 46.992188 Z M 14.066406 47.972656 C 13.921875 48.121094 13.746094 48.183594 13.539062 48.175781 C 13.046875 48.152344 12.648438 47.929688 12.410156 47.507812 C 12.121094 46.992188 12.054688 46.429688 12.296875 45.863281 C 12.402344 45.609375 12.566406 45.414062 12.816406 45.292969 C 13.15625 45.128906 13.484375 45.195312 13.773438 45.382812 C 14.796875 46.03125 14.757812 47.265625 14.066406 47.972656 Z M 54.058594 32.410156 C 53.960938 31.894531 53.804688 31.390625 53.488281 30.953125 C 53.4375 30.878906 53.410156 30.8125 53.441406 30.710938 C 53.710938 29.882812 53.765625 29.027344 53.742188 28.164062 C 53.714844 27.160156 53.550781 26.171875 53.332031 25.195312 C 53.148438 24.363281 52.90625 23.546875 52.488281 22.796875 C 52.007812 21.921875 51.355469 21.214844 50.46875 20.726562 C 49.988281 20.464844 49.488281 20.34375 48.941406 20.480469 C 48.917969 20.484375 48.890625 20.476562 48.835938 20.472656 C 48.835938 20.332031 48.839844 20.191406 48.832031 20.054688 C 48.828125 19.914062 48.8125 19.773438 48.800781 19.632812 C 48.652344 17.824219 47.867188 16.328125 46.542969 15.097656 C 45.71875 14.335938 44.746094 13.804688 43.6875 13.425781 C 43.601562 13.394531 43.511719 13.355469 43.4375 13.328125 C 43.453125 12.988281 43.480469 12.675781 43.484375 12.359375 C 43.496094 11.527344 43.425781 10.695312 43.324219 9.867188 C 43.242188 9.226562 43.140625 8.585938 42.949219 7.964844 C 42.925781 7.890625 42.855469 7.820312 42.789062 7.773438 C 42.726562 7.730469 42.640625 7.71875 42.5625 7.699219 C 41.085938 7.328125 39.59375 7.027344 38.085938 6.78125 C 36.398438 6.5 34.699219 6.300781 32.992188 6.171875 C 31.011719 6.023438 29.027344 5.953125 27.042969 6.035156 C 26.0625 6.074219 25.085938 6.128906 24.109375 6.207031 C 23.300781 6.273438 22.496094 6.382812 21.691406 6.480469 C 20.449219 6.625 19.207031 6.796875 17.992188 7.105469 C 17.316406 7.273438 16.648438 7.460938 15.996094 7.707031 C 15.707031 7.816406 15.550781 7.996094 15.472656 8.273438 C 15.226562 9.144531 14.949219 10.003906 14.734375 10.878906 C 14.507812 11.816406 14.339844 12.765625 14.152344 13.714844 C 14.128906 13.828125 14.066406 13.871094 13.984375 13.921875 C 13.671875 14.105469 13.351562 14.277344 13.058594 14.484375 C 11.289062 15.738281 10.234375 17.421875 10.019531 19.589844 C 9.992188 19.886719 9.980469 20.183594 9.960938 20.488281 C 9.839844 20.46875 9.738281 20.453125 9.632812 20.4375 C 9.136719 20.367188 8.691406 20.527344 8.273438 20.769531 C 7.351562 21.300781 6.6875 22.070312 6.214844 23.011719 C 5.835938 23.773438 5.613281 24.585938 5.441406 25.410156 C 5.101562 27.019531 4.90625 28.632812 5.25 30.265625 C 5.277344 30.390625 5.242188 30.476562 5.152344 30.570312 C 4.886719 30.839844 4.695312 31.15625 4.652344 31.535156 C 4.582031 32.164062 4.621094 32.792969 4.867188 33.375 C 5.109375 33.9375 5.535156 34.320312 6.207031 34.320312 C 6.308594 34.320312 6.414062 34.335938 6.535156 34.34375 C 6.535156 34.476562 6.527344 34.601562 6.535156 34.71875 C 6.589844 35.558594 6.628906 36.402344 6.710938 37.238281 C 6.761719 37.742188 6.851562 38.246094 6.960938 38.742188 C 7.109375 39.414062 7.496094 39.925781 8.140625 40.203125 C 8.496094 40.351562 8.871094 40.464844 9.242188 40.558594 C 9.8125 40.703125 10.398438 40.699219 10.980469 40.707031 C 11.875 40.71875 12.757812 40.636719 13.625 40.414062 C 14.277344 40.246094 14.675781 39.839844 14.855469 39.203125 C 15.125 38.257812 15.21875 37.292969 15.257812 36.316406 C 15.28125 35.746094 15.261719 35.175781 15.261719 34.605469 C 15.261719 34.53125 15.273438 34.453125 15.277344 34.390625 C 18.773438 34.390625 22.25 34.390625 25.769531 34.390625 C 25.707031 34.484375 25.671875 34.535156 25.636719 34.582031 C 25.03125 35.347656 24.433594 36.117188 23.820312 36.878906 C 23.277344 37.558594 22.671875 38.183594 22.039062 38.789062 C 21.0625 39.722656 19.984375 40.527344 18.898438 41.328125 C 17.8125 42.121094 16.800781 42.988281 15.980469 44.058594 C 15.863281 44.210938 15.757812 44.402344 15.597656 44.488281 C 15.441406 44.570312 15.21875 44.539062 15.027344 44.574219 C 14.351562 44.6875 13.671875 44.789062 13 44.9375 C 12.472656 45.054688 12.136719 45.402344 11.976562 45.929688 C 11.824219 46.433594 11.894531 46.914062 12.035156 47.402344 C 12.203125 47.984375 12.988281 48.558594 13.648438 48.507812 C 13.886719 48.492188 14.125 48.476562 14.359375 48.433594 C 15.0625 48.308594 15.761719 48.171875 16.460938 48.035156 C 16.78125 47.96875 17.101562 47.902344 17.414062 47.8125 C 17.539062 47.773438 17.695312 47.695312 17.753906 47.585938 C 17.992188 47.152344 18.140625 46.675781 18.097656 46.175781 C 18.039062 45.527344 17.691406 45.027344 17.1875 44.628906 C 17 44.484375 16.78125 44.425781 16.539062 44.449219 C 16.441406 44.460938 16.335938 44.484375 16.226562 44.417969 C 16.421875 44.214844 16.601562 44.023438 16.789062 43.839844 C 17.230469 43.40625 17.648438 42.949219 18.121094 42.558594 C 18.871094 41.949219 19.664062 41.386719 20.433594 40.800781 C 21.8125 39.753906 23.082031 38.585938 24.183594 37.25 C 24.902344 36.371094 25.59375 35.472656 26.285156 34.574219 C 26.398438 34.429688 26.511719 34.378906 26.683594 34.382812 C 27.0625 34.394531 27.441406 34.386719 27.820312 34.390625 C 27.878906 34.390625 27.933594 34.40625 28.007812 34.417969 C 27.949219 34.515625 27.910156 34.59375 27.859375 34.667969 C 27.527344 35.152344 27.207031 35.648438 26.855469 36.117188 C 25.851562 37.457031 24.824219 38.773438 23.835938 40.117188 C 22.960938 41.304688 22.234375 42.578125 21.664062 43.9375 C 21.648438 43.96875 21.625 43.996094 21.582031 44.058594 C 21.511719 43.90625 21.46875 43.78125 21.40625 43.667969 C 21.355469 43.582031 21.292969 43.476562 21.210938 43.433594 C 20.4375 43.054688 19.363281 43.152344 18.6875 43.898438 C 18.523438 44.082031 18.464844 44.273438 18.535156 44.523438 C 18.6875 45.054688 18.816406 45.59375 18.960938 46.125 C 19.078125 46.574219 19.203125 47.019531 19.335938 47.464844 C 19.613281 48.410156 20.59375 48.828125 21.28125 48.707031 C 22.179688 48.546875 22.855469 47.660156 22.722656 46.761719 C 22.644531 46.246094 22.542969 45.722656 22.273438 45.257812 C 22.179688 45.097656 22.105469 44.929688 22.007812 44.769531 C 21.945312 44.660156 21.941406 44.566406 22 44.453125 C 22.183594 44.074219 22.359375 43.691406 22.542969 43.3125 C 23.304688 41.707031 24.296875 40.25 25.359375 38.832031 C 26.425781 37.414062 27.546875 36.035156 28.480469 34.519531 C 28.546875 34.410156 28.628906 34.386719 28.742188 34.390625 C 29.324219 34.394531 29.910156 34.390625 30.492188 34.394531 C 30.550781 34.394531 30.609375 34.402344 30.679688 34.410156 C 30.671875 34.480469 30.667969 34.542969 30.652344 34.601562 C 30.511719 35.164062 30.386719 35.726562 30.226562 36.285156 C 29.78125 37.816406 29.351562 39.351562 29.175781 40.949219 C 29.054688 42.042969 29.085938 43.117188 29.332031 44.191406 C 29.488281 44.863281 29.792969 45.476562 30.0625 46.105469 C 30.097656 46.179688 30.128906 46.257812 30.164062 46.347656 C 30.011719 46.371094 29.890625 46.386719 29.769531 46.410156 C 29.339844 46.496094 28.902344 46.566406 28.476562 46.679688 C 27.949219 46.8125 27.613281 47.15625 27.460938 47.683594 C 27.3125 48.183594 27.382812 48.667969 27.527344 49.15625 C 27.699219 49.71875 28.46875 50.292969 29.128906 50.246094 C 29.375 50.230469 29.621094 50.214844 29.863281 50.171875 C 30.554688 50.046875 31.25 49.914062 31.9375 49.773438 C 32.265625 49.710938 32.59375 49.632812 32.917969 49.550781 C 33.117188 49.5 33.261719 49.382812 33.324219 49.175781 C 33.378906 49 33.453125 48.828125 33.5 48.652344 C 33.734375 47.773438 33.421875 46.90625 32.6875 46.375 C 32.5 46.242188 32.296875 46.171875 32.066406 46.1875 C 31.757812 46.207031 31.453125 46.222656 31.144531 46.246094 C 30.941406 46.257812 30.742188 46.28125 30.535156 46.300781 C 30.378906 45.839844 30.21875 45.398438 30.078125 44.945312 C 29.75 43.910156 29.558594 42.851562 29.613281 41.757812 C 29.667969 40.632812 29.867188 39.53125 30.136719 38.4375 C 30.386719 37.425781 30.667969 36.417969 30.925781 35.410156 C 31.007812 35.078125 31.070312 34.746094 31.140625 34.417969 C 31.484375 34.367188 32.652344 34.386719 32.863281 34.449219 C 32.914062 35.21875 32.964844 35.996094 33.011719 36.773438 C 33.066406 37.632812 33.136719 38.488281 33.332031 39.332031 C 33.605469 40.535156 34.035156 41.671875 34.78125 42.664062 C 35.226562 43.261719 35.746094 43.804688 36.230469 44.371094 C 36.292969 44.441406 36.355469 44.511719 36.414062 44.574219 C 36.175781 44.847656 35.929688 45.078125 35.808594 45.402344 C 35.75 45.550781 35.753906 45.675781 35.851562 45.816406 C 36.375 46.582031 36.941406 47.308594 37.59375 47.964844 C 38.277344 48.65625 39.09375 48.5625 39.710938 48.058594 C 40.355469 47.53125 40.328125 46.765625 39.910156 46.253906 C 39.542969 45.804688 39.144531 45.382812 38.75 44.957031 C 38.480469 44.667969 38.195312 44.394531 37.925781 44.105469 C 37.820312 43.992188 37.699219 43.960938 37.566406 44.003906 C 37.300781 44.082031 37.039062 44.175781 36.757812 44.273438 C 36.53125 44.003906 36.28125 43.71875 36.042969 43.425781 C 35.667969 42.960938 35.269531 42.507812 34.9375 42.015625 C 34.050781 40.695312 33.632812 39.207031 33.484375 37.636719 C 33.425781 37 33.390625 36.363281 33.339844 35.722656 C 33.308594 35.296875 33.269531 34.867188 33.226562 34.394531 C 33.335938 34.394531 33.421875 34.394531 33.507812 34.394531 C 34.011719 34.394531 34.515625 34.40625 35.015625 34.386719 C 35.222656 34.378906 35.339844 34.445312 35.425781 34.628906 C 35.800781 35.414062 36.191406 36.191406 36.566406 36.976562 C 36.90625 37.691406 37.273438 38.386719 37.734375 39.035156 C 38.519531 40.140625 39.503906 41.035156 40.601562 41.816406 C 41.691406 42.597656 42.859375 43.253906 44.070312 43.832031 C 44.125 43.859375 44.175781 43.898438 44.269531 43.957031 C 44.066406 44.003906 43.90625 44.023438 43.761719 44.082031 C 43.601562 44.144531 43.417969 44.207031 43.308594 44.328125 C 42.851562 44.824219 42.652344 45.421875 42.738281 46.097656 C 42.789062 46.496094 43.015625 46.828125 43.222656 47.164062 C 43.410156 47.464844 43.664062 47.578125 44 47.554688 C 44.046875 47.550781 44.089844 47.554688 44.132812 47.550781 C 44.671875 47.523438 45.210938 47.511719 45.746094 47.464844 C 46.359375 47.410156 46.976562 47.351562 47.582031 47.25 C 48.269531 47.132812 48.707031 46.675781 48.867188 46.03125 C 49.035156 45.367188 48.90625 44.714844 48.476562 44.160156 C 48.273438 43.894531 48.015625 43.691406 47.664062 43.667969 C 47.367188 43.648438 47.066406 43.625 46.773438 43.644531 C 46.324219 43.671875 45.875 43.71875 45.429688 43.785156 C 45.1875 43.820312 44.976562 43.785156 44.773438 43.667969 C 44.710938 43.632812 44.644531 43.605469 44.585938 43.566406 C 43.734375 43.070312 42.875 42.585938 42.035156 42.070312 C 41.511719 41.746094 41.003906 41.394531 40.511719 41.023438 C 39.117188 39.96875 38.03125 38.664062 37.269531 37.089844 C 36.859375 36.246094 36.425781 35.410156 36.003906 34.574219 C 35.976562 34.523438 35.957031 34.46875 35.9375 34.417969 C 38.527344 34.417969 41.101562 34.417969 43.683594 34.417969 C 43.691406 34.492188 43.699219 34.546875 43.699219 34.597656 C 43.691406 34.9375 43.660156 35.28125 43.675781 35.621094 C 43.714844 36.402344 43.753906 37.183594 43.832031 37.957031 C 43.886719 38.480469 43.992188 39 44.1875 39.492188 C 44.363281 39.925781 44.667969 40.226562 45.113281 40.371094 C 45.355469 40.449219 45.605469 40.507812 45.855469 40.5625 C 46.761719 40.746094 47.679688 40.742188 48.597656 40.71875 C 49.296875 40.699219 49.980469 40.578125 50.636719 40.316406 C 51.414062 40 51.863281 39.4375 52.027344 38.621094 C 52.230469 37.605469 52.320312 36.578125 52.382812 35.542969 C 52.402344 35.210938 52.414062 34.878906 52.429688 34.527344 C 52.550781 34.519531 52.65625 34.503906 52.757812 34.507812 C 53.246094 34.53125 53.59375 34.296875 53.808594 33.890625 C 54.054688 33.429688 54.160156 32.929688 54.058594 32.410156 " fill-opacity="1" fill-rule="nonzero"/></g><path fill="#0e6655" d="M 36.894531 27.539062 C 36.722656 27.566406 36.546875 27.621094 36.34375 27.519531 C 36.34375 27.269531 36.335938 27.011719 36.347656 26.75 C 36.355469 26.480469 36.382812 26.207031 36.40625 25.9375 C 36.453125 25.421875 36.464844 24.90625 36.371094 24.386719 C 37.105469 24.039062 37.8125 23.660156 38.589844 23.445312 C 38.84375 23.375 39.09375 23.292969 39.34375 23.214844 C 39.5625 23.144531 39.617188 23.066406 39.566406 22.84375 C 39.523438 22.65625 39.464844 22.472656 39.414062 22.285156 C 39.402344 22.246094 39.398438 22.207031 39.390625 22.152344 C 40.164062 22.253906 40.898438 22.101562 41.628906 21.941406 C 42.375 21.78125 43.117188 21.585938 43.859375 21.40625 C 44.011719 21.367188 44.160156 21.320312 44.335938 21.3125 C 44.257812 21.402344 44.183594 21.496094 44.105469 21.585938 C 43.648438 22.089844 43.179688 22.578125 42.742188 23.09375 C 42.515625 23.359375 42.335938 23.664062 42.140625 23.957031 C 42.09375 24.027344 42.0625 24.113281 42.039062 24.195312 C 41.960938 24.460938 42.039062 24.664062 42.273438 24.804688 C 42.402344 24.882812 42.539062 24.945312 42.671875 25.007812 C 43.136719 25.226562 43.597656 25.441406 44.0625 25.65625 C 44.132812 25.6875 44.199219 25.726562 44.265625 25.765625 C 44.265625 25.785156 44.265625 25.804688 44.265625 25.820312 C 43.652344 26.011719 43.039062 26.203125 42.425781 26.386719 C 41.242188 26.742188 40.035156 26.992188 38.820312 27.207031 C 38.179688 27.320312 37.535156 27.433594 36.894531 27.539062 Z M 34.882812 23.457031 C 33.886719 23.644531 32.882812 23.652344 31.878906 23.511719 C 30.816406 23.363281 29.757812 23.167969 28.699219 22.988281 C 27.4375 22.773438 26.171875 22.59375 24.886719 22.613281 C 23.632812 22.632812 22.382812 22.722656 21.160156 23.019531 C 20.683594 23.132812 20.21875 23.300781 19.722656 23.453125 C 19.769531 22.726562 19.84375 22.019531 20.003906 21.328125 C 20.246094 20.265625 20.632812 19.246094 20.957031 18.210938 C 21.0625 17.871094 21.246094 17.710938 21.574219 17.589844 C 22.867188 17.121094 24.207031 16.878906 25.5625 16.695312 C 26.699219 16.542969 27.839844 16.433594 28.992188 16.484375 C 29.9375 16.523438 30.867188 16.6875 31.773438 16.945312 C 33.277344 17.371094 34.804688 17.515625 36.355469 17.371094 C 36.90625 17.320312 37.457031 17.222656 38.003906 17.144531 C 38.0625 17.136719 38.121094 17.132812 38.191406 17.125 C 38.347656 19.027344 38.617188 20.894531 39.148438 22.742188 C 39.070312 22.75 39.007812 22.761719 38.941406 22.761719 C 38.398438 22.746094 37.871094 22.828125 37.34375 22.945312 C 36.527344 23.128906 35.707031 23.300781 34.882812 23.457031 Z M 20.949219 26.878906 C 19.503906 27.289062 16.304688 27.371094 15.511719 27.007812 C 15.582031 26.933594 15.648438 26.871094 15.710938 26.804688 C 16.035156 26.46875 16.371094 26.144531 16.675781 25.796875 C 16.808594 25.648438 16.898438 25.460938 16.96875 25.273438 C 17.070312 25.011719 16.996094 24.785156 16.761719 24.628906 C 16.578125 24.511719 16.375 24.417969 16.171875 24.339844 C 15.59375 24.113281 14.992188 23.988281 14.375 23.890625 C 16.117188 23.40625 17.800781 22.777344 19.453125 21.957031 C 19.425781 22.195312 19.390625 22.40625 19.375 22.621094 C 19.355469 22.976562 19.328125 23.335938 19.34375 23.691406 C 19.351562 23.941406 19.390625 23.925781 19.640625 23.945312 C 20.128906 23.984375 20.625 23.914062 21.140625 24.050781 C 20.867188 24.984375 20.898438 25.9375 20.949219 26.878906 Z M 44.394531 26.191406 C 44.550781 26.140625 44.703125 26.066406 44.847656 25.984375 C 45.007812 25.894531 45.027344 25.730469 44.902344 25.613281 C 44.824219 25.542969 44.726562 25.492188 44.632812 25.449219 C 44 25.160156 43.363281 24.878906 42.726562 24.597656 C 42.335938 24.425781 42.320312 24.378906 42.519531 23.992188 C 42.714844 23.605469 43.007812 23.289062 43.296875 22.96875 C 43.675781 22.542969 44.050781 22.109375 44.417969 21.671875 C 44.511719 21.558594 44.589844 21.425781 44.660156 21.296875 C 44.777344 21.074219 44.710938 20.945312 44.457031 20.917969 C 44.328125 20.90625 44.1875 20.910156 44.0625 20.941406 C 43.59375 21.050781 43.125 21.1875 42.652344 21.292969 C 41.804688 21.484375 40.953125 21.675781 40.097656 21.839844 C 39.851562 21.886719 39.589844 21.847656 39.320312 21.847656 C 39.296875 21.765625 39.269531 21.695312 39.253906 21.617188 C 39.042969 20.550781 38.847656 19.484375 38.769531 18.394531 C 38.738281 17.953125 38.65625 17.511719 38.574219 17.070312 C 38.519531 16.792969 38.429688 16.738281 38.148438 16.746094 C 37.726562 16.765625 37.300781 16.773438 36.882812 16.820312 C 35.144531 17.011719 33.433594 16.902344 31.746094 16.421875 C 30.769531 16.144531 29.769531 15.980469 28.746094 15.957031 C 28.023438 15.945312 27.300781 15.984375 26.582031 16.058594 C 25.511719 16.175781 24.449219 16.335938 23.410156 16.625 C 22.652344 16.832031 21.90625 17.066406 21.152344 17.289062 C 20.953125 17.347656 20.828125 17.476562 20.753906 17.671875 C 20.3125 18.902344 19.84375 20.125 19.570312 21.40625 C 19.546875 21.527344 19.488281 21.585938 19.375 21.625 C 19.160156 21.695312 18.945312 21.773438 18.730469 21.859375 C 17.511719 22.34375 16.292969 22.824219 15.042969 23.226562 C 14.65625 23.347656 14.28125 23.503906 13.90625 23.652344 C 13.808594 23.6875 13.710938 23.742188 13.632812 23.808594 C 13.503906 23.914062 13.542969 24.085938 13.699219 24.140625 C 13.773438 24.164062 13.855469 24.164062 13.929688 24.175781 C 14.085938 24.203125 14.246094 24.214844 14.398438 24.261719 C 14.839844 24.386719 15.277344 24.519531 15.710938 24.664062 C 15.960938 24.746094 16.207031 24.84375 16.453125 24.945312 C 16.625 25.019531 16.65625 25.085938 16.566406 25.253906 C 16.480469 25.421875 16.375 25.59375 16.246094 25.730469 C 15.929688 26.074219 15.59375 26.394531 15.265625 26.726562 C 15.191406 26.804688 15.117188 26.882812 15.0625 26.96875 C 14.976562 27.109375 15.003906 27.222656 15.144531 27.304688 C 15.25 27.363281 15.371094 27.40625 15.488281 27.4375 C 15.984375 27.566406 16.488281 27.636719 17 27.667969 C 18.429688 27.757812 19.835938 27.609375 21.238281 27.355469 C 21.488281 27.3125 21.484375 27.304688 21.476562 27.046875 C 21.46875 26.707031 21.4375 26.363281 21.457031 26.023438 C 21.511719 25.109375 21.695312 24.21875 22.050781 23.34375 C 22.925781 23.1875 23.804688 23.128906 24.6875 23.136719 C 26.023438 23.144531 27.34375 23.328125 28.652344 23.570312 C 29.796875 23.785156 30.933594 24.039062 32.09375 24.148438 C 33 24.238281 33.90625 24.234375 34.808594 24.09375 C 35.175781 24.035156 35.535156 23.960938 35.921875 23.890625 C 35.9375 24.015625 35.960938 24.136719 35.972656 24.253906 C 36.058594 25.144531 35.945312 26.023438 35.898438 26.910156 C 35.886719 27.140625 35.910156 27.382812 35.964844 27.609375 C 36.023438 27.871094 36.179688 27.96875 36.449219 27.972656 C 36.605469 27.972656 36.765625 27.957031 36.921875 27.933594 C 37.46875 27.847656 38.015625 27.742188 38.5625 27.660156 C 39.828125 27.472656 41.085938 27.253906 42.308594 26.867188 C 43.003906 26.648438 43.699219 26.421875 44.394531 26.191406 " fill-opacity="1" fill-rule="nonzero"/><path fill="#0e6655" d="M 10.707031 37.054688 C 10.679688 36.996094 10.597656 36.933594 10.535156 36.925781 C 10.492188 36.917969 10.410156 36.992188 10.390625 37.046875 C 10.234375 37.5 10.277344 37.945312 10.484375 38.371094 C 10.511719 38.425781 10.609375 38.480469 10.671875 38.484375 C 10.773438 38.484375 10.816406 38.394531 10.820312 38.296875 C 10.824219 38.160156 10.820312 38.019531 10.820312 37.878906 C 10.847656 37.59375 10.820312 37.316406 10.707031 37.054688 " fill-opacity="1" fill-rule="nonzero"/><path fill="#0e6655" d="M 12.84375 36.8125 C 12.777344 36.828125 12.695312 36.890625 12.675781 36.949219 C 12.617188 37.132812 12.585938 37.320312 12.546875 37.484375 C 12.574219 37.660156 12.59375 37.808594 12.625 37.953125 C 12.648438 38.058594 12.722656 38.121094 12.828125 38.128906 C 12.9375 38.136719 13.019531 38.078125 13.050781 37.976562 C 13.160156 37.632812 13.160156 37.289062 13.035156 36.949219 C 13.003906 36.859375 12.941406 36.78125 12.84375 36.8125 " fill-opacity="1" fill-rule="nonzero"/><path fill="#0e6655" d="M 8.292969 36.730469 C 8.246094 36.726562 8.171875 36.800781 8.15625 36.855469 C 8.050781 37.257812 8.046875 37.664062 8.167969 38.070312 C 8.199219 38.171875 8.261719 38.246094 8.375 38.230469 C 8.488281 38.214844 8.527344 38.121094 8.535156 38.019531 C 8.542969 37.90625 8.546875 37.792969 8.554688 37.679688 C 8.566406 37.675781 8.578125 37.675781 8.585938 37.671875 C 8.539062 37.398438 8.496094 37.125 8.433594 36.851562 C 8.421875 36.800781 8.34375 36.730469 8.292969 36.730469 " fill-opacity="1" fill-rule="nonzero"/><path fill="#0e6655" d="M 48.523438 37 C 48.464844 36.914062 48.363281 36.910156 48.300781 36.992188 C 48.257812 37.042969 48.222656 37.109375 48.207031 37.175781 C 48.160156 37.425781 48.121094 37.675781 48.082031 37.921875 C 48.089844 37.925781 48.097656 37.925781 48.105469 37.929688 C 48.117188 38.078125 48.125 38.226562 48.148438 38.375 C 48.15625 38.421875 48.214844 38.492188 48.253906 38.5 C 48.3125 38.507812 48.386719 38.472656 48.4375 38.4375 C 48.476562 38.410156 48.5 38.351562 48.519531 38.304688 C 48.65625 37.949219 48.675781 37.585938 48.609375 37.21875 C 48.597656 37.140625 48.566406 37.0625 48.523438 37 " fill-opacity="1" fill-rule="nonzero"/><path fill="#0e6655" d="M 46.09375 36.832031 C 46.023438 36.855469 45.9375 36.925781 45.914062 36.992188 C 45.859375 37.15625 45.835938 37.332031 45.804688 37.492188 C 45.832031 37.664062 45.851562 37.820312 45.890625 37.972656 C 45.914062 38.085938 45.996094 38.15625 46.117188 38.152344 C 46.226562 38.148438 46.304688 38.082031 46.328125 37.984375 C 46.417969 37.644531 46.410156 37.308594 46.285156 36.976562 C 46.25 36.894531 46.195312 36.800781 46.09375 36.832031 " fill-opacity="1" fill-rule="nonzero"/><path fill="#0e6655" d="M 50.660156 36.746094 C 50.605469 36.800781 50.546875 36.847656 50.5 36.902344 C 50.480469 36.929688 50.484375 36.96875 50.476562 37.003906 C 50.390625 37.347656 50.371094 37.691406 50.421875 38.039062 C 50.4375 38.140625 50.453125 38.234375 50.574219 38.25 C 50.703125 38.265625 50.769531 38.183594 50.792969 38.070312 C 50.828125 37.875 50.855469 37.675781 50.882812 37.484375 C 50.855469 37.285156 50.839844 37.09375 50.800781 36.90625 C 50.785156 36.847656 50.707031 36.800781 50.660156 36.746094 " fill-opacity="1" fill-rule="nonzero"/><path fill="#0e6655" d="M 10.765625 25.355469 C 11.652344 25.355469 12.359375 26.074219 12.355469 26.976562 C 12.355469 27.859375 11.648438 28.558594 10.757812 28.558594 C 9.871094 28.554688 9.140625 27.820312 9.152344 26.9375 C 9.164062 26.066406 9.886719 25.351562 10.765625 25.355469 Z M 10.789062 28.835938 C 11.816406 28.839844 12.664062 28.007812 12.675781 26.984375 C 12.683594 25.980469 11.828125 25.128906 10.800781 25.128906 C 9.769531 25.125 8.925781 25.957031 8.925781 26.980469 C 8.925781 28.011719 9.746094 28.832031 10.789062 28.835938 " fill-opacity="1" fill-rule="nonzero"/><path fill="#0e6655" d="M 47.890625 25.355469 C 48.78125 25.363281 49.480469 26.078125 49.476562 26.984375 C 49.472656 27.867188 48.757812 28.5625 47.867188 28.558594 C 46.992188 28.550781 46.277344 27.832031 46.273438 26.957031 C 46.269531 26.082031 47.007812 25.347656 47.890625 25.355469 Z M 47.910156 28.835938 C 48.9375 28.835938 49.785156 28.003906 49.792969 26.984375 C 49.804688 25.976562 48.945312 25.128906 47.917969 25.128906 C 46.886719 25.125 46.046875 25.957031 46.042969 26.980469 C 46.042969 28.011719 46.867188 28.832031 47.910156 28.835938 " fill-opacity="1" fill-rule="nonzero"/><path fill="#0e6655" d="M 29.171875 48.972656 C 28.984375 49.160156 28.71875 49.152344 28.542969 48.957031 C 28.238281 48.625 28.257812 48.054688 28.582031 47.746094 C 28.839844 47.5 29.144531 47.5625 29.277344 47.886719 C 29.304688 47.960938 29.332031 48.035156 29.347656 48.109375 C 29.367188 48.195312 29.371094 48.285156 29.375 48.335938 C 29.382812 48.597656 29.339844 48.804688 29.171875 48.972656 Z M 29.496094 47.625 C 29.214844 47.246094 28.695312 47.242188 28.390625 47.597656 C 28.023438 48.027344 27.992188 48.5 28.195312 48.996094 C 28.410156 49.511719 29.007812 49.625 29.414062 49.242188 C 29.648438 49.015625 29.746094 48.734375 29.742188 48.414062 C 29.742188 48.125 29.671875 47.855469 29.496094 47.625 " fill-opacity="1" fill-rule="nonzero"/><path fill="#0e6655" d="M 13.695312 47.21875 C 13.507812 47.421875 13.230469 47.417969 13.050781 47.214844 C 12.746094 46.871094 12.769531 46.308594 13.101562 46 C 13.359375 45.761719 13.65625 45.824219 13.789062 46.15625 C 13.824219 46.246094 13.855469 46.339844 13.875 46.429688 C 13.890625 46.507812 13.890625 46.585938 13.894531 46.625 C 13.894531 46.875 13.84375 47.0625 13.695312 47.21875 Z M 13.992188 45.867188 C 13.710938 45.507812 13.195312 45.511719 12.902344 45.859375 C 12.550781 46.277344 12.496094 46.738281 12.695312 47.234375 C 12.914062 47.785156 13.550781 47.898438 13.960938 47.46875 C 14.171875 47.246094 14.253906 46.972656 14.261719 46.648438 C 14.25 46.378906 14.179688 46.101562 13.992188 45.867188 " fill-opacity="1" fill-rule="nonzero"/><path fill="#0e6655" d="M 46.902344 44.972656 C 46.953125 44.652344 47.214844 44.527344 47.511719 44.671875 C 47.820312 44.828125 47.953125 45.0625 47.964844 45.441406 C 47.949219 45.554688 47.949219 45.671875 47.914062 45.777344 C 47.8125 46.085938 47.5 46.1875 47.242188 45.992188 C 47.144531 45.917969 47.0625 45.820312 47.007812 45.714844 C 46.886719 45.484375 46.859375 45.230469 46.902344 44.972656 Z M 46.621094 45.75 C 46.722656 46.023438 46.894531 46.238281 47.164062 46.367188 C 47.617188 46.582031 48.09375 46.363281 48.214844 45.875 C 48.238281 45.785156 48.242188 45.6875 48.257812 45.59375 C 48.273438 45.070312 48.019531 44.703125 47.59375 44.441406 C 47.496094 44.382812 47.363281 44.339844 47.25 44.347656 C 46.90625 44.367188 46.644531 44.613281 46.570312 44.949219 C 46.511719 45.21875 46.523438 45.488281 46.621094 45.75 " fill-opacity="1" fill-rule="nonzero"/><path fill="#0e6655" d="M 21.125 47.75 C 20.644531 47.832031 20.25 47.5 20.257812 46.964844 C 20.304688 46.695312 20.316406 46.367188 20.625 46.152344 C 21.058594 45.851562 21.636719 46.035156 21.800781 46.539062 C 21.976562 47.089844 21.660156 47.65625 21.125 47.75 Z M 20.964844 45.785156 C 20.839844 45.796875 20.707031 45.847656 20.601562 45.914062 C 20.28125 46.125 20.140625 46.449219 20.070312 46.816406 C 19.996094 47.214844 20.140625 47.660156 20.464844 47.859375 C 20.816406 48.074219 21.1875 48.050781 21.542969 47.851562 C 21.9375 47.628906 22.050781 47.253906 22.0625 46.734375 C 22.105469 46.121094 21.539062 45.726562 20.964844 45.785156 " fill-opacity="1" fill-rule="nonzero"/><path fill="#0e6655" d="M 39.15625 46.347656 C 39.355469 46.453125 39.425781 46.636719 39.421875 46.855469 C 39.417969 47.167969 39.019531 47.601562 38.703125 47.621094 C 38.613281 47.625 38.503906 47.597656 38.4375 47.539062 C 38.03125 47.195312 38.078125 46.652344 38.5 46.359375 C 38.6875 46.226562 38.941406 46.238281 39.15625 46.347656 Z M 37.945312 47.011719 C 38 47.183594 38.035156 47.367188 38.117188 47.527344 C 38.234375 47.757812 38.441406 47.894531 38.71875 47.871094 C 39.09375 47.835938 39.507812 47.472656 39.605469 47.105469 C 39.722656 46.675781 39.496094 46.230469 39.101562 46.152344 C 38.96875 46.125 38.824219 46.152344 38.6875 46.171875 C 38.230469 46.25 37.980469 46.542969 37.945312 47.011719 " fill-opacity="1" fill-rule="nonzero"/><path fill="#0e6655" d="M 25.359375 19.453125 C 25.222656 19.394531 25.097656 19.441406 24.996094 19.539062 C 24.828125 19.707031 24.664062 19.878906 24.503906 20.050781 C 24.429688 20.132812 24.367188 20.222656 24.273438 20.339844 C 24.230469 20.179688 24.199219 20.074219 24.164062 19.964844 C 24.117188 19.816406 24.078125 19.660156 24.003906 19.523438 C 23.886719 19.296875 23.636719 19.300781 23.507812 19.523438 C 23.472656 19.582031 23.449219 19.648438 23.425781 19.714844 C 23.195312 20.347656 22.964844 20.980469 22.734375 21.617188 C 22.714844 21.671875 22.6875 21.730469 22.683594 21.789062 C 22.683594 21.9375 22.820312 22.007812 22.941406 21.925781 C 22.976562 21.902344 23.003906 21.867188 23.035156 21.835938 C 23.292969 21.5625 23.460938 21.238281 23.597656 20.890625 C 23.644531 20.773438 23.695312 20.65625 23.757812 20.507812 C 23.820312 20.675781 23.851562 20.804688 23.910156 20.921875 C 24.023438 21.144531 24.238281 21.164062 24.398438 20.972656 C 24.457031 20.90625 24.496094 20.828125 24.550781 20.757812 C 24.679688 20.585938 24.808594 20.414062 24.941406 20.242188 C 24.953125 20.253906 24.96875 20.265625 24.980469 20.277344 C 24.945312 20.605469 24.890625 20.933594 24.871094 21.265625 C 24.863281 21.425781 24.902344 21.59375 24.941406 21.753906 C 24.96875 21.847656 25.046875 21.914062 25.160156 21.910156 C 25.273438 21.910156 25.339844 21.835938 25.367188 21.738281 C 25.402344 21.621094 25.425781 21.5 25.433594 21.378906 C 25.460938 21.003906 25.480469 20.628906 25.503906 20.25 C 25.511719 20.101562 25.527344 19.953125 25.535156 19.804688 C 25.542969 19.65625 25.511719 19.519531 25.359375 19.453125 " fill-opacity="1" fill-rule="nonzero"/><path fill="#0e6655" d="M 36.765625 21.0625 C 36.695312 21.601562 36.394531 21.867188 35.796875 21.890625 C 35.808594 21.367188 35.824219 20.847656 35.839844 20.34375 C 36.402344 20.179688 36.832031 20.53125 36.765625 21.0625 Z M 35.992188 19.863281 C 35.875 19.875 35.761719 19.875 35.601562 19.882812 C 35.578125 19.941406 35.519531 20.03125 35.511719 20.128906 C 35.453125 20.773438 35.402344 21.417969 35.351562 22.0625 C 35.347656 22.113281 35.347656 22.167969 35.359375 22.21875 C 35.394531 22.371094 35.542969 22.441406 35.652344 22.335938 C 35.75 22.238281 35.835938 22.265625 35.9375 22.277344 C 36.03125 22.285156 36.132812 22.289062 36.226562 22.273438 C 36.699219 22.183594 37.023438 21.929688 37.164062 21.460938 C 37.3125 20.960938 37.203125 20.523438 36.832031 20.164062 C 36.597656 19.9375 36.320312 19.828125 35.992188 19.863281 " fill-opacity="1" fill-rule="nonzero"/><path fill="#0e6655" d="M 30.761719 20.402344 C 30.636719 20.488281 30.492188 20.554688 30.324219 20.535156 C 30.324219 20.3125 30.324219 20.097656 30.324219 19.835938 C 30.492188 19.886719 30.621094 19.910156 30.734375 19.964844 C 30.9375 20.066406 30.949219 20.277344 30.761719 20.402344 Z M 31.078125 19.75 C 30.847656 19.5625 30.585938 19.496094 30.289062 19.570312 C 30.019531 19.636719 30.015625 19.628906 29.980469 19.890625 C 29.90625 20.445312 29.824219 21 29.761719 21.554688 C 29.742188 21.71875 29.765625 21.886719 29.800781 22.046875 C 29.8125 22.105469 29.902344 22.167969 29.964844 22.179688 C 30 22.1875 30.082031 22.105469 30.097656 22.050781 C 30.144531 21.882812 30.167969 21.710938 30.203125 21.539062 C 30.214844 21.46875 30.230469 21.402344 30.253906 21.28125 C 30.4375 21.550781 30.585938 21.765625 30.734375 21.980469 C 30.789062 22.058594 30.847656 22.140625 30.917969 22.207031 C 30.992188 22.277344 31.082031 22.300781 31.179688 22.238281 C 31.277344 22.175781 31.304688 22.082031 31.265625 21.984375 C 31.230469 21.886719 31.179688 21.792969 31.113281 21.710938 C 30.910156 21.449219 30.699219 21.191406 30.476562 20.921875 C 30.648438 20.863281 30.816406 20.820312 30.960938 20.746094 C 31.382812 20.535156 31.4375 20.050781 31.078125 19.75 " fill-opacity="1" fill-rule="nonzero"/><path fill="#0e6655" d="M 28.875 20.277344 C 28.746094 20.355469 28.589844 20.394531 28.402344 20.46875 C 28.425781 20.238281 28.441406 20.0625 28.464844 19.832031 C 28.617188 19.863281 28.746094 19.867188 28.851562 19.914062 C 29.03125 19.996094 29.042969 20.179688 28.875 20.277344 Z M 29.257812 20.382812 C 29.527344 20.023438 29.34375 19.546875 28.898438 19.480469 C 28.753906 19.460938 28.601562 19.515625 28.453125 19.503906 C 28.242188 19.484375 28.171875 19.605469 28.132812 19.773438 C 28.011719 20.292969 27.886719 20.8125 27.777344 21.335938 C 27.746094 21.488281 27.761719 21.648438 27.761719 21.804688 C 27.761719 21.910156 27.800781 22 27.917969 22.015625 C 28.035156 22.03125 28.089844 21.949219 28.125 21.851562 C 28.144531 21.804688 28.164062 21.753906 28.175781 21.703125 C 28.222656 21.5 28.265625 21.300781 28.320312 21.058594 C 28.378906 21.140625 28.417969 21.195312 28.453125 21.25 C 28.636719 21.507812 28.816406 21.769531 29 22.023438 C 29.039062 22.078125 29.09375 22.136719 29.15625 22.160156 C 29.210938 22.183594 29.296875 22.175781 29.347656 22.144531 C 29.378906 22.125 29.382812 22.035156 29.367188 21.984375 C 29.34375 21.902344 29.300781 21.824219 29.25 21.75 C 29.042969 21.4375 28.828125 21.128906 28.605469 20.796875 C 28.859375 20.691406 29.097656 20.59375 29.257812 20.382812 " fill-opacity="1" fill-rule="nonzero"/><path fill="#0e6655" d="M 26.863281 20.480469 C 26.773438 20.480469 26.695312 20.480469 26.605469 20.480469 C 26.632812 20.296875 26.714844 20.164062 26.863281 20.039062 C 26.863281 20.207031 26.863281 20.339844 26.863281 20.480469 Z M 27.277344 19.941406 C 27.265625 19.824219 27.214844 19.703125 27.15625 19.59375 C 27.042969 19.375 26.839844 19.34375 26.660156 19.519531 C 26.585938 19.59375 26.515625 19.671875 26.460938 19.761719 C 26.128906 20.34375 25.871094 20.957031 25.730469 21.609375 C 25.714844 21.6875 25.714844 21.769531 25.734375 21.84375 C 25.746094 21.890625 25.808594 21.957031 25.851562 21.960938 C 25.910156 21.964844 25.992188 21.929688 26.023438 21.882812 C 26.074219 21.792969 26.097656 21.6875 26.128906 21.589844 C 26.222656 21.328125 26.3125 21.0625 26.402344 20.796875 C 26.574219 20.816406 26.714844 20.835938 26.871094 20.859375 C 26.871094 21.101562 26.871094 21.320312 26.875 21.539062 C 26.875 21.617188 26.882812 21.695312 26.902344 21.773438 C 26.929688 21.875 27.003906 21.941406 27.109375 21.945312 C 27.226562 21.949219 27.3125 21.882812 27.34375 21.769531 C 27.367188 21.6875 27.386719 21.597656 27.378906 21.511719 C 27.351562 20.988281 27.320312 20.464844 27.277344 19.941406 " fill-opacity="1" fill-rule="nonzero"/><path fill="#0e6655" d="M 34.679688 19.863281 C 34.398438 19.839844 34.117188 19.816406 33.839844 19.8125 C 33.707031 19.808594 33.605469 19.878906 33.574219 20.023438 C 33.546875 20.167969 33.503906 20.3125 33.484375 20.460938 C 33.449219 20.761719 33.421875 21.066406 33.390625 21.371094 C 33.363281 21.632812 33.328125 21.894531 33.316406 22.15625 C 33.304688 22.390625 33.414062 22.484375 33.648438 22.5 C 33.769531 22.503906 33.894531 22.527344 34.015625 22.519531 C 34.171875 22.511719 34.328125 22.488281 34.480469 22.449219 C 34.589844 22.421875 34.660156 22.332031 34.640625 22.210938 C 34.621094 22.082031 34.523438 22.042969 34.410156 22.039062 C 34.363281 22.039062 34.320312 22.046875 34.277344 22.046875 C 34.125 22.042969 33.96875 22.039062 33.804688 22.035156 C 33.828125 21.75 33.847656 21.496094 33.867188 21.234375 C 34.074219 21.234375 34.265625 21.234375 34.457031 21.234375 C 34.578125 21.230469 34.6875 21.207031 34.714844 21.0625 C 34.738281 20.949219 34.652344 20.855469 34.496094 20.816406 C 34.445312 20.800781 34.390625 20.804688 34.339844 20.792969 C 34.1875 20.769531 34.035156 20.746094 33.875 20.71875 C 33.890625 20.53125 33.902344 20.371094 33.914062 20.195312 C 33.972656 20.191406 34.023438 20.183594 34.074219 20.183594 C 34.269531 20.179688 34.464844 20.179688 34.65625 20.171875 C 34.757812 20.171875 34.828125 20.125 34.828125 20.015625 C 34.828125 19.925781 34.769531 19.871094 34.679688 19.863281 " fill-opacity="1" fill-rule="nonzero"/><path fill="#0e6655" d="M 28.128906 17.074219 C 28.132812 17.070312 28.136719 17.066406 28.136719 17.066406 C 28.136719 17.066406 28.136719 17.0625 28.136719 17.0625 C 28.136719 17.0625 28.132812 17.066406 28.128906 17.066406 C 28.128906 17.070312 28.128906 17.070312 28.128906 17.074219 " fill-opacity="1" fill-rule="nonzero"/><path fill="#0e6655" d="M 28.082031 18.1875 C 28.082031 18.296875 28.109375 18.414062 28.144531 18.519531 C 28.25 18.824219 28.527344 18.910156 28.769531 18.699219 C 28.898438 18.589844 29.019531 18.441406 29.078125 18.289062 C 29.179688 18.019531 29.234375 17.734375 29.300781 17.453125 C 29.328125 17.351562 29.34375 17.242188 29.332031 17.140625 C 29.328125 17.078125 29.277344 16.992188 29.21875 16.960938 C 29.136719 16.917969 29.066406 16.984375 29.035156 17.0625 C 28.992188 17.175781 28.960938 17.292969 28.925781 17.410156 C 28.859375 17.636719 28.796875 17.867188 28.722656 18.089844 C 28.695312 18.171875 28.675781 18.300781 28.546875 18.28125 C 28.410156 18.261719 28.425781 18.125 28.421875 18.027344 C 28.414062 17.878906 28.421875 17.726562 28.429688 17.578125 C 28.4375 17.449219 28.457031 17.316406 28.460938 17.1875 C 28.460938 17.082031 28.511719 16.941406 28.359375 16.894531 C 28.21875 16.855469 28.207031 17 28.136719 17.066406 C 28.136719 17.109375 28.136719 17.152344 28.132812 17.195312 C 28.117188 17.527344 28.089844 17.855469 28.082031 18.1875 " fill-opacity="1" fill-rule="nonzero"/><path fill="#0e6655" d="M 29.253906 18.398438 C 29.242188 18.46875 29.253906 18.558594 29.296875 18.617188 C 29.417969 18.789062 29.585938 18.894531 29.8125 18.875 C 30.074219 18.855469 30.304688 18.757812 30.492188 18.570312 C 30.710938 18.351562 30.710938 18.03125 30.484375 17.824219 C 30.386719 17.730469 30.257812 17.664062 30.136719 17.59375 C 30.058594 17.546875 29.976562 17.507812 29.855469 17.445312 C 29.96875 17.359375 30.039062 17.304688 30.125 17.238281 C 30.207031 17.335938 30.269531 17.425781 30.347656 17.488281 C 30.394531 17.527344 30.488281 17.546875 30.53125 17.523438 C 30.578125 17.5 30.621094 17.40625 30.609375 17.351562 C 30.589844 17.265625 30.542969 17.167969 30.480469 17.105469 C 30.230469 16.867188 29.945312 16.890625 29.71875 17.144531 C 29.480469 17.414062 29.523438 17.660156 29.839844 17.832031 C 29.933594 17.878906 30.035156 17.914062 30.121094 17.972656 C 30.289062 18.09375 30.289062 18.277344 30.117188 18.382812 C 30.007812 18.449219 29.875 18.511719 29.753906 18.515625 C 29.675781 18.515625 29.59375 18.40625 29.511719 18.34375 C 29.5 18.332031 29.488281 18.320312 29.472656 18.308594 C 29.378906 18.246094 29.269531 18.28125 29.253906 18.398438 " fill-opacity="1" fill-rule="nonzero"/><path fill="#0e6655" d="M 32.609375 21.703125 C 32.507812 21.769531 32.410156 21.839844 32.269531 21.9375 C 32.246094 21.757812 32.207031 21.625 32.214844 21.492188 C 32.230469 21.195312 32.273438 20.902344 32.300781 20.605469 C 32.3125 20.476562 32.328125 20.34375 32.316406 20.214844 C 32.3125 20.160156 32.246094 20.09375 32.191406 20.070312 C 32.113281 20.039062 32.035156 20.078125 32 20.164062 C 31.960938 20.257812 31.917969 20.359375 31.902344 20.460938 C 31.847656 20.859375 31.796875 21.257812 31.753906 21.65625 C 31.742188 21.757812 31.742188 21.867188 31.761719 21.96875 C 31.832031 22.339844 32.113281 22.480469 32.445312 22.300781 C 32.59375 22.21875 32.722656 22.109375 32.847656 22.003906 C 32.980469 21.886719 33.003906 21.773438 32.933594 21.6875 C 32.859375 21.59375 32.757812 21.597656 32.609375 21.703125 " fill-opacity="1" fill-rule="nonzero"/><path fill="#0e6655" d="M 27.929688 16.847656 C 27.535156 16.875 27.140625 16.921875 26.746094 16.964844 C 26.707031 16.96875 26.664062 16.992188 26.628906 17.015625 C 26.558594 17.070312 26.570312 17.175781 26.65625 17.207031 C 26.710938 17.226562 26.777344 17.226562 26.835938 17.226562 C 26.980469 17.226562 27.125 17.226562 27.304688 17.226562 C 27.230469 17.519531 27.183594 17.78125 27.101562 18.027344 C 27 18.328125 26.882812 18.363281 26.589844 18.234375 C 26.574219 18.226562 26.554688 18.214844 26.539062 18.214844 C 26.492188 18.21875 26.421875 18.214844 26.398438 18.242188 C 26.363281 18.28125 26.339844 18.363281 26.359375 18.40625 C 26.421875 18.539062 26.511719 18.65625 26.671875 18.703125 C 26.929688 18.78125 27.230469 18.679688 27.367188 18.417969 C 27.460938 18.246094 27.515625 18.042969 27.554688 17.851562 C 27.597656 17.640625 27.601562 17.421875 27.625 17.226562 C 27.804688 17.167969 27.96875 17.117188 28.128906 17.066406 C 28.105469 16.871094 28.089844 16.835938 27.929688 16.847656 " fill-opacity="1" fill-rule="nonzero"/><path fill="#0e6655" d="M 31.792969 18.40625 C 31.8125 18.101562 31.828125 17.800781 31.84375 17.488281 C 32.015625 17.46875 32.164062 17.449219 32.308594 17.4375 C 32.402344 17.429688 32.476562 17.390625 32.46875 17.300781 C 32.460938 17.246094 32.390625 17.199219 32.347656 17.152344 C 32.335938 17.140625 32.316406 17.136719 32.296875 17.132812 C 31.90625 17.042969 31.511719 17.054688 31.121094 17.109375 C 31.019531 17.121094 30.945312 17.191406 30.96875 17.285156 C 30.980469 17.347656 31.058594 17.414062 31.121094 17.433594 C 31.21875 17.46875 31.328125 17.46875 31.464844 17.488281 C 31.457031 17.558594 31.449219 17.609375 31.445312 17.660156 C 31.421875 18.007812 31.390625 18.355469 31.375 18.707031 C 31.367188 18.851562 31.449219 18.949219 31.558594 18.945312 C 31.6875 18.945312 31.746094 18.859375 31.761719 18.746094 C 31.777344 18.632812 31.785156 18.519531 31.792969 18.40625 " fill-opacity="1" fill-rule="nonzero"/><path fill="#0e6655" d="M 31.917969 19.695312 C 31.914062 19.832031 32.035156 19.953125 32.167969 19.949219 C 32.300781 19.949219 32.421875 19.832031 32.425781 19.703125 C 32.429688 19.566406 32.316406 19.449219 32.175781 19.449219 C 32.046875 19.449219 31.921875 19.566406 31.917969 19.695312 " fill-opacity="1" fill-rule="nonzero"/><path fill="#0e6655" d="M 20.257812 22.351562 C 20.132812 22.355469 20.03125 22.472656 20.039062 22.597656 C 20.046875 22.730469 20.160156 22.824219 20.292969 22.808594 C 20.410156 22.796875 20.503906 22.691406 20.5 22.578125 C 20.5 22.453125 20.378906 22.34375 20.257812 22.351562 " fill-opacity="1" fill-rule="nonzero"/><path fill="#0e6655" d="M 38.359375 22.367188 C 38.480469 22.375 38.601562 22.265625 38.601562 22.144531 C 38.605469 22.019531 38.496094 21.910156 38.367188 21.914062 C 38.246094 21.914062 38.152344 22.003906 38.140625 22.121094 C 38.132812 22.25 38.230469 22.363281 38.359375 22.367188 " fill-opacity="1" fill-rule="nonzero"/><path fill="#0e6655" d="M 37.660156 17.949219 C 37.785156 17.949219 37.890625 17.84375 37.890625 17.714844 C 37.890625 17.597656 37.796875 17.5 37.679688 17.5 C 37.550781 17.496094 37.445312 17.601562 37.449219 17.730469 C 37.449219 17.847656 37.546875 17.945312 37.660156 17.949219 " fill-opacity="1" fill-rule="nonzero"/><path fill="#0e6655" d="M 21.417969 17.980469 C 21.324219 17.957031 21.242188 18.0625 21.25 18.164062 C 21.253906 18.265625 21.3125 18.320312 21.414062 18.324219 C 21.511719 18.328125 21.589844 18.238281 21.582031 18.089844 C 21.542969 18.0625 21.484375 17.996094 21.417969 17.980469 " fill-opacity="1" fill-rule="nonzero"/></svg>